<svg xmlns="http://www.w3.org/2000/svg" width="61.586" height="61.587" viewBox="0 0 61.586 61.587">
  <path id="Trazado_6506" data-name="Trazado 6506" d="M60.093,27.164l-4.2-4.2a7.137,7.137,0,0,1-1.814-4.38V12.645A5.148,5.148,0,0,0,48.947,7.51H43.005A7.149,7.149,0,0,1,38.625,5.7l-4.2-4.2a5.148,5.148,0,0,0-7.258,0l-4.2,4.2a7.152,7.152,0,0,1-4.38,1.813H12.648a5.148,5.148,0,0,0-5.133,5.133v5.939A7.148,7.148,0,0,1,5.7,22.964l-4.2,4.2a5.149,5.149,0,0,0,0,7.261l4.2,4.2A7.146,7.146,0,0,1,7.515,43v5.939a5.15,5.15,0,0,0,5.133,5.133h5.939a7.146,7.146,0,0,1,4.38,1.813l4.2,4.2a5.151,5.151,0,0,0,7.258,0l4.2-4.2a7.144,7.144,0,0,1,4.38-1.813h5.942a5.148,5.148,0,0,0,5.133-5.133V43a7.138,7.138,0,0,1,1.814-4.38l4.2-4.2A5.155,5.155,0,0,0,60.093,27.164ZM26.722,42.341,15.4,31.016l3.629-3.628,7.7,7.7L42.564,19.246l3.628,3.628Z" transform="translate(-0.003 0)" fill="#5669fd"/>
</svg>
