<svg xmlns="http://www.w3.org/2000/svg" xmlns:xlink="http://www.w3.org/1999/xlink" width="90" height="90" viewBox="0 0 90 90">
  <defs>
    <linearGradient id="linear-gradient" x1="0.5" y1="1" x2="0.5" gradientUnits="objectBoundingBox">
      <stop offset="0" stop-color="#7484ff"/>
      <stop offset="1" stop-color="#5558ff"/>
    </linearGradient>
  </defs>
  <g id="data-management" transform="translate(-0.942 -0.942)">
    <g id="Grupo_2798" data-name="Grupo 2798" transform="translate(0.942 0.942)">
      <circle id="Elipse_85" data-name="Elipse 85" cx="45" cy="45" r="45" fill="url(#linear-gradient)"/>
    </g>
    <g id="Grupo_2800" data-name="Grupo 2800" transform="translate(19.176 18.904)">
      <g id="Grupo_2799" data-name="Grupo 2799">
        <path id="Trazado_8087" data-name="Trazado 8087" d="M133,143.151h-6.361a1.589,1.589,0,0,0-1.59,1.59v12.723a1.589,1.589,0,0,0,1.59,1.59H133a1.589,1.589,0,0,0,1.59-1.59V144.742A1.59,1.59,0,0,0,133,143.151Zm-12.723,6.362h-6.361a1.589,1.589,0,0,0-1.59,1.59v6.362a1.589,1.589,0,0,0,1.59,1.59h6.361a1.589,1.589,0,0,0,1.59-1.59V151.1a1.589,1.589,0,0,0-1.59-1.59Zm25.446-15.9h-6.361a1.589,1.589,0,0,0-1.59,1.59v22.265a1.589,1.589,0,0,0,1.59,1.59h6.361a1.589,1.589,0,0,0,1.59-1.59V135.2A1.589,1.589,0,0,0,145.719,133.609Zm12.723-9.542H152.08a1.589,1.589,0,0,0-1.59,1.59v31.808a1.589,1.589,0,0,0,1.59,1.59h6.361a1.589,1.589,0,0,0,1.59-1.59V125.657A1.589,1.589,0,0,0,158.442,124.067Zm-18.83,2.229-2.122-1.224a12.321,12.321,0,0,0,0-5.191l2.122-1.224a1.592,1.592,0,0,0,.582-2.173l-3.181-5.511a1.593,1.593,0,0,0-2.173-.582l-2.1,1.212a14.288,14.288,0,0,0-4.518-2.577v-2.454a1.589,1.589,0,0,0-1.59-1.59h-6.361a1.589,1.589,0,0,0-1.59,1.59v2.454a14.285,14.285,0,0,0-4.518,2.577l-2.1-1.212a1.593,1.593,0,0,0-2.173.582l-3.181,5.511a1.592,1.592,0,0,0,.582,2.173l2.122,1.224a12.321,12.321,0,0,0,0,5.191l-2.122,1.224a1.592,1.592,0,0,0-.582,2.173l3.181,5.51a1.594,1.594,0,0,0,2.173.582l2.1-1.212a14.3,14.3,0,0,0,4.518,2.577v2.454a1.589,1.589,0,0,0,1.59,1.59h6.361a1.589,1.589,0,0,0,1.59-1.59v-2.454a14.3,14.3,0,0,0,4.518-2.577l2.1,1.212a1.594,1.594,0,0,0,2.173-.582l3.181-5.51A1.592,1.592,0,0,0,139.612,126.3Zm-16.159,4.133a7.952,7.952,0,1,1,7.952-7.952A7.961,7.961,0,0,1,123.453,130.428Zm0-12.723a4.771,4.771,0,1,0,4.771,4.771A4.776,4.776,0,0,0,123.453,117.705Z" transform="translate(-106.499 -104.982)" fill="#fff"/>
      </g>
    </g>
  </g>
</svg>
