<svg xmlns="http://www.w3.org/2000/svg" width="235.362" height="173" viewBox="0 0 235.362 173">
  <g id="Grupo_2864" data-name="Grupo 2864" transform="translate(-1300.939 -842)">
    <g id="Grupo_2662" data-name="Grupo 2662" transform="translate(1300.939 884.123)">
      <g id="Grupo_2612" data-name="Grupo 2612" transform="translate(0 0)">
        <path id="Trazado_7321" data-name="Trazado 7321" d="M255.232,281.527a87.217,87.217,0,1,0-162.1,0Z" transform="translate(-56.133 -162.04)" fill="#5669fd"/>
        <ellipse id="Elipse_80" data-name="Elipse 80" cx="117.681" cy="7.942" rx="117.681" ry="7.942" transform="translate(0 114.992)" fill="#7b8aff"/>
      </g>
      <g id="Grupo_2661" data-name="Grupo 2661" transform="translate(51.832 16.027)">
        <g id="Grupo_2620" data-name="Grupo 2620" transform="translate(0 0)">
          <g id="Grupo_2616" data-name="Grupo 2616">
            <path id="Trazado_7322" data-name="Trazado 7322" d="M260.553,198.9v67.724H126.788V198.9a6.471,6.471,0,0,1,6.471-6.471H254.082A6.47,6.47,0,0,1,260.553,198.9Z" transform="translate(-126.788 -192.432)" fill="#213e68"/>
            <rect id="Rectángulo_365" data-name="Rectángulo 365" width="133.764" height="33.756" transform="translate(0.022 40.438)" fill="#172d47"/>
            <path id="Trazado_7323" data-name="Trazado 7323" d="M260.084,205.128v58.677a1.459,1.459,0,0,1-1.459,1.458H136.845a1.454,1.454,0,0,1-1.457-1.458V205.128a1.457,1.457,0,0,1,1.457-1.458h121.78a1.459,1.459,0,0,1,1.459,1.458Z" transform="translate(-130.853 -197.744)" fill="#fbfbfb"/>
            <path id="Trazado_7324" data-name="Trazado 7324" d="M260.593,333.124a10.579,10.579,0,0,1-10.58,10.58h-112.6a10.577,10.577,0,0,1-10.58-10.58Z" transform="translate(-126.807 -258.93)" fill="#fbfbfb"/>
            <path id="Trazado_7325" data-name="Trazado 7325" d="M260.469,342.439a10.587,10.587,0,0,1-9.373,5.668h-112.6a10.578,10.578,0,0,1-9.372-5.668Z" transform="translate(-127.89 -263.332)" fill="#d3d3d3"/>
            <rect id="Rectángulo_366" data-name="Rectángulo 366" width="39.55" height="16.5" transform="translate(47.129 84.774)" fill="#a8acb2"/>
            <rect id="Rectángulo_367" data-name="Rectángulo 367" width="39.55" height="6.046" transform="translate(47.129 84.774)" opacity="0.2"/>
            <path id="Trazado_7326" data-name="Trazado 7326" d="M257.183,390.143H189.167a5.668,5.668,0,0,1,5.668-5.668h56.68a5.668,5.668,0,0,1,5.668,5.668Z" transform="translate(-156.271 -283.201)" fill="#bfc7d4"/>
            <g id="Grupo_2615" data-name="Grupo 2615" transform="translate(4.536 5.926)">
              <g id="Grupo_2614" data-name="Grupo 2614">
                <path id="Trazado_7327" data-name="Trazado 7327" d="M260.084,205.128v4.452H135.389v-4.452a1.457,1.457,0,0,1,1.457-1.458h121.78A1.458,1.458,0,0,1,260.084,205.128Z" transform="translate(-135.389 -203.67)" fill="#d3d3d3"/>
                <path id="Trazado_7328" data-name="Trazado 7328" d="M254.659,208.64H186.428a.977.977,0,0,1-.975-.975h0a.977.977,0,0,1,.975-.975h68.231a.978.978,0,0,1,.975.975h0A.978.978,0,0,1,254.659,208.64Z" transform="translate(-159.052 -205.097)" fill="#fbfbfb"/>
                <g id="Grupo_2613" data-name="Grupo 2613" transform="translate(104.752 1.593)">
                  <path id="Trazado_7329" data-name="Trazado 7329" d="M336.022,207.688a1,1,0,1,1-1-1A1,1,0,0,1,336.022,207.688Z" transform="translate(-334.026 -206.69)" fill="#02313d"/>
                  <path id="Trazado_7330" data-name="Trazado 7330" d="M345.528,207.688a1,1,0,1,1-1-1A1,1,0,0,1,345.528,207.688Z" transform="translate(-338.519 -206.69)" fill="#02313d"/>
                  <path id="Trazado_7331" data-name="Trazado 7331" d="M354.065,207.688a1,1,0,1,1-1-1A1,1,0,0,1,354.065,207.688Z" transform="translate(-342.554 -206.69)" fill="#02313d"/>
                </g>
              </g>
            </g>
            <path id="Trazado_7332" data-name="Trazado 7332" d="M254.765,196.942a1.253,1.253,0,1,1-1.253-1.254A1.253,1.253,0,0,1,254.765,196.942Z" transform="translate(-186.091 -193.971)" fill="#36577f"/>
          </g>
          <g id="Grupo_2619" data-name="Grupo 2619" transform="translate(10.643 20.303)">
            <g id="Grupo_2617" data-name="Grupo 2617">
              <path id="Trazado_7333" data-name="Trazado 7333" d="M169.274,233.218H148.113a1.147,1.147,0,0,1-1.143-1.143h0a1.147,1.147,0,0,1,1.143-1.143h21.161a1.147,1.147,0,0,1,1.143,1.143h0A1.147,1.147,0,0,1,169.274,233.218Z" transform="translate(-146.97 -230.931)" fill="#d3d3d3"/>
              <path id="Trazado_7334" data-name="Trazado 7334" d="M169.274,243.81H148.113a1.147,1.147,0,0,1-1.143-1.143h0a1.147,1.147,0,0,1,1.143-1.143h21.161a1.147,1.147,0,0,1,1.143,1.143h0A1.147,1.147,0,0,1,169.274,243.81Z" transform="translate(-146.97 -235.937)" fill="#d3d3d3"/>
              <path id="Trazado_7335" data-name="Trazado 7335" d="M169.274,254.4H148.113a1.147,1.147,0,0,1-1.143-1.143h0a1.147,1.147,0,0,1,1.143-1.143h21.161a1.147,1.147,0,0,1,1.143,1.143h0A1.147,1.147,0,0,1,169.274,254.4Z" transform="translate(-146.97 -240.944)" fill="#d3d3d3"/>
              <path id="Trazado_7336" data-name="Trazado 7336" d="M169.274,264.994H148.113a1.147,1.147,0,0,1-1.143-1.143h0a1.146,1.146,0,0,1,1.143-1.143h21.161a1.146,1.146,0,0,1,1.143,1.143h0A1.147,1.147,0,0,1,169.274,264.994Z" transform="translate(-146.97 -245.95)" fill="#d3d3d3"/>
              <path id="Trazado_7337" data-name="Trazado 7337" d="M169.274,275.586H148.113a1.147,1.147,0,0,1-1.143-1.143h0a1.146,1.146,0,0,1,1.143-1.143h21.161a1.146,1.146,0,0,1,1.143,1.143h0A1.147,1.147,0,0,1,169.274,275.586Z" transform="translate(-146.97 -250.957)" fill="#d3d3d3"/>
              <path id="Trazado_7338" data-name="Trazado 7338" d="M169.274,286.178H148.113a1.146,1.146,0,0,1-1.143-1.143h0a1.147,1.147,0,0,1,1.143-1.143h21.161a1.147,1.147,0,0,1,1.143,1.143h0A1.146,1.146,0,0,1,169.274,286.178Z" transform="translate(-146.97 -255.963)" fill="#d3d3d3"/>
              <path id="Trazado_7339" data-name="Trazado 7339" d="M169.274,296.77H148.113a1.147,1.147,0,0,1-1.143-1.143h0a1.147,1.147,0,0,1,1.143-1.143h21.161a1.147,1.147,0,0,1,1.143,1.143h0A1.147,1.147,0,0,1,169.274,296.77Z" transform="translate(-146.97 -260.969)" fill="#d3d3d3"/>
              <path id="Trazado_7340" data-name="Trazado 7340" d="M169.274,307.363H148.113a1.147,1.147,0,0,1-1.143-1.143h0a1.147,1.147,0,0,1,1.143-1.143h21.161a1.147,1.147,0,0,1,1.143,1.143h0A1.147,1.147,0,0,1,169.274,307.363Z" transform="translate(-146.97 -265.975)" fill="#d3d3d3"/>
            </g>
            <g id="Grupo_2618" data-name="Grupo 2618" transform="translate(88.917)">
              <path id="Trazado_7341" data-name="Trazado 7341" d="M337.883,233.218h-21.16a1.147,1.147,0,0,1-1.143-1.143h0a1.147,1.147,0,0,1,1.143-1.143h21.16a1.147,1.147,0,0,1,1.143,1.143h0A1.147,1.147,0,0,1,337.883,233.218Z" transform="translate(-315.58 -230.931)" fill="#d3d3d3"/>
              <path id="Trazado_7342" data-name="Trazado 7342" d="M337.883,243.81h-21.16a1.147,1.147,0,0,1-1.143-1.143h0a1.147,1.147,0,0,1,1.143-1.143h21.16a1.147,1.147,0,0,1,1.143,1.143h0A1.147,1.147,0,0,1,337.883,243.81Z" transform="translate(-315.58 -235.937)" fill="#d3d3d3"/>
              <path id="Trazado_7343" data-name="Trazado 7343" d="M337.883,254.4h-21.16a1.147,1.147,0,0,1-1.143-1.143h0a1.147,1.147,0,0,1,1.143-1.143h21.16a1.147,1.147,0,0,1,1.143,1.143h0A1.147,1.147,0,0,1,337.883,254.4Z" transform="translate(-315.58 -240.944)" fill="#d3d3d3"/>
              <path id="Trazado_7344" data-name="Trazado 7344" d="M337.883,264.994h-21.16a1.147,1.147,0,0,1-1.143-1.143h0a1.146,1.146,0,0,1,1.143-1.143h21.16a1.146,1.146,0,0,1,1.143,1.143h0A1.147,1.147,0,0,1,337.883,264.994Z" transform="translate(-315.58 -245.95)" fill="#d3d3d3"/>
              <path id="Trazado_7345" data-name="Trazado 7345" d="M337.883,275.586h-21.16a1.146,1.146,0,0,1-1.143-1.143h0a1.146,1.146,0,0,1,1.143-1.143h21.16a1.146,1.146,0,0,1,1.143,1.143h0A1.146,1.146,0,0,1,337.883,275.586Z" transform="translate(-315.58 -250.957)" fill="#d3d3d3"/>
              <path id="Trazado_7346" data-name="Trazado 7346" d="M337.883,286.178h-21.16a1.146,1.146,0,0,1-1.143-1.143h0a1.146,1.146,0,0,1,1.143-1.143h21.16a1.146,1.146,0,0,1,1.143,1.143h0A1.146,1.146,0,0,1,337.883,286.178Z" transform="translate(-315.58 -255.963)" fill="#d3d3d3"/>
              <path id="Trazado_7347" data-name="Trazado 7347" d="M337.883,296.77h-21.16a1.146,1.146,0,0,1-1.143-1.143h0a1.146,1.146,0,0,1,1.143-1.143h21.16a1.146,1.146,0,0,1,1.143,1.143h0A1.146,1.146,0,0,1,337.883,296.77Z" transform="translate(-315.58 -260.969)" fill="#d3d3d3"/>
              <path id="Trazado_7348" data-name="Trazado 7348" d="M337.883,307.363h-21.16a1.147,1.147,0,0,1-1.143-1.143h0a1.147,1.147,0,0,1,1.143-1.143h21.16a1.147,1.147,0,0,1,1.143,1.143h0A1.147,1.147,0,0,1,337.883,307.363Z" transform="translate(-315.58 -265.975)" fill="#d3d3d3"/>
            </g>
          </g>
        </g>
        <g id="Grupo_2660" data-name="Grupo 2660" transform="translate(43.071 17.011)">
          <g id="Grupo_2641" data-name="Grupo 2641" transform="translate(0 18.654)">
            <g id="Grupo_2625" data-name="Grupo 2625">
              <g id="Grupo_2624" data-name="Grupo 2624">
                <g id="Grupo_2623" data-name="Grupo 2623">
                  <g id="Grupo_2622" data-name="Grupo 2622">
                    <g id="Grupo_2621" data-name="Grupo 2621">
                      <path id="Trazado_7349" data-name="Trazado 7349" d="M209.994,263.228c-.179.534-.348,1.071-.519,1.606-.009.029-.015.06-.029.116l1.544-1.132.019-.014.013-.009,1.579,1.16c-.018-.061-.024-.084-.031-.107-.173-.54-.343-1.081-.522-1.618a.163.163,0,0,1,.068-.225c.448-.32.891-.649,1.335-.975.035-.025.068-.052.1-.077,0-.009-.007-.017-.011-.025h-.134c-.555,0-1.111,0-1.666,0a.136.136,0,0,1-.156-.117c-.08-.268-.168-.533-.254-.8l-.309-.95c0,.014-.01.027-.014.04l-.019.053-.029.086c-.169.523-.34,1.046-.5,1.572a.139.139,0,0,1-.159.115c-.56,0-1.12,0-1.679,0-.042,0-.083,0-.156.006.061.047.093.073.127.1.445.325.887.655,1.335.975A.163.163,0,0,1,209.994,263.228Z" transform="translate(-208.463 -260.063)" fill="#ffc733"/>
                    </g>
                  </g>
                </g>
              </g>
            </g>
            <g id="Grupo_2630" data-name="Grupo 2630" transform="translate(2.009 10.047)">
              <g id="Grupo_2629" data-name="Grupo 2629">
                <g id="Grupo_2628" data-name="Grupo 2628">
                  <g id="Grupo_2627" data-name="Grupo 2627">
                    <g id="Grupo_2626" data-name="Grupo 2626">
                      <path id="Trazado_7350" data-name="Trazado 7350" d="M213.8,282.28c-.179.534-.348,1.071-.519,1.606-.009.029-.015.06-.029.116l1.544-1.132.019-.014.013-.01,1.579,1.16c-.018-.061-.023-.084-.031-.107-.173-.54-.343-1.081-.522-1.618a.163.163,0,0,1,.067-.225c.449-.32.891-.649,1.335-.975.035-.025.068-.052.1-.078l-.011-.025h-.134c-.555,0-1.111,0-1.666,0a.135.135,0,0,1-.156-.116c-.08-.268-.169-.533-.254-.8-.1-.309-.2-.616-.308-.95,0,.014-.009.027-.014.039l-.019.054c-.011.032-.02.058-.029.086-.169.523-.34,1.046-.5,1.571a.138.138,0,0,1-.159.115c-.56,0-1.119,0-1.679,0-.042,0-.083,0-.156.006.062.047.094.073.127.1.445.325.887.654,1.336.975A.162.162,0,0,1,213.8,282.28Z" transform="translate(-212.273 -279.115)" fill="#ffc733"/>
                    </g>
                  </g>
                </g>
              </g>
            </g>
            <g id="Grupo_2635" data-name="Grupo 2635" transform="translate(9.518 18.719)">
              <g id="Grupo_2634" data-name="Grupo 2634">
                <g id="Grupo_2633" data-name="Grupo 2633">
                  <g id="Grupo_2632" data-name="Grupo 2632">
                    <g id="Grupo_2631" data-name="Grupo 2631">
                      <path id="Trazado_7351" data-name="Trazado 7351" d="M228.043,298.724c-.179.534-.348,1.071-.519,1.607-.01.029-.015.059-.029.115l1.544-1.132.019-.014.013-.009,1.579,1.16c-.018-.061-.024-.084-.031-.107-.173-.54-.343-1.081-.522-1.618a.163.163,0,0,1,.067-.225c.448-.32.891-.649,1.335-.975.035-.025.067-.052.1-.078,0-.008-.007-.017-.011-.025h-.133c-.556,0-1.111,0-1.667,0a.136.136,0,0,1-.156-.116c-.08-.268-.168-.533-.254-.8-.1-.308-.2-.617-.309-.95,0,.014-.009.027-.014.039l-.019.054c-.011.032-.02.058-.029.086-.169.523-.34,1.046-.5,1.571a.139.139,0,0,1-.159.115c-.56,0-1.12,0-1.679,0-.042,0-.083,0-.156.006.061.047.093.073.127.1.445.325.887.654,1.335.974A.162.162,0,0,1,228.043,298.724Z" transform="translate(-226.512 -295.56)" fill="#ffc733"/>
                    </g>
                  </g>
                </g>
              </g>
            </g>
            <g id="Grupo_2640" data-name="Grupo 2640" transform="translate(20.306 22.315)">
              <g id="Grupo_2639" data-name="Grupo 2639">
                <g id="Grupo_2638" data-name="Grupo 2638">
                  <g id="Grupo_2637" data-name="Grupo 2637">
                    <g id="Grupo_2636" data-name="Grupo 2636">
                      <path id="Trazado_7352" data-name="Trazado 7352" d="M248.5,305.543c-.179.534-.348,1.071-.519,1.606-.009.029-.015.06-.029.116.529-.388,1.036-.76,1.544-1.132l.019-.014.012-.01,1.579,1.16c-.017-.061-.023-.084-.031-.107-.173-.54-.343-1.081-.522-1.618a.163.163,0,0,1,.068-.225c.449-.32.891-.649,1.335-.975l.1-.078-.011-.025h-.134c-.555,0-1.111,0-1.666,0a.136.136,0,0,1-.156-.117c-.08-.268-.169-.533-.254-.8l-.308-.95-.014.04c-.007.019-.014.037-.019.054s-.021.058-.029.085c-.17.523-.34,1.046-.505,1.571a.139.139,0,0,1-.158.115c-.56,0-1.12,0-1.679,0-.042,0-.084,0-.156.006.061.047.093.073.127.1.445.325.887.654,1.335.974A.163.163,0,0,1,248.5,305.543Z" transform="translate(-246.968 -302.378)" fill="#ffc733"/>
                    </g>
                  </g>
                </g>
              </g>
            </g>
          </g>
          <g id="Grupo_2657" data-name="Grupo 2657" transform="translate(31.305 18.654)">
            <g id="Grupo_2646" data-name="Grupo 2646" transform="translate(9.518)">
              <g id="Grupo_2645" data-name="Grupo 2645">
                <g id="Grupo_2644" data-name="Grupo 2644">
                  <g id="Grupo_2643" data-name="Grupo 2643">
                    <g id="Grupo_2642" data-name="Grupo 2642">
                      <path id="Trazado_7353" data-name="Trazado 7353" d="M289.431,263.228c.179.534.348,1.071.519,1.606.009.029.015.06.029.116l-1.544-1.132-.019-.014-.012-.009-1.579,1.16c.017-.061.023-.084.031-.107.173-.54.343-1.081.522-1.618a.163.163,0,0,0-.068-.225c-.449-.32-.891-.649-1.335-.975-.034-.025-.068-.052-.1-.077l.011-.025h.134c.555,0,1.111,0,1.666,0a.136.136,0,0,0,.156-.117c.08-.268.169-.533.254-.8l.308-.95.014.04c.007.02.014.037.019.053.011.032.021.059.03.086.169.523.34,1.046.5,1.572a.139.139,0,0,0,.158.115c.56,0,1.119,0,1.68,0,.042,0,.083,0,.155.006-.061.047-.093.073-.127.1-.445.325-.887.655-1.335.975A.163.163,0,0,0,289.431,263.228Z" transform="translate(-285.874 -260.063)" fill="#ffc733"/>
                    </g>
                  </g>
                </g>
              </g>
            </g>
            <g id="Grupo_2651" data-name="Grupo 2651" transform="translate(7.508 10.047)">
              <g id="Grupo_2650" data-name="Grupo 2650">
                <g id="Grupo_2649" data-name="Grupo 2649">
                  <g id="Grupo_2648" data-name="Grupo 2648">
                    <g id="Grupo_2647" data-name="Grupo 2647">
                      <path id="Trazado_7354" data-name="Trazado 7354" d="M285.621,282.28c.179.534.348,1.071.519,1.606.01.029.015.06.029.116l-1.544-1.132-.019-.014-.013-.01-1.579,1.16c.018-.061.024-.084.031-.107.173-.54.343-1.081.522-1.618a.163.163,0,0,0-.068-.225c-.448-.32-.891-.649-1.335-.975-.035-.025-.068-.052-.1-.078,0-.009.007-.017.011-.025h.134c.555,0,1.111,0,1.666,0a.136.136,0,0,0,.156-.116c.08-.268.168-.533.254-.8.1-.309.2-.616.308-.95,0,.014.01.027.014.039l.019.054c.011.032.02.058.029.086.169.523.34,1.046.5,1.571a.138.138,0,0,0,.159.115c.559,0,1.12,0,1.679,0,.042,0,.083,0,.156.006-.061.047-.093.073-.127.1-.445.325-.887.654-1.335.975A.163.163,0,0,0,285.621,282.28Z" transform="translate(-282.063 -279.115)" fill="#ffc733"/>
                    </g>
                  </g>
                </g>
              </g>
            </g>
            <g id="Grupo_2656" data-name="Grupo 2656" transform="translate(0 18.719)">
              <g id="Grupo_2655" data-name="Grupo 2655">
                <g id="Grupo_2654" data-name="Grupo 2654">
                  <g id="Grupo_2653" data-name="Grupo 2653">
                    <g id="Grupo_2652" data-name="Grupo 2652">
                      <path id="Trazado_7355" data-name="Trazado 7355" d="M271.383,298.724c.179.534.348,1.071.519,1.607.01.029.015.059.029.115l-1.544-1.132-.019-.014-.012-.009-1.58,1.16c.017-.061.023-.084.031-.107.173-.54.343-1.081.522-1.618a.164.164,0,0,0-.068-.225c-.449-.32-.891-.649-1.335-.975-.034-.025-.067-.052-.1-.078l.01-.025h.134c.555,0,1.111,0,1.666,0a.136.136,0,0,0,.156-.116c.08-.268.169-.533.254-.8l.309-.95.014.039.019.054c.011.032.021.058.029.086.169.523.34,1.046.505,1.571a.138.138,0,0,0,.158.115c.56,0,1.12,0,1.679,0,.042,0,.084,0,.156.006-.061.047-.093.073-.127.1-.445.325-.887.654-1.335.974A.163.163,0,0,0,271.383,298.724Z" transform="translate(-267.825 -295.56)" fill="#ffc733"/>
                    </g>
                  </g>
                </g>
              </g>
            </g>
          </g>
          <g id="Grupo_2659" data-name="Grupo 2659" transform="translate(1.584)">
            <g id="Grupo_2658" data-name="Grupo 2658" transform="translate(19.611 8.918)">
              <path id="Trazado_7356" data-name="Trazado 7356" d="M252.89,269.486a4.24,4.24,0,0,1-4.236-4.236V242.978a1.378,1.378,0,1,1,2.756,0v22.273a1.479,1.479,0,1,0,2.959,0v-1.236a1.378,1.378,0,1,1,2.756,0v1.236A4.24,4.24,0,0,1,252.89,269.486Z" transform="translate(-248.654 -241.6)" fill="#172d47"/>
            </g>
            <path id="Trazado_7357" data-name="Trazado 7357" d="M253.45,241.935a3.567,3.567,0,0,0-7.051-.655,3.568,3.568,0,0,0-6.972,0,3.568,3.568,0,0,0-6.973,0,3.568,3.568,0,0,0-6.972,0,3.568,3.568,0,0,0-6.972,0,3.567,3.567,0,0,0-7.045.543c.2-8.385,7.484-15.322,17.075-16.828a25.279,25.279,0,0,1,3.915-.3c7.739,0,14.5,3.486,18.14,8.674h0A15.266,15.266,0,0,1,253.45,241.935Z" transform="translate(-211.466 -224.69)" fill="#7987f5"/>
            <path id="Trazado_7358" data-name="Trazado 7358" d="M253.45,242.207a3.567,3.567,0,0,0-7.051-.655,3.568,3.568,0,0,0-6.972,0,3.568,3.568,0,0,0-6.973,0,3.568,3.568,0,0,0-6.972,0,3.568,3.568,0,0,0-6.972,0,3.567,3.567,0,0,0-7.045.543c.2-8.385,7.484-15.322,17.075-16.828h0s-4.634,1.7-1.779,7.2c2.844,5.476,24.253,2.152,24.43,2.115h0A14.055,14.055,0,0,1,253.45,242.207Z" transform="translate(-211.466 -224.962)" fill="#5669fd"/>
          </g>
        </g>
      </g>
    </g>
    <g id="Grupo_2676" data-name="Grupo 2676" transform="translate(1334.909 842)">
      <g id="Grupo_2675" data-name="Grupo 2675" transform="translate(0 0)">
        <g id="Grupo_2663" data-name="Grupo 2663" transform="translate(139.584 11.009)">
          <path id="Trazado_7359" data-name="Trazado 7359" d="M348.8,92.55V79.495h20.188l-10.7,10.7,11.862,11.862H342.314Z" transform="translate(-342.314 -79.495)" fill="#fa3"/>
          <path id="Trazado_7360" data-name="Trazado 7360" d="M342.314,110.018v-9.5H348.8Z" transform="translate(-342.314 -87.461)" fill="#dc7524"/>
        </g>
        <g id="Grupo_2664" data-name="Grupo 2664" transform="translate(0 11.006)">
          <path id="Trazado_7361" data-name="Trazado 7361" d="M138.911,92.546V79.491H118.723l10.7,10.7-11.862,11.862H145.4Z" transform="translate(-117.557 -79.491)" fill="#fa3"/>
          <path id="Trazado_7362" data-name="Trazado 7362" d="M158.429,110.014v-9.5h-6.488Z" transform="translate(-130.587 -87.457)" fill="#dc7524"/>
        </g>
        <rect id="Rectángulo_368" data-name="Rectángulo 368" width="124.763" height="24.064" transform="translate(21.353 0)" fill="#ffc733"/>
        <rect id="Rectángulo_369" data-name="Rectángulo 369" width="124.777" height="12.032" transform="translate(21.353 0)" fill="#ffd142"/>
        <g id="Grupo_2669" data-name="Grupo 2669" transform="translate(25.905 8.309)">
          <g id="Grupo_2668" data-name="Grupo 2668" transform="translate(0 0)">
            <g id="Grupo_2667" data-name="Grupo 2667">
              <g id="Grupo_2666" data-name="Grupo 2666">
                <g id="Grupo_2665" data-name="Grupo 2665">
                  <path id="Trazado_7363" data-name="Trazado 7363" d="M165.493,80.684c.313.934.608,1.874.909,2.811.017.051.027.1.051.2l-2.7-1.981-.034-.024-.022-.016c-.912.668-1.81,1.33-2.763,2.029.031-.106.041-.147.054-.187.3-.945.6-1.891.913-2.831a.286.286,0,0,0-.119-.394c-.784-.559-1.558-1.135-2.335-1.705-.061-.044-.118-.091-.178-.136.006-.015.012-.03.019-.044h.234c.971,0,1.943,0,2.916,0a.238.238,0,0,0,.273-.2c.14-.468.295-.932.445-1.4.174-.54.35-1.079.539-1.663.008.024.017.048.024.069l.034.094c.019.055.035.1.05.15.3.915.595,1.83.883,2.749a.244.244,0,0,0,.278.2c.979-.008,1.959,0,2.938,0,.073,0,.146.007.272.011-.107.083-.163.127-.222.17-.778.57-1.551,1.145-2.336,1.7A.285.285,0,0,0,165.493,80.684Z" transform="translate(-159.269 -75.148)" fill="#213e68"/>
                </g>
              </g>
            </g>
          </g>
        </g>
        <g id="Grupo_2674" data-name="Grupo 2674" transform="translate(131.942 8.309)">
          <g id="Grupo_2673" data-name="Grupo 2673" transform="translate(0 0)">
            <g id="Grupo_2672" data-name="Grupo 2672">
              <g id="Grupo_2671" data-name="Grupo 2671">
                <g id="Grupo_2670" data-name="Grupo 2670">
                  <path id="Trazado_7364" data-name="Trazado 7364" d="M336.234,80.684c.312.934.608,1.874.909,2.811.016.051.026.1.05.2l-2.7-1.981-.033-.024-.022-.016c-.912.668-1.81,1.33-2.763,2.029.031-.106.041-.147.054-.187.3-.945.6-1.891.913-2.831a.286.286,0,0,0-.118-.394c-.785-.559-1.558-1.135-2.335-1.705-.061-.044-.119-.091-.178-.136.007-.015.012-.03.019-.044h.235c.971,0,1.943,0,2.915,0a.239.239,0,0,0,.273-.2c.14-.468.3-.932.444-1.4.175-.54.35-1.079.54-1.663.007.024.016.048.024.069l.033.094c.019.055.035.1.051.15.3.915.594,1.83.883,2.749a.244.244,0,0,0,.278.2c.979-.008,1.958,0,2.938,0,.073,0,.146.007.272.011-.107.083-.164.127-.222.17-.778.57-1.552,1.145-2.336,1.7A.285.285,0,0,0,336.234,80.684Z" transform="translate(-330.009 -75.148)" fill="#213e68"/>
                </g>
              </g>
            </g>
          </g>
        </g>
      </g>
      <text id="EU_GDPR" data-name="EU GDPR" transform="translate(56.064 17)" fill="#172d47" font-size="15" font-family="SegoeUI-Bold, Segoe UI" font-weight="700"><tspan x="0" y="0">EU GDPR</tspan></text>
    </g>
  </g>
</svg>
