<svg xmlns="http://www.w3.org/2000/svg" width="52" height="52" viewBox="0 0 52 52">
  <g id="Grupo_2837" data-name="Grupo 2837" transform="translate(0)">
    <circle id="Elipse_39" data-name="Elipse 39" cx="26" cy="26" r="26" transform="translate(0)" fill="#5669fd"/>
    <path id="Icon_awesome-linkedin-in" data-name="Icon awesome-linkedin-in" d="M4.925,22H.363V7.313H4.925ZM2.642,5.309A2.654,2.654,0,1,1,5.283,2.642,2.664,2.664,0,0,1,2.642,5.309ZM22,22H17.444v-7.15c0-1.7-.034-3.889-2.371-3.889-2.371,0-2.735,1.851-2.735,3.767V22H7.782V7.313h4.375v2h.064a4.793,4.793,0,0,1,4.316-2.372c4.616,0,5.465,3.04,5.465,6.988V22Z" transform="translate(15 13.999)" fill="#fff"/>
  </g>
</svg>
