<svg xmlns="http://www.w3.org/2000/svg" width="69.076" height="90" viewBox="0 0 69.076 90">
  <g id="insurance" transform="translate(0 0)">
    <g id="Grupo_788" data-name="Grupo 788">
      <g id="Grupo_787" data-name="Grupo 787">
        <path id="Trazado_3177" data-name="Trazado 3177" d="M174.644,136.879a13.284,13.284,0,1,0,13.284,13.284A13.3,13.3,0,0,0,174.644,136.879Zm7.192,12.505-7.97,7.97a2.656,2.656,0,0,1-3.757,0l-2.657-2.657a2.656,2.656,0,1,1,3.757-3.757l.778.778,6.092-6.092a2.656,2.656,0,0,1,3.757,3.756Zm24.689-29.93c-14.705,0-29.946-13.631-30.1-13.769a2.662,2.662,0,0,0-3.565,0c-.153.137-15.393,13.769-30.1,13.769a2.655,2.655,0,0,0-2.657,2.657v31.64c0,25.039,17.951,35.1,33.591,41.076a2.668,2.668,0,0,0,1.894,0c15.639-5.973,33.591-16.036,33.591-41.076v-31.64A2.655,2.655,0,0,0,206.525,119.455ZM174.644,168.76a18.6,18.6,0,1,1,18.6-18.6A18.62,18.62,0,0,1,174.644,168.76Z" transform="translate(-140.106 -105.001)" fill="#5669fd"/>
      </g>
    </g>
  </g>
</svg>
