<svg xmlns="http://www.w3.org/2000/svg" xmlns:xlink="http://www.w3.org/1999/xlink" width="90" height="90" viewBox="0 0 90 90">
  <defs>
    <linearGradient id="linear-gradient" x1="0.5" x2="0.5" y2="1" gradientUnits="objectBoundingBox">
      <stop offset="0" stop-color="#5669fd"/>
      <stop offset="1" stop-color="#7b8aff"/>
    </linearGradient>
  </defs>
  <g id="settings" transform="translate(-105 -105)">
    <g id="Grupo_2796" data-name="Grupo 2796" transform="translate(105 105)">
      <g id="Grupo_2795" data-name="Grupo 2795" transform="translate(0 0)">
        <path id="Trazado_8080" data-name="Trazado 8080" d="M150,142.059A7.941,7.941,0,1,0,157.941,150,7.95,7.95,0,0,0,150,142.059Zm24.671,1.739,3.4-2.12-2.337-5.64-3.893.9a2.66,2.66,0,0,1-2.725-1.006,23.882,23.882,0,0,0-5.046-5.046,2.65,2.65,0,0,1-1.008-2.727l.9-3.9-5.635-2.334-2.125,3.4a2.7,2.7,0,0,1-2.647,1.215,23.516,23.516,0,0,0-7.073-.005,2.722,2.722,0,0,1-2.678-1.21l-2.125-3.4-5.635,2.334.9,3.9a2.65,2.65,0,0,1-1.008,2.727,23.881,23.881,0,0,0-5.046,5.046,2.649,2.649,0,0,1-2.73,1.006l-3.888-.9-2.337,5.64,3.4,2.12a2.647,2.647,0,0,1,1.215,2.642,23.677,23.677,0,0,0-.367,3.559,22.563,22.563,0,0,0,.357,3.466,2.8,2.8,0,0,1-1.2,2.735l-3.4,2.119,2.337,5.64,3.893-.9a2.686,2.686,0,0,1,2.725,1.006,23.882,23.882,0,0,0,5.046,5.046,2.65,2.65,0,0,1,1.008,2.727l-.9,3.9,5.635,2.334,2.125-3.4a2.636,2.636,0,0,1,2.647-1.215,23.516,23.516,0,0,0,7.073.005,2.691,2.691,0,0,1,2.678,1.21l2.125,3.4,5.635-2.334-.9-3.9a2.65,2.65,0,0,1,1.008-2.727,23.881,23.881,0,0,0,5.046-5.046,2.682,2.682,0,0,1,2.725-1.006l3.893.9,2.337-5.64-3.4-2.119a2.647,2.647,0,0,1-1.215-2.642,23.681,23.681,0,0,0,.367-3.559,22.563,22.563,0,0,0-.357-3.466,2.8,2.8,0,0,1,1.2-2.735ZM150,163.235A13.235,13.235,0,1,1,163.235,150,13.249,13.249,0,0,1,150,163.235ZM150,105a45,45,0,1,0,45,45A45.052,45.052,0,0,0,150,105Zm33.817,53.277-4.053,9.782a2.654,2.654,0,0,1-3.04,1.567l-4.441-1.029a29.386,29.386,0,0,1-3.686,3.686l1.029,4.441a2.65,2.65,0,0,1-1.567,3.042l-9.782,4.051a2.644,2.644,0,0,1-3.257-1.044l-2.4-3.839a21.164,21.164,0,0,1-5.242,0l-2.4,3.839a2.644,2.644,0,0,1-3.257,1.044l-9.782-4.051a2.65,2.65,0,0,1-1.567-3.042l1.029-4.441a29.4,29.4,0,0,1-3.686-3.686l-4.441,1.029a2.648,2.648,0,0,1-3.04-1.567l-4.053-9.782a2.65,2.65,0,0,1,1.044-3.26l3.836-2.4a21.147,21.147,0,0,1-.181-2.621,21.875,21.875,0,0,1,.181-2.621l-3.836-2.4a2.649,2.649,0,0,1-1.044-3.26l4.053-9.784a2.641,2.641,0,0,1,3.045-1.567l4.436,1.031a29.364,29.364,0,0,1,3.686-3.686l-1.029-4.441a2.65,2.65,0,0,1,1.567-3.042l9.782-4.051a2.644,2.644,0,0,1,3.257,1.044l2.4,3.839a21.164,21.164,0,0,1,5.242,0l2.4-3.839a2.635,2.635,0,0,1,3.257-1.044l9.782,4.051a2.65,2.65,0,0,1,1.567,3.042l-1.029,4.441a29.383,29.383,0,0,1,3.686,3.686l4.441-1.029a2.654,2.654,0,0,1,3.04,1.567l4.053,9.782a2.649,2.649,0,0,1-1.044,3.26l-3.836,2.4a21.146,21.146,0,0,1,.181,2.621,21.865,21.865,0,0,1-.181,2.621l3.836,2.4a2.65,2.65,0,0,1,1.044,3.26Z" transform="translate(-105 -105)" fill="url(#linear-gradient)"/>
      </g>
    </g>
  </g>
</svg>
