<svg xmlns="http://www.w3.org/2000/svg" width="52" height="52" viewBox="0 0 52 52">
  <g id="Grupo_2836" data-name="Grupo 2836" transform="translate(0)">
    <circle id="Elipse_40" data-name="Elipse 40" cx="26" cy="26" r="26" transform="translate(0)" fill="#5669fd"/>
    <path id="Icon_awesome-twitter" data-name="Icon awesome-twitter" d="M24.7,8.953c.017.245.017.489.017.734,0,7.459-5.677,16.053-16.053,16.053A15.944,15.944,0,0,1,0,23.207a11.672,11.672,0,0,0,1.362.07,11.3,11.3,0,0,0,7-2.411,5.652,5.652,0,0,1-5.275-3.913,7.115,7.115,0,0,0,1.066.087,5.967,5.967,0,0,0,1.485-.192,5.643,5.643,0,0,1-4.524-5.537v-.07a5.682,5.682,0,0,0,2.55.716A5.651,5.651,0,0,1,1.921,4.411a16.038,16.038,0,0,0,11.634,5.9,6.369,6.369,0,0,1-.14-1.293,5.648,5.648,0,0,1,9.765-3.86A11.108,11.108,0,0,0,26.761,3.8a5.627,5.627,0,0,1-2.48,3.109,11.311,11.311,0,0,0,3.249-.873A12.128,12.128,0,0,1,24.7,8.953Z" transform="translate(12.659 11.148)" fill="#fff"/>
  </g>
</svg>
