<svg xmlns="http://www.w3.org/2000/svg" xmlns:xlink="http://www.w3.org/1999/xlink" width="458" height="458.38" viewBox="0 0 458 458.38">
  <defs>
    <linearGradient id="linear-gradient" x1="0.397" y1="-0.354" x2="-0.376" y2="1.649" gradientUnits="objectBoundingBox">
      <stop offset="0" stop-color="#4f52ff"/>
      <stop offset="1" stop-color="#4042e2"/>
    </linearGradient>
    <linearGradient id="linear-gradient-2" x1="-0.898" y1="0.932" x2="-0.675" y2="-0.163" gradientUnits="objectBoundingBox">
      <stop offset="0" stop-color="#09005d"/>
      <stop offset="1" stop-color="#1a0f91"/>
    </linearGradient>
    <linearGradient id="linear-gradient-3" x1="-0.284" y1="-1.658" x2="-1.176" y2="3.408" xlink:href="#linear-gradient-2"/>
    <linearGradient id="linear-gradient-4" x1="1.547" y1="-0.453" x2="1.146" y2="-0.125" gradientUnits="objectBoundingBox">
      <stop offset="0" stop-color="#ff928e"/>
      <stop offset="1" stop-color="#fe7062"/>
    </linearGradient>
    <linearGradient id="linear-gradient-5" x1="5.381" y1="0.417" x2="6.04" y2="1.226" xlink:href="#linear-gradient-2"/>
    <linearGradient id="linear-gradient-6" x1="7.783" y1="0.26" x2="9.144" y2="1.995" xlink:href="#linear-gradient-2"/>
    <linearGradient id="linear-gradient-7" x1="1.61" y1="0.212" x2="1.158" y2="0.899" gradientUnits="objectBoundingBox">
      <stop offset="0" stop-color="#febbba"/>
      <stop offset="1" stop-color="#ff928e"/>
    </linearGradient>
    <linearGradient id="linear-gradient-8" x1="1.576" y1="-0.457" x2="0.358" y2="0.524" xlink:href="#linear-gradient-4"/>
    <linearGradient id="linear-gradient-9" x1="0.755" y1="0.791" x2="1.452" y2="-1.379" xlink:href="#linear-gradient-7"/>
    <linearGradient id="linear-gradient-10" x1="-2.192" y1="1.062" x2="-2.081" y2="0.1" xlink:href="#linear-gradient-7"/>
    <linearGradient id="linear-gradient-11" x1="-0.618" y1="0.82" x2="-0.929" y2="-0.114" xlink:href="#linear-gradient-7"/>
    <linearGradient id="linear-gradient-12" x1="-0.349" y1="-0.467" x2="-0.172" y2="0.954" xlink:href="#linear-gradient-2"/>
    <linearGradient id="linear-gradient-13" x1="-8.072" y1="2.058" x2="-9.545" y2="-0.895" xlink:href="#linear-gradient-7"/>
    <linearGradient id="linear-gradient-14" x1="3.36" y1="0.5" x2="4.36" y2="0.5" xlink:href="#linear-gradient-2"/>
    <linearGradient id="linear-gradient-15" x1="2.391" y1="-0.604" x2="1.651" y2="0.973" xlink:href="#linear-gradient-2"/>
    <linearGradient id="linear-gradient-16" x1="2.382" y1="-4.979" x2="-0.903" y2="4.529" gradientUnits="objectBoundingBox">
      <stop offset="0" stop-color="#e1473d"/>
      <stop offset="1" stop-color="#e9605a"/>
    </linearGradient>
    <linearGradient id="linear-gradient-17" x1="1.098" y1="-5.386" x2="0.088" y2="4.552" xlink:href="#linear-gradient-16"/>
    <linearGradient id="linear-gradient-18" x1="0.87" y1="-5.586" x2="0.313" y2="3.494" xlink:href="#linear-gradient-16"/>
  </defs>
  <g id="Grupo_2793" data-name="Grupo 2793" transform="translate(-463.815 -455)">
    <g id="Grupo_2773" data-name="Grupo 2773" transform="translate(463.815 585.065)">
      <path id="Trazado_8030" data-name="Trazado 8030" d="M466.338,1411.421c7.26-30.985,31-55.309,61.219-62.747a83.762,83.762,0,0,1,57.56,5.917,9.754,9.754,0,0,0,13.777-6.516c14.894-59.193,67.313-102.923,129.7-102.923,73.973,0,133.939,61.485,133.939,137.331,0,2.013-.04,4.763-.074,7.4.262,5.672,2.677,8.08,6.282,8.685,28.982,3.093,51.759,27.59,53.023,57.806,1.451,34.694-26.089,63.438-59.957,63.438H548.53C494.9,1519.813,452.913,1468.721,466.338,1411.421Z" transform="translate(-463.815 -1245.151)" fill="url(#linear-gradient)"/>
      <path id="Trazado_8031" data-name="Trazado 8031" d="M615.107,1572.365c6.482-27.666,27.677-49.383,54.661-56.025a74.788,74.788,0,0,1,51.393,5.283,8.709,8.709,0,0,0,12.3-5.818c13.3-52.852,60.1-91.9,115.8-91.9,66.048,0,119.59,54.9,119.59,122.619,0,1.8-.035,4.253-.066,6.61.234,5.064,2.391,7.214,5.61,7.754,25.877,2.761,46.214,24.635,47.342,51.613,1.3,30.977-23.294,56.642-53.534,56.642H688.494C640.611,1669.145,603.12,1623.526,615.107,1572.365Z" transform="translate(-588.321 -1394.483)" fill="#91b3fa" opacity="0.21"/>
    </g>
    <g id="Grupo_2778" data-name="Grupo 2778" transform="translate(506.703 739.802)">
      <path id="Trazado_8032" data-name="Trazado 8032" d="M830.079,2342.226a4.632,4.632,0,0,0,4.621,4.616h249.873a4.632,4.632,0,0,0,4.621-4.616l2.079-143.6a8.047,8.047,0,0,0-8.474-7.123l-244.2-6.319a11.644,11.644,0,0,0-11.948,11.909Z" transform="translate(-809.808 -2185.185)" fill="url(#linear-gradient-2)"/>
      <path id="Trazado_8033" data-name="Trazado 8033" d="M857.546,2365.587a4.384,4.384,0,0,0,4.372,4.372h239.535a4.384,4.384,0,0,0,4.371-4.372l1.962-130.357c-.231-7.844-7.109-10.664-11.278-10.5l-234.047-6.279a8.184,8.184,0,0,0-8.4,8.375Z" transform="translate(-832.713 -2212.974)" fill="#7d97f4"/>
      <g id="Grupo_2774" data-name="Grupo 2774" transform="translate(186.176 12.237)">
        <path id="Trazado_8034" data-name="Trazado 8034" d="M2364.545,2675.937h-.006a.641.641,0,0,1-.634-.65l.155-10.572a.641.641,0,0,1,.64-.631h.006a.641.641,0,0,1,.635.65l-.155,10.572A.641.641,0,0,1,2364.545,2675.937Z" transform="translate(-2280.199 -2597.49)" fill="#fff"/>
        <path id="Trazado_8035" data-name="Trazado 8035" d="M1940.118,2312.068h-.009a.641.641,0,0,1-.631-.65l.594-40.49a7.6,7.6,0,0,0-2.17-5.695c-2.667-2.555-6.9-2.425-7.08-2.417l-74.807-2.006a.64.64,0,0,1-.623-.657.613.613,0,0,1,.658-.623l74.762,2.006c.465-.027,4.974-.105,7.976,2.771a8.844,8.844,0,0,1,2.565,6.626l-.595,40.5A.641.641,0,0,1,1940.118,2312.068Z" transform="translate(-1855.391 -2259.528)" fill="#fff"/>
      </g>
      <rect id="Rectángulo_388" data-name="Rectángulo 388" width="294.591" height="12.617" rx="5.654" transform="translate(294.591 173.578) rotate(180)" fill="url(#linear-gradient-3)"/>
      <path id="Trazado_8036" data-name="Trazado 8036" d="M1007.247,2426.786H915.02a6.157,6.157,0,0,1-6.157-6.157V2300.244a6.157,6.157,0,0,1,6.393-6.153l92.227,3.529a6.157,6.157,0,0,1,5.922,6.153v116.855A6.157,6.157,0,0,1,1007.247,2426.786Z" transform="translate(-878.493 -2276.161)" fill="#91b3fa"/>
      <g id="Grupo_2775" data-name="Grupo 2775" transform="translate(48.442 65.156)">
        <rect id="Rectángulo_389" data-name="Rectángulo 389" width="62.846" height="8.119" rx="4.059" fill="#fff" opacity="0.51"/>
        <rect id="Rectángulo_390" data-name="Rectángulo 390" width="62.846" height="8.119" rx="4.059" transform="translate(0.124 12.965)" fill="#fff" opacity="0.51"/>
        <rect id="Rectángulo_391" data-name="Rectángulo 391" width="62.846" height="8.119" rx="4.059" transform="translate(0.492 26.202)" fill="#fff" opacity="0.51"/>
        <rect id="Rectángulo_392" data-name="Rectángulo 392" width="62.846" height="8.119" rx="4.059" transform="translate(0.615 39.167)" fill="#fff" opacity="0.51"/>
      </g>
      <g id="Grupo_2777" data-name="Grupo 2777" transform="translate(154.91 22.046)">
        <rect id="Rectángulo_393" data-name="Rectángulo 393" width="90.353" height="8.119" rx="4.059" transform="translate(0 43.1)" fill="#fff" opacity="0.51"/>
        <rect id="Rectángulo_394" data-name="Rectángulo 394" width="90.353" height="8.119" rx="4.059" transform="translate(0.279 56.075)" fill="#fff" opacity="0.51"/>
        <rect id="Rectángulo_395" data-name="Rectángulo 395" width="53.539" height="8.119" rx="4.059" transform="translate(0.279 69.312)" fill="#fff" opacity="0.51"/>
        <g id="Grupo_2776" data-name="Grupo 2776" transform="translate(23.824)" opacity="0.51">
          <path id="Trazado_8037" data-name="Trazado 8037" d="M1849.8,2331.958h-1.376a1.237,1.237,0,0,1-1.237-1.237v-4.7a3.049,3.049,0,0,0-3.049-3.049h-8.528a3.049,3.049,0,0,0-3.049,3.049v4.7a1.237,1.237,0,0,1-1.237,1.237h-1.376a1.237,1.237,0,0,1-1.237-1.237v-4.7a6.9,6.9,0,0,1,6.9-6.9h8.528a6.9,6.9,0,0,1,6.9,6.9v4.7A1.237,1.237,0,0,1,1849.8,2331.958Z" transform="translate(-1825.658 -2319.116)" fill="#fff"/>
          <path id="Trazado_8038" data-name="Trazado 8038" d="M1836.026,2403.874h-23.265a2.581,2.581,0,0,0-2.581,2.582v17.855a2.581,2.581,0,0,0,2.581,2.582h23.265a2.581,2.581,0,0,0,2.581-2.582v-17.855A2.581,2.581,0,0,0,1836.026,2403.874Zm-8.3,17.257a.956.956,0,0,1-.93,1.18H1822a.956.956,0,0,1-.93-1.18l1.119-4.66a4.313,4.313,0,1,1,4.418,0Z" transform="translate(-1810.18 -2389.922)" fill="#fff"/>
        </g>
      </g>
    </g>
    <g id="Grupo_2787" data-name="Grupo 2787" transform="translate(639.245 455)">
      <g id="Grupo_2782" data-name="Grupo 2782" transform="translate(0 0)">
        <g id="Grupo_2779" data-name="Grupo 2779" transform="translate(0 89.011)">
          <path id="Trazado_8039" data-name="Trazado 8039" d="M2365.439,1115.276a.548.548,0,0,1-.269-.07.554.554,0,0,1-.215-.753q.535-.963,1.038-1.938a.554.554,0,1,1,.985.509q-.511.99-1.054,1.968A.554.554,0,0,1,2365.439,1115.276Z" transform="translate(-2227.384 -1093.043)" fill="#91b3fa"/>
          <path id="Trazado_8040" data-name="Trazado 8040" d="M1615.1,1101.711c-.328,0-.654,0-.982-.007a.554.554,0,0,1,.008-1.108h.008c1.434.019,2.881,0,4.312-.069a.562.562,0,0,1,.578.529.554.554,0,0,1-.529.578C1617.368,1101.685,1616.226,1101.711,1615.1,1101.711Zm-8.021-.432a.582.582,0,0,1-.06,0c-1.448-.157-2.907-.358-4.336-.6a.554.554,0,0,1,.183-1.093c1.409.237,2.846.435,4.273.589a.554.554,0,0,1-.059,1.105Zm18.42-.3a.554.554,0,0,1-.077-1.1c1.419-.2,2.849-.444,4.251-.727a.554.554,0,1,1,.219,1.087c-1.424.287-2.876.535-4.315.738A.552.552,0,0,1,1625.5,1100.981Zm-29.623-1.791a.554.554,0,0,1-.144-.019c-1.4-.375-2.815-.8-4.194-1.253a.554.554,0,1,1,.348-1.052c1.358.449,2.748.865,4.131,1.234a.554.554,0,0,1-.142,1.089Zm40.754-.663a.554.554,0,0,1-.161-1.084c1.373-.416,2.749-.878,4.09-1.372a.554.554,0,1,1,.383,1.04c-1.361.5-2.758.97-4.151,1.393A.558.558,0,0,1,1636.629,1098.527Zm-51.506-3.116a.551.551,0,0,1-.223-.047c-1.333-.587-2.662-1.221-3.951-1.883a.554.554,0,0,1,.506-.986c1.27.652,2.579,1.276,3.892,1.855a.554.554,0,0,1-.224,1.061Zm62.126-1.022a.554.554,0,0,1-.241-1.054c1.289-.621,2.578-1.289,3.83-1.987a.554.554,0,1,1,.539.969c-1.271.708-2.579,1.386-3.888,2.017A.55.55,0,0,1,1647.25,1094.389Zm-72.165-4.366a.551.551,0,0,1-.3-.088c-1.224-.785-2.439-1.616-3.613-2.47a.554.554,0,1,1,.653-.9c1.155.842,2.353,1.66,3.559,2.433a.554.554,0,0,1-.3,1.021Zm82.019-1.362a.554.554,0,0,1-.315-1.01c1.179-.813,2.35-1.672,3.479-2.553a.554.554,0,1,1,.682.875c-1.147.894-2.335,1.765-3.531,2.591A.556.556,0,0,1,1657.1,1088.66Zm-91.1-5.509a.553.553,0,0,1-.367-.139c-1.084-.96-2.159-1.968-3.192-3a.554.554,0,1,1,.781-.786c1.018,1.012,2.077,2.005,3.146,2.951a.554.554,0,0,1-.368.969Zm99.97-1.664a.554.554,0,0,1-.38-.957c1.043-.984,2.069-2.009,3.051-3.049a.554.554,0,0,1,.806.761c-1,1.055-2.038,2.1-3.1,3.094A.555.555,0,0,1,1665.97,1081.488Zm-107.906-6.518a.554.554,0,0,1-.427-.2c-.928-1.115-1.838-2.273-2.7-3.443a.555.555,0,1,1,.892-.659c.852,1.153,1.747,2.3,2.662,3.394a.554.554,0,0,1-.425.909Zm115.576-1.909a.554.554,0,0,1-.437-.895c.883-1.134,1.74-2.3,2.548-3.479a.554.554,0,0,1,.914.628c-.821,1.193-1.691,2.382-2.587,3.532A.554.554,0,0,1,1673.64,1073.06Zm-122.179-7.381a.553.553,0,0,1-.476-.269c-.751-1.251-1.472-2.535-2.143-3.819a.554.554,0,0,1,.983-.513c.66,1.264,1.37,2.529,2.11,3.761a.554.554,0,0,1-.475.839Zm-5.095-10.2a.555.555,0,0,1-.513-.346c-.548-1.35-1.062-2.731-1.527-4.1a.554.554,0,1,1,1.05-.355c.458,1.351.963,2.711,1.5,4.042a.554.554,0,0,1-.514.763Z" transform="translate(-1541.871 -1041.321)" fill="#91b3fa"/>
          <path id="Trazado_8041" data-name="Trazado 8041" d="M1530.587,999.017a.554.554,0,0,1-.539-.427q-.255-1.088-.478-2.18a.554.554,0,0,1,1.086-.221q.219,1.076.471,2.148a.554.554,0,0,1-.413.666A.568.568,0,0,1,1530.587,999.017Z" transform="translate(-1529.559 -995.744)" fill="#91b3fa"/>
        </g>
        <g id="Grupo_2780" data-name="Grupo 2780" transform="translate(9.87)">
          <path id="Trazado_8042" data-name="Trazado 8042" d="M1590.076,657.257a.554.554,0,0,1-.468-.85q.594-.942,1.217-1.87a.554.554,0,1,1,.92.618q-.615.915-1.2,1.843A.553.553,0,0,1,1590.076,657.257Z" transform="translate(-1589.522 -621.486)" fill="#91b3fa"/>
          <path id="Trazado_8043" data-name="Trazado 8043" d="M1752.714,509.335a.555.555,0,0,1-.532-.4c-.423-1.444-.9-2.894-1.41-4.31a.554.554,0,0,1,1.042-.377c.52,1.436,1,2.908,1.431,4.375a.554.554,0,0,1-.532.71Zm-4.294-11.186a.554.554,0,0,1-.5-.314c-.654-1.36-1.357-2.714-2.09-4.024a.554.554,0,1,1,.968-.541c.744,1.33,1.458,2.7,2.122,4.085a.554.554,0,0,1-.5.794Zm-6.052-10.342a.553.553,0,0,1-.455-.237c-.862-1.231-1.775-2.454-2.714-3.633a.554.554,0,0,1,.867-.691c.953,1.2,1.88,2.438,2.755,3.688a.554.554,0,0,1-.453.872Zm-117.934-4.837a.554.554,0,0,1-.426-.908c.973-1.171,2-2.332,3.047-3.45a.554.554,0,0,1,.808.759c-1.034,1.1-2.044,2.245-3,3.4A.554.554,0,0,1,1624.433,482.971Zm110.3-4.4a.553.553,0,0,1-.4-.168c-1.044-1.076-2.139-2.138-3.254-3.155a.554.554,0,1,1,.747-.819c1.132,1.033,2.243,2.109,3.3,3.2a.554.554,0,0,1-.4.94Zm-101.93-4.18a.554.554,0,0,1-.365-.971c1.153-1.007,2.35-1.991,3.558-2.923a.554.554,0,1,1,.677.878c-1.19.918-2.37,1.887-3.506,2.88A.552.552,0,0,1,1632.8,474.394Zm92.924-3.717a.555.555,0,0,1-.33-.109c-1.208-.9-2.459-1.769-3.719-2.589a.554.554,0,1,1,.6-.929c1.279.833,2.55,1.717,3.776,2.628a.554.554,0,0,1-.331,1Zm-83.295-3.42a.554.554,0,0,1-.293-1.024c1.3-.807,2.636-1.585,3.982-2.312a.554.554,0,1,1,.527.975c-1.326.716-2.646,1.482-3.924,2.277A.549.549,0,0,1,1642.43,467.258Zm73.131-2.918a.545.545,0,0,1-.253-.062c-1.336-.689-2.712-1.345-4.091-1.951a.554.554,0,0,1,.446-1.014c1.4.615,2.8,1.281,4.152,1.981a.554.554,0,0,1-.254,1.047Zm-62.477-2.569a.554.554,0,0,1-.213-1.066c1.408-.585,2.856-1.135,4.3-1.634a.554.554,0,0,1,.361,1.048c-1.427.492-2.853,1.034-4.24,1.611A.557.557,0,0,1,1653.084,461.771Zm51.421-2.039a.555.555,0,0,1-.171-.027c-1.43-.464-2.9-.889-4.353-1.265a.554.554,0,0,1,.276-1.074c1.48.382,2.967.813,4.419,1.284a.554.554,0,0,1-.171,1.081Zm-40.02-1.646a.554.554,0,0,1-.127-1.094c1.49-.351,3.008-.66,4.511-.917a.554.554,0,0,1,.187,1.092c-1.481.253-2.976.557-4.444.9A.567.567,0,0,1,1664.485,458.085Zm28.364-1.118a.544.544,0,0,1-.084-.007c-1.488-.228-3-.413-4.5-.549a.554.554,0,0,1,.1-1.1c1.521.139,3.059.326,4.569.558a.554.554,0,0,1-.083,1.1Zm-16.517-.68a.554.554,0,0,1-.038-1.107c1.522-.107,3.069-.168,4.6-.181h0a.554.554,0,0,1,.005,1.108c-1.508.013-3.032.073-4.531.178Z" transform="translate(-1618.224 -455)" fill="#91b3fa"/>
          <path id="Trazado_8044" data-name="Trazado 8044" d="M2414.642,825.7a.555.555,0,0,1-.547-.469q-.168-1.085-.371-2.167a.554.554,0,1,1,1.09-.2q.2,1.1.376,2.2a.554.554,0,0,1-.462.633A.581.581,0,0,1,2414.642,825.7Z" transform="translate(-2278.045 -761.932)" fill="#91b3fa"/>
        </g>
        <g id="Grupo_2781" data-name="Grupo 2781" transform="translate(15.388 17.708)">
          <path id="Trazado_8045" data-name="Trazado 8045" d="M1737.8,617.914a.89.89,0,0,0-.532-.886l-9.935-4.315a47.181,47.181,0,0,0-4.73-14.536l5.482-9.333a.89.89,0,0,0-.091-1.029l-8.445-9.873a.89.89,0,0,0-1-.25l-10.07,3.97a47.182,47.182,0,0,0-13.628-6.924l-2.725-10.483a.889.889,0,0,0-.792-.663l-12.953-1.009a.89.89,0,0,0-.885.533l-4.316,9.934a47.189,47.189,0,0,0-14.536,4.73l-9.333-5.482a.889.889,0,0,0-1.029.091l-9.873,8.445a.89.89,0,0,0-.249,1l3.971,10.07a47.176,47.176,0,0,0-6.925,13.628l-10.483,2.725a.89.89,0,0,0-.663.792L1623.046,622a.889.889,0,0,0,.533.885l9.934,4.316a47.179,47.179,0,0,0,4.73,14.536l-5.482,9.333a.89.89,0,0,0,.091,1.029l8.446,9.873a.889.889,0,0,0,1,.249l10.07-3.971A47.177,47.177,0,0,0,1666,665.18l2.725,10.483a.889.889,0,0,0,.792.663l12.953,1.009a.89.89,0,0,0,.885-.533l4.316-9.934a47.186,47.186,0,0,0,14.536-4.73l9.334,5.482a.889.889,0,0,0,1.029-.091l9.873-8.445a.89.89,0,0,0,.25-1l-3.971-10.07a47.186,47.186,0,0,0,6.924-13.628l10.483-2.725a.889.889,0,0,0,.663-.792Z" transform="translate(-1623.044 -562.58)" fill="#91b3fa"/>
          <path id="Trazado_8046" data-name="Trazado 8046" d="M1908.852,860.754a12.4,12.4,0,1,1,2.113-.18A12.53,12.53,0,0,1,1908.852,860.754Zm.049-23.078a10.828,10.828,0,0,0-1.829.156,10.706,10.706,0,1,0,7.99,1.813h0A10.627,10.627,0,0,0,1908.9,837.676Z" transform="translate(-1851.5 -791.004)" fill="#fff" opacity="0.7"/>
          <path id="Trazado_8047" data-name="Trazado 8047" d="M1806.667,780.024q-1.27,0-2.551-.1a32.185,32.185,0,0,1-29.683-32.031q0-1.271.1-2.552a32.181,32.181,0,0,1,56.537-18.419,32.361,32.361,0,0,1,3.879,5.647l-1.462.79a30.677,30.677,0,0,0-3.68-5.356,30.518,30.518,0,0,0-53.617,17.467q-.094,1.214-.094,2.42a30.523,30.523,0,0,0,59.455,9.668l1.577.528a32.2,32.2,0,0,1-30.46,21.937Z" transform="translate(-1749.513 -690.461)" fill="#fff" opacity="0.7"/>
        </g>
      </g>
      <g id="Grupo_2786" data-name="Grupo 2786" transform="translate(129.914 70.851)">
        <g id="Grupo_2783" data-name="Grupo 2783" transform="translate(0 45.69)">
          <path id="Trazado_8048" data-name="Trazado 8048" d="M2745.174,1225.865a.554.554,0,0,1-.476-.837c.372-.629.728-1.271,1.058-1.91a.554.554,0,0,1,.985.509c-.339.657-.706,1.319-1.089,1.966A.553.553,0,0,1,2745.174,1225.865Z" transform="translate(-2674.525 -1212.971)" fill="#91b3fa"/>
          <path id="Trazado_8049" data-name="Trazado 8049" d="M2369.068,1239.986l-.044,0a39.158,39.158,0,0,1-4.488-.617.554.554,0,1,1,.214-1.088,37.823,37.823,0,0,0,4.36.6.554.554,0,0,1-.043,1.107Zm7.248-.117a.554.554,0,0,1-.061-1.105,37.85,37.85,0,0,0,4.338-.744.554.554,0,0,1,.251,1.079,38.889,38.889,0,0,1-4.466.766A.6.6,0,0,1,2376.316,1239.868Zm-18.62-2.567a.558.558,0,0,1-.209-.041,38.711,38.711,0,0,1-4.089-1.949.554.554,0,0,1,.535-.971,37.685,37.685,0,0,0,3.972,1.893.554.554,0,0,1-.209,1.068Zm29.9-.5a.554.554,0,0,1-.227-1.06,37.4,37.4,0,0,0,3.906-2.03.554.554,0,0,1,.568.951,38.557,38.557,0,0,1-4.022,2.09A.549.549,0,0,1,2387.592,1236.8Zm-39.908-5.516a.551.551,0,0,1-.354-.129,39.074,39.074,0,0,1-3.3-3.1.554.554,0,0,1,.8-.763,37.857,37.857,0,0,0,3.208,3.013.554.554,0,0,1-.356.979Zm49.715-.836a.554.554,0,0,1-.369-.968l.326-.294a38.157,38.157,0,0,0,2.786-2.82.554.554,0,0,1,.828.736,39.061,39.061,0,0,1-2.867,2.9l-.334.3A.555.555,0,0,1,2397.4,1230.452Zm-57.441-7.928a.553.553,0,0,1-.467-.255,38.543,38.543,0,0,1-2.216-3.953.554.554,0,0,1,1-.484,37.54,37.54,0,0,0,2.152,3.84.553.553,0,0,1-.168.765A.548.548,0,0,1,2339.958,1222.525Z" transform="translate(-2334.186 -1208.544)" fill="#91b3fa"/>
          <path id="Trazado_8050" data-name="Trazado 8050" d="M2319.848,1166.257a.554.554,0,0,1-.535-.412c-.191-.72-.363-1.457-.512-2.188a.554.554,0,0,1,1.086-.221c.145.71.312,1.425.5,2.125a.555.555,0,0,1-.394.678A.566.566,0,0,1,2319.848,1166.257Z" transform="translate(-2318.79 -1162.992)" fill="#91b3fa"/>
        </g>
        <g id="Grupo_2784" data-name="Grupo 2784" transform="translate(5.07)">
          <path id="Trazado_8051" data-name="Trazado 8051" d="M2350.142,985.162a.554.554,0,0,1-.468-.85c.4-.632.82-1.26,1.253-1.867a.554.554,0,1,1,.9.644c-.421.589-.831,1.2-1.218,1.813A.552.552,0,0,1,2350.142,985.162Z" transform="translate(-2349.588 -966.281)" fill="#91b3fa"/>
          <path id="Trazado_8052" data-name="Trazado 8052" d="M2447.449,909.692a.555.555,0,0,1-.511-.338,37.113,37.113,0,0,0-1.921-3.88.554.554,0,0,1,.963-.549,38.634,38.634,0,0,1,1.979,4,.554.554,0,0,1-.51.771Zm-6.047-9.777a.553.553,0,0,1-.422-.195q-.424-.5-.869-.986c-.676-.741-1.39-1.463-2.121-2.147a.554.554,0,0,1,.758-.81c.752.7,1.487,1.448,2.182,2.21q.458.5.9,1.014a.554.554,0,0,1-.422.913Zm-55.361-2.842a.554.554,0,0,1-.383-.955q.337-.321.681-.636c.866-.79,1.777-1.549,2.709-2.257a.554.554,0,0,1,.67.882c-.905.688-1.791,1.425-2.632,2.193q-.335.307-.663.62A.554.554,0,0,1,2386.041,897.072Zm46.685-4.7a.553.553,0,0,1-.3-.086,37.543,37.543,0,0,0-3.786-2.1.554.554,0,1,1,.479-1,38.682,38.682,0,0,1,3.9,2.158.554.554,0,0,1-.3,1.023Zm-37.282-1.914a.554.554,0,0,1-.248-1.05,38.756,38.756,0,0,1,4.1-1.75.554.554,0,0,1,.376,1.043,37.531,37.531,0,0,0-3.983,1.7A.552.552,0,0,1,2395.444,890.458Zm26.751-2.683a.568.568,0,0,1-.143-.018,37.751,37.751,0,0,0-4.241-.869.554.554,0,0,1-.469-.628.547.547,0,0,1,.628-.469,38.885,38.885,0,0,1,4.366.893.554.554,0,0,1-.142,1.09Zm-15.8-.811a.554.554,0,0,1-.086-1.1,39.018,39.018,0,0,1,4.436-.443.554.554,0,0,1,.047,1.107,37.866,37.866,0,0,0-4.309.43A.539.539,0,0,1,2406.395,886.965Z" transform="translate(-2379.578 -885.421)" fill="#91b3fa"/>
          <path id="Trazado_8053" data-name="Trazado 8053" d="M2772.63,1070.819a.555.555,0,0,1-.547-.469c-.111-.716-.245-1.438-.4-2.146a.554.554,0,0,1,1.083-.234c.157.729.295,1.473.41,2.209a.555.555,0,0,1-.462.633A.587.587,0,0,1,2772.63,1070.819Z" transform="translate(-2702.194 -1037.556)" fill="#91b3fa"/>
        </g>
        <g id="Grupo_2785" data-name="Grupo 2785" transform="translate(8.174 9.333)">
          <path id="Trazado_8054" data-name="Trazado 8054" d="M2427.393,970.544a.457.457,0,0,0-.273-.455l-5.1-2.217a24.237,24.237,0,0,0-2.43-7.467l2.816-4.794a.458.458,0,0,0-.047-.529l-4.338-5.071a.457.457,0,0,0-.515-.128l-5.173,2.04a24.24,24.24,0,0,0-7-3.557l-1.4-5.385a.457.457,0,0,0-.407-.341l-6.654-.518a.456.456,0,0,0-.455.274l-2.217,5.1a24.234,24.234,0,0,0-7.467,2.43l-4.794-2.816a.457.457,0,0,0-.529.047l-5.071,4.338a.457.457,0,0,0-.128.515l2.039,5.173a24.241,24.241,0,0,0-3.557,7l-5.385,1.4a.457.457,0,0,0-.341.407l-.519,6.654a.457.457,0,0,0,.274.455l5.1,2.217a24.236,24.236,0,0,0,2.43,7.467l-2.816,4.794a.457.457,0,0,0,.047.529l4.338,5.072a.457.457,0,0,0,.515.128l5.173-2.04a24.235,24.235,0,0,0,7,3.557l1.4,5.385a.457.457,0,0,0,.407.341l6.653.518a.457.457,0,0,0,.455-.274l2.217-5.1a24.236,24.236,0,0,0,7.467-2.43l4.794,2.816a.457.457,0,0,0,.529-.047l5.071-4.338a.457.457,0,0,0,.128-.515l-2.04-5.173a24.237,24.237,0,0,0,3.557-7l5.385-1.4a.457.457,0,0,0,.341-.407Z" transform="translate(-2368.446 -942.12)" fill="#91b3fa"/>
          <path id="Trazado_8055" data-name="Trazado 8055" d="M2513.211,1093.636a6.778,6.778,0,1,1,1.154-.1A6.82,6.82,0,0,1,2513.211,1093.636Zm.021-11.852a5.09,5.09,0,1,0,2.937.935h0A5.066,5.066,0,0,0,2513.232,1081.784Z" transform="translate(-2483.75 -1057.402)" fill="#fff" opacity="0.7"/>
          <path id="Trazado_8056" data-name="Trazado 8056" d="M2460.765,1052.208q-.669,0-1.343-.052a16.935,16.935,0,1,1,14.185-27.892c.048.055.094.111.142.167a17.045,17.045,0,0,1,1.745,2.526l.006.01.022.039.039.069.021.038.066.121-1.463.79a15.418,15.418,0,0,0-1.842-2.681h0a15.268,15.268,0,1,0,2.874,14.792l1.577.528a16.945,16.945,0,0,1-16.029,11.544Z" transform="translate(-2431.404 -1005.797)" fill="#fff" opacity="0.7"/>
        </g>
      </g>
    </g>
    <g id="Grupo_2790" data-name="Grupo 2790" transform="translate(696.701 605.681)">
      <g id="Grupo_2788" data-name="Grupo 2788" transform="translate(0)">
        <path id="Trazado_8057" data-name="Trazado 8057" d="M1880.687,1405.764a6.568,6.568,0,0,1,5.078-1.748c19.946,1.794,57.161-7.814,81.483-32.7,1.689-1.728,4.767-.751,6.7.7,27.049,20.216,71.887,24.4,87.452,25.259a6.567,6.567,0,0,1,6.165,5.882c14.155,136.714-74.858,186.254-93.32,195a6.584,6.584,0,0,1-6.29-.363c-92.011-57.312-88.075-131.846-89.348-187.071A6.577,6.577,0,0,1,1880.687,1405.764Z" transform="translate(-1878.608 -1370.396)" fill="url(#linear-gradient-4)"/>
        <path id="Trazado_8058" data-name="Trazado 8058" d="M2021.976,1648.406a2.193,2.193,0,0,1-1.18-.344c-35.275-22.55-58.266-49.508-70.287-82.415-10.736-29.39-11.261-59.318-11.725-85.722l-.063-3.52a2.154,2.154,0,0,1,.621-1.561,2.178,2.178,0,0,1,1.565-.655h0c21.845,0,54.635-9.646,78.684-31.2a2.18,2.18,0,0,1,2.659-.192c26.424,17.533,64.116,22.639,84.233,24.121a2.171,2.171,0,0,1,2.009,1.985c4.676,53.344-6.419,98.452-32.977,134.072a158.289,158.289,0,0,1-52.549,45.188h0A2.172,2.172,0,0,1,2021.976,1648.406Zm.583-1.035.2.4-.2-.4a157.35,157.35,0,0,0,52.24-44.926c26.423-35.438,37.459-80.34,32.8-133.458a1.279,1.279,0,0,0-1.183-1.17c-20.2-1.489-58.068-6.621-84.663-24.268a1.283,1.283,0,0,0-1.567.114c-24.225,21.707-57.265,31.424-79.263,31.424h0a1.3,1.3,0,0,0-.946.387,1.262,1.262,0,0,0-.364.916l.063,3.521c.462,26.335.987,56.182,11.671,85.431,11.951,32.716,34.824,59.527,69.928,81.967A1.292,1.292,0,0,0,2022.559,1647.371Z" transform="translate(-1928.826 -1430.58)" fill="#fff" opacity="0.61"/>
      </g>
      <g id="Grupo_2789" data-name="Grupo 2789" transform="translate(52.331 48.153)">
        <path id="Trazado_8059" data-name="Trazado 8059" d="M2316.295,1701.752h-4.161a3.741,3.741,0,0,1-3.741-3.741v-14.222a9.217,9.217,0,0,0-9.218-9.217h-25.782a9.217,9.217,0,0,0-9.218,9.217v14.222a3.741,3.741,0,0,1-3.741,3.741h-4.161a3.741,3.741,0,0,1-3.741-3.741v-14.222a20.86,20.86,0,0,1,20.861-20.86h25.782a20.86,20.86,0,0,1,20.86,20.86v14.222A3.741,3.741,0,0,1,2316.295,1701.752Z" transform="translate(-2243.313 -1662.929)" fill="#fff" opacity="0.61"/>
        <path id="Trazado_8060" data-name="Trazado 8060" d="M2274.658,1919.172h-70.335a7.8,7.8,0,0,0-7.8,7.8v53.979a7.8,7.8,0,0,0,7.8,7.8h70.335a7.8,7.8,0,0,0,7.8-7.8v-53.979A7.8,7.8,0,0,0,2274.658,1919.172Zm-25.1,52.172a2.891,2.891,0,0,1-2.812,3.567h-14.5a2.892,2.892,0,0,1-2.812-3.567l3.385-14.088a13.037,13.037,0,1,1,13.358,0Z" transform="translate(-2196.519 -1876.992)" fill="#fff" opacity="0.61"/>
      </g>
    </g>
    <g id="Grupo_2792" data-name="Grupo 2792" transform="translate(465.878 553.831)">
      <path id="Trazado_8061" data-name="Trazado 8061" d="M692.911,1811.972s5.7.3,6.4,12.021c0,0-13.209,11.842-31.053,14.66-1.34.212,1.873-9.144,2.356-10.411C672.907,1822.212,680.143,1818.328,692.911,1811.972Z" transform="translate(-636.394 -1687.435)" fill="url(#linear-gradient-5)"/>
      <path id="Trazado_8062" data-name="Trazado 8062" d="M801.691,1500.592H789.67s-36.9-40.748-61.1-44.859c0,0-16.845,21.5.9,61.679a5.864,5.864,0,0,0,8.4,2.766,4.808,4.808,0,0,0,1.918-2.287l-1.427-34.3s31.473,27.527,36.943,32.839S808.581,1518.5,801.691,1500.592Z" transform="translate(-681.018 -1389.835)" fill="#7d97f4"/>
      <path id="Trazado_8063" data-name="Trazado 8063" d="M502.681,2193.251a45.2,45.2,0,0,1,24.651-10.788l3.919,2.4a42.7,42.7,0,0,1-7.064,7.579c-4.2,2.437-10.674,5.737-16.045,6.452C502.92,2199.587,502.15,2196.432,502.681,2193.251Z" transform="translate(-498.228 -1996.94)" fill="url(#linear-gradient-6)"/>
      <path id="Trazado_8064" data-name="Trazado 8064" d="M658.271,1880.164c3.1,1,4.468,5.4,12.343,2.494a69.71,69.71,0,0,0,16.2-8.533c.065.567.12,1.159.158,1.791,0,0-13.928,13.248-31.771,16.066a1.776,1.776,0,0,1-1.918-2.393A44.808,44.808,0,0,1,658.271,1880.164Z" transform="translate(-624.056 -1739.357)" fill="#91b3fa"/>
      <path id="Trazado_8065" data-name="Trazado 8065" d="M477.009,2247.649a41.607,41.607,0,0,1,3.8-3.77c-.531,3.181.24,6.337,5.461,5.641,5.371-.715,11.849-4.016,16.045-6.453-5.258,4.485-13.259,9.245-23.357,8.965A2.649,2.649,0,0,1,477.009,2247.649Z" transform="translate(-476.351 -2047.569)" fill="#91b3fa"/>
      <path id="Trazado_8066" data-name="Trazado 8066" d="M728.021,1781.1l-56.294.61s-32.148,26.6-37.979,67.156c0,0-.968,2.983,4.843,3.494a111.6,111.6,0,0,0,32.11-35.139c15.539-27.519,46.326-15.132,46.326-15.132,14.79,3.264,26.562,2.05,35.177-11.208Z" transform="translate(-607.788 -1661.641)" fill="#7d97f4"/>
      <path id="Trazado_8067" data-name="Trazado 8067" d="M950.993,1505.605s-6.06,30.371-35.754,42.386l-10.562-1.245-2.492,3.974,24.776.789a67.764,67.764,0,0,0,32.4-31.245C959.73,1519.51,965.909,1506.752,950.993,1505.605Z" transform="translate(-832.089 -1431.499)" fill="url(#linear-gradient-7)"/>
      <path id="Trazado_8068" data-name="Trazado 8068" d="M1174.2,1402.557s6.891-18.733,8.373-36.935a79.583,79.583,0,0,0-8.193-6.2,2.278,2.278,0,0,1-.89-2.954c2.317-4.8,16.328-23.645,17.377-23.907,5.7-1.424,29.1-12.548,45.578,9.991,7.072,9.673-1.4,39.449-33.485,70.285C1192.64,1414.516,1182.989,1411.541,1174.2,1402.557Z" transform="translate(-1058.548 -1283.599)" fill="url(#linear-gradient-8)"/>
      <path id="Trazado_8069" data-name="Trazado 8069" d="M1006.292,1578.635s-19.147,22.671-43.626,25.985c0,0-6.326-5.768-11.031-3.708s-11.155,11.148-11.155,11.148h31.431s29.719-1.047,44.57-19.069C1015.288,1586.685,1011.709,1582.918,1006.292,1578.635Z" transform="translate(-864.082 -1492.507)" fill="url(#linear-gradient-9)"/>
      <path id="Trazado_8070" data-name="Trazado 8070" d="M1340.21,1256.236l4.189,13.973a1.536,1.536,0,0,1-.6,1.711,15.609,15.609,0,0,1-14.52,1.459,2.278,2.278,0,0,1-1.465-1.957l-.993-12.172Z" transform="translate(-1186.829 -1223.177)" fill="url(#linear-gradient-10)"/>
      <g id="Grupo_2791" data-name="Grupo 2791" transform="translate(119.702 0)">
        <path id="Trazado_8071" data-name="Trazado 8071" d="M1259.117,1139.024s2.06,14.484,7.624,18.938,16.4,1.1,20.066-9.819l-7.3-18.67Z" transform="translate(-1249.97 -1117.282)" fill="url(#linear-gradient-11)"/>
        <path id="Trazado_8072" data-name="Trazado 8072" d="M1233.911,1079.678a.717.717,0,0,1-.932-.574,18.727,18.727,0,0,0-1.717-5.785s.531-1.9-4.8.97-13.344,7.088-18.06,4.576c-4.6-2.448-9.256-14.769,2.9-12.486a.717.717,0,0,0,.853-.751c-.149-2.025.052-6.684,4.769-8.179,4.415-1.4,6.832.594,7.828,1.8a.713.713,0,0,0,1.116-.018c1.323-1.727,4.914-5.4,10.2-3.071,4.355,1.919,5.032,4.6,4.961,6.273a.715.715,0,0,0,1.019.682c1.334-.614,3.479-.933,5.534,1.641,2.841,3.56-1.219,6.647-2.437,7.456a.718.718,0,0,0-.325.592c-.011,1.851-.3,9.926-4.347,14.481a.723.723,0,0,1-1.2-.208l-3.116-7.425a.72.72,0,0,0-.885-.407Z" transform="translate(-1203.548 -1055.404)" fill="url(#linear-gradient-12)"/>
        <path id="Trazado_8073" data-name="Trazado 8073" d="M1387.6,1182.912s1.9-7.751,4.793-5.234-.754,8.055-4.065,9.111Z" transform="translate(-1357.307 -1157.131)" fill="url(#linear-gradient-13)"/>
      </g>
      <path id="Trazado_8074" data-name="Trazado 8074" d="M745.382,1529.526l-14.113-47.064a4.812,4.812,0,0,0-4.281-3.419l-19.054-1.3a2.7,2.7,0,0,0-2.734,3.591l15.776,44.946a3.956,3.956,0,0,0,3.335,2.625l18.763,2.084Z" transform="translate(-667.4 -1408.214)" fill="url(#linear-gradient-14)"/>
      <path id="Trazado_8075" data-name="Trazado 8075" d="M788.309,1577.66c1.054,2.127,2.873,3.373,4.064,2.783s1.3-2.792.249-4.919-2.873-3.373-4.064-2.783S787.255,1575.533,788.309,1577.66Z" transform="translate(-736.354 -1487.461)" fill="#91b3fa"/>
      <path id="Trazado_8076" data-name="Trazado 8076" d="M926.991,1772.793l.092,0,39.98-2.021a1.792,1.792,0,1,0-.181-3.579l-39.98,2.021a1.792,1.792,0,0,0,.089,3.581Z" transform="translate(-851.317 -1650.022)" fill="url(#linear-gradient-15)"/>
      <path id="Trazado_8077" data-name="Trazado 8077" d="M1228.422,1452.885a.277.277,0,0,1-.277-.276c-.028-8.44,3.22-19.609,3.252-19.721a.277.277,0,0,1,.532.156c-.033.111-3.258,11.205-3.23,19.563a.277.277,0,0,1-.276.278Z" transform="translate(-1104.394 -1370.585)" fill="url(#linear-gradient-16)"/>
      <path id="Trazado_8078" data-name="Trazado 8078" d="M1338.882,1482.268a.277.277,0,0,1-.217-.449c.088-.111,8.777-11.158,11.752-18.7a.277.277,0,0,1,.516.2c-3,7.613-11.744,18.724-11.832,18.834A.277.277,0,0,1,1338.882,1482.268Z" transform="translate(-1196.671 -1395.863)" fill="url(#linear-gradient-17)"/>
      <path id="Trazado_8079" data-name="Trazado 8079" d="M1406.841,1576.2l-1.581-2.236a.277.277,0,0,1,.452-.321l1.322,1.869c12.331-5.406,19.965-20.157,20.041-20.307a.277.277,0,0,1,.493.252c-.077.152-7.884,15.242-20.521,20.653Z" transform="translate(-1252.312 -1472.807)" fill="url(#linear-gradient-18)"/>
    </g>
  </g>
</svg>
