<svg xmlns="http://www.w3.org/2000/svg" xmlns:xlink="http://www.w3.org/1999/xlink" width="831.502" height="454.953" viewBox="0 0 831.502 454.953">
  <defs>
    <linearGradient id="linear-gradient" x1="0.5" x2="0.5" y2="1" gradientUnits="objectBoundingBox">
      <stop offset="0" stop-color="#7484ff"/>
      <stop offset="1" stop-color="#5558ff"/>
    </linearGradient>
  </defs>
  <g id="Grupo_2585" data-name="Grupo 2585" transform="translate(-1234.285 -661.058)">
    <ellipse id="Elipse_76" data-name="Elipse 76" cx="415.751" cy="58.435" rx="415.751" ry="58.435" transform="translate(1234.285 999.141)" fill="#cbd2fc"/>
    <g id="Grupo_2584" data-name="Grupo 2584" transform="translate(1275.54 661.058)">
      <g id="Grupo_2559" data-name="Grupo 2559" transform="translate(273.698 105.402)">
        <path id="Trazado_7197" data-name="Trazado 7197" d="M2300.632,1445.869h-89.92L2222.4,1392.6h66.534Z" transform="translate(-2081.23 -1165.029)" fill="#0c336b"/>
        <g id="Grupo_2558" data-name="Grupo 2558">
          <path id="Rectángulo_330" data-name="Rectángulo 330" d="M36.866,0H312.018a36.866,36.866,0,0,1,36.866,36.866V218.554a0,0,0,0,1,0,0H0a0,0,0,0,1,0,0V36.866A36.866,36.866,0,0,1,36.866,0Z" fill="#0c336b"/>
          <g id="Grupo_2557" data-name="Grupo 2557" transform="translate(17.124 17.636)">
            <g id="Grupo_2556" data-name="Grupo 2556">
              <g id="Grupo_2555" data-name="Grupo 2555">
                <rect id="Rectángulo_331" data-name="Rectángulo 331" width="314.637" height="187.98" fill="#f3fcff"/>
              </g>
            </g>
          </g>
          <rect id="Rectángulo_332" data-name="Rectángulo 332" width="85.974" height="67.623" transform="translate(210.384 118.262)" fill="#caf0ff"/>
          <rect id="Rectángulo_333" data-name="Rectángulo 333" width="104.095" height="29.434" transform="translate(91.993 118.262)" fill="#caf0ff"/>
          <rect id="Rectángulo_334" data-name="Rectángulo 334" width="104.095" height="29.434" transform="translate(91.993 155.532)" fill="#caf0ff"/>
          <rect id="Rectángulo_335" data-name="Rectángulo 335" width="243.833" height="34.118" transform="translate(52.525 45.307)" fill="#caf0ff"/>
          <rect id="Rectángulo_336" data-name="Rectángulo 336" width="243.833" height="14.053" transform="translate(52.525 90.454)" fill="#caf0ff"/>
          <path id="Trazado_7198" data-name="Trazado 7198" d="M1926.24,1372.793v19.238a16.779,16.779,0,0,0,16.78,16.78h315.324a16.78,16.78,0,0,0,16.78-16.78v-19.238Z" transform="translate(-1926.239 -1154.239)" fill="#4073bc"/>
        </g>
        <path id="Trazado_7199" data-name="Trazado 7199" d="M2292.654,1513.991H2121.739a15.221,15.221,0,0,1,15.221-15.221h140.472a15.221,15.221,0,0,1,15.221,15.221Z" transform="translate(-2032.754 -1222.876)" fill="#4073bc"/>
        <circle id="Elipse_77" data-name="Elipse 77" cx="6.411" cy="6.411" r="6.411" transform="translate(168.031 230.152)" fill="#08bfff"/>
      </g>
      <g id="Grupo_2561" data-name="Grupo 2561" transform="translate(145.038 15.113)">
        <path id="Trazado_7200" data-name="Trazado 7200" d="M1812.292,694.261,1643.571,751.3c0,274.608,168.72,324.363,168.72,324.363s168.72-49.755,168.72-324.363Z" transform="translate(-1643.571 -694.261)" fill="#0c336b"/>
        <path id="Trazado_7201" data-name="Trazado 7201" d="M1830,1078.632c-11.189-4.421-43.186-19.3-74.781-54.881-22.91-25.8-41.187-57.344-54.322-93.747-15.613-43.269-23.978-93.571-24.9-149.664l153.963-52.053,153.962,52.053c-.933,56.672-9.461,107.423-25.385,151-13.346,36.517-31.888,68.088-55.112,93.837C1871.987,1060.027,1840.994,1074.344,1830,1078.632Z" transform="translate(-1661.236 -712.799)" fill="#f5fbff"/>
        <path id="Trazado_7202" data-name="Trazado 7202" d="M1838.926,1079.98c-13.1-5.562-41.188-20.157-69.311-51.83-22.289-25.1-40.09-55.844-52.907-91.366-14.83-41.1-23.017-88.829-24.356-141.948L1838.87,745.3l146.516,49.535c-1.353,53.681-9.7,101.854-24.829,143.253-13.021,35.63-31.079,66.4-53.669,91.442C1878.923,1060.536,1851.655,1074.623,1838.926,1079.98Z" transform="translate(-1670.149 -722.07)" fill="#5669fd"/>
        <path id="Trazado_7203" data-name="Trazado 7203" d="M2014.308,1079.98c12.729-5.357,40-19.444,67.961-50.449,22.591-25.047,40.648-55.812,53.669-91.442,15.13-41.4,23.476-89.572,24.829-143.253L2014.251,745.3v334.654Z" transform="translate(-1845.531 -722.07)" fill="#808df4"/>
        <g id="Grupo_2560" data-name="Grupo 2560" transform="translate(95.365 124.947)">
          <path id="Trazado_7204" data-name="Trazado 7204" d="M1911.4,1078.205l-53.573-43.255a12.758,12.758,0,0,1-1.911-17.941h0a12.759,12.759,0,0,1,17.942-1.912l35.152,28.381a12.757,12.757,0,0,0,17.314-1.192l65.266-69.491a12.758,12.758,0,0,1,18.034-.565h0a12.758,12.758,0,0,1,.566,18.034l-81.474,86.749A12.758,12.758,0,0,1,1911.4,1078.205Z" transform="translate(-1853.088 -968.771)" fill="#f5fbff"/>
        </g>
      </g>
      <g id="Grupo_2564" data-name="Grupo 2564" transform="translate(0 180.629)">
        <g id="Grupo_2562" data-name="Grupo 2562" transform="translate(30.574)">
          <path id="Trazado_7205" data-name="Trazado 7205" d="M1497.854,1151.376h-105.76V1092.95a35.088,35.088,0,0,1,35.048-35.049h35.663a35.088,35.088,0,0,1,35.049,35.049Zm-85.462-20.3h65.163V1092.95a14.767,14.767,0,0,0-14.75-14.75h-35.663a14.767,14.767,0,0,0-14.75,14.75Z" transform="translate(-1392.094 -1057.901)" fill="#c6ccff"/>
        </g>
        <g id="Grupo_2563" data-name="Grupo 2563" transform="translate(30.574 15.069)">
          <path id="Trazado_7206" data-name="Trazado 7206" d="M1487.1,1091.008H1451.44a14.767,14.767,0,0,0-14.75,14.75v5.23a14.766,14.766,0,0,1,14.75-14.75H1487.1a14.766,14.766,0,0,1,14.75,14.75v-5.23A14.767,14.767,0,0,0,1487.1,1091.008Z" transform="translate(-1416.391 -1091.008)" fill="#5669f9"/>
          <rect id="Rectángulo_337" data-name="Rectángulo 337" width="105.76" height="5.23" transform="translate(0 73.175)" fill="#e4ebf9"/>
        </g>
        <rect id="Rectángulo_338" data-name="Rectángulo 338" width="166.908" height="162.578" rx="28.793" transform="translate(0 53.311)" fill="url(#linear-gradient)"/>
        <path id="Trazado_7207" data-name="Trazado 7207" d="M1505.84,1318.872a12.345,12.345,0,1,0-17,11.431v14.442a4.651,4.651,0,0,0,9.3,0V1330.3A12.343,12.343,0,0,0,1505.84,1318.872Z" transform="translate(-1410.041 -1193.362)" fill="#0c336b"/>
      </g>
      <g id="Grupo_2572" data-name="Grupo 2572" transform="translate(118.435 214.847)">
        <g id="Grupo_2568" data-name="Grupo 2568" transform="translate(0 69.033)">
          <g id="Grupo_2567" data-name="Grupo 2567" transform="translate(8.835)">
            <rect id="Rectángulo_339" data-name="Rectángulo 339" width="21.528" height="16.718" fill="#cad0e0"/>
            <g id="Grupo_2566" data-name="Grupo 2566" transform="translate(6.004 5.992)">
              <g id="Grupo_2565" data-name="Grupo 2565">
                <rect id="Rectángulo_340" data-name="Rectángulo 340" width="3.404" height="4.734" fill="#113b84"/>
                <rect id="Rectángulo_341" data-name="Rectángulo 341" width="3.404" height="4.734" transform="translate(6.116)" fill="#113b84"/>
              </g>
            </g>
          </g>
          <rect id="Rectángulo_342" data-name="Rectángulo 342" width="39.198" height="95.92" rx="14.515" transform="translate(0 16.718)" fill="#fff"/>
          <rect id="Rectángulo_343" data-name="Rectángulo 343" width="24.754" height="60.663" rx="7.455" transform="translate(7.222 41.085)" fill="#a9e07e"/>
        </g>
        <g id="Grupo_2571" data-name="Grupo 2571" transform="translate(9.355)">
          <path id="Trazado_7208" data-name="Trazado 7208" d="M1763.655,1205.377c4.635-3.6,2.928-27.816,2.928-27.816s2.084-7.276.94-9.6-2.6-2.872-4.192-2.858-3.721.628-4.579,2.084a7.078,7.078,0,0,0-.709,4.9c.709,3.611,2.385,5.038,2.393,5.959.019,2.21-6.89,22.782-7.625,22.911C1752.811,1200.959,1759.02,1208.979,1763.655,1205.377Z" transform="translate(-1685.842 -1150.527)" fill="#fdc78b"/>
          <path id="Trazado_7209" data-name="Trazado 7209" d="M1697.854,1195.4c-4.022-.714-12.348.184-9.327,8.734,3.66,10.36,30.213,16.395,30.213,16.395v0a20.4,20.4,0,0,0,6.941.648,4.174,4.174,0,0,0,2.183-.638c.027-.014.058-.025.084-.04a2.511,2.511,0,0,0,1.311-1.5c3.377-6.333,2.377-26.6,2.377-26.6l-7.035.558c.011,1.368-2.454,9.753-4.51,15.977C1720.092,1208.932,1701.875,1196.11,1697.854,1195.4Z" transform="translate(-1650.465 -1165.398)" fill="#4157ff"/>
          <path id="Trazado_7210" data-name="Trazado 7210" d="M1663.25,1508.6l-3.118,6.036c1.335,1.666,14.5,7.066,15.188,6.868s-6.3-8.875-6.3-8.875Z" transform="translate(-1635.346 -1337.677)" fill="#0c336b"/>
          <path id="Trazado_7211" data-name="Trazado 7211" d="M1712.245,1521.153l-.179,7.2h16.684c.536-.479-9.308-7.2-9.308-7.2Z" transform="translate(-1663.642 -1344.516)" fill="#0c336b"/>
          <path id="Trazado_7212" data-name="Trazado 7212" d="M1685.151,1355.475l-.059-.405-.016-.2h-.013l-3.78-26.069,10.644-21.43-33.27.613c-5.77,12.348-.314,20.966,4.37,31.962,3.568,8.375,4.288,12.256,4.43,13.632l-.042,0s-2.19,5.582,1.805,17.251,12.571,33.853,12.571,33.853h7.2l-3.863-49.2Z" transform="translate(-1633.188 -1228.038)" fill="#113b84"/>
          <path id="Trazado_7213" data-name="Trazado 7213" d="M1708.028,1338.017c-2.548-11.605-10.21-30.65-10.21-30.65L1686,1330.6l7.585,24.945c-1.921,1.138-6.153,4.335-10.636,12.235-6.087,10.727-15.968,31.185-15.968,31.185l5.774,4.029,31.044-33.313a19.211,19.211,0,0,0,4.257-7.223A55.119,55.119,0,0,0,1708.028,1338.017Z" transform="translate(-1639.079 -1228.038)" fill="#0c336b"/>
          <path id="Trazado_7214" data-name="Trazado 7214" d="M1664.307,1190.912s-12.7-3.915-17.706,2.438,6.353,31.19,6.353,31.19l-.807,20.72a58.263,58.263,0,0,0,17.238,1.892,71.724,71.724,0,0,0,17.2-3.269s-1.212-26.125-4.052-37.982c-1.914-7.992-5.469-10.538-7.9-12.352C1670.45,1190.434,1664.307,1190.912,1664.307,1190.912Z" transform="translate(-1627.279 -1163.939)" fill="#8493ff"/>
          <path id="Trazado_7215" data-name="Trazado 7215" d="M1606.409,1264.623c3.225,4.905,29.552,5.16,29.552,5.16s5,1.847,7.406.891,3.153-2.24,3.266-3.833-.254-3.1-1.833-3.7a10.244,10.244,0,0,0-3.928-.153l1.127.029s.329-1.773-1.91-1.726c-3.983.084-5.262,1.886-6.181,1.822-2.205-.155-22.167-8.208-22.238-8.951C1611.669,1254.162,1603.185,1259.718,1606.409,1264.623Z" transform="translate(-1605.678 -1199.05)" fill="#fdc78b"/>
          <path id="Trazado_7216" data-name="Trazado 7216" d="M1667.383,1156.066s-1.831.465-5.3-2.269c-2.71-2.135-5.175-4.891-5.433-8.023s.746-4.238.746-4.238a5.713,5.713,0,0,1,2.388-6.654c6.108-4.392,11.717.753,18.129-.245,7.37-1.148-.857,7.432-.857,7.432Z" transform="translate(-1633.425 -1133.08)" fill="#113b84"/>
          <path id="Trazado_7217" data-name="Trazado 7217" d="M1676.006,1179.338s-2.831,5.6-2.733,5.848,1.217,1.9,4.1,2.162a13.055,13.055,0,0,0,6.176-.86,10.459,10.459,0,0,1-1.349-2.86,16.593,16.593,0,0,1,1.349-3.4Z" transform="translate(-1642.505 -1158.283)" fill="#fdc78b"/>
          <path id="Trazado_7218" data-name="Trazado 7218" d="M1684.233,1183.628a16.614,16.614,0,0,1,1.349-3.4l-7.542-.89s-.48.949-1.037,2.083c1.266,1.582,3.233,3.189,5.852,2.818a6.839,6.839,0,0,0,1.415-.363A1.135,1.135,0,0,1,1684.233,1183.628Z" transform="translate(-1644.538 -1158.283)" fill="#ffb164"/>
          <path id="Trazado_7219" data-name="Trazado 7219" d="M1680.855,1149.317s1.31.9,1.76,6.222-.9,10.274-5.813,10.97-7.532-5.567-7.532-5.567a3.6,3.6,0,0,1-2.742-.45c-1.556-.859-1.433-2.948-1.106-3.684a2.01,2.01,0,0,1,2.866-.655c1.228.778,1.474,2.374,1.924,3.07s.655.86.655.369-.123-2.538.45-3.193,5.4-2.743,7.245-5.158S1680.855,1149.317,1680.855,1149.317Z" transform="translate(-1638.117 -1141.904)" fill="#fdc78b"/>
          <g id="Grupo_2569" data-name="Grupo 2569" transform="translate(74.25 4.389)">
            <rect id="Rectángulo_344" data-name="Rectángulo 344" width="25.15" height="13.446" transform="translate(0 7.548) rotate(-17.465)" fill="#f5fbff"/>
          </g>
          <g id="Grupo_2570" data-name="Grupo 2570" transform="translate(81.623 8.409)">
            <path id="Trazado_7220" data-name="Trazado 7220" d="M1790.532,1161.689l-4.933-2.183a1,1,0,0,1-.51-1.319h0a1,1,0,0,1,1.318-.509l3.237,1.432a1,1,0,0,0,1.286-.442l3.524-6.585a1,1,0,0,1,1.353-.41h0a1,1,0,0,1,.409,1.353l-4.4,8.22A1,1,0,0,1,1790.532,1161.689Z" transform="translate(-1785.004 -1151.555)" fill="#0c336b"/>
          </g>
          <path id="Trazado_7221" data-name="Trazado 7221" d="M1767.782,1165.957s3.176-2.261,4.393-.96-2.49,4.3-2.49,4.3Z" transform="translate(-1693.998 -1150.249)" fill="#fdc78b"/>
          <path id="Trazado_7222" data-name="Trazado 7222" d="M1633.587,1202.382c1.029-3.953.792-12.324-7.971-9.988-10.617,2.831-18.73,28.824-18.73,28.824h0a20.41,20.41,0,0,0-1.194,6.868,4.176,4.176,0,0,0,.463,2.226c.012.028.021.06.033.087a2.51,2.51,0,0,0,1.392,1.425c6.047,3.867,26.326,4.47,26.326,4.47v-7.057c-1.365-.1-9.528-3.216-15.571-5.758C1618.338,1223.482,1632.558,1206.336,1633.587,1202.382Z" transform="translate(-1605.681 -1165.176)" fill="#4157ff"/>
        </g>
      </g>
      <g id="Grupo_2576" data-name="Grupo 2576" transform="translate(650.487 294.455)">
        <g id="Grupo_2573" data-name="Grupo 2573" transform="translate(6.182 27.359)">
          <path id="Trazado_7223" data-name="Trazado 7223" d="M2803.2,1413.666c3.621,4.021,27.646.591,27.646.591s4.813.988,6.872-.218,2.562-2.48,2.442-3.946-.662-2.786-2.184-3.116a9.44,9.44,0,0,0-3.6.406l1.031-.13s.054-1.661-1.98-1.307c-3.617.631-4.533,2.45-5.379,2.519-2.031.165-21.34-4.4-21.508-5.063C2806.534,1403.4,2799.574,1409.645,2803.2,1413.666Z" transform="translate(-2786.438 -1387.328)" fill="#fdc78b"/>
          <path id="Trazado_7224" data-name="Trazado 7224" d="M2767.776,1372.2c.009-.025.015-.052.024-.077a5.924,5.924,0,0,1,7.078-3.8c3.309,1.134,8.864,10.267,8.864,10.267h0c2.2,3.087,3.625,5.387,3.983,5.573a.345.345,0,0,1,.083.078c1.368.853,19.646,4.6,21.61,4.44l1.431,7s-19.195,2.324-25.176-.389c-3.542-1.448-7.94-5.773-11.655-10.571h0a34.168,34.168,0,0,1-5.828-9.163c-.007-.018-.013-.035-.02-.052l-.037-.1c-.111-.28-.2-.544-.272-.8-.012-.039-.026-.078-.038-.117-.005-.017-.006-.033-.011-.049a6.077,6.077,0,0,1-.138-.643c-.006-.045-.008-.089-.013-.134a3.4,3.4,0,0,1,.068-1.307C2767.742,1372.305,2767.762,1372.254,2767.776,1372.2Z" transform="translate(-2767.63 -1368.087)" fill="#5b4bbc"/>
        </g>
        <g id="Grupo_2574" data-name="Grupo 2574" transform="translate(40.05 28.328)">
          <path id="Trazado_7225" data-name="Trazado 7225" d="M2890.465,1391.782h-24.54a1.19,1.19,0,0,1-1.135-1.547l6.041-19.187a1.19,1.19,0,0,1,1.135-.833h23.716a1.19,1.19,0,0,1,1.148,1.5l-5.218,19.186A1.189,1.189,0,0,1,2890.465,1391.782Z" transform="translate(-2854.404 -1370.216)" fill="#113b84"/>
          <path id="Trazado_7226" data-name="Trazado 7226" d="M2892.133,1392.079h-23.281l5.84-18.547h22.484Z" transform="translate(-2856.647 -1372.023)" fill="#36d4ff"/>
          <path id="Trazado_7227" data-name="Trazado 7227" d="M2878.06,1415.037h-36.021l1.052-2.138h35.918Z" transform="translate(-2842.039 -1393.471)" fill="#113b84"/>
        </g>
        <path id="Trazado_7228" data-name="Trazado 7228" d="M2813.534,1420.19l-34.875,14.356.136,2.424-5.138,11.035s-.41,14.86,11.1,12.076c8.509-2.058,18.052-12.635,21.782-15.975,7.032-6.3,10.171-7.764,10.926-8.055a40.206,40.206,0,0,0,7.324,5.719c9.642,6.024,26.29,18.659,26.29,18.659l8.64-2.971-32.863-36.318C2822.96,1417.057,2813.534,1420.19,2813.534,1420.19Z" transform="translate(-2764.731 -1368.489)" fill="#0c336b"/>
        <path id="Trazado_7229" data-name="Trazado 7229" d="M2801.9,1330.3s3.042,11.853-1.781,13.779c-3.77,1.506-8.218-2.465-8.218-2.465S2795.985,1328.491,2801.9,1330.3Z" transform="translate(-2774.673 -1320.046)" fill="#fdc78b"/>
        <path id="Trazado_7230" data-name="Trazado 7230" d="M2799.514,1353.956c-1.782-1.553-1.781-5.057-1.781-5.057s-3.278-2.541-4.813.181c-.187.469-.343.884-.465,1.223-.024.095-.049.188-.071.289a2.8,2.8,0,0,0-.055.828C2793.156,1352.1,2796.433,1354.563,2799.514,1353.956Z" transform="translate(-2774.9 -1329.686)" fill="#ffb164"/>
        <path id="Trazado_7231" data-name="Trazado 7231" d="M2784.765,1351.061s-2.889,7.261-2.963,8.979c-.01.241,2.124,1.574,4.787,1.408,4.393-.274,4.409-1.259,4.409-1.259s-.276-2.564-.319-5.486a9.717,9.717,0,0,1,.319-3.244Z" transform="translate(-2769.169 -1331.452)" fill="#fdc78b"/>
        <path id="Trazado_7232" data-name="Trazado 7232" d="M2784.621,1329.573a9.868,9.868,0,0,1-12.984-10.849c.821-4.438,2.958-4.767,2.958-4.767s1.592-8.14,11.662-5.424c7.026,1.9,9.054,9.157,4.09,14.306S2784.621,1329.573,2784.621,1329.573Z" transform="translate(-2763.554 -1307.978)" fill="#113b84"/>
        <path id="Trazado_7233" data-name="Trazado 7233" d="M2805.75,1340.124s.658,4.085,1.15,4.262,0-5.577,0-5.577Z" transform="translate(-2782.217 -1324.776)" fill="#113b84"/>
        <path id="Trazado_7234" data-name="Trazado 7234" d="M2803.95,1345.394s-.281-2.041-1.678-1.342-.495,2.346.492,2.714S2803.95,1345.394,2803.95,1345.394Z" transform="translate(-2779.931 -1327.553)" fill="#fdc78b"/>
        <path id="Trazado_7235" data-name="Trazado 7235" d="M2820.817,1480.369l.009-.023-.27-.034-.286-.063-.01.026-49.73-6.327-.123,1.246-13.529-1.246s-5.168,25.615,19.45,26.489c4.57.162,7.767-.332,9.914-1.28,5.018-1.159,10.134-2.967,14.939-3.482,8.343-.893,11.156-.479,13.21-.239l-.014.036s4.332,3.432,15.694,3.048,33.229-1.978,33.229-1.978l1.935-6.345Z" transform="translate(-2755.344 -1398.404)" fill="#113b84"/>
        <path id="Trazado_7236" data-name="Trazado 7236" d="M2986.557,1507.525l1.781-6.376a43.935,43.935,0,0,1,4.4-4.176,48.507,48.507,0,0,1,4.12-2.936l-3.607,15.756S2987.024,1508.191,2986.557,1507.525Z" transform="translate(-2880.728 -1409.35)" fill="#113b84"/>
        <path id="Trazado_7237" data-name="Trazado 7237" d="M2772.24,1366.983s-8.521-3.356-12.877,3.959c-2.1,3.529-.837,26.98-.837,26.98l-4.478,26.474s9.552,7.817,16,2.323c11.571-9.862,18.906-8.958,18.906-8.958s-2.977-20.331-1.819-34.925c.6-7.552-2.9-9.085-4.91-11.031C2778.772,1368.464,2772.24,1366.983,2772.24,1366.983Z" transform="translate(-2754.048 -1339.707)" fill="#5669fd"/>
        <g id="Grupo_2575" data-name="Grupo 2575" transform="translate(20.834 33.303)">
          <path id="Trazado_7238" data-name="Trazado 7238" d="M2840.49,1421.812c4.089,3.544,26.541-3.223,26.541-3.223s5.509-.6,7.781-1.562c2.2-.933,2.573-1.819,2.274-3.26s-2.031-.435-3.588-.411c-3.589.055-2.6-.959-2.6-.959a2.289,2.289,0,0,0,1.288-.956c.438-.743-.673-1.62-2.649-1.016-3.512,1.072-4.2,2.99-5.027,3.163-2,.414-21.72-1.732-21.969-2.374C2842.537,1411.215,2836.4,1418.268,2840.49,1421.812Z" transform="translate(-2821.214 -1396.989)" fill="#fdc78b"/>
          <path id="Trazado_7239" data-name="Trazado 7239" d="M2799.875,1385.96c.005-.026.008-.054.014-.079a5.924,5.924,0,0,1,6.555-4.646c3.424.718,10.063,9.1,10.063,9.1h0c2.564,2.792,4.26,4.9,4.639,5.04a.345.345,0,0,1,.092.067c1.463.678,20.064,2.143,21.992,1.743l2.283,6.767s-18.762,4.672-25.032,2.717c-3.694-1-8.592-4.751-12.869-9.055h0a34.158,34.158,0,0,1-6.913-8.375l-.028-.05-.048-.093c-.145-.264-.266-.515-.369-.755-.017-.037-.035-.074-.052-.111-.007-.016-.01-.032-.016-.048a6.038,6.038,0,0,1-.217-.621c-.011-.044-.019-.087-.029-.131a3.416,3.416,0,0,1-.093-1.3C2799.853,1386.068,2799.868,1386.015,2799.875,1385.96Z" transform="translate(-2799.821 -1381.145)" fill="#cbd2fc"/>
        </g>
      </g>
      <g id="Grupo_2579" data-name="Grupo 2579" transform="translate(504.027 246.345)">
        <g id="Grupo_2578" data-name="Grupo 2578">
          <rect id="Rectángulo_345" data-name="Rectángulo 345" width="151.369" height="99.174" transform="translate(0 50.999)" fill="#808df4"/>
          <path id="Trazado_7240" data-name="Trazado 7240" d="M2432.273,1314.326l75.685,47.618,75.685-47.618Z" transform="translate(-2432.273 -1263.327)" fill="#95cc6f"/>
          <path id="Trazado_7241" data-name="Trazado 7241" d="M2432.273,1257.326l75.685-47.618,75.685,47.618Z" transform="translate(-2432.273 -1206.327)" fill="#95cc6f"/>
          <path id="Trazado_7242" data-name="Trazado 7242" d="M2586.889,1263.65l-59.2,37.248-59.2-37.248v-61.369h118.4Z" transform="translate(-2452.004 -1202.281)" fill="#fff"/>
          <g id="Grupo_2577" data-name="Grupo 2577" transform="translate(29.636 15.938)">
            <rect id="Rectángulo_346" data-name="Rectángulo 346" width="90.648" height="5.298" fill="#caf0ff"/>
            <rect id="Rectángulo_347" data-name="Rectángulo 347" width="90.648" height="5.298" transform="translate(0 13.437)" fill="#caf0ff"/>
            <rect id="Rectángulo_348" data-name="Rectángulo 348" width="90.648" height="5.298" transform="translate(0 26.874)" fill="#caf0ff"/>
            <rect id="Rectángulo_349" data-name="Rectángulo 349" width="90.648" height="5.298" transform="translate(0 40.31)" fill="#caf0ff"/>
            <path id="Trazado_7243" data-name="Trazado 7243" d="M2581.074,1360.679l8.42-5.3h-91.967l8.42,5.3Z" transform="translate(-2497.462 -1301.634)" fill="#caf0ff"/>
            <path id="Trazado_7244" data-name="Trazado 7244" d="M2585.687,1393.042l8.42-5.3h-45.141l8.42,5.3Z" transform="translate(-2525.487 -1319.267)" fill="#caf0ff"/>
          </g>
        </g>
        <path id="Trazado_7245" data-name="Trazado 7245" d="M2507.958,1418.944l-75.685,51.555h151.369Z" transform="translate(-2432.273 -1320.327)" fill="#5669fd"/>
      </g>
      <g id="Grupo_2581" data-name="Grupo 2581" transform="translate(599.451 224.639)">
        <g id="Grupo_2580" data-name="Grupo 2580">
          <path id="Trazado_7246" data-name="Trazado 7246" d="M2683.064,1154.593l-41.141,13.909c0,66.962,41.141,79.095,41.141,79.095s41.141-12.133,41.141-79.095Z" transform="translate(-2641.922 -1154.593)" fill="#ffdc4e"/>
          <path id="Trazado_7247" data-name="Trazado 7247" d="M2690.67,1248.809a48.725,48.725,0,0,1-16.469-12.522c-11.34-12.931-17.652-32.014-18.36-55.389l34.806-11.768,34.808,11.769C2723.976,1230.885,2697.825,1245.689,2690.67,1248.809Z" transform="translate(-2649.506 -1162.513)" fill="#fff"/>
          <path id="Trazado_7248" data-name="Trazado 7248" d="M2696.1,1249.491a46.286,46.286,0,0,1-13.185-10.553c-10.105-11.523-16-28.552-17.136-49.393l30.283-10.239,30.29,10.241C2724.173,1230.721,2704.543,1245.165,2696.1,1249.491Z" transform="translate(-2654.919 -1168.058)" fill="#ffdc4e"/>
        </g>
        <path id="Trazado_7249" data-name="Trazado 7249" d="M2762.6,1189.547l-30.289-10.241s.675,33.446,1.1,69.614C2742.338,1243.965,2760.51,1229.074,2762.6,1189.547Z" transform="translate(-2691.169 -1168.058)" fill="#f4c738"/>
      </g>
      <g id="Grupo_2582" data-name="Grupo 2582" transform="translate(499.432)">
        <path id="Trazado_7250" data-name="Trazado 7250" d="M2533.846,751.42s-5.451-20.585-15.4-22.21a1.914,1.914,0,0,0-.784.034,5.038,5.038,0,0,1,1.349.737c7.62,4.089,5.132,26.814,4.758,29.889,1.438,3.443,2.8,6.588,3.665,8.691-6.859,1.089-19.456,16.042-19.456,16.042s26.5-1.2,31.126-5.541a10.461,10.461,0,0,0,1.012-1.335C2542.871,772.475,2538.7,760.425,2533.846,751.42Z" transform="translate(-2468.924 -698.176)" fill="#fdc78b"/>
        <path id="Trazado_7251" data-name="Trazado 7251" d="M2490.517,684.89a15.805,15.805,0,0,1-5.293-12.369c.243-7.567,4.007-7.624,4.007-7.624s3.982-5.962,12.578-3.023c10.8,3.691,4.629,21.137-.066,23.768S2490.517,684.89,2490.517,684.89Z" transform="translate(-2456.523 -661.058)" fill="#113b84"/>
        <path id="Trazado_7252" data-name="Trazado 7252" d="M2465.179,847.153l-1.35,4.711,20.094,7.613v-10.6Z" transform="translate(-2444.872 -762.45)" fill="#0c336b"/>
        <path id="Trazado_7253" data-name="Trazado 7253" d="M2526.613,847.153l1.349,4.711-20.094,7.613v-10.6Z" transform="translate(-2468.866 -762.45)" fill="#0c336b"/>
        <path id="Trazado_7254" data-name="Trazado 7254" d="M2437.429,848.495c-5.32-1.971-12.082-2.574-14.513,3.941-2.5,6.711.78,14.435,19.077,17.938,13.093,2.507,42.325,4.729,42.325,4.729l1.327-7.028S2440.995,849.816,2437.429,848.495Z" transform="translate(-2422.179 -762.45)" fill="#0c336b"/>
        <path id="Trazado_7255" data-name="Trazado 7255" d="M2556.214,891.84a30.718,30.718,0,0,1,10.731,2.608c5.032,2.409,5.469,4.468,5.3,4.839-.4.892-2.656,1.9-6.842,2.138s-11.177-2.114-11.177-2.114A8.723,8.723,0,0,0,2556.214,891.84Z" transform="translate(-2494.125 -786.797)" fill="#113b84"/>
        <path id="Trazado_7256" data-name="Trazado 7256" d="M2502.657,848.495c5.319-1.971,12.082-2.574,14.512,3.941,2.5,6.711-.78,14.435-19.077,17.938-13.094,2.507-42.325,4.729-42.325,4.729l-1.326-7.028S2499.092,849.816,2502.657,848.495Z" transform="translate(-2439.757 -762.45)" fill="#29427b"/>
        <path id="Trazado_7257" data-name="Trazado 7257" d="M2438.24,891.84a30.722,30.722,0,0,0-10.731,2.608c-5.032,2.409-5.468,4.468-5.3,4.839.4.892,2.657,1.9,6.842,2.138s11.177-2.114,11.177-2.114A8.725,8.725,0,0,1,2438.24,891.84Z" transform="translate(-2422.179 -786.797)" fill="#113b84"/>
        <path id="Trazado_7258" data-name="Trazado 7258" d="M2495.126,728.738c-3.057-2.535-17.271-2.873-22.11,0-8.647,4.131-4.713,30.243-4.713,30.243a240.667,240.667,0,0,0-4.2,24.494s9.327,4.2,19.141,3.983c.276-.006.552-.016.828-.027.277.011.554.02.83.027,9.814.221,19.141-3.983,19.141-3.983a240.88,240.88,0,0,0-4.2-24.494S2503.3,733.126,2495.126,728.738Z" transform="translate(-2445.02 -696.827)" fill="#fff"/>
        <path id="Trazado_7259" data-name="Trazado 7259" d="M2505.284,710.464l-2.578.121-2.578-.121s-3.174,8.1-2.957,8.286a8.946,8.946,0,0,0,5.008,2.071c.131.012.253.017.378.025v.02l.148-.01.148.01v-.02c.125-.008.248-.013.378-.025a8.946,8.946,0,0,0,5.008-2.071C2508.457,718.568,2505.284,710.464,2505.284,710.464Z" transform="translate(-2463.032 -687.976)" fill="#fdc78b"/>
        <path id="Trazado_7260" data-name="Trazado 7260" d="M2504.514,716.789a5.639,5.639,0,0,0,4.128-1.53c-.837-2.264-1.827-4.795-1.827-4.795l-2.577.121-2.578-.121s-.885,2.26-1.688,4.42A5.873,5.873,0,0,0,2504.514,716.789Z" transform="translate(-2464.563 -687.976)" fill="#ffb164"/>
        <path id="Trazado_7261" data-name="Trazado 7261" d="M2507.376,690.523a1.779,1.779,0,0,0-2.809-.756c-1.314.925-.387,2.081-1.292,2.982-.662.657.074-6.62-2.193-6.813,0,0-2.681,2.621-8.287,2.843-2.439.1-2.925,2.8-2.925,3.387s-.268.876-.75.049-.136-1.523-1.45-2.447a1.78,1.78,0,0,0-2.81.756c-.35.876-.369,3.518,1.3,4.54s2.346.226,2.346.226,2.646,7.027,7.617,6.668c4.97.359,7.618-6.668,7.618-6.668s.68.8,2.345-.226S2507.727,691.4,2507.376,690.523Z" transform="translate(-2456.226 -674.613)" fill="#fdc78b"/>
        <path id="Trazado_7262" data-name="Trazado 7262" d="M2524.158,728.084a13.55,13.55,0,0,1,11.351,5.82c4.24,6.265,7.613,16.383,7.613,16.383s-7.742,3.264-10.055,3.616C2533.067,753.9,2535.028,732.426,2524.158,728.084Z" transform="translate(-2477.741 -697.573)" fill="#ff5c73"/>
        <path id="Trazado_7263" data-name="Trazado 7263" d="M2444.559,751.42s5.451-20.585,15.4-22.21a1.914,1.914,0,0,1,.784.034,5.047,5.047,0,0,0-1.349.737c-7.619,4.089-5.131,26.814-4.758,29.889-1.438,3.443-2.795,6.588-3.665,8.691,6.859,1.089,19.456,16.042,19.456,16.042s-26.495-1.2-31.126-5.541a10.419,10.419,0,0,1-1.011-1.335C2435.534,772.475,2439.7,760.425,2444.559,751.42Z" transform="translate(-2430.478 -698.176)" fill="#fdc78b"/>
        <path id="Trazado_7264" data-name="Trazado 7264" d="M2471.4,727.85a13.55,13.55,0,0,0-11.351,5.82c-4.24,6.264-7.614,16.383-7.614,16.383s7.592,3.37,9.9,3.722C2462.339,753.775,2460.711,732.138,2471.4,727.85Z" transform="translate(-2438.663 -697.445)" fill="#ff5c73"/>
        <path id="Trazado_7265" data-name="Trazado 7265" d="M2503.88,814.588a3.712,3.712,0,0,1-3.854,3.549h-37.711a3.712,3.712,0,0,1-3.855-3.549v-23.51a3.712,3.712,0,0,1,3.855-3.549h37.711a3.711,3.711,0,0,1,3.854,3.549Z" transform="translate(-2441.946 -729.964)" fill="#8d53e8"/>
        <path id="Trazado_7266" data-name="Trazado 7266" d="M2507.469,816.669a2.588,2.588,0,1,1-2.57-2.891A2.745,2.745,0,0,1,2507.469,816.669Z" transform="translate(-2465.848 -744.266)" fill="#d7c9f2"/>
      </g>
      <g id="Grupo_2583" data-name="Grupo 2583" transform="translate(450.511 229.191)">
        <path id="Trazado_7267" data-name="Trazado 7267" d="M2396.229,1197.6s.056-7.177-1.262-9.915-4.8-8.359-8.936-9.517c-2.295-.642-4.326-9.712.813-12.464s13.665.48,13.665.48,10.06-6.245,16.974,16.159c5.961,19.318,18.083,27.458,16.973,33.8s-1.889,7.089-6.929,5.7S2396.229,1197.6,2396.229,1197.6Z" transform="translate(-2352.256 -1164.593)" fill="#113b84"/>
        <path id="Trazado_7268" data-name="Trazado 7268" d="M2383.351,1313.677c-4.281,3.575-28.3-3.43-28.3-3.43s-5.055.306-6.982-1.225-2.252-2.9-1.917-4.384,1.082-2.746,2.684-2.861a4.723,4.723,0,0,1,2.582.657s6.48,2.118,7.333,2.311c2.048.465,22.419-1.372,22.688-2.029C2381.442,1302.716,2387.633,1310.1,2383.351,1313.677Z" transform="translate(-2331.775 -1239.331)" fill="#fdc78b"/>
        <path id="Trazado_7269" data-name="Trazado 7269" d="M2383.269,1248.941c.151-3.879,1.493-9.381,6.055-9.258,10.437.283,9.113,31.367,9.113,31.367h0a19.383,19.383,0,0,1-.8,6.575,3.961,3.961,0,0,1-1.033,1.9c-.019.023-.036.049-.054.071a2.384,2.384,0,0,1-1.658.913c-6.562,1.855-25.176-3.17-25.176-3.17l1.94-6.419c1.267.288,9.552-.306,15.747-.956C2387.4,1269.962,2383.119,1252.82,2383.269,1248.941Z" transform="translate(-2344.672 -1205.504)" fill="#808df4"/>
        <path id="Trazado_7270" data-name="Trazado 7270" d="M2417.929,1330.941c11.643,12.349,4.417,22.412,1.946,32.856s-1.807,12.729-1.807,12.729,2.788,4.606,1.03,15.541-5.968,31.874-5.968,31.874l-6.369,1.1-4.125-44.674-1.309-47.123Z" transform="translate(-2361.897 -1255.225)" fill="#0c336b"/>
        <path id="Trazado_7271" data-name="Trazado 7271" d="M2421.99,1381.413l-16.759-47.752,22.643-5.4c9.727,7.428,4.421,20.886,5.265,31.585s2.175,12.672,2.175,12.672,4.065,3.532,5.737,14.48,4.073,32.171,4.073,32.171l-5.728,2.993Z" transform="translate(-2364.024 -1253.768)" fill="#113b84"/>
        <path id="Trazado_7272" data-name="Trazado 7272" d="M2409.243,1535.265l-6.442.3a42.837,42.837,0,0,0-4.923,3.275,46.934,46.934,0,0,0-3.683,3.275h15.746S2409.773,1535.852,2409.243,1535.265Z" transform="translate(-2358.011 -1366.549)" fill="#0c336b"/>
        <path id="Trazado_7273" data-name="Trazado 7273" d="M2478.873,1523.5l-5.786,2.85a42.863,42.863,0,0,0-3.208,4.967,47.153,47.153,0,0,0-2.07,4.472l14.438-6.283S2479.594,1523.83,2478.873,1523.5Z" transform="translate(-2398.119 -1360.14)" fill="#0c336b"/>
        <path id="Trazado_7274" data-name="Trazado 7274" d="M2392.472,1242.435s-7.392,3.432-8.491,11.316a9.409,9.409,0,0,0,5.82,10.358Z" transform="translate(-2352.382 -1207.004)" fill="#808df4"/>
        <path id="Trazado_7275" data-name="Trazado 7275" d="M2410.06,1226.106s7.1-1.87,12.533,3.453-1.235,25.48-1.235,25.48l5.566,22.8a78.185,78.185,0,0,1-16.815,3.456,80.9,80.9,0,0,1-13.992,0s-3.8-28.52-2.581-39.922c.824-7.684,1.494-6.082,2.752-8.646C2399.9,1225.372,2410.06,1226.106,2410.06,1226.106Z" transform="translate(-2357.521 -1197.934)" fill="#5669fd"/>
        <path id="Trazado_7276" data-name="Trazado 7276" d="M2390.109,1294.917c3.9-1.493,8.181,1.208,9.608,2.238l.078-.314c1.979.7,22.426,1.265,22.77.644,0,0,5.281,8.061.611,11.11s-24.906-5.588-24.906-5.588l.223-.9c-1.442,1.093-5.737,1.135-6.054-.09-.335-1.3,3.318.229,1.959-1.691s-6.142,1.413-7.391.924C2385.845,1300.794,2385.347,1296.741,2390.109,1294.917Z" transform="translate(-2353.667 -1235.359)" fill="#fdc78b"/>
        <path id="Trazado_7277" data-name="Trazado 7277" d="M2423.311,1239.455c.6-3.834,3.989-11.036,10.736-5.675,8.173,6.5,5.374,32.219,5.374,32.219h0a19.4,19.4,0,0,1-1.567,6.437,3.967,3.967,0,0,1-1.249,1.763c-.021.02-.041.044-.062.063a2.382,2.382,0,0,1-1.754.713c-6.734,1.073-24.629-6.1-24.629-6.1l2.679-6.148c1.225.434,9.522.815,15.751.9C2428.586,1263.624,2422.707,1243.289,2423.311,1239.455Z" transform="translate(-2366.708 -1201.245)" fill="#808df4"/>
        <path id="Trazado_7278" data-name="Trazado 7278" d="M2332.366,1275.94l16.922,19.08h-16.654l-17.934-19.364Z" transform="translate(-2314.7 -1225.104)" fill="#0b9cff"/>
        <path id="Trazado_7279" data-name="Trazado 7279" d="M2346.184,1306.2s1.416-2.556,3.657-1.916-.694,5.584-.694,5.584S2346.21,1308.761,2346.184,1306.2Z" transform="translate(-2331.854 -1240.648)" fill="#fdc78b"/>
        <path id="Trazado_7280" data-name="Trazado 7280" d="M2416.824,1211.217l.858,10.226s6.667.8,8.624-2.1-4.084-9.275-4.084-9.275Z" transform="translate(-2370.341 -1189.37)" fill="#fdc78b"/>
        <path id="Trazado_7281" data-name="Trazado 7281" d="M2423.3,1208.155a13.374,13.374,0,0,1-6.1,3.711l-.369-4.388,3.533-4.271Z" transform="translate(-2370.341 -1185.631)" fill="#ffb164"/>
        <path id="Trazado_7282" data-name="Trazado 7282" d="M2398.469,1184.976s-1.749,13.948,4.027,15.443c4.515,1.169,9.59-4.238,9.59-4.238S2404.95,1182.058,2398.469,1184.976Z" transform="translate(-2360.205 -1175.482)" fill="#fdc78b"/>
        <path id="Trazado_7283" data-name="Trazado 7283" d="M2416.842,1195.743a2.625,2.625,0,1,0,2.291-2.716A2.517,2.517,0,0,0,2416.842,1195.743Z" transform="translate(-2370.341 -1180.073)" fill="#fdc78b"/>
        <path id="Trazado_7284" data-name="Trazado 7284" d="M2428.682,1210.07s5.9,9.194,4.391,13.823,1.936,2.362,5.808.524,9.53,1.116,11.978,6.231-2.262-10.808-9.633-14.067A108.379,108.379,0,0,1,2428.682,1210.07Z" transform="translate(-2376.802 -1189.37)" fill="#113b84"/>
      </g>
      <path id="Trazado_7285" data-name="Trazado 7285" d="M2894.226,1381.1l-5.658,1.744c-2.406,8.394,2.314,9.915,2.314,9.915s5.594-1.521,8-9.915Z" transform="translate(-2176.48 -1053.362)" fill="#f5fbff"/>
    </g>
  </g>
</svg>
