<svg id="svg" version="1.1" xmlns="http://www.w3.org/2000/svg" xmlns:xlink="http://www.w3.org/1999/xlink" width="400" height="400" viewBox="0, 0, 400,400"><g id="svgg"><path id="path0" d="M24.000 105.600 L 24.000 211.200 98.067 211.200 C 138.803 211.200,172.042 211.291,171.930 211.403 C 171.698 211.635,176.514 216.757,176.764 216.544 C 176.855 216.467,177.139 216.809,177.397 217.302 C 177.655 217.796,178.089 218.151,178.362 218.090 C 178.636 218.030,178.760 218.141,178.639 218.337 C 178.341 218.820,179.779 220.080,180.197 219.701 C 180.379 219.535,180.416 219.596,180.280 219.837 C 180.143 220.077,180.654 220.877,181.416 221.615 C 182.177 222.353,182.800 222.792,182.800 222.589 C 182.800 222.387,183.082 222.625,183.427 223.118 C 183.772 223.610,184.227 223.907,184.437 223.777 C 184.648 223.647,184.770 223.751,184.710 224.007 C 184.649 224.264,184.950 224.683,185.379 224.937 C 185.807 225.192,188.052 227.290,190.367 229.600 C 192.682 231.910,194.762 233.740,194.988 233.667 C 195.215 233.593,195.267 233.667,195.103 233.830 C 194.675 234.258,195.605 235.240,196.145 234.931 C 196.395 234.789,196.461 234.825,196.291 235.012 C 195.885 235.458,199.175 238.800,200.021 238.800 C 200.381 238.800,201.002 238.440,201.400 238.000 C 201.798 237.560,201.984 237.200,201.813 237.200 C 201.642 237.200,201.724 236.932,201.996 236.604 C 202.268 236.277,202.647 236.105,202.837 236.223 C 203.258 236.483,206.800 233.016,206.800 232.344 C 206.800 232.081,206.911 231.978,207.048 232.114 C 207.312 232.378,208.400 231.454,208.400 230.967 C 208.400 230.807,209.570 229.529,211.000 228.127 C 212.430 226.725,213.600 225.383,213.600 225.146 C 213.600 224.909,213.848 224.810,214.151 224.926 C 214.752 225.157,218.262 222.176,218.100 221.572 C 218.045 221.368,218.225 221.245,218.500 221.300 C 218.775 221.355,218.951 221.162,218.890 220.870 C 218.830 220.579,218.946 220.443,219.148 220.568 C 219.562 220.823,224.000 216.615,224.000 215.968 C 224.000 215.740,224.159 215.651,224.354 215.771 C 224.548 215.891,224.930 215.452,225.202 214.795 C 225.474 214.138,225.810 213.599,225.949 213.598 C 226.087 213.597,226.775 213.057,227.478 212.398 L 228.757 211.200 302.378 211.200 L 376.000 211.200 376.000 105.600 L 376.000 0.000 200.000 0.000 L 24.000 0.000 24.000 105.600 M176.573 47.556 C 176.694 47.752,178.190 47.933,179.897 47.959 C 181.603 47.984,183.060 48.184,183.133 48.403 C 183.207 48.621,183.972 48.800,184.833 48.800 C 185.695 48.800,186.400 48.980,186.400 49.200 C 186.400 49.420,187.080 49.600,187.912 49.600 C 188.965 49.600,189.598 49.843,190.000 50.400 C 190.317 50.840,190.897 51.200,191.288 51.200 C 191.680 51.200,192.000 51.380,192.000 51.600 C 192.000 51.820,192.360 52.000,192.800 52.000 C 193.240 52.000,193.600 52.191,193.600 52.424 C 193.600 52.657,193.761 52.748,193.958 52.626 C 194.155 52.504,194.424 52.685,194.555 53.028 C 194.687 53.370,194.957 53.550,195.155 53.428 C 195.354 53.305,195.621 53.478,195.749 53.812 C 195.917 54.249,196.283 54.344,197.051 54.151 C 197.812 53.961,198.037 54.017,197.832 54.348 C 197.674 54.604,197.332 54.694,197.072 54.548 C 196.813 54.402,196.997 54.669,197.483 55.141 C 197.969 55.614,198.869 56.013,199.483 56.028 C 200.468 56.053,200.505 56.097,199.800 56.400 C 199.091 56.705,199.125 56.747,200.100 56.772 C 200.778 56.789,201.162 56.608,201.100 56.300 C 201.045 56.025,201.247 55.852,201.549 55.916 C 201.892 55.989,202.012 55.808,201.869 55.437 C 201.722 55.053,201.828 54.913,202.167 55.043 C 202.457 55.154,203.293 54.650,204.026 53.922 C 204.758 53.195,205.200 52.860,205.007 53.179 C 204.812 53.500,205.204 53.367,205.890 52.879 C 206.568 52.395,207.311 52.000,207.539 52.000 C 207.768 52.000,208.235 51.600,208.577 51.111 C 209.006 50.499,209.210 50.405,209.232 50.811 C 209.254 51.220,209.325 51.247,209.465 50.900 C 209.576 50.625,210.022 50.400,210.457 50.400 C 210.892 50.400,211.136 50.220,211.000 50.000 C 210.853 49.762,211.329 49.600,212.176 49.600 C 212.959 49.600,213.600 49.420,213.600 49.200 C 213.600 48.980,214.305 48.800,215.167 48.800 C 216.028 48.800,216.803 48.591,216.888 48.335 C 216.991 48.028,218.164 47.878,220.322 47.896 C 222.125 47.910,223.600 47.760,223.600 47.561 C 223.600 47.350,235.616 47.200,252.600 47.200 L 281.600 47.200 281.600 105.400 L 281.600 163.600 200.000 163.600 L 118.400 163.600 118.400 105.400 L 118.400 47.200 147.376 47.200 C 163.886 47.200,176.447 47.353,176.573 47.556 M141.200 105.500 L 141.200 141.000 165.009 141.000 L 188.818 141.000 188.709 109.400 C 188.628 85.894,188.482 77.822,188.141 77.886 C 187.860 77.939,187.768 77.645,187.903 77.127 C 188.047 76.575,187.867 76.092,187.386 75.740 C 186.980 75.443,186.784 75.200,186.952 75.200 C 187.366 75.200,186.441 74.344,185.100 73.486 C 184.495 73.098,184.000 72.516,184.000 72.191 C 184.000 71.863,183.637 71.600,183.183 71.600 C 182.734 71.600,181.980 71.240,181.508 70.800 C 180.673 70.022,180.096 70.000,160.925 70.000 L 141.200 70.000 141.200 105.500 M219.026 70.357 C 218.876 70.601,218.448 70.800,218.076 70.800 C 217.307 70.801,215.613 72.221,214.967 73.406 C 214.729 73.843,214.146 74.377,213.670 74.594 C 213.091 74.857,212.880 75.221,213.030 75.694 C 213.183 76.178,213.042 76.400,212.580 76.400 C 212.108 76.400,211.968 76.634,212.112 77.186 C 212.225 77.619,212.146 77.934,211.936 77.886 C 211.696 77.832,211.566 89.488,211.586 109.306 L 211.617 140.813 235.209 140.906 L 258.800 141.000 258.800 105.493 L 258.800 69.986 239.615 70.008 C 226.441 70.023,220.346 70.164,220.165 70.457 C 219.983 70.752,219.806 70.734,219.600 70.400 C 219.386 70.053,219.222 70.041,219.026 70.357 M50.600 258.000 C 50.464 258.220,49.845 258.400,49.225 258.400 C 48.605 258.400,47.889 258.651,47.634 258.959 C 47.379 259.266,46.817 259.425,46.385 259.312 C 45.951 259.199,45.600 259.306,45.600 259.553 C 45.600 259.799,45.248 260.000,44.819 260.000 C 43.648 260.000,41.990 260.860,42.274 261.320 C 42.411 261.542,42.332 261.605,42.098 261.461 C 41.538 261.115,40.342 261.583,40.623 262.037 C 40.743 262.232,40.562 262.284,40.221 262.153 C 39.879 262.022,39.600 262.114,39.600 262.357 C 39.600 262.601,39.259 262.800,38.843 262.800 C 38.426 262.800,37.972 263.095,37.834 263.457 C 37.614 264.030,37.671 264.044,38.291 263.563 C 38.900 263.092,38.893 263.139,38.247 263.897 C 37.832 264.383,37.336 264.684,37.144 264.565 C 36.812 264.360,34.806 265.585,33.674 266.684 C 33.385 266.964,33.278 267.403,33.436 267.659 C 33.620 267.955,33.549 268.015,33.240 267.825 C 32.716 267.501,30.801 269.444,30.800 270.300 C 30.800 270.575,30.609 270.800,30.376 270.800 C 30.143 270.800,30.064 270.980,30.200 271.200 C 30.336 271.420,30.197 271.600,29.891 271.600 C 29.585 271.600,29.080 272.095,28.768 272.700 C 28.455 273.305,27.975 274.038,27.700 274.329 C 27.425 274.619,27.200 275.204,27.200 275.629 C 27.200 276.053,27.020 276.400,26.800 276.400 C 26.580 276.400,26.400 276.760,26.400 277.200 C 26.400 277.640,26.175 278.013,25.900 278.028 C 25.625 278.044,25.760 278.211,26.200 278.400 C 26.884 278.694,26.899 278.748,26.300 278.772 C 25.915 278.787,25.600 279.070,25.600 279.400 C 25.600 279.730,25.420 280.000,25.200 280.000 C 24.980 280.000,24.800 280.270,24.800 280.600 C 24.800 280.930,25.020 281.200,25.289 281.200 C 25.558 281.200,25.378 281.480,24.889 281.823 C 24.320 282.221,24.000 282.860,24.000 283.599 C 24.000 284.234,23.820 284.864,23.600 285.000 C 23.356 285.151,23.200 288.263,23.200 293.000 C 23.200 297.737,23.356 300.849,23.600 301.000 C 23.820 301.136,24.006 301.732,24.013 302.324 C 24.020 302.916,24.277 303.732,24.585 304.139 C 24.893 304.545,25.048 305.130,24.930 305.439 C 24.811 305.747,24.914 306.000,25.157 306.000 C 25.401 306.000,25.600 306.270,25.600 306.600 C 25.600 306.930,25.866 307.200,26.190 307.200 C 26.632 307.200,26.720 307.501,26.540 308.400 C 26.387 309.164,26.463 309.600,26.750 309.600 C 26.998 309.600,27.200 309.947,27.200 310.371 C 27.200 310.796,27.425 311.381,27.700 311.671 C 27.975 311.962,28.454 312.692,28.764 313.293 C 29.074 313.895,29.659 314.492,30.064 314.620 C 30.469 314.749,30.800 315.173,30.800 315.563 C 30.800 316.380,33.543 319.375,35.600 320.805 C 36.370 321.340,37.349 322.098,37.775 322.489 C 38.202 322.880,38.888 323.200,39.299 323.200 C 39.711 323.200,39.954 323.350,39.841 323.534 C 39.613 323.903,42.083 325.200,43.014 325.200 C 43.336 325.200,43.600 325.380,43.600 325.600 C 43.600 325.820,44.050 326.000,44.600 326.000 C 45.150 326.000,45.600 326.201,45.600 326.447 C 45.600 326.698,45.953 326.801,46.407 326.682 C 46.851 326.566,47.453 326.711,47.746 327.003 C 48.039 327.296,48.800 327.626,49.439 327.737 C 50.078 327.847,45.560 327.889,39.400 327.828 C 28.421 327.720,27.017 327.781,27.369 328.351 C 27.465 328.506,26.948 328.563,26.219 328.478 C 25.491 328.393,24.773 328.521,24.624 328.762 C 24.475 329.003,23.933 329.200,23.419 329.200 C 22.906 329.200,22.377 329.482,22.245 329.828 C 22.084 330.245,21.735 330.370,21.200 330.200 C 20.666 330.030,20.316 330.155,20.156 330.570 C 20.024 330.914,19.755 331.096,19.558 330.974 C 18.930 330.586,18.248 331.256,18.857 331.662 C 19.221 331.905,19.069 331.948,18.396 331.793 C 17.702 331.633,17.120 331.815,16.513 332.381 C 16.029 332.831,15.356 333.200,15.017 333.200 C 14.678 333.200,14.400 333.500,14.400 333.867 C 14.400 334.233,14.289 334.422,14.152 334.286 C 14.016 334.150,13.681 334.255,13.408 334.519 C 13.135 334.784,12.256 335.515,11.456 336.144 C 10.655 336.774,10.000 337.544,10.000 337.857 C 10.000 338.169,9.685 338.542,9.300 338.685 C 8.420 339.011,6.801 340.835,6.800 341.500 C 6.800 341.775,6.620 342.000,6.400 342.000 C 6.180 342.000,6.000 342.281,6.000 342.624 C 6.000 342.967,5.820 343.136,5.600 343.000 C 5.380 342.864,5.200 343.033,5.200 343.376 C 5.200 343.719,5.020 344.000,4.800 344.000 C 4.580 344.000,4.400 344.270,4.400 344.600 C 4.400 344.930,4.201 345.200,3.957 345.200 C 3.714 345.200,3.612 345.455,3.732 345.767 C 3.852 346.079,3.670 346.441,3.329 346.572 C 2.943 346.720,2.788 347.109,2.917 347.605 C 3.032 348.043,2.960 348.299,2.758 348.174 C 2.556 348.049,2.280 348.499,2.145 349.173 C 2.010 349.848,1.723 350.400,1.507 350.400 C 1.291 350.400,1.211 350.653,1.330 350.961 C 1.448 351.270,1.293 351.855,0.985 352.261 C 0.337 353.116,0.225 353.755,0.783 353.410 C 0.994 353.280,0.905 353.675,0.586 354.287 C 0.098 355.221,0.005 358.989,0.002 377.700 L 0.000 400.000 58.800 400.000 L 117.600 400.000 117.600 377.824 C 117.600 363.471,117.459 355.560,117.200 355.400 C 116.980 355.264,116.800 354.803,116.800 354.376 C 116.800 353.949,116.620 353.600,116.400 353.600 C 116.180 353.600,116.000 352.880,116.000 352.000 C 116.000 351.120,115.820 350.400,115.600 350.400 C 115.380 350.400,115.200 350.068,115.200 349.661 C 115.200 348.492,114.034 346.465,113.211 346.203 C 112.669 346.032,112.509 345.690,112.637 344.982 C 112.735 344.442,112.632 344.000,112.408 344.000 C 112.184 344.000,112.000 343.770,112.000 343.488 C 112.000 343.207,111.640 342.717,111.200 342.400 C 110.760 342.083,110.400 341.586,110.400 341.296 C 110.400 341.006,109.197 339.560,107.727 338.084 C 106.257 336.608,105.402 335.857,105.827 336.416 C 106.252 336.975,105.862 336.663,104.961 335.722 C 104.059 334.782,103.204 334.129,103.061 334.273 C 102.917 334.416,102.800 334.233,102.800 333.867 C 102.800 333.467,102.480 333.200,102.000 333.200 C 101.560 333.200,101.200 333.053,101.200 332.874 C 101.200 332.424,97.999 330.754,97.604 330.998 C 97.428 331.106,97.181 330.926,97.054 330.598 C 96.928 330.269,96.369 330.000,95.813 330.000 C 95.256 330.000,94.800 329.801,94.800 329.557 C 94.800 329.314,94.552 329.210,94.249 329.326 C 93.946 329.442,93.469 329.327,93.190 329.069 C 92.800 328.708,92.747 328.714,92.962 329.095 C 93.149 329.427,93.038 329.513,92.623 329.354 C 92.283 329.223,92.119 328.931,92.259 328.704 C 92.421 328.442,92.057 328.360,91.257 328.477 C 90.566 328.578,90.000 328.502,90.000 328.307 C 90.000 328.112,89.820 328.064,89.600 328.200 C 89.380 328.336,89.200 328.279,89.200 328.074 C 89.200 327.848,84.718 327.747,77.900 327.819 C 71.685 327.885,67.098 327.850,67.707 327.742 C 68.316 327.634,68.710 327.378,68.583 327.173 C 68.456 326.968,68.723 326.800,69.176 326.800 C 69.629 326.800,70.000 326.614,70.000 326.386 C 70.000 326.105,70.258 326.110,70.800 326.400 C 71.342 326.690,71.600 326.695,71.600 326.414 C 71.600 326.186,72.050 326.000,72.600 326.000 C 73.150 326.000,73.600 325.863,73.600 325.696 C 73.600 325.529,73.979 325.156,74.442 324.867 C 74.906 324.577,75.163 324.537,75.014 324.777 C 74.866 325.017,75.379 324.911,76.155 324.541 C 76.931 324.171,77.473 323.718,77.359 323.534 C 77.246 323.350,77.478 323.194,77.876 323.187 C 78.940 323.169,80.135 322.143,79.774 321.559 C 79.565 321.219,79.667 321.140,80.101 321.307 C 80.472 321.449,80.829 321.301,80.964 320.949 C 81.091 320.619,81.354 320.448,81.550 320.569 C 82.315 321.042,87.090 315.768,86.864 314.700 C 86.829 314.535,86.993 314.400,87.229 314.400 C 87.928 314.400,88.800 313.317,88.800 312.448 C 88.800 312.004,89.029 311.496,89.310 311.320 C 90.235 310.739,91.197 308.858,90.928 308.155 C 90.767 307.736,90.823 307.567,91.072 307.721 C 91.313 307.870,91.494 307.453,91.515 306.694 C 91.535 305.991,91.743 305.352,91.976 305.275 C 92.209 305.197,92.400 304.698,92.400 304.167 C 92.400 303.635,92.580 303.200,92.800 303.200 C 93.020 303.200,93.200 302.761,93.200 302.224 C 93.200 301.687,93.380 301.136,93.600 301.000 C 93.820 300.864,94.000 300.573,94.000 300.353 C 94.000 300.133,93.775 300.088,93.500 300.253 C 93.120 300.481,93.124 300.401,93.515 299.917 C 94.421 298.800,94.133 285.862,93.165 284.138 C 92.744 283.388,92.355 282.196,92.300 281.488 C 92.245 280.779,91.983 279.970,91.717 279.688 C 91.451 279.407,91.347 278.883,91.485 278.523 C 91.666 278.050,91.589 277.960,91.206 278.196 C 90.843 278.421,90.772 278.370,90.979 278.034 C 91.290 277.531,89.645 274.000,89.101 274.000 C 88.935 274.000,88.800 273.709,88.800 273.354 C 88.800 272.999,88.125 272.073,87.300 271.297 C 86.475 270.520,86.025 270.012,86.300 270.166 C 87.390 270.779,86.678 269.862,84.145 267.390 C 82.685 265.966,81.343 264.800,81.163 264.800 C 80.983 264.800,80.386 264.350,79.836 263.800 C 79.286 263.250,78.558 262.800,78.218 262.800 C 77.878 262.800,77.600 262.609,77.600 262.376 C 77.600 262.143,77.420 262.064,77.200 262.200 C 76.980 262.336,76.800 262.288,76.800 262.095 C 76.800 261.597,73.487 260.000,72.456 260.000 C 71.985 260.000,71.600 259.814,71.600 259.586 C 71.600 259.301,71.360 259.301,70.827 259.586 C 70.199 259.922,70.006 259.849,69.800 259.200 C 69.612 258.608,69.195 258.400,68.197 258.400 C 67.454 258.400,66.732 258.214,66.592 257.987 C 66.215 257.377,52.106 257.516,51.854 258.132 C 51.717 258.468,51.654 258.459,51.632 258.100 C 51.594 257.501,50.947 257.439,50.600 258.000 M192.000 257.987 C 192.000 258.214,191.392 258.400,190.649 258.400 C 189.906 258.400,189.067 258.678,188.785 259.018 C 188.503 259.358,188.031 259.544,187.736 259.431 C 187.441 259.318,187.200 259.399,187.200 259.613 C 187.200 259.826,186.649 260.000,185.976 260.000 C 185.272 260.000,184.856 260.168,184.997 260.395 C 185.137 260.622,184.977 260.689,184.621 260.553 C 184.279 260.422,184.000 260.514,184.000 260.757 C 184.000 261.001,183.865 261.179,183.700 261.153 C 182.574 260.975,182.309 261.208,182.851 261.900 C 183.356 262.544,183.340 262.553,182.653 262.012 C 181.974 261.477,181.823 261.527,181.001 262.557 C 180.453 263.245,180.033 263.499,179.934 263.202 C 179.822 262.866,179.587 262.938,179.185 263.433 C 178.711 264.017,178.707 264.089,179.162 263.815 C 179.543 263.585,179.632 263.625,179.438 263.938 C 179.281 264.192,178.832 264.400,178.440 264.400 C 177.451 264.400,173.862 267.854,174.231 268.451 C 174.420 268.755,174.351 268.817,174.040 268.625 C 173.503 268.293,171.514 270.337,171.848 270.878 C 171.960 271.058,171.769 271.314,171.425 271.446 C 171.081 271.578,170.800 271.947,170.800 272.266 C 170.800 272.586,170.620 272.736,170.400 272.600 C 170.180 272.464,170.000 272.657,170.000 273.029 C 170.000 273.402,169.623 274.033,169.163 274.432 C 168.703 274.831,168.437 275.336,168.572 275.554 C 168.707 275.772,168.518 276.118,168.152 276.323 C 167.697 276.577,167.550 277.028,167.688 277.748 C 167.892 278.814,167.436 279.218,167.065 278.300 C 166.954 278.025,166.849 278.295,166.832 278.900 C 166.814 279.505,166.620 280.000,166.400 280.000 C 166.180 280.000,166.000 280.439,166.000 280.976 C 166.000 281.513,165.820 282.064,165.600 282.200 C 165.380 282.336,165.200 283.257,165.200 284.247 C 165.200 285.237,165.041 285.949,164.846 285.828 C 164.646 285.705,164.493 288.774,164.495 292.905 C 164.497 296.927,164.664 300.305,164.868 300.435 C 165.071 300.564,165.279 301.319,165.329 302.113 C 165.380 302.906,165.552 303.685,165.711 303.844 C 165.870 304.003,166.000 304.534,166.000 305.024 C 166.000 305.514,166.256 306.013,166.569 306.133 C 166.914 306.265,167.070 306.716,166.965 307.276 C 166.869 307.784,166.898 307.975,167.029 307.700 C 167.386 306.948,168.014 307.099,167.719 307.866 C 167.530 308.360,167.610 308.448,168.032 308.207 C 168.492 307.944,168.505 307.985,168.100 308.421 C 167.434 309.139,167.468 309.600,168.187 309.600 C 168.511 309.600,168.686 309.831,168.578 310.114 C 168.469 310.397,168.745 311.019,169.190 311.497 C 169.636 311.975,170.003 312.689,170.006 313.083 C 170.011 313.692,170.070 313.710,170.400 313.200 C 170.715 312.712,170.789 312.763,170.794 313.473 C 170.798 314.010,171.129 314.450,171.653 314.617 C 172.134 314.769,172.323 315.000,172.087 315.146 C 171.807 315.319,171.847 315.649,172.207 316.143 C 172.504 316.548,172.926 316.769,173.146 316.634 C 173.365 316.498,173.675 316.598,173.834 316.855 C 174.015 317.148,173.950 317.216,173.662 317.038 C 172.699 316.443,173.263 317.283,174.920 318.911 C 177.460 321.405,179.913 323.243,180.791 323.309 C 181.217 323.341,181.485 323.449,181.385 323.548 C 181.041 323.893,182.804 324.845,183.263 324.561 C 183.569 324.372,183.614 324.454,183.396 324.806 C 183.157 325.193,183.252 325.266,183.750 325.075 C 184.171 324.913,184.517 325.039,184.658 325.407 C 184.787 325.742,185.389 326.000,186.043 326.000 C 186.679 326.000,187.200 326.135,187.200 326.300 C 187.200 326.465,187.674 326.627,188.253 326.661 C 188.831 326.694,189.417 326.903,189.554 327.125 C 189.691 327.346,190.342 327.619,191.001 327.731 C 191.661 327.842,186.980 327.903,180.600 327.867 C 171.153 327.812,169.020 327.898,169.110 328.330 C 169.188 328.704,168.964 328.779,168.353 328.585 C 167.463 328.303,164.636 329.012,163.646 329.766 C 163.341 329.998,162.891 330.191,162.646 330.194 C 161.905 330.204,157.600 332.468,157.600 332.847 C 157.600 333.041,157.324 333.200,156.987 333.200 C 156.649 333.200,155.845 333.740,155.200 334.400 C 154.555 335.060,153.835 335.600,153.600 335.600 C 152.868 335.600,150.381 338.323,150.915 338.540 C 151.182 338.648,151.061 338.751,150.647 338.768 C 149.830 338.803,148.400 340.226,148.400 341.005 C 148.400 341.271,147.950 341.826,147.400 342.239 C 146.850 342.652,146.400 343.105,146.400 343.246 C 146.400 343.388,145.770 344.549,145.000 345.828 C 143.584 348.179,143.270 349.051,144.000 348.600 C 144.220 348.464,144.400 348.543,144.400 348.776 C 144.400 349.009,144.220 349.200,144.000 349.200 C 143.780 349.200,143.600 349.571,143.600 350.024 C 143.600 350.477,143.420 350.736,143.200 350.600 C 142.973 350.460,142.800 350.796,142.800 351.376 C 142.800 351.939,142.620 352.400,142.400 352.400 C 142.180 352.400,142.000 353.019,142.000 353.776 C 142.000 354.533,141.829 355.259,141.619 355.388 C 141.386 355.532,141.227 364.232,141.210 377.812 L 141.182 400.000 199.996 400.000 L 258.810 400.000 258.793 377.784 C 258.784 365.565,258.643 355.650,258.481 355.750 C 258.318 355.851,258.255 355.200,258.340 354.305 C 258.475 352.894,258.404 352.713,257.803 352.943 C 257.222 353.166,257.153 353.042,257.373 352.166 C 257.517 351.593,257.479 350.916,257.289 350.662 C 257.099 350.408,256.715 349.471,256.435 348.581 C 256.154 347.690,255.580 346.520,255.157 345.981 C 254.518 345.164,254.430 345.134,254.632 345.800 C 254.817 346.409,254.780 346.465,254.475 346.036 C 254.254 345.726,254.178 345.202,254.305 344.871 C 254.458 344.473,254.374 344.369,254.058 344.564 C 253.795 344.727,253.606 344.711,253.637 344.530 C 253.809 343.541,253.526 342.800,252.976 342.800 C 252.633 342.800,252.452 342.639,252.574 342.442 C 252.696 342.245,252.515 341.976,252.172 341.845 C 251.830 341.713,251.644 341.452,251.760 341.265 C 252.022 340.841,249.465 338.000,248.822 338.000 C 248.564 338.000,248.464 337.820,248.600 337.600 C 248.736 337.380,248.432 337.186,247.924 337.168 C 247.416 337.151,247.233 337.044,247.517 336.929 C 248.071 336.707,246.165 334.801,245.388 334.800 C 245.162 334.800,244.717 334.440,244.400 334.000 C 244.083 333.560,243.396 333.200,242.874 333.200 C 242.262 333.200,241.851 332.916,241.716 332.400 C 241.600 331.957,241.170 331.600,240.753 331.600 C 240.339 331.600,240.000 331.420,240.000 331.200 C 240.000 330.980,239.651 330.800,239.224 330.800 C 238.797 330.800,238.336 330.620,238.200 330.400 C 238.064 330.180,237.603 330.000,237.176 330.000 C 236.749 330.000,236.400 329.820,236.400 329.600 C 236.400 329.380,235.961 329.200,235.424 329.200 C 234.887 329.200,234.326 329.003,234.177 328.762 C 234.028 328.522,233.221 328.390,232.384 328.470 C 231.495 328.555,230.890 328.446,230.931 328.208 C 230.977 327.937,227.165 327.827,219.600 327.881 C 213.330 327.925,208.560 327.859,209.000 327.734 C 209.440 327.610,209.890 327.393,210.000 327.254 C 210.587 326.509,211.950 326.045,212.171 326.514 C 212.349 326.891,212.452 326.888,212.633 326.500 C 212.762 326.225,213.392 326.000,214.033 326.000 C 214.675 326.000,215.200 325.820,215.200 325.600 C 215.200 325.380,215.535 325.200,215.944 325.200 C 216.353 325.200,217.351 324.750,218.162 324.200 C 218.972 323.650,219.763 323.200,219.918 323.199 C 220.073 323.199,220.830 322.659,221.600 322.000 C 222.370 321.341,223.154 320.801,223.343 320.801 C 223.531 320.800,223.586 320.539,223.463 320.220 C 223.324 319.857,223.433 319.715,223.756 319.839 C 224.040 319.947,224.526 319.724,224.836 319.341 C 225.318 318.748,225.318 318.696,224.838 318.985 C 224.457 319.215,224.368 319.175,224.562 318.862 C 224.719 318.608,225.037 318.400,225.270 318.400 C 225.838 318.400,228.400 315.572,228.400 314.945 C 228.400 314.670,228.765 314.189,229.212 313.877 C 229.666 313.559,230.063 312.784,230.112 312.118 C 230.180 311.202,230.361 310.970,230.900 311.111 C 231.404 311.242,231.600 311.056,231.600 310.447 C 231.600 309.981,231.801 309.600,232.047 309.600 C 232.296 309.600,232.401 309.247,232.284 308.800 C 232.148 308.280,232.272 308.000,232.637 308.000 C 232.971 308.000,233.200 307.593,233.200 307.000 C 233.200 306.450,233.400 306.000,233.644 306.000 C 233.915 306.000,234.024 305.457,233.924 304.600 C 233.828 303.778,233.936 303.200,234.185 303.200 C 234.418 303.200,234.631 302.638,234.660 301.951 C 234.688 301.264,234.894 300.589,235.118 300.451 C 235.369 300.295,235.526 297.413,235.529 292.897 C 235.531 288.573,235.384 285.687,235.167 285.821 C 234.965 285.945,234.800 285.713,234.800 285.304 C 234.800 284.895,234.575 284.318,234.300 284.021 C 233.900 283.590,233.900 283.539,234.300 283.765 C 234.575 283.920,234.800 283.876,234.800 283.666 C 234.800 283.457,234.537 283.185,234.216 283.061 C 233.804 282.903,233.685 282.420,233.813 281.419 C 233.915 280.624,233.820 280.000,233.598 280.000 C 233.379 280.000,233.200 279.550,233.200 279.000 C 233.200 278.407,232.971 278.000,232.637 278.000 C 232.272 278.000,232.148 277.720,232.284 277.200 C 232.401 276.753,232.296 276.400,232.047 276.400 C 231.801 276.400,231.587 275.995,231.572 275.500 C 231.545 274.641,231.528 274.637,231.200 275.400 C 230.869 276.171,230.855 276.169,230.828 275.324 C 230.813 274.842,230.620 274.336,230.400 274.200 C 230.180 274.064,230.000 273.623,230.000 273.219 C 230.000 272.816,229.744 272.387,229.430 272.267 C 229.117 272.147,228.556 271.407,228.185 270.624 C 227.813 269.841,227.229 269.200,226.888 269.200 C 226.546 269.200,226.378 269.089,226.514 268.952 C 226.811 268.655,225.826 267.600,225.252 267.600 C 225.029 267.600,224.719 267.392,224.562 267.138 C 224.368 266.825,224.457 266.785,224.838 267.015 C 225.318 267.304,225.318 267.252,224.836 266.659 C 224.526 266.276,224.040 266.053,223.756 266.161 C 223.433 266.285,223.324 266.143,223.463 265.780 C 223.586 265.461,223.520 265.200,223.318 265.200 C 223.116 265.200,222.555 264.831,222.070 264.380 C 221.586 263.928,221.024 263.661,220.822 263.786 C 220.621 263.911,220.325 263.802,220.166 263.545 C 219.973 263.233,220.051 263.184,220.400 263.400 C 220.746 263.614,220.827 263.567,220.638 263.262 C 220.481 263.008,220.093 262.800,219.776 262.800 C 219.459 262.800,219.200 262.649,219.200 262.464 C 219.200 261.958,217.203 261.151,216.708 261.457 C 216.471 261.604,216.389 261.542,216.526 261.320 C 216.828 260.831,215.123 260.000,213.815 260.000 C 213.293 260.000,212.775 259.775,212.664 259.500 C 212.511 259.124,212.355 259.148,212.030 259.600 C 211.666 260.108,211.562 260.062,211.353 259.300 C 211.145 258.539,210.833 258.400,209.330 258.400 C 208.342 258.400,207.654 258.236,207.782 258.030 C 207.919 257.808,204.803 257.642,200.005 257.617 C 194.744 257.589,192.000 257.716,192.000 257.987 M333.400 258.000 C 333.264 258.220,332.645 258.400,332.025 258.400 C 331.405 258.400,330.689 258.651,330.434 258.959 C 330.179 259.266,329.617 259.425,329.185 259.312 C 328.751 259.199,328.400 259.306,328.400 259.553 C 328.400 259.799,328.044 260.000,327.609 260.000 C 326.535 260.000,322.392 262.064,322.645 262.473 C 322.756 262.653,322.406 262.800,321.866 262.800 C 321.326 262.800,320.772 263.095,320.634 263.457 C 320.414 264.030,320.471 264.044,321.091 263.563 C 321.724 263.073,321.721 263.107,321.062 263.880 C 320.657 264.356,320.073 264.650,319.766 264.532 C 319.458 264.414,319.096 264.605,318.961 264.956 C 318.827 265.308,318.569 265.504,318.389 265.393 C 317.945 265.119,313.600 269.504,313.600 270.226 C 313.600 270.542,313.409 270.800,313.176 270.800 C 312.943 270.800,312.864 270.980,313.000 271.200 C 313.136 271.420,312.947 271.600,312.581 271.600 C 312.159 271.600,311.997 271.816,312.140 272.187 C 312.264 272.510,312.165 272.898,311.921 273.049 C 311.633 273.227,311.590 273.139,311.800 272.800 C 312.014 272.454,311.967 272.373,311.662 272.562 C 311.408 272.719,311.200 273.029,311.200 273.252 C 311.200 273.475,310.930 273.927,310.600 274.257 C 310.270 274.587,310.000 275.204,310.000 275.629 C 310.000 276.053,309.820 276.400,309.600 276.400 C 309.380 276.400,309.200 276.760,309.200 277.200 C 309.200 277.640,308.975 278.013,308.700 278.028 C 308.425 278.044,308.560 278.211,309.000 278.400 C 309.684 278.694,309.699 278.748,309.100 278.772 C 308.715 278.787,308.400 279.070,308.400 279.400 C 308.400 279.730,308.199 280.000,307.953 280.000 C 307.706 280.000,307.599 280.351,307.712 280.785 C 307.825 281.217,307.666 281.779,307.359 282.034 C 307.051 282.289,306.800 283.005,306.800 283.625 C 306.800 284.245,306.620 284.864,306.400 285.000 C 306.156 285.151,306.000 288.263,306.000 293.000 C 306.000 297.737,306.156 300.849,306.400 301.000 C 306.620 301.136,306.806 301.732,306.813 302.324 C 306.820 302.916,307.077 303.732,307.385 304.139 C 307.693 304.545,307.848 305.130,307.730 305.439 C 307.611 305.747,307.714 306.000,307.957 306.000 C 308.201 306.000,308.400 306.270,308.400 306.600 C 308.400 306.930,308.666 307.200,308.990 307.200 C 309.432 307.200,309.520 307.501,309.340 308.400 C 309.187 309.164,309.263 309.600,309.550 309.600 C 309.798 309.600,310.000 309.947,310.000 310.371 C 310.000 310.796,310.235 311.381,310.522 311.671 C 310.810 311.962,311.168 312.526,311.320 312.925 C 311.471 313.324,311.774 313.540,311.993 313.405 C 312.217 313.266,312.293 313.413,312.166 313.743 C 312.027 314.106,312.256 314.427,312.771 314.591 C 313.227 314.736,313.600 315.190,313.600 315.601 C 313.600 316.327,317.919 321.015,318.267 320.666 C 318.363 320.571,319.087 321.102,319.876 321.846 C 320.666 322.591,321.557 323.200,321.856 323.200 C 322.155 323.200,322.400 323.399,322.400 323.643 C 322.400 323.886,322.679 323.978,323.021 323.847 C 323.362 323.716,323.548 323.761,323.433 323.946 C 323.205 324.315,324.889 325.200,325.819 325.200 C 326.138 325.200,326.400 325.380,326.400 325.600 C 326.400 325.820,326.850 326.000,327.400 326.000 C 327.950 326.000,328.400 326.201,328.400 326.447 C 328.400 326.698,328.753 326.801,329.207 326.682 C 329.651 326.566,330.253 326.711,330.546 327.003 C 330.839 327.296,331.600 327.626,332.239 327.737 C 332.878 327.847,328.360 327.889,322.200 327.828 C 311.221 327.720,309.817 327.781,310.169 328.351 C 310.265 328.506,309.748 328.563,309.019 328.478 C 308.291 328.393,307.573 328.521,307.424 328.762 C 307.275 329.003,306.733 329.200,306.219 329.200 C 305.706 329.200,305.177 329.482,305.045 329.828 C 304.889 330.235,304.533 330.369,304.032 330.210 C 303.591 330.070,303.118 330.187,302.930 330.482 C 302.748 330.767,302.330 331.000,302.000 331.000 C 301.670 331.000,301.439 331.207,301.486 331.459 C 301.534 331.712,301.264 331.837,300.884 331.738 C 300.506 331.639,299.837 331.891,299.398 332.299 C 298.959 332.707,298.274 333.165,297.875 333.317 C 297.465 333.474,297.272 333.793,297.430 334.049 C 297.601 334.326,297.495 334.432,297.159 334.320 C 296.856 334.219,296.410 334.330,296.170 334.568 C 295.929 334.806,295.252 335.358,294.666 335.795 C 294.080 336.232,293.600 336.828,293.600 337.119 C 293.600 337.409,293.420 337.536,293.200 337.400 C 292.980 337.264,292.800 337.439,292.800 337.789 C 292.800 338.139,292.485 338.542,292.100 338.685 C 291.220 339.011,289.601 340.835,289.600 341.500 C 289.600 341.775,289.420 342.000,289.200 342.000 C 288.980 342.000,288.800 342.281,288.800 342.624 C 288.800 342.967,288.620 343.136,288.400 343.000 C 288.180 342.864,288.000 343.033,288.000 343.376 C 288.000 343.719,287.820 344.000,287.600 344.000 C 287.380 344.000,287.200 344.270,287.200 344.600 C 287.200 344.930,287.001 345.200,286.757 345.200 C 286.514 345.200,286.412 345.455,286.532 345.767 C 286.652 346.079,286.470 346.441,286.129 346.572 C 285.758 346.714,285.588 347.111,285.706 347.561 C 285.814 347.974,285.727 348.556,285.513 348.856 C 285.220 349.267,285.182 349.224,285.358 348.679 C 285.494 348.257,285.427 348.060,285.195 348.203 C 284.978 348.337,284.800 348.887,284.800 349.424 C 284.800 349.961,284.601 350.400,284.357 350.400 C 284.114 350.400,284.011 350.653,284.130 350.961 C 284.248 351.270,284.093 351.855,283.785 352.261 C 283.147 353.104,283.023 353.757,283.565 353.422 C 283.765 353.298,283.599 353.881,283.195 354.716 C 282.512 356.130,282.457 357.761,282.416 378.118 L 282.372 400.000 341.203 400.000 L 400.034 400.000 399.917 376.933 C 399.826 358.919,399.690 353.830,399.300 353.700 C 399.013 353.604,398.800 352.865,398.800 351.967 C 398.800 351.105,398.620 350.400,398.400 350.400 C 398.180 350.400,398.000 350.068,398.000 349.661 C 398.000 348.523,396.809 346.400,396.171 346.400 C 395.610 346.400,395.488 346.093,395.493 344.700 C 395.495 344.315,395.339 344.000,395.148 344.000 C 394.957 344.000,394.800 343.770,394.800 343.488 C 394.800 343.207,394.440 342.717,394.000 342.400 C 393.560 342.083,393.200 341.593,393.200 341.313 C 393.200 340.633,390.376 337.660,389.162 337.061 C 388.633 336.799,388.022 336.184,387.805 335.693 C 387.588 335.202,387.183 334.800,386.905 334.800 C 386.627 334.800,386.400 334.609,386.400 334.376 C 386.400 334.143,386.220 334.064,386.000 334.200 C 385.780 334.336,385.600 334.167,385.600 333.824 C 385.600 333.467,385.258 333.200,384.800 333.200 C 384.360 333.200,384.000 333.053,384.000 332.874 C 384.000 332.424,380.799 330.754,380.404 330.998 C 380.228 331.106,379.981 330.926,379.854 330.598 C 379.728 330.269,379.169 330.000,378.613 330.000 C 378.056 330.000,377.600 329.799,377.600 329.553 C 377.600 329.291,377.182 329.187,376.590 329.300 C 375.945 329.423,375.458 329.275,375.242 328.890 C 375.022 328.496,374.540 328.356,373.852 328.488 C 373.274 328.599,372.800 328.523,372.800 328.321 C 372.800 328.118,372.620 328.064,372.400 328.200 C 372.180 328.336,372.000 328.279,372.000 328.074 C 372.000 327.848,367.515 327.746,360.700 327.815 C 354.485 327.878,350.018 327.842,350.774 327.734 C 351.791 327.589,351.998 327.444,351.574 327.175 C 351.131 326.895,351.205 326.811,351.900 326.806 C 352.395 326.803,352.800 326.598,352.800 326.351 C 352.800 326.050,353.008 326.075,353.430 326.425 C 353.927 326.837,354.126 326.844,354.366 326.454 C 354.535 326.182,355.061 325.931,355.536 325.895 C 356.011 325.859,356.400 325.731,356.400 325.611 C 356.400 325.491,356.779 325.156,357.242 324.867 C 357.783 324.529,357.982 324.506,357.798 324.804 C 357.524 325.247,359.987 324.149,360.400 323.644 C 360.510 323.509,361.101 323.140,361.714 322.824 C 362.402 322.469,362.744 322.032,362.609 321.680 C 362.462 321.295,362.587 321.186,362.995 321.343 C 363.328 321.471,363.600 321.390,363.600 321.164 C 363.600 320.938,363.753 320.847,363.940 320.963 C 364.706 321.436,369.889 315.764,369.664 314.700 C 369.629 314.535,369.881 314.400,370.224 314.400 C 370.567 314.400,370.736 314.220,370.600 314.000 C 370.464 313.780,370.633 313.600,370.976 313.600 C 371.372 313.600,371.600 313.241,371.600 312.620 C 371.600 312.081,371.829 311.496,372.110 311.320 C 373.035 310.739,373.997 308.858,373.728 308.155 C 373.556 307.709,373.618 307.564,373.904 307.741 C 374.514 308.117,374.748 307.614,375.017 305.350 C 375.144 304.277,375.418 303.340,375.624 303.267 C 375.831 303.193,376.000 302.709,376.000 302.190 C 376.000 301.672,376.180 301.136,376.400 301.000 C 377.254 300.472,376.898 285.798,375.992 284.185 C 375.547 283.393,375.110 281.861,375.020 280.780 C 374.840 278.616,374.536 277.869,373.977 278.214 C 373.775 278.339,373.713 278.171,373.840 277.839 C 373.967 277.508,373.830 276.893,373.536 276.472 C 373.028 275.748,372.800 275.608,372.100 275.594 C 371.935 275.591,372.038 275.437,372.330 275.252 C 372.759 274.979,372.741 274.798,372.230 274.287 C 371.883 273.940,371.600 273.374,371.600 273.029 C 371.600 272.653,371.238 272.387,370.700 272.368 C 370.205 272.351,370.033 272.244,370.317 272.129 C 370.674 271.986,370.488 271.610,369.717 270.914 C 369.103 270.360,368.825 270.028,369.100 270.177 C 369.375 270.325,369.600 270.342,369.600 270.214 C 369.600 269.857,364.335 264.800,363.963 264.800 C 363.783 264.800,363.186 264.350,362.636 263.800 C 362.086 263.250,361.277 262.800,360.838 262.800 C 360.399 262.800,359.896 262.571,359.720 262.290 C 359.200 261.463,357.360 260.440,355.941 260.190 C 355.215 260.062,354.495 259.753,354.341 259.504 C 354.135 259.172,353.902 259.183,353.464 259.547 C 352.972 259.955,352.821 259.897,352.607 259.221 C 352.412 258.607,352.006 258.400,350.997 258.400 C 350.254 258.400,349.532 258.214,349.392 257.987 C 349.015 257.377,334.906 257.516,334.654 258.132 C 334.517 258.468,334.454 258.459,334.432 258.100 C 334.394 257.501,333.747 257.439,333.400 258.000 " stroke="none" fill="#546cfc" fill-rule="evenodd"></path><path id="path1" d="M213.956 74.100 C 213.486 74.995,213.488 74.996,214.342 74.238 C 215.295 73.391,215.382 73.200,214.814 73.200 C 214.602 73.200,214.216 73.605,213.956 74.100 M211.390 110.800 C 211.390 127.190,211.439 133.895,211.500 125.700 C 211.560 117.505,211.560 104.095,211.500 95.900 C 211.439 87.705,211.390 94.410,211.390 110.800 M153.100 141.100 C 159.535 141.162,170.065 141.162,176.500 141.100 C 182.935 141.038,177.670 140.987,164.800 140.987 C 151.930 140.987,146.665 141.038,153.100 141.100 M223.500 141.100 C 229.935 141.162,240.465 141.162,246.900 141.100 C 253.335 141.038,248.070 140.987,235.200 140.987 C 222.330 140.987,217.065 141.038,223.500 141.100 M38.196 263.607 C 38.058 263.830,37.777 263.909,37.572 263.783 C 37.368 263.656,37.200 263.861,37.200 264.238 C 37.200 264.873,37.259 264.870,38.000 264.200 C 38.440 263.802,38.800 263.414,38.800 263.338 C 38.800 263.054,38.438 263.215,38.196 263.607 M320.996 263.607 C 320.858 263.830,320.577 263.909,320.372 263.783 C 320.168 263.656,320.000 263.861,320.000 264.238 C 320.000 264.873,320.059 264.870,320.800 264.200 C 321.240 263.802,321.600 263.414,321.600 263.338 C 321.600 263.054,321.238 263.215,320.996 263.607 M375.080 282.383 C 375.341 283.384,376.000 283.877,376.000 283.073 C 376.000 282.757,375.744 282.286,375.431 282.026 C 374.965 281.639,374.902 281.703,375.080 282.383 M92.400 282.553 C 92.400 282.883,92.580 283.264,92.800 283.400 C 93.020 283.536,93.200 283.377,93.200 283.047 C 93.200 282.717,93.020 282.336,92.800 282.200 C 92.580 282.064,92.400 282.223,92.400 282.553 M233.675 282.425 C 233.771 282.714,234.086 283.029,234.375 283.125 C 234.675 283.225,234.825 283.075,234.725 282.775 C 234.629 282.486,234.314 282.171,234.025 282.075 C 233.725 281.975,233.575 282.125,233.675 282.425 M68.583 327.173 C 68.710 327.378,68.316 327.621,67.707 327.713 C 67.098 327.805,70.380 327.867,75.000 327.850 L 83.400 327.820 76.282 327.701 C 71.781 327.625,69.253 327.438,69.406 327.191 C 69.539 326.976,69.356 326.800,69.000 326.800 C 68.644 326.800,68.456 326.968,68.583 327.173 M210.000 327.172 C 210.000 327.377,209.595 327.622,209.100 327.718 C 208.605 327.813,211.980 327.875,216.600 327.855 L 225.000 327.819 217.682 327.701 C 213.048 327.625,210.453 327.438,210.606 327.191 C 210.738 326.976,210.657 326.800,210.424 326.800 C 210.191 326.800,210.000 326.967,210.000 327.172 M38.122 327.899 C 40.499 327.970,44.279 327.969,46.522 327.898 C 48.765 327.827,46.820 327.769,42.200 327.769 C 37.580 327.770,35.745 327.828,38.122 327.899 M179.300 327.898 C 181.665 327.969,185.535 327.969,187.900 327.898 C 190.265 327.828,188.330 327.770,183.600 327.770 C 178.870 327.770,176.935 327.828,179.300 327.898 M320.922 327.899 C 323.299 327.970,327.079 327.969,329.322 327.898 C 331.565 327.827,329.620 327.769,325.000 327.769 C 320.380 327.770,318.545 327.828,320.922 327.899 M353.722 327.899 C 356.099 327.970,359.879 327.969,362.122 327.898 C 364.365 327.827,362.420 327.769,357.800 327.769 C 353.180 327.770,351.345 327.828,353.722 327.899 M112.533 345.421 C 112.533 345.720,112.743 346.046,113.000 346.145 C 113.257 346.243,113.467 346.079,113.467 345.779 C 113.467 345.480,113.257 345.154,113.000 345.055 C 112.743 344.957,112.533 345.121,112.533 345.421 M395.455 345.800 C 395.582 346.130,395.816 346.400,395.976 346.400 C 396.136 346.400,396.267 346.130,396.267 345.800 C 396.267 345.470,396.032 345.200,395.746 345.200 C 395.447 345.200,395.323 345.456,395.455 345.800 " stroke="none" fill="#586cfc" fill-rule="evenodd"></path><path id="path2" d="M213.956 74.100 C 213.486 74.995,213.488 74.996,214.342 74.238 C 215.295 73.391,215.382 73.200,214.814 73.200 C 214.602 73.200,214.216 73.605,213.956 74.100 M211.390 110.800 C 211.390 127.190,211.439 133.895,211.500 125.700 C 211.560 117.505,211.560 104.095,211.500 95.900 C 211.439 87.705,211.390 94.410,211.390 110.800 M153.100 141.100 C 159.535 141.162,170.065 141.162,176.500 141.100 C 182.935 141.038,177.670 140.987,164.800 140.987 C 151.930 140.987,146.665 141.038,153.100 141.100 M223.500 141.100 C 229.935 141.162,240.465 141.162,246.900 141.100 C 253.335 141.038,248.070 140.987,235.200 140.987 C 222.330 140.987,217.065 141.038,223.500 141.100 M38.196 263.607 C 38.058 263.830,37.777 263.909,37.572 263.783 C 37.368 263.656,37.200 263.861,37.200 264.238 C 37.200 264.873,37.259 264.870,38.000 264.200 C 38.440 263.802,38.800 263.414,38.800 263.338 C 38.800 263.054,38.438 263.215,38.196 263.607 M320.996 263.607 C 320.858 263.830,320.577 263.909,320.372 263.783 C 320.168 263.656,320.000 263.861,320.000 264.238 C 320.000 264.873,320.059 264.870,320.800 264.200 C 321.240 263.802,321.600 263.414,321.600 263.338 C 321.600 263.054,321.238 263.215,320.996 263.607 M375.080 282.383 C 375.341 283.384,376.000 283.877,376.000 283.073 C 376.000 282.757,375.744 282.286,375.431 282.026 C 374.965 281.639,374.902 281.703,375.080 282.383 M92.400 282.553 C 92.400 282.883,92.580 283.264,92.800 283.400 C 93.020 283.536,93.200 283.377,93.200 283.047 C 93.200 282.717,93.020 282.336,92.800 282.200 C 92.580 282.064,92.400 282.223,92.400 282.553 M233.675 282.425 C 233.771 282.714,234.086 283.029,234.375 283.125 C 234.675 283.225,234.825 283.075,234.725 282.775 C 234.629 282.486,234.314 282.171,234.025 282.075 C 233.725 281.975,233.575 282.125,233.675 282.425 M68.583 327.173 C 68.710 327.378,68.316 327.621,67.707 327.713 C 67.098 327.805,70.380 327.867,75.000 327.850 L 83.400 327.820 76.282 327.701 C 71.781 327.625,69.253 327.438,69.406 327.191 C 69.539 326.976,69.356 326.800,69.000 326.800 C 68.644 326.800,68.456 326.968,68.583 327.173 M210.000 327.172 C 210.000 327.377,209.595 327.622,209.100 327.718 C 208.605 327.813,211.980 327.875,216.600 327.855 L 225.000 327.819 217.682 327.701 C 213.048 327.625,210.453 327.438,210.606 327.191 C 210.738 326.976,210.657 326.800,210.424 326.800 C 210.191 326.800,210.000 326.967,210.000 327.172 M38.122 327.899 C 40.499 327.970,44.279 327.969,46.522 327.898 C 48.765 327.827,46.820 327.769,42.200 327.769 C 37.580 327.770,35.745 327.828,38.122 327.899 M179.300 327.898 C 181.665 327.969,185.535 327.969,187.900 327.898 C 190.265 327.828,188.330 327.770,183.600 327.770 C 178.870 327.770,176.935 327.828,179.300 327.898 M320.922 327.899 C 323.299 327.970,327.079 327.969,329.322 327.898 C 331.565 327.827,329.620 327.769,325.000 327.769 C 320.380 327.770,318.545 327.828,320.922 327.899 M353.722 327.899 C 356.099 327.970,359.879 327.969,362.122 327.898 C 364.365 327.827,362.420 327.769,357.800 327.769 C 353.180 327.770,351.345 327.828,353.722 327.899 M112.533 345.421 C 112.533 345.720,112.743 346.046,113.000 346.145 C 113.257 346.243,113.467 346.079,113.467 345.779 C 113.467 345.480,113.257 345.154,113.000 345.055 C 112.743 344.957,112.533 345.121,112.533 345.421 M395.455 345.800 C 395.582 346.130,395.816 346.400,395.976 346.400 C 396.136 346.400,396.267 346.130,396.267 345.800 C 396.267 345.470,396.032 345.200,395.746 345.200 C 395.447 345.200,395.323 345.456,395.455 345.800 " stroke="none" fill="#586cfc" fill-rule="evenodd"></path><path id="path3" d="M213.956 74.100 C 213.486 74.995,213.488 74.996,214.342 74.238 C 215.295 73.391,215.382 73.200,214.814 73.200 C 214.602 73.200,214.216 73.605,213.956 74.100 M211.390 110.800 C 211.390 127.190,211.439 133.895,211.500 125.700 C 211.560 117.505,211.560 104.095,211.500 95.900 C 211.439 87.705,211.390 94.410,211.390 110.800 M153.100 141.100 C 159.535 141.162,170.065 141.162,176.500 141.100 C 182.935 141.038,177.670 140.987,164.800 140.987 C 151.930 140.987,146.665 141.038,153.100 141.100 M223.500 141.100 C 229.935 141.162,240.465 141.162,246.900 141.100 C 253.335 141.038,248.070 140.987,235.200 140.987 C 222.330 140.987,217.065 141.038,223.500 141.100 M38.196 263.607 C 38.058 263.830,37.777 263.909,37.572 263.783 C 37.368 263.656,37.200 263.861,37.200 264.238 C 37.200 264.873,37.259 264.870,38.000 264.200 C 38.440 263.802,38.800 263.414,38.800 263.338 C 38.800 263.054,38.438 263.215,38.196 263.607 M320.996 263.607 C 320.858 263.830,320.577 263.909,320.372 263.783 C 320.168 263.656,320.000 263.861,320.000 264.238 C 320.000 264.873,320.059 264.870,320.800 264.200 C 321.240 263.802,321.600 263.414,321.600 263.338 C 321.600 263.054,321.238 263.215,320.996 263.607 M375.080 282.383 C 375.341 283.384,376.000 283.877,376.000 283.073 C 376.000 282.757,375.744 282.286,375.431 282.026 C 374.965 281.639,374.902 281.703,375.080 282.383 M92.400 282.553 C 92.400 282.883,92.580 283.264,92.800 283.400 C 93.020 283.536,93.200 283.377,93.200 283.047 C 93.200 282.717,93.020 282.336,92.800 282.200 C 92.580 282.064,92.400 282.223,92.400 282.553 M233.675 282.425 C 233.771 282.714,234.086 283.029,234.375 283.125 C 234.675 283.225,234.825 283.075,234.725 282.775 C 234.629 282.486,234.314 282.171,234.025 282.075 C 233.725 281.975,233.575 282.125,233.675 282.425 M68.583 327.173 C 68.710 327.378,68.316 327.621,67.707 327.713 C 67.098 327.805,70.380 327.867,75.000 327.850 L 83.400 327.820 76.282 327.701 C 71.781 327.625,69.253 327.438,69.406 327.191 C 69.539 326.976,69.356 326.800,69.000 326.800 C 68.644 326.800,68.456 326.968,68.583 327.173 M210.000 327.172 C 210.000 327.377,209.595 327.622,209.100 327.718 C 208.605 327.813,211.980 327.875,216.600 327.855 L 225.000 327.819 217.682 327.701 C 213.048 327.625,210.453 327.438,210.606 327.191 C 210.738 326.976,210.657 326.800,210.424 326.800 C 210.191 326.800,210.000 326.967,210.000 327.172 M38.122 327.899 C 40.499 327.970,44.279 327.969,46.522 327.898 C 48.765 327.827,46.820 327.769,42.200 327.769 C 37.580 327.770,35.745 327.828,38.122 327.899 M179.300 327.898 C 181.665 327.969,185.535 327.969,187.900 327.898 C 190.265 327.828,188.330 327.770,183.600 327.770 C 178.870 327.770,176.935 327.828,179.300 327.898 M320.922 327.899 C 323.299 327.970,327.079 327.969,329.322 327.898 C 331.565 327.827,329.620 327.769,325.000 327.769 C 320.380 327.770,318.545 327.828,320.922 327.899 M353.722 327.899 C 356.099 327.970,359.879 327.969,362.122 327.898 C 364.365 327.827,362.420 327.769,357.800 327.769 C 353.180 327.770,351.345 327.828,353.722 327.899 M112.533 345.421 C 112.533 345.720,112.743 346.046,113.000 346.145 C 113.257 346.243,113.467 346.079,113.467 345.779 C 113.467 345.480,113.257 345.154,113.000 345.055 C 112.743 344.957,112.533 345.121,112.533 345.421 M395.455 345.800 C 395.582 346.130,395.816 346.400,395.976 346.400 C 396.136 346.400,396.267 346.130,396.267 345.800 C 396.267 345.470,396.032 345.200,395.746 345.200 C 395.447 345.200,395.323 345.456,395.455 345.800 " stroke="none" fill="#586cfc" fill-rule="evenodd"></path><path id="path4" d="M213.956 74.100 C 213.486 74.995,213.488 74.996,214.342 74.238 C 215.295 73.391,215.382 73.200,214.814 73.200 C 214.602 73.200,214.216 73.605,213.956 74.100 M211.390 110.800 C 211.390 127.190,211.439 133.895,211.500 125.700 C 211.560 117.505,211.560 104.095,211.500 95.900 C 211.439 87.705,211.390 94.410,211.390 110.800 M153.100 141.100 C 159.535 141.162,170.065 141.162,176.500 141.100 C 182.935 141.038,177.670 140.987,164.800 140.987 C 151.930 140.987,146.665 141.038,153.100 141.100 M223.500 141.100 C 229.935 141.162,240.465 141.162,246.900 141.100 C 253.335 141.038,248.070 140.987,235.200 140.987 C 222.330 140.987,217.065 141.038,223.500 141.100 M38.196 263.607 C 38.058 263.830,37.777 263.909,37.572 263.783 C 37.368 263.656,37.200 263.861,37.200 264.238 C 37.200 264.873,37.259 264.870,38.000 264.200 C 38.440 263.802,38.800 263.414,38.800 263.338 C 38.800 263.054,38.438 263.215,38.196 263.607 M320.996 263.607 C 320.858 263.830,320.577 263.909,320.372 263.783 C 320.168 263.656,320.000 263.861,320.000 264.238 C 320.000 264.873,320.059 264.870,320.800 264.200 C 321.240 263.802,321.600 263.414,321.600 263.338 C 321.600 263.054,321.238 263.215,320.996 263.607 M375.080 282.383 C 375.341 283.384,376.000 283.877,376.000 283.073 C 376.000 282.757,375.744 282.286,375.431 282.026 C 374.965 281.639,374.902 281.703,375.080 282.383 M92.400 282.553 C 92.400 282.883,92.580 283.264,92.800 283.400 C 93.020 283.536,93.200 283.377,93.200 283.047 C 93.200 282.717,93.020 282.336,92.800 282.200 C 92.580 282.064,92.400 282.223,92.400 282.553 M233.675 282.425 C 233.771 282.714,234.086 283.029,234.375 283.125 C 234.675 283.225,234.825 283.075,234.725 282.775 C 234.629 282.486,234.314 282.171,234.025 282.075 C 233.725 281.975,233.575 282.125,233.675 282.425 M68.583 327.173 C 68.710 327.378,68.316 327.621,67.707 327.713 C 67.098 327.805,70.380 327.867,75.000 327.850 L 83.400 327.820 76.282 327.701 C 71.781 327.625,69.253 327.438,69.406 327.191 C 69.539 326.976,69.356 326.800,69.000 326.800 C 68.644 326.800,68.456 326.968,68.583 327.173 M210.000 327.172 C 210.000 327.377,209.595 327.622,209.100 327.718 C 208.605 327.813,211.980 327.875,216.600 327.855 L 225.000 327.819 217.682 327.701 C 213.048 327.625,210.453 327.438,210.606 327.191 C 210.738 326.976,210.657 326.800,210.424 326.800 C 210.191 326.800,210.000 326.967,210.000 327.172 M38.122 327.899 C 40.499 327.970,44.279 327.969,46.522 327.898 C 48.765 327.827,46.820 327.769,42.200 327.769 C 37.580 327.770,35.745 327.828,38.122 327.899 M179.300 327.898 C 181.665 327.969,185.535 327.969,187.900 327.898 C 190.265 327.828,188.330 327.770,183.600 327.770 C 178.870 327.770,176.935 327.828,179.300 327.898 M320.922 327.899 C 323.299 327.970,327.079 327.969,329.322 327.898 C 331.565 327.827,329.620 327.769,325.000 327.769 C 320.380 327.770,318.545 327.828,320.922 327.899 M353.722 327.899 C 356.099 327.970,359.879 327.969,362.122 327.898 C 364.365 327.827,362.420 327.769,357.800 327.769 C 353.180 327.770,351.345 327.828,353.722 327.899 M112.533 345.421 C 112.533 345.720,112.743 346.046,113.000 346.145 C 113.257 346.243,113.467 346.079,113.467 345.779 C 113.467 345.480,113.257 345.154,113.000 345.055 C 112.743 344.957,112.533 345.121,112.533 345.421 M395.455 345.800 C 395.582 346.130,395.816 346.400,395.976 346.400 C 396.136 346.400,396.267 346.130,396.267 345.800 C 396.267 345.470,396.032 345.200,395.746 345.200 C 395.447 345.200,395.323 345.456,395.455 345.800 " stroke="none" fill="#586cfc" fill-rule="evenodd"></path></g></svg>