<svg id="svg" version="1.1" xmlns="http://www.w3.org/2000/svg" xmlns:xlink="http://www.w3.org/1999/xlink" width="400" height="400" viewBox="0, 0, 400,400"><g id="svgg"><path id="path0" d="M197.539 0.700 C 197.506 0.865,197.459 1.223,197.435 1.497 C 197.411 1.770,197.213 2.021,196.996 2.054 C 196.452 2.139,194.800 4.430,194.800 5.101 C 194.800 5.402,194.620 5.536,194.400 5.400 C 194.040 5.178,193.827 5.703,193.953 6.500 C 193.979 6.665,193.730 6.800,193.400 6.800 C 193.035 6.800,192.800 7.172,192.800 7.751 C 192.800 8.628,191.941 9.799,191.563 9.437 C 191.473 9.351,191.168 9.533,190.884 9.840 C 190.463 10.297,190.463 10.403,190.884 10.414 C 191.168 10.422,190.950 10.686,190.400 11.000 C 189.850 11.314,189.569 11.578,189.776 11.586 C 189.984 11.594,189.804 11.864,189.376 12.187 C 188.949 12.510,188.738 12.780,188.907 12.787 C 189.076 12.794,188.581 13.415,187.807 14.167 C 186.472 15.464,185.934 16.335,186.800 15.800 C 187.020 15.664,187.200 15.749,187.200 15.989 C 187.200 16.229,186.885 16.546,186.501 16.693 C 185.578 17.047,184.000 18.643,184.000 19.221 C 184.000 19.473,183.460 20.183,182.800 20.800 C 182.140 21.417,181.600 22.209,181.600 22.560 C 181.600 22.912,181.401 23.200,181.157 23.200 C 180.914 23.200,180.814 23.461,180.937 23.780 C 181.070 24.127,180.967 24.285,180.679 24.175 C 179.920 23.884,178.981 25.615,179.663 26.047 C 180.069 26.304,180.016 26.389,179.447 26.394 C 179.033 26.397,178.358 26.788,177.947 27.261 C 177.109 28.228,176.988 28.578,177.630 28.182 C 177.866 28.036,177.828 28.287,177.545 28.740 C 177.262 29.193,176.952 29.485,176.856 29.389 C 176.562 29.095,175.202 30.879,175.434 31.255 C 175.700 31.685,174.593 32.860,174.248 32.514 C 174.111 32.378,174.000 32.477,174.000 32.733 C 174.000 32.990,173.460 33.200,172.800 33.200 C 172.140 33.200,171.600 33.380,171.600 33.600 C 171.600 33.820,171.137 34.000,170.571 34.000 C 170.006 34.000,169.289 34.254,168.978 34.564 C 168.668 34.875,168.051 35.034,167.607 34.918 C 167.153 34.799,166.800 34.902,166.800 35.153 C 166.800 35.399,166.372 35.600,165.849 35.600 C 165.326 35.600,164.683 35.859,164.420 36.176 C 164.157 36.493,163.667 36.647,163.330 36.518 C 162.994 36.389,162.578 36.512,162.405 36.792 C 162.232 37.071,161.621 37.300,161.045 37.300 C 160.470 37.300,160.000 37.458,160.000 37.650 C 160.000 37.843,159.475 38.000,158.833 38.000 C 158.192 38.000,157.599 38.203,157.517 38.450 C 157.434 38.698,156.890 38.900,156.307 38.900 C 155.724 38.900,155.151 39.152,155.032 39.460 C 154.888 39.837,154.489 39.937,153.809 39.766 C 153.185 39.610,152.800 39.682,152.800 39.957 C 152.800 40.200,152.539 40.400,152.220 40.400 C 151.901 40.400,151.456 40.715,151.232 41.100 C 151.008 41.485,150.819 41.600,150.812 41.355 C 150.805 41.094,150.373 40.993,149.763 41.109 C 149.097 41.236,148.899 41.414,149.209 41.606 C 149.475 41.770,148.950 41.915,148.043 41.927 C 147.128 41.940,146.122 42.221,145.785 42.558 C 145.450 42.892,144.930 43.071,144.629 42.956 C 144.328 42.840,143.962 42.938,143.817 43.173 C 143.672 43.408,143.113 43.600,142.576 43.600 C 142.039 43.600,141.600 43.755,141.600 43.945 C 141.600 44.134,141.152 44.203,140.605 44.099 C 139.963 43.976,139.530 44.117,139.385 44.495 C 139.241 44.871,138.807 45.014,138.174 44.893 C 137.359 44.737,137.236 44.828,137.462 45.417 C 137.687 46.003,137.576 46.087,136.829 45.892 C 136.331 45.761,135.670 45.752,135.361 45.870 C 134.723 46.115,134.591 47.200,135.200 47.200 C 135.420 47.200,135.600 47.581,135.600 48.047 C 135.600 48.665,135.794 48.843,136.319 48.705 C 136.831 48.571,137.057 48.758,137.101 49.351 C 137.195 50.595,138.031 51.956,138.864 52.220 C 139.269 52.349,139.600 52.826,139.600 53.280 C 139.600 54.188,141.097 55.711,141.652 55.368 C 141.843 55.250,142.000 55.523,142.000 55.976 C 142.000 56.429,142.225 56.803,142.500 56.806 C 142.833 56.810,142.800 56.942,142.400 57.200 C 141.807 57.583,142.265 57.811,143.300 57.647 C 143.465 57.621,143.614 57.825,143.631 58.100 C 143.704 59.300,143.967 60.025,144.537 60.594 C 144.873 60.930,145.266 61.577,145.410 62.031 C 145.573 62.544,145.894 62.773,146.257 62.634 C 146.578 62.510,146.747 62.562,146.632 62.748 C 146.300 63.285,147.340 65.193,147.967 65.197 C 148.278 65.199,148.414 65.319,148.269 65.464 C 148.124 65.609,148.364 65.980,148.803 66.287 C 149.241 66.594,149.600 67.195,149.600 67.623 C 149.600 68.050,149.780 68.400,150.000 68.400 C 150.220 68.400,150.400 68.670,150.400 69.000 C 150.400 69.330,150.580 69.600,150.800 69.600 C 151.020 69.600,151.200 69.827,151.200 70.105 C 151.200 70.383,151.647 70.946,152.192 71.355 C 152.738 71.765,153.087 72.259,152.967 72.453 C 152.847 72.647,153.030 72.913,153.372 73.045 C 153.715 73.176,153.896 73.445,153.774 73.642 C 153.652 73.839,153.880 74.000,154.280 74.000 C 154.680 74.000,155.244 74.379,155.533 74.842 C 155.822 75.305,155.866 75.564,155.630 75.418 C 154.853 74.938,155.182 75.810,156.000 76.400 C 156.440 76.717,156.800 77.297,156.800 77.688 C 156.800 78.080,157.049 78.400,157.354 78.400 C 157.659 78.400,158.203 78.850,158.563 79.400 C 159.045 80.135,159.083 80.402,158.709 80.406 C 158.313 80.411,158.309 80.481,158.690 80.724 C 159.066 80.962,159.187 85.772,159.211 101.318 L 159.241 121.600 160.587 121.600 C 161.328 121.600,161.996 121.412,162.073 121.182 C 162.149 120.952,162.659 120.736,163.206 120.701 C 163.753 120.667,164.315 120.472,164.455 120.269 C 164.594 120.066,165.179 119.900,165.755 119.900 C 166.330 119.900,166.800 119.743,166.800 119.550 C 166.800 119.358,167.081 119.200,167.424 119.200 C 167.816 119.200,167.936 119.015,167.747 118.700 C 167.574 118.412,167.761 118.454,168.188 118.800 C 168.754 119.258,168.970 119.281,169.098 118.900 C 169.191 118.625,169.612 118.400,170.033 118.400 C 170.455 118.400,170.803 118.175,170.806 117.900 C 170.810 117.566,170.938 117.598,171.189 117.997 C 171.490 118.472,171.668 118.492,172.063 118.097 C 172.337 117.823,172.980 117.600,173.493 117.600 C 174.005 117.600,174.518 117.357,174.633 117.059 C 174.759 116.729,175.221 116.591,175.820 116.706 C 176.387 116.814,176.800 116.705,176.800 116.447 C 176.800 116.201,177.325 116.000,177.967 116.000 C 178.608 116.000,179.197 115.809,179.275 115.576 C 179.352 115.343,180.004 115.135,180.722 115.115 C 181.441 115.094,182.123 114.925,182.238 114.739 C 182.353 114.552,182.977 114.400,183.624 114.400 C 184.271 114.400,184.800 114.220,184.800 114.000 C 184.800 113.780,185.263 113.600,185.829 113.600 C 186.394 113.600,187.111 113.346,187.422 113.036 C 187.732 112.725,188.349 112.566,188.793 112.682 C 189.247 112.801,189.600 112.698,189.600 112.447 C 189.600 112.201,189.924 112.000,190.320 112.000 C 190.716 112.000,191.219 111.821,191.438 111.602 C 191.657 111.383,192.368 111.144,193.018 111.070 C 194.452 110.909,195.696 110.408,196.100 109.829 C 196.302 109.540,196.529 109.596,196.794 110.000 C 197.057 110.401,197.190 110.434,197.194 110.100 C 197.201 109.495,200.233 109.406,200.600 110.000 C 200.736 110.220,201.567 110.400,202.447 110.400 C 203.412 110.400,203.949 110.559,203.800 110.800 C 203.656 111.033,204.063 111.200,204.776 111.200 C 205.449 111.200,206.000 111.380,206.000 111.600 C 206.000 111.820,206.540 112.000,207.200 112.000 C 207.860 112.000,208.400 112.180,208.400 112.400 C 208.400 112.620,208.940 112.800,209.600 112.800 C 210.260 112.800,210.800 112.980,210.800 113.200 C 210.800 113.420,210.991 113.600,211.224 113.600 C 211.457 113.600,211.512 113.375,211.347 113.100 C 211.142 112.758,211.260 112.773,211.721 113.147 C 212.092 113.448,212.757 113.600,213.198 113.485 C 213.720 113.348,214.000 113.471,214.000 113.837 C 214.000 114.171,214.407 114.400,215.000 114.400 C 215.550 114.400,216.000 114.580,216.000 114.800 C 216.000 115.020,216.540 115.200,217.200 115.200 C 217.860 115.200,218.400 115.380,218.400 115.600 C 218.400 115.820,218.940 116.000,219.600 116.000 C 220.260 116.000,220.800 116.180,220.800 116.400 C 220.800 116.620,221.340 116.800,222.000 116.800 C 222.660 116.800,223.200 116.980,223.200 117.200 C 223.200 117.420,223.391 117.600,223.624 117.600 C 223.857 117.600,223.912 117.375,223.747 117.100 C 223.543 116.760,223.663 116.776,224.123 117.149 C 224.495 117.451,224.806 117.541,224.813 117.349 C 224.820 117.157,225.090 117.349,225.413 117.776 C 225.943 118.477,226.000 118.485,226.000 117.853 C 226.000 117.468,226.183 117.266,226.407 117.404 C 226.630 117.542,226.709 117.823,226.583 118.028 C 226.456 118.232,226.713 118.400,227.153 118.400 C 227.593 118.400,228.064 118.580,228.200 118.800 C 228.336 119.020,228.977 119.200,229.624 119.200 C 230.271 119.200,230.800 119.380,230.800 119.600 C 230.800 119.820,231.340 120.000,232.000 120.000 C 232.660 120.000,233.200 120.201,233.200 120.447 C 233.200 120.693,233.551 120.802,233.981 120.689 C 234.411 120.577,235.086 120.730,235.481 121.030 C 235.877 121.329,236.788 121.580,237.506 121.587 L 238.811 121.600 238.567 119.300 C 238.432 118.035,238.239 116.865,238.137 116.700 C 238.036 116.535,238.143 116.400,238.376 116.400 C 238.612 116.400,238.800 115.600,238.800 114.600 C 238.800 113.610,238.644 112.800,238.454 112.800 C 238.261 112.800,238.254 112.044,238.436 111.100 C 238.919 108.605,238.876 106.000,238.351 106.000 C 238.021 106.000,238.020 105.858,238.346 105.464 C 238.651 105.098,238.790 101.185,238.787 93.072 C 238.783 80.790,238.810 80.565,240.510 78.634 C 240.900 78.191,241.134 77.605,241.030 77.333 C 240.925 77.061,241.371 76.391,242.020 75.845 C 242.669 75.299,243.200 74.660,243.200 74.426 C 243.200 74.192,243.374 74.000,243.587 74.000 C 243.801 74.000,243.860 73.700,243.719 73.334 C 243.547 72.885,243.617 72.763,243.935 72.960 C 244.211 73.130,244.521 72.951,244.684 72.526 C 244.836 72.128,245.384 71.380,245.899 70.864 C 246.640 70.124,246.739 69.808,246.370 69.363 C 246.000 68.918,246.038 68.800,246.551 68.800 C 246.908 68.800,247.200 68.530,247.200 68.200 C 247.200 67.867,247.556 67.600,248.000 67.600 C 248.447 67.600,248.800 67.333,248.800 66.996 C 248.800 66.664,249.340 65.828,250.000 65.137 C 250.660 64.446,251.200 63.531,251.200 63.103 C 251.200 62.654,251.548 62.234,252.023 62.110 C 252.523 61.979,252.761 61.675,252.629 61.332 C 252.511 61.023,252.680 60.667,253.007 60.542 C 253.333 60.417,253.600 60.034,253.600 59.691 C 253.600 59.347,253.719 59.186,253.865 59.332 C 254.011 59.477,254.755 58.652,255.519 57.498 C 256.284 56.344,257.258 55.014,257.684 54.543 C 258.110 54.072,258.500 53.404,258.550 53.059 C 258.601 52.713,259.038 52.088,259.521 51.668 C 260.005 51.249,260.400 50.652,260.400 50.341 C 260.400 50.031,260.760 49.517,261.200 49.200 C 261.640 48.883,262.000 48.318,262.000 47.945 C 262.000 47.572,262.212 47.196,262.472 47.109 C 262.748 47.017,262.830 46.654,262.669 46.235 C 262.505 45.808,262.151 45.610,261.797 45.746 C 261.468 45.872,261.197 45.756,261.194 45.487 C 261.190 45.179,261.045 45.221,260.800 45.600 C 260.474 46.105,260.411 46.082,260.406 45.453 C 260.401 44.876,260.176 44.750,259.412 44.896 C 258.869 44.999,258.513 44.940,258.622 44.764 C 258.845 44.404,256.285 43.606,254.900 43.602 C 254.405 43.601,254.000 43.420,254.000 43.200 C 254.000 42.980,253.179 42.800,252.176 42.800 C 251.063 42.800,250.449 42.644,250.600 42.400 C 250.736 42.180,250.567 42.000,250.224 42.000 C 249.881 42.000,249.600 41.820,249.600 41.600 C 249.600 41.380,249.060 41.200,248.400 41.200 C 247.740 41.200,247.200 41.008,247.200 40.773 C 247.200 40.536,246.863 40.453,246.442 40.587 C 246.007 40.725,245.423 40.566,245.071 40.214 C 244.346 39.488,243.600 39.411,243.600 40.061 C 243.600 40.315,243.264 40.135,242.853 39.661 C 242.442 39.187,241.633 38.800,241.053 38.800 C 240.474 38.800,240.000 38.620,240.000 38.400 C 240.000 38.180,239.561 38.000,239.024 38.000 C 238.487 38.000,237.936 37.820,237.800 37.600 C 237.664 37.380,237.113 37.200,236.576 37.200 C 236.039 37.200,235.600 37.006,235.600 36.769 C 235.600 36.511,234.930 36.387,233.930 36.459 C 232.874 36.536,232.200 36.400,232.097 36.090 C 232.007 35.820,231.678 35.600,231.367 35.600 C 231.055 35.600,230.800 35.400,230.800 35.155 C 230.800 34.887,230.320 34.780,229.600 34.885 C 228.835 34.998,228.400 34.887,228.400 34.581 C 228.400 34.316,227.930 34.100,227.355 34.100 C 226.779 34.100,226.170 33.874,225.999 33.599 C 225.829 33.323,225.513 33.207,225.296 33.340 C 224.819 33.635,223.503 32.535,222.843 31.289 C 222.577 30.788,222.184 30.486,221.970 30.619 C 221.756 30.751,221.606 30.711,221.637 30.530 C 221.783 29.693,221.551 29.200,221.013 29.200 C 220.655 29.200,220.515 28.965,220.655 28.600 C 220.820 28.172,220.615 27.998,219.943 27.994 C 219.337 27.990,219.176 27.876,219.491 27.676 C 219.852 27.446,219.773 27.213,219.191 26.794 C 218.756 26.480,218.400 25.980,218.400 25.683 C 218.400 25.386,218.130 24.873,217.800 24.543 C 217.470 24.213,217.200 24.080,217.200 24.248 C 217.200 24.780,216.026 23.024,216.013 22.471 C 215.998 21.857,214.987 20.747,214.701 21.032 C 214.595 21.138,214.266 20.635,213.971 19.913 C 213.315 18.310,212.411 17.263,212.379 18.071 C 212.368 18.362,212.065 17.880,211.706 17.000 C 211.347 16.120,210.727 15.109,210.327 14.753 C 209.927 14.397,209.600 13.902,209.600 13.653 C 209.600 13.404,209.341 13.200,209.024 13.200 C 208.707 13.200,208.319 12.992,208.162 12.738 C 207.985 12.452,208.052 12.385,208.338 12.562 C 209.404 13.220,208.392 11.608,206.103 8.998 C 205.716 8.558,205.145 7.703,204.832 7.098 C 204.520 6.494,204.015 6.000,203.709 6.000 C 203.403 6.000,203.252 5.839,203.374 5.642 C 203.496 5.445,203.325 5.180,202.994 5.053 C 202.663 4.926,202.439 4.592,202.496 4.311 C 202.557 4.012,202.241 3.819,201.736 3.845 C 201.039 3.881,200.906 3.708,201.044 2.945 C 201.162 2.298,201.028 2.000,200.620 2.000 C 200.230 2.000,200.113 1.771,200.281 1.334 C 200.452 0.887,200.383 0.764,200.068 0.958 C 199.811 1.117,199.600 1.057,199.600 0.824 C 199.600 0.349,197.634 0.231,197.539 0.700 M61.291 48.316 C 60.595 49.132,60.020 50.105,60.013 50.477 C 60.006 50.850,59.641 51.406,59.203 51.713 C 58.764 52.020,58.510 52.377,58.639 52.506 C 58.768 52.635,58.663 53.068,58.406 53.470 C 57.991 54.120,57.964 54.123,58.157 53.500 C 58.277 53.115,58.201 52.800,57.987 52.800 C 57.774 52.800,57.600 53.120,57.600 53.512 C 57.600 53.903,57.240 54.483,56.800 54.800 C 56.360 55.117,56.000 55.624,56.000 55.927 C 56.000 56.608,54.389 58.922,54.109 58.642 C 53.838 58.371,52.800 59.426,52.800 59.971 C 52.800 60.207,52.659 60.400,52.486 60.400 C 52.062 60.400,50.773 62.622,51.011 62.944 C 51.115 63.085,51.083 63.113,50.940 63.007 C 50.526 62.699,48.801 64.923,48.800 65.767 C 48.800 66.188,48.689 66.422,48.552 66.286 C 48.176 65.910,47.112 67.134,47.404 67.607 C 47.545 67.834,47.421 67.970,47.130 67.910 C 46.782 67.838,46.645 68.124,46.733 68.744 C 46.823 69.387,46.697 69.632,46.336 69.512 C 45.675 69.292,45.102 69.855,44.193 71.620 C 43.802 72.379,43.148 73.291,42.741 73.647 C 42.333 74.003,42.000 74.471,42.000 74.688 C 42.000 74.904,41.460 75.646,40.800 76.337 C 40.140 77.028,39.600 77.735,39.600 77.908 C 39.600 78.081,39.250 78.476,38.821 78.785 C 38.393 79.093,38.134 79.493,38.245 79.673 C 38.356 79.853,37.807 80.000,37.024 80.000 C 36.241 80.000,35.600 80.180,35.600 80.400 C 35.600 80.620,35.161 80.800,34.624 80.800 C 34.087 80.800,33.536 80.980,33.400 81.200 C 33.264 81.420,32.758 81.606,32.276 81.613 C 31.794 81.620,31.058 81.884,30.641 82.200 C 30.224 82.516,29.709 82.667,29.496 82.536 C 29.284 82.405,28.971 82.523,28.801 82.799 C 28.630 83.074,28.021 83.300,27.445 83.300 C 26.870 83.300,26.400 83.458,26.400 83.650 C 26.400 83.843,26.130 84.000,25.800 84.000 C 25.470 84.000,25.200 84.281,25.200 84.624 C 25.200 84.967,25.017 85.134,24.793 84.996 C 24.570 84.858,24.491 84.577,24.617 84.372 C 24.744 84.168,24.657 84.000,24.424 84.000 C 24.191 84.000,24.000 84.180,24.000 84.400 C 24.000 84.620,23.475 84.800,22.833 84.800 C 22.192 84.800,21.604 84.988,21.527 85.218 C 21.451 85.448,20.941 85.666,20.394 85.703 C 19.847 85.741,19.170 85.995,18.888 86.269 C 18.607 86.542,18.130 86.671,17.829 86.556 C 17.528 86.440,17.162 86.538,17.017 86.773 C 16.872 87.008,16.335 87.200,15.825 87.200 C 15.315 87.200,14.689 87.451,14.434 87.759 C 14.179 88.066,13.617 88.225,13.185 88.112 C 12.751 87.999,12.400 88.106,12.400 88.353 C 12.400 88.599,12.145 88.800,11.833 88.800 C 11.522 88.800,11.175 89.025,11.064 89.300 C 10.911 89.676,10.756 89.652,10.437 89.200 C 10.149 88.793,10.010 88.761,10.006 89.100 C 10.003 89.375,9.745 89.600,9.433 89.600 C 9.122 89.600,8.794 89.817,8.706 90.082 C 8.607 90.379,7.901 90.527,6.873 90.466 C 5.918 90.410,5.200 90.546,5.200 90.784 C 5.200 91.013,4.750 91.200,4.200 91.200 C 3.650 91.200,3.200 91.380,3.200 91.600 C 3.200 91.820,2.737 92.000,2.171 92.000 C 0.949 92.000,-0.000 92.840,-0.000 93.922 C -0.000 94.641,0.852 95.721,1.242 95.497 C 1.334 95.443,1.198 95.588,0.940 95.818 C 0.592 96.129,0.771 96.474,1.636 97.163 C 2.276 97.673,2.800 98.449,2.800 98.888 C 2.800 99.420,2.993 99.612,3.380 99.463 C 3.787 99.307,3.886 99.433,3.712 99.886 C 3.547 100.316,3.620 100.435,3.932 100.242 C 4.243 100.050,4.400 100.297,4.400 100.976 C 4.400 101.637,4.621 102.000,5.024 102.000 C 5.367 102.000,5.536 102.180,5.400 102.400 C 5.264 102.620,5.343 102.800,5.576 102.800 C 5.809 102.800,6.000 103.070,6.000 103.400 C 6.000 103.730,6.180 104.000,6.400 104.000 C 6.620 104.000,6.800 104.270,6.800 104.600 C 6.800 104.930,7.081 105.200,7.424 105.200 C 7.767 105.200,7.948 105.361,7.826 105.558 C 7.704 105.755,7.885 106.024,8.228 106.155 C 8.570 106.287,8.756 106.548,8.639 106.737 C 8.376 107.163,9.858 108.798,10.516 108.806 C 10.856 108.810,10.840 108.913,10.464 109.152 C 10.041 109.420,10.126 109.693,10.864 110.446 C 11.379 110.971,12.055 111.895,12.368 112.500 C 12.680 113.105,13.175 113.600,13.468 113.600 C 13.760 113.600,13.979 113.735,13.953 113.900 C 13.827 114.696,14.081 115.245,15.000 116.164 C 15.550 116.714,16.000 117.442,16.000 117.782 C 16.000 118.122,16.281 118.400,16.624 118.400 C 16.967 118.400,17.136 118.580,17.000 118.800 C 16.864 119.020,16.899 119.200,17.079 119.200 C 17.258 119.200,17.644 119.740,17.936 120.401 C 18.244 121.096,18.880 121.705,19.446 121.847 C 20.135 122.020,20.361 122.293,20.210 122.769 C 20.091 123.143,20.353 123.829,20.798 124.305 C 21.239 124.779,21.600 125.314,21.600 125.495 C 21.600 125.676,21.960 126.083,22.400 126.400 C 23.125 126.922,23.200 127.435,23.200 131.855 C 23.200 135.383,23.338 136.789,23.700 136.935 C 24.100 137.096,24.100 137.143,23.700 137.168 C 22.995 137.213,22.995 146.019,23.700 146.779 C 24.071 147.178,24.074 147.246,23.713 147.043 C 23.042 146.665,23.064 157.542,23.736 158.377 C 24.096 158.824,24.087 158.886,23.698 158.652 C 23.306 158.416,23.203 159.447,23.228 163.375 C 23.246 166.390,23.416 168.400,23.653 168.400 C 23.870 168.400,23.920 168.175,23.765 167.900 C 23.539 167.500,23.590 167.500,24.021 167.900 C 24.665 168.497,26.000 168.565,26.000 168.000 C 26.000 167.780,26.540 167.600,27.200 167.600 C 27.860 167.600,28.400 167.420,28.400 167.200 C 28.400 166.980,28.951 166.800,29.624 166.800 C 30.337 166.800,30.744 166.633,30.600 166.400 C 30.388 166.057,31.869 165.778,32.930 165.963 C 33.111 165.994,33.145 165.835,33.006 165.610 C 32.858 165.370,33.187 165.200,33.800 165.200 C 34.531 165.200,34.757 165.049,34.547 164.700 C 34.352 164.376,34.490 164.398,34.940 164.763 C 35.466 165.190,35.746 165.214,36.097 164.863 C 36.352 164.608,36.938 164.400,37.400 164.400 C 37.862 164.400,38.415 164.225,38.629 164.011 C 38.842 163.798,39.373 163.554,39.809 163.471 C 40.244 163.387,41.050 163.133,41.600 162.906 C 42.150 162.679,42.735 162.573,42.900 162.671 C 43.065 162.768,43.200 162.657,43.200 162.424 C 43.200 162.191,43.725 162.000,44.367 162.000 C 45.008 162.000,45.600 161.801,45.681 161.558 C 45.762 161.314,46.395 161.087,47.087 161.052 C 47.779 161.017,48.477 160.856,48.639 160.694 C 48.801 160.532,49.443 160.400,50.067 160.400 C 50.690 160.400,51.200 160.220,51.200 160.000 C 51.200 159.780,51.455 159.600,51.767 159.600 C 52.078 159.600,52.425 159.375,52.536 159.100 C 52.689 158.724,52.844 158.748,53.163 159.200 C 53.451 159.607,53.590 159.639,53.594 159.300 C 53.597 159.025,53.949 158.800,54.376 158.800 C 54.803 158.800,55.264 158.619,55.401 158.399 C 55.537 158.178,56.116 158.114,56.687 158.258 C 57.363 158.427,57.877 158.323,58.162 157.959 C 58.403 157.652,59.050 157.359,59.600 157.308 C 60.150 157.258,61.711 157.073,63.069 156.896 C 64.427 156.720,65.464 156.697,65.373 156.844 C 65.112 157.266,69.178 158.461,69.996 158.201 C 70.401 158.073,70.848 158.155,70.990 158.384 C 71.131 158.613,71.787 158.800,72.447 158.800 C 73.145 158.800,73.544 158.967,73.400 159.200 C 73.256 159.433,73.663 159.600,74.376 159.600 C 75.049 159.600,75.600 159.780,75.600 160.000 C 75.600 160.220,76.039 160.400,76.576 160.400 C 77.113 160.400,77.672 160.592,77.817 160.827 C 77.962 161.062,78.315 161.165,78.602 161.055 C 78.888 160.945,79.455 161.107,79.861 161.415 C 80.268 161.723,81.084 161.980,81.676 161.987 C 82.268 161.994,82.864 162.180,83.000 162.400 C 83.136 162.620,83.777 162.800,84.424 162.800 C 85.071 162.800,85.600 162.980,85.600 163.200 C 85.600 163.420,86.140 163.600,86.800 163.600 C 87.460 163.600,88.000 163.780,88.000 164.000 C 88.000 164.220,88.540 164.400,89.200 164.400 C 89.890 164.400,90.403 164.612,90.406 164.900 C 90.410 165.233,90.542 165.200,90.800 164.800 C 91.082 164.364,91.189 164.343,91.194 164.724 C 91.197 165.012,91.365 165.145,91.568 165.020 C 91.770 164.895,92.207 165.064,92.539 165.396 C 92.871 165.728,93.576 166.000,94.105 166.000 C 94.634 166.000,95.193 166.127,95.348 166.282 C 95.503 166.437,96.115 166.629,96.708 166.708 C 97.300 166.787,97.904 167.045,98.050 167.281 C 98.196 167.517,98.784 167.620,99.357 167.510 C 100.010 167.385,100.400 167.490,100.400 167.789 C 100.400 168.055,100.941 168.267,101.619 168.267 L 102.838 168.267 102.719 158.337 C 102.627 150.674,102.714 148.364,103.100 148.217 C 103.990 147.876,103.796 136.804,102.900 136.787 C 102.233 136.775,102.233 136.749,102.900 136.243 C 103.695 135.640,103.875 132.376,103.210 130.626 C 102.937 129.908,102.953 129.600,103.262 129.600 C 103.544 129.600,103.622 129.093,103.477 128.200 C 103.353 127.430,103.419 126.800,103.625 126.800 C 103.831 126.800,104.000 126.555,104.000 126.256 C 104.000 125.957,104.450 125.374,105.000 124.961 C 105.550 124.548,106.000 124.011,106.000 123.767 C 106.000 123.523,106.366 122.992,106.814 122.587 C 107.262 122.182,107.549 121.643,107.451 121.389 C 107.354 121.135,107.454 120.674,107.675 120.364 C 107.980 119.934,108.019 119.990,107.837 120.600 L 107.598 121.400 108.185 120.600 C 108.508 120.160,108.977 119.563,109.226 119.274 C 109.476 118.985,109.589 118.400,109.477 117.974 C 109.366 117.548,109.439 117.301,109.640 117.425 C 110.062 117.685,111.200 116.666,111.200 116.029 C 111.200 115.793,111.380 115.600,111.600 115.600 C 111.820 115.600,112.000 115.330,112.000 115.000 C 112.000 114.670,112.191 114.400,112.424 114.400 C 112.657 114.400,112.736 114.220,112.600 114.000 C 112.464 113.780,112.633 113.600,112.976 113.600 C 113.385 113.600,113.600 113.233,113.600 112.533 C 113.600 111.947,113.711 111.578,113.848 111.714 C 114.266 112.133,115.292 110.817,115.047 110.178 C 114.899 109.791,115.167 109.416,115.795 109.129 C 116.334 108.884,116.680 108.529,116.564 108.342 C 116.448 108.154,116.633 108.000,116.976 108.000 C 117.319 108.000,117.600 107.730,117.600 107.400 C 117.600 107.070,117.791 106.800,118.024 106.800 C 118.257 106.800,118.348 106.639,118.226 106.442 C 118.104 106.245,118.274 105.981,118.602 105.854 C 118.931 105.728,119.200 105.389,119.200 105.101 C 119.200 104.813,119.560 104.317,119.999 104.001 C 120.477 103.656,120.712 103.152,120.583 102.746 C 120.464 102.373,120.583 101.934,120.846 101.772 C 121.172 101.570,121.222 101.654,121.003 102.038 C 120.827 102.347,121.078 102.193,121.562 101.695 C 122.045 101.197,122.314 100.584,122.159 100.333 C 121.995 100.068,122.053 99.985,122.296 100.136 C 122.800 100.447,123.313 99.306,122.939 98.702 C 122.782 98.448,122.867 98.394,123.149 98.569 C 123.706 98.913,125.255 97.225,125.015 96.536 C 124.926 96.281,125.291 95.743,125.826 95.341 C 127.040 94.430,127.151 92.800,126.000 92.800 C 125.560 92.800,125.200 92.620,125.200 92.400 C 125.200 92.180,125.009 92.000,124.776 92.000 C 124.543 92.000,124.472 92.193,124.618 92.430 C 124.764 92.666,124.505 92.622,124.042 92.333 C 123.579 92.044,123.200 91.671,123.200 91.504 C 123.200 91.337,122.660 91.200,122.000 91.200 C 121.340 91.200,120.800 91.059,120.800 90.887 C 120.800 90.715,120.305 90.534,119.700 90.484 C 119.095 90.434,118.540 90.215,118.467 89.997 C 118.393 89.778,117.808 89.600,117.167 89.600 C 116.525 89.600,116.000 89.459,116.000 89.287 C 116.000 89.115,115.505 88.934,114.900 88.884 C 114.295 88.834,113.740 88.615,113.667 88.397 C 113.593 88.178,113.008 88.000,112.367 88.000 C 111.725 88.000,111.200 87.806,111.200 87.570 C 111.200 87.327,110.634 87.191,109.900 87.257 C 109.042 87.335,108.634 87.209,108.700 86.887 C 108.755 86.619,108.470 86.400,108.067 86.400 C 107.663 86.400,107.209 86.275,107.056 86.123 C 106.904 85.971,106.383 85.786,105.898 85.712 C 105.414 85.638,104.842 85.402,104.629 85.189 C 104.415 84.975,103.772 84.800,103.200 84.800 C 102.049 84.800,100.008 83.970,100.003 83.500 C 100.001 83.335,99.809 83.200,99.576 83.200 C 99.343 83.200,99.264 83.380,99.400 83.600 C 99.536 83.820,99.457 84.000,99.224 84.000 C 98.991 84.000,98.800 83.832,98.800 83.627 C 98.800 83.277,97.691 82.770,96.448 82.552 C 96.144 82.499,95.703 82.263,95.468 82.028 C 95.232 81.792,94.637 81.600,94.144 81.600 C 93.651 81.600,93.138 81.423,93.004 81.206 C 92.870 80.990,92.036 80.903,91.151 81.014 C 90.097 81.147,89.631 81.074,89.799 80.802 C 89.940 80.574,90.251 80.508,90.489 80.655 C 90.759 80.822,90.808 80.736,90.617 80.427 C 90.448 80.154,89.970 80.019,89.555 80.128 C 89.042 80.262,88.536 79.952,87.970 79.158 C 87.513 78.516,86.945 78.111,86.708 78.257 C 86.451 78.415,86.392 78.336,86.562 78.062 C 86.719 77.808,86.657 77.600,86.424 77.600 C 86.191 77.600,86.029 77.465,86.064 77.300 C 86.188 76.712,85.510 75.608,85.158 75.826 C 84.961 75.948,84.800 75.767,84.800 75.424 C 84.800 75.081,84.620 74.800,84.400 74.800 C 84.180 74.800,84.000 74.575,84.000 74.300 C 83.999 73.644,82.232 71.600,81.666 71.600 C 81.424 71.600,81.328 71.332,81.454 71.003 C 81.585 70.663,81.408 70.301,81.044 70.161 C 80.692 70.027,80.484 69.788,80.581 69.631 C 80.678 69.474,80.407 69.093,79.979 68.785 C 79.550 68.476,79.200 67.985,79.200 67.694 C 79.200 67.030,77.371 65.162,77.042 65.491 C 76.909 65.624,76.800 65.352,76.800 64.887 C 76.800 64.421,76.485 63.856,76.100 63.632 C 75.715 63.408,75.542 63.219,75.716 63.212 C 75.889 63.205,75.838 62.975,75.602 62.700 C 75.366 62.425,74.896 61.840,74.557 61.400 C 74.218 60.960,74.072 60.853,74.232 61.162 C 74.425 61.534,74.366 61.626,74.055 61.434 C 73.798 61.275,73.696 60.968,73.830 60.751 C 73.964 60.535,73.697 60.031,73.237 59.632 C 72.777 59.233,72.400 58.689,72.400 58.425 C 72.400 57.836,71.675 57.082,70.507 56.457 C 69.984 56.177,69.720 55.752,69.854 55.404 C 70.191 54.525,69.048 53.523,68.396 54.126 C 67.995 54.496,67.949 54.483,68.188 54.062 C 68.534 53.454,67.758 51.724,66.703 50.753 C 66.316 50.397,66.000 49.892,66.000 49.629 C 66.000 49.367,65.820 49.264,65.600 49.400 C 65.380 49.536,65.200 49.277,65.200 48.824 C 65.200 48.344,64.939 48.000,64.576 48.000 C 64.233 48.000,64.052 47.839,64.174 47.642 C 64.296 47.445,64.117 47.177,63.777 47.046 C 63.357 46.885,63.254 46.968,63.456 47.305 C 63.690 47.694,63.626 47.697,63.155 47.316 C 62.662 46.917,62.335 47.093,61.291 48.316 M337.015 47.175 C 336.866 47.416,336.576 47.509,336.369 47.381 C 335.864 47.069,334.684 48.288,334.998 48.797 C 335.135 49.019,335.052 49.200,334.814 49.200 C 334.575 49.200,334.209 49.650,334.000 50.200 C 333.791 50.750,333.345 51.200,333.010 51.200 C 332.674 51.200,332.400 51.391,332.400 51.624 C 332.400 51.857,332.563 51.946,332.763 51.823 C 332.962 51.700,333.029 51.967,332.912 52.416 C 332.794 52.865,332.496 53.164,332.249 53.079 C 331.487 52.818,329.965 54.875,330.469 55.484 C 330.803 55.886,330.623 56.103,329.683 56.431 C 329.013 56.665,328.356 57.139,328.223 57.485 C 328.016 58.023,328.083 58.038,328.691 57.586 C 329.081 57.295,328.905 57.547,328.300 58.145 C 327.695 58.743,327.200 59.506,327.200 59.840 C 327.200 60.174,327.040 60.349,326.845 60.228 C 326.650 60.107,326.268 60.277,325.996 60.604 C 325.724 60.932,325.659 61.200,325.851 61.200 C 326.043 61.201,325.733 61.606,325.163 62.100 C 324.592 62.595,324.204 63.231,324.300 63.513 C 324.396 63.794,324.233 63.974,323.938 63.913 C 323.635 63.849,323.424 64.106,323.456 64.500 C 323.486 64.885,323.327 65.200,323.102 65.200 C 322.629 65.200,320.801 67.228,320.800 67.753 C 320.800 67.947,320.434 68.424,319.986 68.812 C 319.539 69.200,319.200 69.671,319.234 69.859 C 319.386 70.712,319.140 71.165,318.394 71.402 C 317.951 71.543,317.692 71.825,317.818 72.029 C 317.944 72.233,317.779 72.400,317.451 72.400 C 317.122 72.400,316.732 72.805,316.582 73.300 C 316.433 73.795,315.926 74.560,315.455 75.001 C 313.894 76.463,312.797 78.327,313.074 79.048 C 313.274 79.569,313.181 79.678,312.699 79.493 C 312.347 79.358,311.859 79.488,311.615 79.782 C 311.370 80.077,310.772 80.230,310.285 80.124 C 309.640 79.983,309.547 80.035,309.943 80.315 C 310.653 80.819,309.978 81.227,308.807 81.001 C 308.307 80.905,307.516 81.038,307.049 81.297 C 306.582 81.556,305.989 81.725,305.730 81.673 C 305.472 81.621,305.146 81.764,305.007 81.989 C 304.867 82.215,304.324 82.400,303.800 82.400 C 303.276 82.400,302.736 82.580,302.600 82.800 C 302.464 83.020,301.958 83.206,301.476 83.213 C 300.994 83.220,300.268 83.477,299.861 83.785 C 299.455 84.093,298.862 84.245,298.545 84.123 C 298.196 83.989,298.013 84.114,298.084 84.438 C 298.166 84.819,297.819 84.940,296.890 84.856 C 295.972 84.773,295.612 84.896,295.690 85.264 C 295.764 85.621,295.445 85.751,294.700 85.667 C 293.972 85.585,293.600 85.729,293.600 86.094 C 293.600 86.459,293.193 86.618,292.401 86.563 C 291.742 86.517,291.302 86.642,291.425 86.840 C 291.547 87.038,291.007 87.200,290.224 87.200 C 289.441 87.200,288.800 87.380,288.800 87.600 C 288.800 87.820,288.260 88.000,287.600 88.000 C 286.940 88.000,286.400 88.180,286.400 88.400 C 286.400 88.620,285.875 88.800,285.233 88.800 C 284.592 88.800,284.007 88.978,283.933 89.197 C 283.860 89.415,283.305 89.634,282.700 89.684 C 282.095 89.734,281.600 89.915,281.600 90.087 C 281.600 90.259,281.060 90.400,280.400 90.400 C 279.740 90.400,279.200 90.580,279.200 90.800 C 279.200 91.020,278.750 91.200,278.200 91.200 C 277.650 91.200,277.200 91.380,277.200 91.600 C 277.200 91.820,276.660 92.000,276.000 92.000 C 275.340 92.000,274.800 92.159,274.800 92.353 C 274.800 92.548,274.440 92.801,274.000 92.916 C 273.559 93.031,273.200 93.462,273.200 93.874 C 273.200 94.286,273.560 94.883,274.000 95.200 C 274.440 95.517,274.800 95.998,274.800 96.268 C 274.800 96.539,275.115 96.944,275.500 97.168 C 275.885 97.392,276.025 97.581,275.811 97.588 C 275.597 97.595,275.822 97.880,276.311 98.223 C 276.800 98.565,277.200 99.167,277.200 99.560 C 277.200 99.954,277.650 100.799,278.200 101.438 C 278.749 102.077,279.199 102.746,279.200 102.924 C 279.200 103.102,279.408 103.119,279.662 102.962 C 279.936 102.793,280.015 102.851,279.858 103.106 C 279.712 103.342,279.864 103.807,280.196 104.139 C 280.528 104.471,280.800 104.908,280.800 105.109 C 280.800 105.687,282.233 106.834,282.554 106.513 C 282.712 106.354,282.730 106.516,282.594 106.872 C 282.457 107.228,282.566 107.655,282.835 107.821 C 283.136 108.008,283.221 107.957,283.055 107.689 C 282.908 107.451,282.959 107.149,283.168 107.019 C 283.385 106.886,283.476 107.192,283.379 107.726 C 283.254 108.416,283.467 108.808,284.172 109.185 C 284.739 109.488,285.047 109.933,284.920 110.263 C 284.716 110.795,286.617 112.798,287.327 112.800 C 287.507 112.800,287.542 113.154,287.404 113.587 C 287.209 114.201,287.386 114.431,288.208 114.638 C 289.044 114.848,289.216 115.081,289.043 115.772 C 288.896 116.356,289.083 116.828,289.612 117.209 C 290.046 117.521,290.400 118.013,290.400 118.301 C 290.400 118.589,290.669 118.928,290.998 119.054 C 291.326 119.181,291.496 119.445,291.374 119.642 C 291.252 119.839,291.343 120.000,291.576 120.000 C 291.809 120.000,292.000 120.270,292.000 120.600 C 292.000 120.930,292.180 121.200,292.400 121.200 C 292.620 121.200,292.800 121.470,292.800 121.800 C 292.800 122.130,292.939 122.400,293.109 122.400 C 293.279 122.400,293.757 123.030,294.172 123.800 C 294.587 124.570,295.049 125.200,295.199 125.200 C 295.942 125.200,296.400 127.637,296.400 131.585 C 296.400 134.689,296.543 135.991,296.900 136.135 C 297.300 136.296,297.300 136.343,296.900 136.368 C 296.540 136.391,296.402 137.380,296.406 139.900 C 296.410 142.217,296.538 143.201,296.785 142.811 C 297.112 142.293,297.179 142.293,297.345 142.811 C 297.640 143.735,297.504 144.800,297.091 144.800 C 296.884 144.800,296.818 144.530,296.945 144.200 C 297.071 143.870,297.001 143.600,296.787 143.600 C 296.294 143.600,296.303 146.512,296.801 148.600 C 297.012 149.480,297.193 154.268,297.205 159.240 L 297.227 168.279 298.414 168.313 C 299.066 168.331,299.600 168.179,299.600 167.973 C 299.600 167.768,300.140 167.600,300.800 167.600 C 301.531 167.600,301.961 167.410,301.900 167.113 C 301.834 166.791,302.242 166.665,303.099 166.743 C 303.855 166.811,304.645 166.612,304.992 166.266 C 305.318 165.939,305.949 165.766,306.393 165.882 C 306.847 166.001,307.200 165.898,307.200 165.647 C 307.200 165.401,307.725 165.200,308.367 165.200 C 309.008 165.200,309.601 164.997,309.683 164.750 C 309.766 164.502,310.318 164.300,310.909 164.300 C 311.501 164.300,311.888 164.143,311.769 163.950 C 311.558 163.608,312.442 163.427,313.557 163.583 C 313.864 163.626,314.249 163.445,314.412 163.181 C 314.575 162.916,315.220 162.700,315.845 162.700 C 316.470 162.700,317.365 162.448,317.834 162.141 C 318.303 161.833,318.983 161.695,319.344 161.834 C 319.709 161.974,320.000 161.889,320.000 161.643 C 320.000 161.399,320.540 161.200,321.200 161.200 C 321.860 161.200,322.400 161.020,322.400 160.800 C 322.400 160.580,322.940 160.400,323.600 160.400 C 324.260 160.400,324.800 160.259,324.800 160.087 C 324.800 159.726,327.613 158.841,329.540 158.597 C 330.970 158.416,333.385 157.711,334.495 157.151 C 334.877 156.958,335.562 156.800,336.018 156.800 C 336.474 156.800,336.755 156.650,336.641 156.467 C 336.528 156.283,336.689 156.133,337.000 156.133 C 337.311 156.133,337.456 156.310,337.323 156.525 C 337.175 156.764,337.476 156.817,338.099 156.661 C 338.809 156.483,339.186 156.586,339.346 157.003 C 339.479 157.351,340.081 157.600,340.787 157.600 C 341.454 157.600,342.000 157.760,342.000 157.955 C 342.000 158.501,344.559 158.761,344.894 158.249 C 345.102 157.931,345.190 157.946,345.194 158.300 C 345.197 158.575,345.470 158.800,345.800 158.800 C 346.130 158.800,346.400 159.001,346.400 159.247 C 346.400 159.493,346.751 159.602,347.181 159.489 C 347.611 159.377,348.286 159.530,348.681 159.830 C 349.077 160.129,349.884 160.380,350.476 160.387 C 351.068 160.394,351.664 160.580,351.800 160.800 C 351.936 161.020,352.577 161.200,353.224 161.200 C 353.871 161.200,354.400 161.380,354.400 161.600 C 354.400 161.820,354.940 162.000,355.600 162.000 C 356.260 162.000,356.800 162.180,356.800 162.400 C 356.800 162.620,357.655 162.813,358.700 162.828 C 360.130 162.849,360.402 162.941,359.800 163.200 C 359.130 163.488,359.211 163.548,360.300 163.572 C 361.015 163.587,361.600 163.801,361.600 164.047 C 361.600 164.293,361.951 164.402,362.381 164.289 C 362.811 164.177,363.486 164.330,363.881 164.630 C 364.277 164.929,365.095 165.180,365.700 165.187 C 366.305 165.194,366.800 165.380,366.800 165.600 C 366.800 165.820,367.340 166.000,368.000 166.000 C 368.660 166.000,369.200 166.180,369.200 166.400 C 369.200 166.620,369.740 166.800,370.400 166.800 C 371.060 166.800,371.600 166.958,371.600 167.150 C 371.600 167.343,372.088 167.500,372.683 167.500 C 373.279 167.500,373.834 167.702,373.917 167.950 C 373.999 168.197,374.660 168.400,375.384 168.400 L 376.702 168.400 376.717 164.500 C 376.726 162.107,376.552 160.377,376.266 160.023 C 375.953 159.636,375.947 159.534,376.246 159.713 C 376.936 160.126,376.999 139.173,376.310 138.736 C 375.910 138.482,375.908 138.411,376.300 138.406 C 376.677 138.402,376.800 136.971,376.800 132.603 C 376.800 127.240,376.860 126.769,377.600 126.307 C 378.040 126.032,378.400 125.673,378.400 125.508 C 378.400 125.344,378.671 124.892,379.003 124.505 C 379.335 124.117,379.575 123.710,379.536 123.600 C 379.497 123.490,380.119 122.706,380.919 121.859 C 381.718 121.011,382.357 120.201,382.339 120.059 C 382.248 119.360,382.428 118.694,382.648 118.914 C 382.981 119.247,384.000 118.194,384.000 117.517 C 384.000 117.220,384.360 116.717,384.799 116.401 C 385.328 116.020,385.522 115.550,385.373 115.012 C 385.190 114.353,385.228 114.313,385.574 114.800 C 385.934 115.307,386.038 115.261,386.247 114.500 C 386.382 114.005,386.663 113.600,386.870 113.600 C 387.078 113.600,387.124 113.400,386.973 113.156 C 386.822 112.912,387.168 112.309,387.742 111.816 C 388.316 111.323,388.669 110.802,388.526 110.660 C 388.383 110.517,388.586 110.400,388.976 110.400 C 389.453 110.400,389.607 110.196,389.447 109.779 C 389.311 109.423,389.378 109.263,389.605 109.403 C 389.999 109.646,390.152 109.140,390.031 108.000 C 389.977 107.501,390.030 107.494,390.340 107.954 C 390.769 108.590,391.600 107.407,391.600 106.160 C 391.600 105.779,391.709 105.576,391.843 105.709 C 392.221 106.087,393.123 105.064,392.907 104.502 C 392.800 104.223,393.011 104.000,393.381 104.000 C 393.747 104.000,393.950 103.843,393.831 103.650 C 393.712 103.458,394.062 102.965,394.608 102.555 C 395.153 102.146,395.600 101.493,395.600 101.105 C 395.600 100.717,395.780 100.400,396.000 100.400 C 396.220 100.400,396.400 100.119,396.400 99.776 C 396.400 99.433,396.580 99.264,396.800 99.400 C 397.020 99.536,397.200 99.367,397.200 99.024 C 397.200 98.681,397.545 98.055,397.967 97.633 C 398.388 97.212,398.628 96.762,398.500 96.633 C 398.372 96.505,398.551 96.400,398.898 96.400 C 399.324 96.400,399.618 95.875,399.802 94.786 C 400.119 92.910,399.580 92.000,398.151 92.000 C 397.628 92.000,397.200 91.849,397.200 91.665 C 397.200 91.480,396.589 91.307,395.841 91.279 C 393.869 91.204,393.473 91.079,392.753 90.300 C 392.397 89.915,391.632 89.600,391.053 89.600 C 390.474 89.600,390.000 89.420,390.000 89.200 C 390.000 88.980,389.561 88.800,389.024 88.800 C 388.487 88.800,387.936 88.620,387.800 88.400 C 387.664 88.180,387.113 88.000,386.576 88.000 C 386.039 88.000,385.600 87.820,385.600 87.600 C 385.600 87.380,385.060 87.200,384.400 87.200 C 383.740 87.200,383.200 87.016,383.200 86.792 C 383.200 86.568,382.740 86.468,382.179 86.570 C 381.523 86.688,381.078 86.548,380.936 86.177 C 380.814 85.858,380.197 85.600,379.557 85.600 C 378.921 85.600,378.400 85.449,378.400 85.265 C 378.400 85.080,377.760 84.906,376.978 84.876 C 376.195 84.847,375.043 84.458,374.416 84.011 C 373.789 83.565,372.910 83.200,372.462 83.200 C 372.014 83.200,371.528 83.008,371.383 82.773 C 371.238 82.538,370.888 82.434,370.605 82.543 C 370.323 82.651,369.711 82.473,369.246 82.147 C 368.585 81.684,368.399 81.669,368.394 82.077 C 368.389 82.486,368.312 82.480,368.039 82.049 C 367.847 81.746,367.489 81.621,367.245 81.772 C 366.991 81.929,366.800 81.779,366.800 81.424 C 366.800 80.997,366.420 80.800,365.600 80.800 C 364.940 80.800,364.400 80.620,364.400 80.400 C 364.400 80.180,363.948 80.000,363.396 80.000 C 362.827 80.000,361.849 79.481,361.137 78.800 C 360.446 78.140,360.006 77.600,360.159 77.600 C 360.311 77.600,359.978 77.142,359.418 76.582 C 358.858 76.022,358.400 75.329,358.400 75.041 C 358.400 74.754,357.905 73.994,357.300 73.352 C 356.695 72.711,355.949 71.703,355.643 71.112 C 355.336 70.522,354.894 70.075,354.661 70.119 C 354.427 70.164,354.213 70.020,354.184 69.800 C 354.048 68.772,353.323 67.673,351.827 66.231 C 350.932 65.367,350.425 64.793,350.700 64.954 C 350.975 65.115,351.200 65.057,351.200 64.824 C 351.200 64.591,350.919 64.400,350.576 64.400 C 350.233 64.400,350.064 64.220,350.200 64.000 C 350.336 63.780,350.257 63.600,350.024 63.600 C 349.791 63.600,349.600 63.407,349.600 63.171 C 349.600 62.532,348.542 61.596,348.183 61.919 C 348.012 62.074,347.992 61.990,348.140 61.732 C 348.287 61.475,348.136 60.993,347.804 60.661 C 347.472 60.329,347.200 59.941,347.200 59.800 C 347.200 59.337,346.101 58.432,345.848 58.686 C 345.711 58.822,345.600 58.633,345.600 58.267 C 345.600 57.900,345.420 57.600,345.200 57.600 C 344.980 57.600,344.800 57.221,344.800 56.757 C 344.800 56.147,344.623 55.983,344.155 56.162 C 343.696 56.338,343.577 56.237,343.741 55.809 C 343.870 55.474,343.770 55.252,343.514 55.305 C 343.263 55.357,342.866 54.860,342.631 54.200 C 342.397 53.540,342.024 52.797,341.802 52.549 C 341.581 52.301,341.142 51.726,340.827 51.270 C 340.512 50.815,340.126 50.522,339.969 50.619 C 339.812 50.716,339.577 50.517,339.446 50.177 C 339.311 49.823,339.378 49.663,339.605 49.803 C 340.340 50.257,340.006 49.707,338.643 48.219 C 337.805 47.304,337.182 46.905,337.015 47.175 M192.722 141.619 C 192.655 141.811,191.025 141.998,189.100 142.035 C 187.175 142.072,185.600 142.259,185.600 142.451 C 185.600 142.643,184.430 142.800,183.000 142.800 C 181.533 142.800,180.400 142.974,180.400 143.200 C 180.400 143.420,179.579 143.600,178.576 143.600 C 177.573 143.600,176.848 143.754,176.964 143.942 C 177.081 144.130,176.735 144.200,176.195 144.097 C 174.941 143.857,173.098 144.312,173.393 144.788 C 173.522 144.998,172.993 145.051,172.147 144.914 C 171.307 144.778,170.771 144.831,170.899 145.038 C 171.022 145.237,170.493 145.446,169.725 145.503 C 168.957 145.559,167.972 145.854,167.538 146.158 C 167.104 146.463,166.420 146.626,166.019 146.521 C 165.618 146.416,165.169 146.526,165.022 146.765 C 164.874 147.004,164.358 147.206,163.876 147.213 C 163.394 147.220,162.668 147.477,162.261 147.785 C 161.855 148.093,161.268 148.247,160.957 148.128 C 160.584 147.985,160.467 148.108,160.613 148.489 C 160.784 148.935,160.558 149.026,159.617 148.888 C 158.883 148.780,158.400 148.886,158.400 149.155 C 158.400 149.400,157.937 149.600,157.371 149.600 C 156.806 149.600,156.071 149.872,155.739 150.204 C 155.407 150.536,154.972 150.706,154.772 150.583 C 154.573 150.459,154.511 150.624,154.636 150.949 C 154.816 151.418,154.596 151.498,153.575 151.337 C 152.867 151.226,152.176 151.315,152.040 151.535 C 151.904 151.756,151.528 151.995,151.206 152.068 C 150.883 152.141,150.385 152.417,150.098 152.683 C 149.811 152.949,149.312 153.064,148.988 152.940 C 148.665 152.816,148.400 152.914,148.400 153.157 C 148.400 153.401,148.166 153.600,147.880 153.600 C 147.144 153.600,145.207 154.541,145.203 154.900 C 145.201 155.065,144.840 155.200,144.400 155.200 C 143.960 155.200,143.600 155.380,143.600 155.600 C 143.600 155.820,143.240 156.000,142.800 156.000 C 142.360 156.000,142.000 156.180,142.000 156.400 C 142.000 156.620,141.717 156.800,141.371 156.800 C 139.641 156.800,139.600 157.170,139.600 172.971 L 139.600 188.000 98.700 188.000 L 57.800 188.000 57.800 222.500 C 57.800 241.991,57.954 257.112,58.153 257.256 C 58.347 257.398,59.017 257.478,59.640 257.434 C 60.280 257.390,60.864 257.589,60.980 257.891 C 61.103 258.212,61.707 258.394,62.492 258.346 C 63.212 258.302,64.250 258.398,64.800 258.559 C 65.558 258.781,65.655 258.751,65.200 258.432 C 64.832 258.174,64.784 258.010,65.076 258.006 C 65.338 258.003,65.664 258.180,65.800 258.400 C 65.936 258.620,66.757 258.800,67.624 258.800 C 68.491 258.800,69.200 258.951,69.200 259.135 C 69.200 259.319,70.046 259.502,71.080 259.541 C 72.114 259.581,73.059 259.770,73.180 259.963 C 73.301 260.155,74.660 260.331,76.199 260.353 C 77.738 260.375,79.058 260.575,79.132 260.797 C 79.206 261.019,79.882 261.200,80.633 261.200 C 81.385 261.200,82.000 261.380,82.000 261.600 C 82.000 261.820,82.990 262.000,84.200 262.000 C 85.410 262.000,86.400 262.180,86.400 262.400 C 86.400 262.620,87.289 262.800,88.376 262.800 C 89.463 262.800,90.464 262.980,90.600 263.200 C 90.736 263.420,91.827 263.600,93.024 263.600 C 94.221 263.600,95.200 263.780,95.200 264.000 C 95.200 264.220,96.201 264.400,97.424 264.400 C 98.714 264.400,99.549 264.558,99.414 264.777 C 99.279 264.996,100.062 265.148,101.277 265.138 C 102.458 265.129,103.438 265.314,103.520 265.561 C 103.601 265.802,104.541 266.000,105.610 266.000 C 106.678 266.000,107.653 266.163,107.776 266.362 C 107.899 266.560,108.941 266.731,110.092 266.739 C 111.243 266.748,112.249 266.946,112.326 267.178 C 112.403 267.410,113.442 267.600,114.633 267.600 C 115.825 267.600,116.800 267.780,116.800 268.000 C 116.800 268.220,117.700 268.400,118.800 268.400 C 119.925 268.400,120.800 268.583,120.800 268.818 C 120.800 269.059,121.534 269.199,122.524 269.148 C 123.472 269.099,124.487 269.207,124.780 269.388 C 125.073 269.569,126.130 269.785,127.127 269.868 C 128.125 269.951,129.140 270.185,129.384 270.386 C 129.627 270.588,130.750 270.719,131.880 270.677 C 133.069 270.632,133.906 270.768,133.867 271.000 C 133.830 271.220,134.658 271.426,135.707 271.457 C 136.756 271.488,137.840 271.701,138.115 271.929 C 138.389 272.157,139.630 272.400,140.872 272.468 C 142.113 272.536,143.044 272.728,142.941 272.896 C 142.771 273.170,145.802 273.404,147.140 273.221 C 147.462 273.177,147.562 273.338,147.388 273.619 C 147.174 273.966,147.634 274.044,149.129 273.914 C 150.248 273.817,151.073 273.881,150.965 274.057 C 150.691 274.501,152.603 274.931,153.817 274.699 C 154.368 274.593,154.915 274.663,155.033 274.854 C 155.151 275.044,156.306 275.200,157.600 275.200 C 158.894 275.200,160.064 275.380,160.200 275.600 C 160.336 275.820,161.157 276.000,162.024 276.000 C 162.891 276.000,163.600 276.151,163.600 276.335 C 163.600 276.519,164.449 276.702,165.487 276.742 C 166.524 276.781,167.550 276.990,167.767 277.207 C 168.329 277.769,168.900 277.693,168.565 277.100 C 168.339 276.700,168.390 276.700,168.821 277.100 C 169.118 277.375,170.213 277.600,171.256 277.600 C 172.299 277.600,173.264 277.780,173.400 278.000 C 173.536 278.220,174.267 278.400,175.024 278.400 C 175.781 278.400,176.400 278.580,176.400 278.800 C 176.400 279.020,177.379 279.200,178.576 279.200 C 179.773 279.200,180.864 279.380,181.000 279.600 C 181.136 279.820,182.036 280.000,183.000 280.000 C 183.964 280.000,184.864 280.180,185.000 280.400 C 185.136 280.620,186.227 280.800,187.424 280.800 C 188.672 280.800,189.600 280.978,189.600 281.218 C 189.600 281.462,190.356 281.598,191.405 281.543 C 192.398 281.492,193.424 281.664,193.685 281.925 C 193.946 282.186,194.936 282.400,195.885 282.400 C 196.834 282.400,197.992 282.625,198.458 282.900 C 199.135 283.300,199.341 283.300,199.486 282.900 C 199.596 282.595,200.414 282.400,201.588 282.400 C 202.644 282.400,204.002 282.144,204.604 281.832 C 205.207 281.519,205.947 281.358,206.250 281.474 C 206.552 281.591,206.803 281.441,206.806 281.143 C 206.811 280.723,206.898 280.735,207.189 281.197 C 207.490 281.672,207.668 281.692,208.063 281.297 C 208.337 281.023,209.514 280.800,210.680 280.800 C 211.846 280.800,212.800 280.620,212.800 280.400 C 212.800 280.180,213.700 280.000,214.800 280.000 C 215.900 280.000,216.800 279.820,216.800 279.600 C 216.800 279.380,217.779 279.200,218.976 279.200 C 220.173 279.200,221.264 279.020,221.400 278.800 C 221.536 278.580,222.447 278.400,223.424 278.400 C 224.401 278.400,225.200 278.220,225.200 278.000 C 225.200 277.778,226.256 277.600,227.567 277.600 C 228.868 277.600,229.993 277.430,230.067 277.221 C 230.140 277.013,231.055 276.800,232.100 276.747 C 233.145 276.694,234.000 276.504,234.000 276.325 C 234.000 276.146,234.979 276.000,236.176 276.000 C 237.373 276.000,238.464 275.820,238.600 275.600 C 238.736 275.380,239.647 275.200,240.624 275.200 C 241.601 275.200,242.400 275.047,242.400 274.860 C 242.400 274.673,243.214 274.602,244.208 274.701 C 245.369 274.817,246.336 274.677,246.908 274.311 C 247.417 273.986,248.427 273.807,249.262 273.894 C 250.066 273.978,250.842 273.856,250.986 273.623 C 251.130 273.390,252.126 273.200,253.200 273.200 C 254.274 273.200,255.264 273.020,255.400 272.800 C 255.536 272.580,256.522 272.400,257.590 272.400 C 258.680 272.400,259.600 272.201,259.684 271.948 C 259.770 271.690,260.637 271.511,261.701 271.533 C 262.727 271.553,264.027 271.331,264.591 271.038 C 265.155 270.746,266.186 270.573,266.884 270.654 C 267.581 270.736,268.265 270.619,268.403 270.395 C 268.541 270.172,269.587 269.968,270.727 269.942 C 271.867 269.916,272.800 269.739,272.800 269.548 C 272.800 269.356,273.700 269.200,274.800 269.200 C 275.900 269.200,276.800 269.020,276.800 268.800 C 276.800 268.580,277.779 268.400,278.976 268.400 C 280.173 268.400,281.264 268.220,281.400 268.000 C 281.536 267.780,282.522 267.600,283.590 267.600 C 284.682 267.600,285.600 267.401,285.684 267.147 C 285.771 266.886,286.722 266.693,287.918 266.693 C 289.063 266.693,290.000 266.537,290.000 266.347 C 290.000 266.156,290.900 266.000,292.000 266.000 C 293.100 266.000,294.000 265.820,294.000 265.600 C 294.000 265.380,294.996 265.200,296.213 265.200 C 297.619 265.200,298.495 265.017,298.618 264.698 C 298.746 264.363,299.428 264.244,300.654 264.342 C 301.707 264.425,302.613 264.302,302.766 264.054 C 302.914 263.816,303.972 263.587,305.117 263.547 C 306.263 263.506,307.200 263.322,307.200 263.137 C 307.200 262.951,308.085 262.800,309.167 262.800 C 310.308 262.800,311.199 262.604,311.289 262.334 C 311.386 262.043,312.251 261.896,313.592 261.944 C 314.774 261.985,315.853 261.838,315.990 261.616 C 316.127 261.394,317.086 261.181,318.120 261.141 C 319.154 261.102,320.000 260.919,320.000 260.735 C 320.000 260.551,320.975 260.400,322.167 260.400 C 323.358 260.400,324.393 260.232,324.467 260.027 C 324.540 259.822,325.410 259.597,326.400 259.527 C 327.390 259.457,328.300 259.267,328.421 259.104 C 328.543 258.941,330.427 258.705,332.609 258.580 C 334.790 258.455,336.831 258.140,337.143 257.881 C 337.456 257.622,338.124 257.464,338.628 257.530 C 339.220 257.607,339.697 257.367,339.973 256.851 C 340.433 255.991,340.612 189.818,340.157 188.633 C 339.938 188.061,335.953 188.000,299.157 188.000 L 258.400 188.000 258.400 172.800 C 258.400 157.721,258.393 157.600,257.576 157.600 C 257.123 157.600,256.838 157.462,256.942 157.293 C 257.046 157.125,256.697 156.782,256.166 156.531 C 255.451 156.194,255.200 156.193,255.200 156.527 C 255.200 156.775,254.918 156.575,254.573 156.082 C 254.228 155.590,253.776 155.291,253.570 155.419 C 253.363 155.546,253.086 155.369,252.954 155.025 C 252.822 154.681,252.469 154.400,252.169 154.400 C 251.870 154.400,250.983 154.040,250.200 153.600 C 249.417 153.160,248.421 152.800,247.988 152.800 C 247.555 152.800,247.200 152.609,247.200 152.376 C 247.200 152.143,247.035 152.055,246.832 152.180 C 246.630 152.305,246.193 152.136,245.861 151.804 C 245.529 151.472,244.985 151.200,244.652 151.200 C 244.319 151.200,243.936 151.020,243.800 150.800 C 243.664 150.580,243.013 150.400,242.353 150.400 C 241.538 150.400,241.246 150.250,241.442 149.932 C 241.635 149.619,241.515 149.547,241.077 149.715 C 240.717 149.853,240.161 149.704,239.840 149.383 C 239.519 149.062,238.920 148.800,238.509 148.800 C 238.097 148.800,237.575 148.615,237.349 148.389 C 237.123 148.163,236.385 147.938,235.708 147.889 C 235.032 147.840,234.560 147.667,234.659 147.505 C 234.759 147.343,234.300 147.274,233.638 147.351 C 232.908 147.436,232.468 147.316,232.518 147.045 C 232.563 146.800,232.015 146.544,231.300 146.475 C 230.585 146.406,230.000 146.200,230.000 146.018 C 230.000 145.836,229.415 145.591,228.700 145.473 C 227.985 145.354,226.590 145.042,225.600 144.779 C 224.610 144.515,223.137 144.286,222.327 144.268 C 221.516 144.251,220.942 144.094,221.050 143.919 C 221.159 143.743,220.437 143.600,219.447 143.600 C 218.457 143.600,217.548 143.439,217.427 143.243 C 217.305 143.047,216.093 142.870,214.732 142.851 C 213.371 142.832,212.154 142.658,212.029 142.465 C 211.903 142.272,210.273 142.075,208.406 142.029 C 206.540 141.982,204.916 141.787,204.797 141.596 C 204.516 141.141,192.881 141.163,192.722 141.619 M102.865 147.695 C 102.475 148.085,102.471 147.989,102.816 146.200 C 102.858 145.980,102.979 146.134,103.084 146.542 C 103.189 146.951,103.091 147.469,102.865 147.695 M204.400 166.348 C 204.400 166.540,205.600 166.723,207.067 166.755 C 208.533 166.786,209.928 166.965,210.167 167.152 C 210.776 167.629,212.144 167.563,212.494 167.039 C 212.697 166.736,212.790 166.755,212.794 167.100 C 212.797 167.375,213.160 167.600,213.600 167.600 C 214.040 167.600,214.400 167.780,214.400 168.000 C 214.400 168.220,215.109 168.400,215.976 168.400 C 216.843 168.400,217.647 168.552,217.762 168.739 C 217.877 168.925,218.545 169.094,219.247 169.114 C 219.948 169.134,220.642 169.344,220.789 169.582 C 220.941 169.828,221.706 169.930,222.565 169.820 C 223.821 169.660,224.034 169.733,223.833 170.258 C 223.671 170.681,223.769 170.821,224.131 170.682 C 224.428 170.568,225.285 170.747,226.035 171.081 C 229.108 172.445,231.317 173.228,232.298 173.302 C 233.115 173.364,233.138 173.557,233.183 180.683 L 233.229 188.000 198.814 188.000 L 164.400 188.000 164.400 181.195 C 164.400 173.758,164.627 172.801,166.314 173.124 C 167.013 173.258,167.231 173.174,167.030 172.848 C 166.871 172.591,166.889 172.406,167.070 172.437 C 168.148 172.625,169.216 172.349,168.968 171.948 C 168.798 171.674,168.907 171.570,169.244 171.683 C 169.550 171.786,170.038 171.584,170.330 171.235 C 170.621 170.886,170.745 170.825,170.606 171.100 C 170.304 171.695,171.435 171.790,171.800 171.200 C 171.936 170.980,172.557 170.800,173.181 170.800 C 173.804 170.800,174.414 170.540,174.536 170.223 C 174.678 169.852,175.123 169.712,175.779 169.830 C 176.340 169.932,176.800 169.832,176.800 169.608 C 176.800 169.384,177.443 169.200,178.229 169.200 C 179.014 169.200,179.905 168.952,180.207 168.650 C 180.514 168.343,181.296 168.163,181.979 168.242 C 182.650 168.320,183.200 168.208,183.200 167.992 C 183.200 167.776,184.175 167.600,185.367 167.600 C 186.558 167.600,187.593 167.427,187.667 167.215 C 187.740 167.003,189.015 166.797,190.500 166.757 C 191.985 166.717,193.200 166.530,193.200 166.342 C 193.200 166.154,195.720 166.000,198.800 166.000 C 201.880 166.000,204.400 166.157,204.400 166.348 M57.600 280.171 C 57.600 280.543,57.735 280.764,57.900 280.662 C 58.065 280.560,58.155 291.484,58.100 304.938 C 58.045 318.392,57.955 345.196,57.900 364.502 L 57.800 399.603 199.000 399.502 L 340.200 399.400 340.310 340.400 C 340.431 275.130,340.559 279.383,338.480 279.796 C 337.666 279.958,336.550 280.080,336.000 280.066 C 335.450 280.052,334.434 280.301,333.743 280.619 C 333.011 280.955,331.986 281.097,331.291 280.958 C 330.598 280.820,329.983 280.904,329.825 281.160 C 329.675 281.402,328.618 281.603,327.476 281.606 C 325.988 281.611,325.570 281.722,326.000 282.000 C 326.428 282.277,325.978 282.390,324.428 282.394 C 322.436 282.399,320.943 282.716,318.475 283.654 C 317.870 283.884,317.635 283.866,317.798 283.603 C 317.935 283.381,317.782 283.200,317.457 283.200 C 317.132 283.200,316.807 283.375,316.733 283.590 C 316.660 283.804,315.790 284.034,314.800 284.100 C 313.810 284.165,312.791 284.351,312.536 284.511 C 312.281 284.672,311.291 284.831,310.336 284.864 C 309.381 284.898,308.485 285.100,308.344 285.314 C 308.204 285.528,307.243 285.686,306.209 285.666 C 305.175 285.645,303.940 285.855,303.465 286.132 C 302.989 286.410,302.060 286.606,301.400 286.568 C 300.740 286.530,300.005 286.654,299.766 286.844 C 299.527 287.033,298.485 287.221,297.449 287.260 C 296.414 287.299,295.473 287.482,295.360 287.665 C 295.246 287.849,294.278 288.000,293.210 288.000 C 292.141 288.000,291.205 288.186,291.129 288.413 C 291.053 288.640,290.093 288.840,288.996 288.858 C 287.898 288.877,286.805 289.048,286.566 289.240 C 286.327 289.432,285.299 289.620,284.282 289.659 C 283.265 289.697,282.526 289.880,282.640 290.064 C 282.840 290.388,280.812 290.573,278.855 290.410 C 278.263 290.360,278.010 290.493,278.179 290.765 C 278.354 291.049,277.913 291.200,276.904 291.200 C 276.055 291.200,275.118 291.425,274.821 291.700 C 274.390 292.100,274.339 292.100,274.565 291.700 C 274.720 291.425,274.657 291.200,274.424 291.200 C 274.191 291.200,274.000 291.380,274.000 291.600 C 274.000 291.820,273.021 292.000,271.824 292.000 C 270.627 292.000,269.536 292.180,269.400 292.400 C 269.264 292.620,268.544 292.800,267.800 292.800 C 267.056 292.800,266.324 292.999,266.174 293.243 C 265.983 293.551,265.796 293.521,265.556 293.143 C 265.363 292.838,265.210 292.794,265.206 293.043 C 265.202 293.313,263.766 293.593,261.511 293.764 C 259.481 293.917,257.706 294.228,257.566 294.455 C 257.425 294.682,257.196 294.853,257.055 294.834 C 256.915 294.815,256.665 294.814,256.500 294.831 C 256.335 294.848,255.390 294.893,254.400 294.931 C 253.243 294.975,252.633 295.172,252.693 295.480 C 252.761 295.829,252.223 295.894,250.731 295.717 C 249.481 295.569,248.766 295.622,248.908 295.851 C 249.036 296.059,248.839 296.253,248.471 296.282 C 248.102 296.312,246.990 296.447,246.000 296.584 C 245.010 296.720,243.300 296.932,242.200 297.054 C 241.100 297.177,240.029 297.440,239.820 297.639 C 239.611 297.837,238.925 298.000,238.296 298.000 C 237.498 298.000,237.238 298.151,237.435 298.500 C 237.661 298.900,237.610 298.900,237.179 298.500 C 236.484 297.855,235.600 297.857,235.600 298.503 C 235.600 298.855,235.048 298.962,233.756 298.859 C 232.741 298.778,231.526 298.913,231.056 299.158 C 230.585 299.404,229.480 299.693,228.600 299.802 C 224.653 300.289,223.600 300.508,223.600 300.842 C 223.600 301.039,223.409 301.200,223.176 301.200 C 222.943 301.200,222.864 301.020,223.000 300.800 C 223.136 300.580,223.072 300.400,222.857 300.400 C 222.642 300.400,222.402 300.595,222.322 300.833 C 222.243 301.072,221.328 301.267,220.289 301.267 C 219.250 301.267,218.400 301.432,218.400 301.633 C 218.400 301.835,217.421 302.000,216.224 302.000 C 215.027 302.000,213.936 302.180,213.800 302.400 C 213.664 302.620,212.753 302.800,211.776 302.800 L 210.000 302.800 210.000 315.800 L 210.000 328.800 199.000 328.800 L 188.000 328.800 187.954 316.500 C 187.929 309.735,187.940 303.885,187.979 303.500 C 188.038 302.916,187.714 302.800,186.025 302.800 C 184.911 302.800,184.000 302.620,184.000 302.400 C 184.000 302.180,183.111 302.000,182.024 302.000 C 180.937 302.000,179.936 301.820,179.800 301.600 C 179.446 301.027,177.305 301.105,177.065 301.700 C 176.904 302.100,176.857 302.100,176.832 301.700 C 176.814 301.425,176.440 301.200,176.000 301.200 C 175.560 301.200,175.200 301.027,175.200 300.815 C 175.200 300.603,174.370 300.446,173.356 300.466 C 172.308 300.487,171.382 300.295,171.212 300.020 C 171.021 299.710,170.234 299.598,169.020 299.706 C 167.765 299.818,167.064 299.711,166.940 299.388 C 166.834 299.112,165.965 298.885,164.934 298.864 C 163.934 298.844,162.897 298.646,162.630 298.425 C 162.363 298.204,161.473 298.075,160.652 298.140 C 159.830 298.205,158.853 298.025,158.479 297.742 C 158.106 297.458,156.956 297.220,155.924 297.213 C 154.892 297.206,153.946 297.036,153.822 296.836 C 153.699 296.636,152.796 296.484,151.816 296.499 C 150.836 296.514,149.761 296.299,149.427 296.022 C 149.053 295.712,148.130 295.587,147.024 295.698 C 146.037 295.796,145.315 295.737,145.420 295.567 C 145.691 295.129,144.196 294.719,142.842 294.861 C 142.214 294.927,141.406 294.737,141.047 294.439 C 140.616 294.081,139.785 293.965,138.604 294.098 C 137.620 294.209,136.912 294.143,137.031 293.950 C 137.150 293.758,136.157 293.600,134.824 293.600 C 133.475 293.600,132.400 293.423,132.400 293.200 C 132.400 292.980,131.500 292.800,130.400 292.800 C 129.300 292.800,128.400 292.649,128.400 292.463 C 128.400 292.278,127.463 292.094,126.317 292.053 C 125.172 292.013,124.133 291.815,124.008 291.614 C 123.884 291.412,123.007 291.258,122.059 291.271 C 121.111 291.284,120.134 291.094,119.888 290.848 C 119.641 290.601,118.486 290.400,117.320 290.400 C 116.154 290.400,115.200 290.220,115.200 290.000 C 115.200 289.780,114.300 289.600,113.200 289.600 C 112.100 289.600,111.200 289.420,111.200 289.200 C 111.200 288.980,110.210 288.800,109.000 288.800 C 107.790 288.800,106.800 288.620,106.800 288.400 C 106.800 288.180,105.911 288.000,104.824 288.000 C 103.737 288.000,102.736 287.820,102.600 287.600 C 102.464 287.380,101.373 287.200,100.176 287.200 C 98.979 287.200,98.000 287.049,98.000 286.865 C 98.000 286.681,97.154 286.498,96.120 286.459 C 95.086 286.419,94.141 286.238,94.020 286.056 C 93.899 285.873,92.909 285.693,91.820 285.656 C 90.731 285.618,89.741 285.445,89.620 285.272 C 89.499 285.098,88.619 284.930,87.665 284.898 C 86.710 284.866,85.720 284.673,85.465 284.468 C 85.209 284.264,84.127 284.101,83.059 284.106 C 81.991 284.110,81.001 283.953,80.859 283.756 C 80.717 283.559,79.791 283.345,78.803 283.282 C 77.815 283.218,76.834 282.994,76.623 282.783 C 76.412 282.572,75.412 282.400,74.400 282.400 C 73.388 282.400,72.389 282.237,72.180 282.039 C 71.798 281.675,69.444 281.318,65.871 281.080 C 64.809 281.010,63.815 280.748,63.661 280.498 C 63.506 280.249,62.755 280.059,61.990 280.078 C 61.226 280.096,59.925 279.973,59.100 279.803 C 57.837 279.544,57.600 279.602,57.600 280.171 " stroke="none" fill="#546cfc" fill-rule="evenodd"></path><path id="path1" d="M232.060 35.980 C 232.232 36.496,232.781 36.588,232.830 36.110 C 232.847 35.950,232.644 35.748,232.380 35.660 C 232.116 35.572,231.972 35.716,232.060 35.980 M332.480 52.080 C 331.916 52.644,331.853 53.200,332.353 53.200 C 332.548 53.200,332.801 52.840,332.916 52.400 C 333.160 51.466,333.122 51.438,332.480 52.080 M329.596 55.804 C 329.194 56.289,329.219 56.400,329.727 56.400 C 330.474 56.400,330.962 55.748,330.452 55.432 C 330.253 55.309,329.868 55.477,329.596 55.804 M246.133 69.362 C 246.133 69.671,246.373 69.832,246.667 69.719 C 246.960 69.607,247.200 69.354,247.200 69.157 C 247.200 68.961,246.960 68.800,246.667 68.800 C 246.373 68.800,246.133 69.053,246.133 69.362 M393.200 90.715 C 393.200 90.888,393.564 91.057,394.009 91.091 C 394.453 91.124,394.713 90.982,394.585 90.776 C 394.304 90.321,393.200 90.273,393.200 90.715 M238.324 111.400 C 238.234 112.170,238.304 112.800,238.480 112.800 C 238.656 112.800,238.800 112.170,238.800 111.400 C 238.800 110.630,238.730 110.000,238.644 110.000 C 238.558 110.000,238.414 110.630,238.324 111.400 M288.000 114.951 C 288.000 115.034,288.270 115.326,288.600 115.600 C 289.091 116.008,289.200 115.980,289.200 115.449 C 289.200 115.092,288.930 114.800,288.600 114.800 C 288.270 114.800,288.000 114.868,288.000 114.951 M238.324 117.800 C 238.414 118.570,238.558 119.200,238.644 119.200 C 238.730 119.200,238.800 118.570,238.800 117.800 C 238.800 117.030,238.656 116.400,238.480 116.400 C 238.304 116.400,238.234 117.030,238.324 117.800 M296.654 143.002 C 296.528 143.331,296.594 143.600,296.800 143.600 C 297.006 143.600,297.071 143.870,296.945 144.200 C 296.818 144.530,296.874 144.800,297.070 144.800 C 297.542 144.800,297.686 142.901,297.236 142.622 C 297.042 142.502,296.781 142.674,296.654 143.002 M102.816 146.200 C 102.471 147.989,102.475 148.085,102.865 147.695 C 103.091 147.469,103.189 146.951,103.084 146.542 C 102.979 146.134,102.858 145.980,102.816 146.200 M57.791 222.600 C 57.791 241.080,57.840 248.582,57.900 239.270 C 57.960 229.959,57.960 214.839,57.900 205.670 C 57.840 196.502,57.791 204.120,57.791 222.600 M57.785 280.900 C 57.680 281.175,57.641 307.860,57.697 340.200 L 57.800 399.000 58.000 339.700 C 58.110 307.085,58.149 280.400,58.087 280.400 C 58.026 280.400,57.889 280.625,57.785 280.900 M193.524 328.699 C 196.673 328.767,201.713 328.767,204.724 328.699 C 207.736 328.631,205.160 328.576,199.000 328.576 C 192.840 328.576,190.376 328.632,193.524 328.699 " stroke="none" fill="#586cfc" fill-rule="evenodd"></path><path id="path2" d="M232.060 35.980 C 232.232 36.496,232.781 36.588,232.830 36.110 C 232.847 35.950,232.644 35.748,232.380 35.660 C 232.116 35.572,231.972 35.716,232.060 35.980 M332.480 52.080 C 331.916 52.644,331.853 53.200,332.353 53.200 C 332.548 53.200,332.801 52.840,332.916 52.400 C 333.160 51.466,333.122 51.438,332.480 52.080 M329.596 55.804 C 329.194 56.289,329.219 56.400,329.727 56.400 C 330.474 56.400,330.962 55.748,330.452 55.432 C 330.253 55.309,329.868 55.477,329.596 55.804 M246.133 69.362 C 246.133 69.671,246.373 69.832,246.667 69.719 C 246.960 69.607,247.200 69.354,247.200 69.157 C 247.200 68.961,246.960 68.800,246.667 68.800 C 246.373 68.800,246.133 69.053,246.133 69.362 M393.200 90.715 C 393.200 90.888,393.564 91.057,394.009 91.091 C 394.453 91.124,394.713 90.982,394.585 90.776 C 394.304 90.321,393.200 90.273,393.200 90.715 M238.324 111.400 C 238.234 112.170,238.304 112.800,238.480 112.800 C 238.656 112.800,238.800 112.170,238.800 111.400 C 238.800 110.630,238.730 110.000,238.644 110.000 C 238.558 110.000,238.414 110.630,238.324 111.400 M288.000 114.951 C 288.000 115.034,288.270 115.326,288.600 115.600 C 289.091 116.008,289.200 115.980,289.200 115.449 C 289.200 115.092,288.930 114.800,288.600 114.800 C 288.270 114.800,288.000 114.868,288.000 114.951 M238.324 117.800 C 238.414 118.570,238.558 119.200,238.644 119.200 C 238.730 119.200,238.800 118.570,238.800 117.800 C 238.800 117.030,238.656 116.400,238.480 116.400 C 238.304 116.400,238.234 117.030,238.324 117.800 M296.654 143.002 C 296.528 143.331,296.594 143.600,296.800 143.600 C 297.006 143.600,297.071 143.870,296.945 144.200 C 296.818 144.530,296.874 144.800,297.070 144.800 C 297.542 144.800,297.686 142.901,297.236 142.622 C 297.042 142.502,296.781 142.674,296.654 143.002 M102.816 146.200 C 102.471 147.989,102.475 148.085,102.865 147.695 C 103.091 147.469,103.189 146.951,103.084 146.542 C 102.979 146.134,102.858 145.980,102.816 146.200 M57.791 222.600 C 57.791 241.080,57.840 248.582,57.900 239.270 C 57.960 229.959,57.960 214.839,57.900 205.670 C 57.840 196.502,57.791 204.120,57.791 222.600 M57.785 280.900 C 57.680 281.175,57.641 307.860,57.697 340.200 L 57.800 399.000 58.000 339.700 C 58.110 307.085,58.149 280.400,58.087 280.400 C 58.026 280.400,57.889 280.625,57.785 280.900 M193.524 328.699 C 196.673 328.767,201.713 328.767,204.724 328.699 C 207.736 328.631,205.160 328.576,199.000 328.576 C 192.840 328.576,190.376 328.632,193.524 328.699 " stroke="none" fill="#586cfc" fill-rule="evenodd"></path><path id="path3" d="M232.060 35.980 C 232.232 36.496,232.781 36.588,232.830 36.110 C 232.847 35.950,232.644 35.748,232.380 35.660 C 232.116 35.572,231.972 35.716,232.060 35.980 M332.480 52.080 C 331.916 52.644,331.853 53.200,332.353 53.200 C 332.548 53.200,332.801 52.840,332.916 52.400 C 333.160 51.466,333.122 51.438,332.480 52.080 M329.596 55.804 C 329.194 56.289,329.219 56.400,329.727 56.400 C 330.474 56.400,330.962 55.748,330.452 55.432 C 330.253 55.309,329.868 55.477,329.596 55.804 M246.133 69.362 C 246.133 69.671,246.373 69.832,246.667 69.719 C 246.960 69.607,247.200 69.354,247.200 69.157 C 247.200 68.961,246.960 68.800,246.667 68.800 C 246.373 68.800,246.133 69.053,246.133 69.362 M393.200 90.715 C 393.200 90.888,393.564 91.057,394.009 91.091 C 394.453 91.124,394.713 90.982,394.585 90.776 C 394.304 90.321,393.200 90.273,393.200 90.715 M238.324 111.400 C 238.234 112.170,238.304 112.800,238.480 112.800 C 238.656 112.800,238.800 112.170,238.800 111.400 C 238.800 110.630,238.730 110.000,238.644 110.000 C 238.558 110.000,238.414 110.630,238.324 111.400 M288.000 114.951 C 288.000 115.034,288.270 115.326,288.600 115.600 C 289.091 116.008,289.200 115.980,289.200 115.449 C 289.200 115.092,288.930 114.800,288.600 114.800 C 288.270 114.800,288.000 114.868,288.000 114.951 M238.324 117.800 C 238.414 118.570,238.558 119.200,238.644 119.200 C 238.730 119.200,238.800 118.570,238.800 117.800 C 238.800 117.030,238.656 116.400,238.480 116.400 C 238.304 116.400,238.234 117.030,238.324 117.800 M296.654 143.002 C 296.528 143.331,296.594 143.600,296.800 143.600 C 297.006 143.600,297.071 143.870,296.945 144.200 C 296.818 144.530,296.874 144.800,297.070 144.800 C 297.542 144.800,297.686 142.901,297.236 142.622 C 297.042 142.502,296.781 142.674,296.654 143.002 M102.816 146.200 C 102.471 147.989,102.475 148.085,102.865 147.695 C 103.091 147.469,103.189 146.951,103.084 146.542 C 102.979 146.134,102.858 145.980,102.816 146.200 M57.791 222.600 C 57.791 241.080,57.840 248.582,57.900 239.270 C 57.960 229.959,57.960 214.839,57.900 205.670 C 57.840 196.502,57.791 204.120,57.791 222.600 M57.785 280.900 C 57.680 281.175,57.641 307.860,57.697 340.200 L 57.800 399.000 58.000 339.700 C 58.110 307.085,58.149 280.400,58.087 280.400 C 58.026 280.400,57.889 280.625,57.785 280.900 M193.524 328.699 C 196.673 328.767,201.713 328.767,204.724 328.699 C 207.736 328.631,205.160 328.576,199.000 328.576 C 192.840 328.576,190.376 328.632,193.524 328.699 " stroke="none" fill="#586cfc" fill-rule="evenodd"></path><path id="path4" d="M232.060 35.980 C 232.232 36.496,232.781 36.588,232.830 36.110 C 232.847 35.950,232.644 35.748,232.380 35.660 C 232.116 35.572,231.972 35.716,232.060 35.980 M332.480 52.080 C 331.916 52.644,331.853 53.200,332.353 53.200 C 332.548 53.200,332.801 52.840,332.916 52.400 C 333.160 51.466,333.122 51.438,332.480 52.080 M329.596 55.804 C 329.194 56.289,329.219 56.400,329.727 56.400 C 330.474 56.400,330.962 55.748,330.452 55.432 C 330.253 55.309,329.868 55.477,329.596 55.804 M246.133 69.362 C 246.133 69.671,246.373 69.832,246.667 69.719 C 246.960 69.607,247.200 69.354,247.200 69.157 C 247.200 68.961,246.960 68.800,246.667 68.800 C 246.373 68.800,246.133 69.053,246.133 69.362 M393.200 90.715 C 393.200 90.888,393.564 91.057,394.009 91.091 C 394.453 91.124,394.713 90.982,394.585 90.776 C 394.304 90.321,393.200 90.273,393.200 90.715 M238.324 111.400 C 238.234 112.170,238.304 112.800,238.480 112.800 C 238.656 112.800,238.800 112.170,238.800 111.400 C 238.800 110.630,238.730 110.000,238.644 110.000 C 238.558 110.000,238.414 110.630,238.324 111.400 M288.000 114.951 C 288.000 115.034,288.270 115.326,288.600 115.600 C 289.091 116.008,289.200 115.980,289.200 115.449 C 289.200 115.092,288.930 114.800,288.600 114.800 C 288.270 114.800,288.000 114.868,288.000 114.951 M238.324 117.800 C 238.414 118.570,238.558 119.200,238.644 119.200 C 238.730 119.200,238.800 118.570,238.800 117.800 C 238.800 117.030,238.656 116.400,238.480 116.400 C 238.304 116.400,238.234 117.030,238.324 117.800 M296.654 143.002 C 296.528 143.331,296.594 143.600,296.800 143.600 C 297.006 143.600,297.071 143.870,296.945 144.200 C 296.818 144.530,296.874 144.800,297.070 144.800 C 297.542 144.800,297.686 142.901,297.236 142.622 C 297.042 142.502,296.781 142.674,296.654 143.002 M102.816 146.200 C 102.471 147.989,102.475 148.085,102.865 147.695 C 103.091 147.469,103.189 146.951,103.084 146.542 C 102.979 146.134,102.858 145.980,102.816 146.200 M57.791 222.600 C 57.791 241.080,57.840 248.582,57.900 239.270 C 57.960 229.959,57.960 214.839,57.900 205.670 C 57.840 196.502,57.791 204.120,57.791 222.600 M57.785 280.900 C 57.680 281.175,57.641 307.860,57.697 340.200 L 57.800 399.000 58.000 339.700 C 58.110 307.085,58.149 280.400,58.087 280.400 C 58.026 280.400,57.889 280.625,57.785 280.900 M193.524 328.699 C 196.673 328.767,201.713 328.767,204.724 328.699 C 207.736 328.631,205.160 328.576,199.000 328.576 C 192.840 328.576,190.376 328.632,193.524 328.699 " stroke="none" fill="#586cfc" fill-rule="evenodd"></path></g></svg>