<svg id="svg" version="1.1" xmlns="http://www.w3.org/2000/svg" xmlns:xlink="http://www.w3.org/1999/xlink" width="400" height="400" viewBox="0, 0, 400,400"><g id="svgg"><path id="path0" d="M188.000 117.963 C 188.000 235.728,187.999 235.925,187.200 235.716 C 186.760 235.601,186.400 235.348,186.400 235.153 C 186.400 234.959,186.136 234.800,185.814 234.800 C 185.492 234.800,185.032 234.434,184.793 233.987 C 184.554 233.540,184.137 233.225,183.867 233.287 C 183.597 233.349,183.325 233.220,183.262 233.000 C 183.111 232.473,181.495 231.618,181.105 231.859 C 180.937 231.962,180.800 231.767,180.800 231.424 C 180.800 231.067,180.458 230.800,180.000 230.800 C 179.560 230.800,179.200 230.601,179.200 230.357 C 179.200 230.114,178.923 230.021,178.585 230.150 C 178.235 230.285,177.872 230.131,177.742 229.793 C 177.617 229.467,177.251 229.200,176.929 229.200 C 176.606 229.200,176.086 228.943,175.771 228.629 C 175.169 228.026,174.989 226.800,175.502 226.800 C 175.669 226.800,176.052 226.242,176.354 225.560 C 176.678 224.827,177.015 224.500,177.176 224.761 C 177.333 225.015,177.684 224.606,177.999 223.802 C 178.302 223.031,178.696 222.400,178.875 222.400 C 179.054 222.400,179.200 222.209,179.200 221.976 C 179.200 221.743,178.975 221.682,178.700 221.841 C 178.425 221.999,178.605 221.683,179.100 221.139 C 179.662 220.520,180.002 219.633,180.006 218.774 C 180.011 217.740,180.108 217.548,180.400 218.000 C 180.694 218.455,180.789 218.286,180.794 217.300 C 180.797 216.585,180.980 216.000,181.200 216.000 C 181.420 216.000,181.600 215.460,181.600 214.800 C 181.600 214.140,181.772 213.600,181.983 213.600 C 182.194 213.600,182.329 212.521,182.283 211.200 C 182.205 208.951,182.478 208.152,182.931 209.300 C 183.039 209.575,183.116 209.080,183.102 208.200 C 183.088 207.320,182.879 206.468,182.638 206.306 C 182.326 206.097,182.332 206.010,182.659 206.006 C 183.218 205.999,183.350 195.662,182.799 194.999 C 182.603 194.763,182.398 193.822,182.344 192.908 C 182.291 191.995,182.101 191.338,181.923 191.447 C 181.745 191.557,181.600 190.816,181.600 189.800 C 181.600 188.670,181.445 188.049,181.200 188.200 C 180.980 188.336,180.778 188.077,180.750 187.624 C 180.668 186.271,180.616 186.082,180.236 185.733 C 180.024 185.540,179.992 185.610,180.159 185.900 C 180.318 186.175,180.253 186.400,180.016 186.400 C 179.753 186.400,179.685 186.001,179.841 185.378 C 180.126 184.245,177.769 179.048,177.145 179.434 C 176.842 179.621,176.618 178.750,176.753 177.900 C 176.779 177.735,176.620 177.600,176.400 177.600 C 176.180 177.600,176.000 177.345,176.000 177.033 C 176.000 176.722,175.857 176.407,175.683 176.333 C 175.509 176.260,174.953 175.524,174.449 174.698 C 173.944 173.871,173.379 173.289,173.193 173.404 C 173.007 173.519,172.725 173.402,172.566 173.145 C 172.385 172.852,172.450 172.784,172.738 172.962 C 173.628 173.512,173.187 172.760,171.813 171.387 C 171.051 170.624,170.230 170.000,169.990 170.000 C 169.749 170.000,169.664 169.820,169.800 169.600 C 169.936 169.380,169.756 169.200,169.400 169.200 C 169.044 169.200,168.864 169.020,169.000 168.800 C 169.136 168.580,168.961 168.400,168.611 168.400 C 168.261 168.400,167.856 168.085,167.710 167.700 C 167.300 166.618,166.455 165.919,165.941 166.236 C 165.651 166.416,165.584 166.349,165.764 166.059 C 165.930 165.790,165.745 165.481,165.325 165.325 C 164.926 165.177,164.309 164.728,163.953 164.328 C 163.597 163.927,163.012 163.600,162.653 163.600 C 162.294 163.600,162.000 163.442,162.000 163.249 C 162.000 163.055,161.460 162.673,160.800 162.400 C 160.140 162.127,159.600 161.724,159.600 161.505 C 159.600 161.286,159.246 161.199,158.814 161.312 C 158.348 161.434,158.063 161.331,158.114 161.059 C 158.161 160.807,157.795 160.614,157.300 160.632 C 156.805 160.649,156.400 160.492,156.400 160.283 C 156.400 160.073,156.121 160.134,155.780 160.417 C 155.256 160.852,155.124 160.797,154.933 160.066 C 154.781 159.484,154.394 159.200,153.753 159.200 C 153.229 159.200,152.800 159.020,152.800 158.800 C 152.800 158.580,152.080 158.400,151.200 158.400 C 150.320 158.400,149.600 158.249,149.600 158.065 C 149.600 157.880,148.926 157.704,148.103 157.673 C 147.279 157.642,146.544 157.433,146.470 157.209 C 146.390 156.969,144.782 156.800,142.590 156.800 C 140.526 156.800,138.736 156.621,138.600 156.400 C 138.278 155.879,136.400 155.879,136.400 156.400 C 136.400 156.639,134.867 156.800,132.600 156.800 C 130.333 156.800,128.800 156.961,128.800 157.200 C 128.800 157.420,128.361 157.600,127.824 157.600 C 127.287 157.600,126.724 157.799,126.574 158.043 C 126.383 158.351,126.196 158.321,125.956 157.943 C 125.703 157.543,125.611 157.532,125.606 157.900 C 125.602 158.213,125.019 158.400,124.043 158.400 C 122.991 158.400,122.407 158.606,122.243 159.033 C 122.109 159.382,121.776 159.592,121.503 159.501 C 121.230 159.410,120.784 159.559,120.511 159.832 C 120.238 160.105,119.623 160.226,119.144 160.101 C 118.552 159.946,118.365 160.020,118.558 160.332 C 118.742 160.630,118.623 160.707,118.221 160.553 C 117.878 160.421,117.600 160.524,117.600 160.781 C 117.600 161.037,117.465 161.164,117.300 161.062 C 117.135 160.960,116.370 161.212,115.600 161.621 C 114.830 162.031,114.436 162.374,114.724 162.383 C 115.012 162.392,115.126 162.596,114.978 162.835 C 114.831 163.074,114.359 163.178,113.930 163.066 C 113.483 162.949,113.062 163.094,112.942 163.406 C 112.826 163.710,112.456 163.843,112.103 163.707 C 111.609 163.518,111.522 163.660,111.704 164.355 C 111.892 165.075,111.832 165.159,111.391 164.792 C 110.968 164.441,110.728 164.526,110.326 165.170 C 110.041 165.626,109.573 166.000,109.286 166.000 C 108.628 166.000,106.800 167.801,106.800 168.448 C 106.800 168.715,106.689 168.822,106.552 168.686 C 106.248 168.381,105.448 169.155,105.090 170.100 C 104.944 170.485,104.549 170.800,104.213 170.800 C 103.876 170.800,103.600 171.081,103.600 171.424 C 103.600 171.767,103.420 171.936,103.200 171.800 C 102.980 171.664,102.800 171.844,102.800 172.200 C 102.800 172.556,102.647 172.753,102.460 172.637 C 102.273 172.522,101.870 172.916,101.563 173.514 C 101.256 174.111,100.674 174.905,100.268 175.277 C 99.762 175.742,99.618 176.226,99.808 176.824 C 100.008 177.457,99.937 177.646,99.546 177.515 C 99.249 177.416,98.781 177.562,98.504 177.839 C 97.857 178.486,97.855 178.918,98.500 178.605 C 98.775 178.472,98.595 178.663,98.100 179.030 C 97.190 179.705,96.809 180.689,97.662 180.162 C 97.948 179.985,98.015 180.052,97.838 180.338 C 97.681 180.592,97.293 180.800,96.976 180.800 C 96.659 180.800,96.400 181.065,96.400 181.388 C 96.400 181.711,96.040 182.617,95.600 183.400 C 95.160 184.183,94.800 185.179,94.800 185.612 C 94.800 186.045,94.601 186.400,94.357 186.400 C 94.114 186.400,94.016 186.664,94.140 186.987 C 94.264 187.310,94.222 187.663,94.048 187.770 C 93.874 187.878,93.705 188.648,93.674 189.480 C 93.643 190.313,93.433 191.056,93.209 191.130 C 92.984 191.205,92.800 192.231,92.800 193.410 C 92.800 194.588,92.615 195.667,92.389 195.807 C 91.871 196.127,91.914 208.000,92.433 208.000 C 92.635 208.000,92.800 209.080,92.800 210.400 C 92.800 211.733,92.978 212.800,93.200 212.800 C 93.420 212.800,93.601 213.385,93.602 214.100 C 93.606 216.056,94.368 218.467,94.883 218.148 C 95.152 217.983,95.210 218.061,95.032 218.348 C 94.645 218.974,95.653 221.200,96.325 221.200 C 96.672 221.200,96.767 221.475,96.600 222.000 C 96.441 222.502,96.654 223.234,97.173 223.962 C 97.628 224.601,98.000 225.321,98.000 225.562 C 98.000 225.803,98.159 226.000,98.353 226.000 C 98.548 226.000,98.815 226.315,98.947 226.700 C 99.079 227.085,99.367 227.814,99.588 228.320 C 99.809 228.826,99.843 229.150,99.664 229.040 C 99.372 228.859,98.101 229.435,94.672 231.301 C 93.929 231.704,93.724 231.987,94.072 232.126 C 94.571 232.325,93.453 232.574,92.670 232.437 C 92.488 232.406,91.720 233.059,90.964 233.890 C 90.145 234.789,89.703 235.082,89.871 234.613 C 90.122 233.911,90.084 233.890,89.518 234.413 C 89.169 234.736,88.966 235.135,89.066 235.300 C 89.165 235.465,89.046 235.600,88.800 235.600 C 88.554 235.600,88.452 235.761,88.574 235.958 C 88.838 236.385,87.682 236.898,87.170 236.582 C 86.630 236.248,84.044 239.015,84.159 239.802 C 84.327 240.944,87.272 241.532,93.124 241.591 C 93.632 241.596,93.959 241.743,93.851 241.917 C 93.744 242.091,94.228 242.277,94.928 242.330 C 95.627 242.382,96.260 242.600,96.333 242.813 C 96.407 243.026,96.992 243.200,97.633 243.200 C 98.275 243.200,98.800 243.401,98.800 243.647 C 98.800 243.898,99.153 244.001,99.607 243.882 C 100.051 243.766,100.668 243.925,100.978 244.236 C 101.289 244.546,101.826 244.800,102.171 244.800 C 102.517 244.800,102.800 244.980,102.800 245.200 C 102.800 245.420,103.430 245.600,104.200 245.600 C 104.970 245.600,105.600 245.780,105.600 246.000 C 105.600 246.220,105.870 246.400,106.200 246.400 C 106.530 246.400,106.800 246.580,106.800 246.800 C 106.800 247.020,107.160 247.200,107.600 247.200 C 108.040 247.200,108.400 247.391,108.400 247.625 C 108.400 247.859,108.805 247.994,109.300 247.925 C 109.855 247.848,110.162 247.991,110.100 248.300 C 110.045 248.575,110.317 248.800,110.704 248.800 C 111.091 248.800,111.632 249.160,111.907 249.600 C 112.182 250.040,112.609 250.400,112.856 250.400 C 113.104 250.400,113.633 250.777,114.032 251.237 C 114.431 251.697,114.948 251.956,115.182 251.811 C 115.415 251.667,115.714 251.831,115.846 252.175 C 115.978 252.519,116.416 252.800,116.819 252.800 C 117.223 252.800,117.663 252.978,117.797 253.195 C 117.942 253.430,117.748 253.489,117.321 253.342 C 116.704 253.128,116.716 253.185,117.400 253.733 C 117.840 254.086,118.425 254.380,118.700 254.387 C 118.975 254.394,119.200 254.558,119.200 254.750 C 119.200 254.943,119.740 255.208,120.400 255.340 C 121.060 255.472,121.600 255.787,121.600 256.039 C 121.600 256.364,121.422 256.350,120.991 255.992 C 120.482 255.570,120.423 255.594,120.634 256.143 C 120.865 256.746,121.329 256.969,122.100 256.847 C 122.265 256.821,122.355 256.938,122.300 257.107 C 122.127 257.639,126.748 262.000,127.491 262.006 C 128.005 262.011,128.060 262.101,127.691 262.335 C 127.109 262.705,128.323 264.400,129.171 264.400 C 129.433 264.400,129.536 264.580,129.400 264.800 C 129.264 265.020,129.343 265.200,129.576 265.200 C 129.809 265.200,130.000 265.425,130.000 265.700 C 130.001 266.386,131.819 268.448,132.140 268.126 C 132.283 267.983,132.400 268.223,132.400 268.658 C 132.400 269.093,132.805 269.884,133.300 270.415 C 133.795 270.947,134.200 271.513,134.200 271.673 C 134.200 271.834,134.560 272.257,135.000 272.612 C 135.440 272.968,135.575 273.145,135.300 273.006 C 135.025 272.867,134.800 272.943,134.800 273.176 C 134.800 273.409,134.980 273.600,135.200 273.600 C 135.420 273.600,135.600 273.870,135.600 274.200 C 135.600 274.530,135.780 274.800,136.000 274.800 C 136.220 274.800,136.400 275.070,136.400 275.400 C 136.400 275.730,136.580 276.000,136.800 276.000 C 137.020 276.000,137.200 276.283,137.200 276.629 C 137.200 277.415,137.968 278.160,138.954 278.330 C 139.510 278.426,139.643 278.289,139.459 277.809 C 139.322 277.451,139.359 277.251,139.543 277.365 C 139.727 277.478,140.310 276.633,140.838 275.486 C 141.367 274.338,141.936 273.340,142.102 273.266 C 142.269 273.192,142.312 272.982,142.199 272.798 C 142.085 272.615,142.219 272.224,142.496 271.931 C 143.528 270.837,144.194 269.850,143.700 270.147 C 143.425 270.312,143.200 270.257,143.200 270.024 C 143.200 269.791,143.352 269.600,143.539 269.600 C 144.092 269.600,145.600 268.146,145.600 267.614 C 145.600 267.343,146.140 266.617,146.800 266.000 C 147.460 265.383,148.000 264.708,148.000 264.499 C 148.000 264.290,148.540 263.554,149.200 262.863 C 149.860 262.172,150.400 261.351,150.400 261.037 C 150.400 260.724,150.940 260.228,151.600 259.936 C 152.260 259.644,152.800 259.168,152.800 258.879 C 152.800 258.589,152.954 258.448,153.142 258.564 C 153.608 258.852,155.284 257.018,154.904 256.637 C 154.737 256.470,154.780 256.391,155.000 256.461 C 155.607 256.654,158.004 254.730,157.722 254.275 C 157.582 254.047,157.679 254.002,157.949 254.169 C 158.228 254.341,158.894 253.956,159.572 253.230 C 160.204 252.554,161.009 252.000,161.360 252.000 C 161.733 252.000,162.000 251.666,162.000 251.200 C 162.000 250.760,162.205 250.400,162.456 250.400 C 162.707 250.400,163.151 250.085,163.443 249.700 C 163.944 249.040,163.975 249.043,163.987 249.761 C 163.999 250.475,164.046 250.469,164.747 249.661 C 165.158 249.188,165.768 248.800,166.104 248.800 C 166.634 248.800,167.386 247.789,167.296 247.198 C 167.279 247.087,167.836 246.997,168.533 246.998 C 169.270 246.999,169.764 246.808,169.714 246.541 C 169.663 246.269,169.948 246.166,170.414 246.288 C 170.849 246.401,171.200 246.294,171.200 246.047 C 171.200 245.801,171.560 245.600,172.000 245.600 C 172.440 245.600,172.800 245.420,172.800 245.200 C 172.800 244.980,173.250 244.800,173.800 244.800 C 174.350 244.800,174.800 244.620,174.800 244.400 C 174.800 244.180,175.081 244.000,175.424 244.000 C 175.767 244.000,175.936 243.820,175.800 243.600 C 175.656 243.367,176.055 243.200,176.753 243.200 C 177.413 243.200,178.064 243.020,178.200 242.800 C 178.336 242.580,178.977 242.400,179.624 242.400 C 180.271 242.400,180.800 242.220,180.800 242.000 C 180.800 241.780,181.520 241.600,182.400 241.600 C 183.280 241.600,184.000 241.437,184.000 241.237 C 184.000 241.038,184.357 240.968,184.794 241.082 C 185.747 241.332,187.706 240.895,187.455 240.488 C 187.357 240.330,188.069 240.263,189.038 240.340 C 190.445 240.452,190.800 240.352,190.800 239.840 C 190.800 239.488,190.974 239.200,191.187 239.200 C 191.401 239.200,191.471 239.470,191.345 239.800 C 191.076 240.500,191.643 240.597,192.279 239.961 C 192.906 239.334,206.340 239.326,207.508 239.951 C 207.992 240.210,209.481 240.378,210.818 240.326 C 212.595 240.255,213.347 240.387,213.618 240.815 C 213.940 241.325,213.989 241.323,214.000 240.800 C 214.011 240.267,214.056 240.267,214.406 240.800 C 214.704 241.254,214.877 241.282,215.115 240.914 C 215.359 240.538,215.688 240.560,216.561 241.014 C 217.183 241.336,218.121 241.600,218.646 241.600 C 219.171 241.600,219.600 241.780,219.600 242.000 C 219.600 242.220,219.870 242.400,220.200 242.400 C 220.530 242.400,220.800 242.558,220.800 242.750 C 220.800 242.943,221.270 243.100,221.845 243.100 C 222.421 243.100,223.006 243.257,223.145 243.450 C 223.285 243.643,223.850 243.861,224.400 243.935 C 224.950 244.009,225.571 244.234,225.780 244.435 C 225.989 244.636,226.456 244.800,226.818 244.800 C 227.180 244.800,227.798 245.156,228.191 245.591 C 228.585 246.025,229.064 246.284,229.256 246.165 C 229.448 246.046,229.714 246.231,229.846 246.575 C 229.978 246.919,230.426 247.200,230.843 247.200 C 231.259 247.200,231.600 247.380,231.600 247.600 C 231.600 247.820,232.044 248.000,232.586 248.000 C 233.167 248.000,233.750 248.333,234.006 248.811 C 234.245 249.257,234.612 249.516,234.823 249.386 C 235.033 249.256,235.314 249.431,235.446 249.775 C 235.578 250.119,236.127 250.400,236.666 250.400 C 237.218 250.400,237.539 250.575,237.400 250.800 C 237.264 251.020,237.463 251.200,237.843 251.200 C 238.223 251.200,238.416 251.317,238.273 251.460 C 237.915 251.818,239.238 252.772,240.113 252.787 C 240.505 252.794,240.989 253.205,241.188 253.700 C 241.387 254.195,241.561 254.381,241.575 254.113 C 241.615 253.340,242.800 254.005,242.800 254.800 C 242.800 255.509,243.834 256.216,244.600 256.030 C 244.820 255.977,244.862 256.071,244.694 256.239 C 244.314 256.619,246.395 258.850,246.861 258.562 C 247.048 258.447,247.200 258.633,247.200 258.976 C 247.200 259.319,247.500 259.600,247.867 259.600 C 248.233 259.600,248.420 259.714,248.281 259.853 C 248.142 259.992,248.562 260.604,249.214 261.213 C 249.866 261.822,250.403 262.564,250.406 262.860 C 250.411 263.273,250.504 263.258,250.800 262.800 C 251.201 262.180,251.344 262.487,251.221 263.700 C 251.174 264.163,251.429 264.400,251.975 264.400 C 252.533 264.400,252.800 264.659,252.800 265.200 C 252.800 265.640,252.980 266.000,253.200 266.000 C 253.420 266.000,253.600 266.360,253.600 266.800 C 253.600 267.333,253.867 267.600,254.400 267.600 C 254.844 267.600,255.200 267.867,255.200 268.200 C 255.200 268.530,255.470 268.800,255.800 268.800 C 256.519 268.800,256.603 269.466,255.913 269.696 C 255.593 269.802,255.719 270.110,256.278 270.588 C 256.746 270.989,257.045 271.538,256.942 271.806 C 256.839 272.075,257.125 272.392,257.577 272.510 C 258.091 272.644,258.400 273.054,258.400 273.598 C 258.400 274.079,258.754 274.771,259.187 275.136 C 259.621 275.501,260.063 276.317,260.170 276.949 C 260.432 278.496,260.633 278.625,261.801 278.000 C 262.848 277.439,263.156 276.428,262.300 276.360 C 262.025 276.338,262.250 276.176,262.800 276.000 C 263.648 275.729,263.678 275.670,263.000 275.615 C 262.275 275.555,262.287 275.514,263.138 275.174 C 263.653 274.967,264.169 274.438,264.284 273.999 C 264.399 273.560,264.652 273.200,264.847 273.200 C 265.041 273.200,265.200 272.930,265.200 272.600 C 265.200 272.270,265.380 272.000,265.600 272.000 C 265.820 272.000,266.000 271.730,266.000 271.400 C 266.000 271.070,266.191 270.800,266.425 270.800 C 266.659 270.800,266.794 270.468,266.725 270.061 C 266.656 269.655,266.720 269.340,266.868 269.361 C 267.198 269.409,269.178 267.140,269.080 266.827 C 269.040 266.702,269.871 265.702,270.926 264.606 C 272.166 263.316,272.779 262.362,272.659 261.906 C 272.537 261.438,272.702 261.200,273.149 261.200 C 273.520 261.200,274.050 260.885,274.327 260.500 C 274.604 260.115,274.959 259.619,275.115 259.399 C 275.272 259.178,276.162 258.481,277.093 257.849 C 278.024 257.218,278.671 256.515,278.531 256.289 C 278.391 256.062,278.461 255.990,278.687 256.130 C 279.285 256.500,280.936 254.944,280.571 254.353 C 280.362 254.015,280.473 253.942,280.928 254.117 C 281.593 254.372,282.615 253.148,282.137 252.670 C 282.008 252.541,282.355 252.517,282.908 252.618 C 283.576 252.739,283.995 252.590,284.154 252.175 C 284.286 251.831,284.533 251.635,284.702 251.739 C 285.133 252.006,286.180 251.167,286.749 250.100 C 287.012 249.605,287.424 249.200,287.663 249.200 C 287.931 249.200,287.887 249.457,287.549 249.870 C 287.071 250.453,287.143 250.447,288.100 249.824 C 288.705 249.430,289.200 248.929,289.200 248.711 C 289.200 248.493,289.470 248.418,289.800 248.545 C 290.130 248.671,290.400 248.601,290.400 248.387 C 290.400 248.174,290.670 248.000,291.000 248.000 C 291.330 248.000,291.600 247.820,291.600 247.600 C 291.600 247.380,291.960 247.200,292.400 247.200 C 292.840 247.200,293.200 247.020,293.200 246.800 C 293.200 246.580,293.560 246.400,294.000 246.400 C 294.440 246.400,294.800 246.220,294.800 246.000 C 294.800 245.780,295.205 245.594,295.700 245.587 C 296.195 245.580,296.942 245.316,297.359 245.000 C 297.776 244.684,298.271 244.520,298.459 244.636 C 298.647 244.752,298.800 244.657,298.800 244.424 C 298.800 244.191,299.340 244.000,300.000 244.000 C 300.660 244.000,301.200 243.820,301.200 243.600 C 301.200 243.380,301.571 243.200,302.024 243.200 C 302.576 243.200,302.748 243.035,302.547 242.700 C 302.311 242.307,302.374 242.303,302.840 242.680 C 303.317 243.065,303.527 243.008,303.914 242.389 C 304.302 241.768,304.587 241.691,305.384 241.994 C 306.008 242.231,306.459 242.228,306.609 241.985 C 306.740 241.773,307.647 241.600,308.624 241.600 C 309.601 241.600,310.400 241.456,310.400 241.281 C 310.400 241.105,311.071 240.970,311.892 240.981 C 313.038 240.996,313.417 240.827,313.530 240.253 C 313.611 239.842,313.525 239.599,313.338 239.713 C 313.152 239.827,312.986 239.303,312.970 238.549 C 312.951 237.704,313.064 237.374,313.263 237.689 C 313.485 238.038,313.590 237.915,313.594 237.300 C 313.598 236.739,313.359 236.400,312.960 236.400 C 312.609 236.400,311.817 235.860,311.200 235.200 C 310.583 234.540,309.874 234.000,309.623 234.000 C 309.372 234.000,308.787 233.646,308.323 233.214 C 307.859 232.781,307.345 232.510,307.181 232.612 C 307.018 232.713,306.781 232.526,306.654 232.198 C 306.528 231.869,306.164 231.600,305.846 231.600 C 305.527 231.600,305.207 231.465,305.133 231.300 C 304.897 230.769,301.616 229.143,301.244 229.373 C 301.046 229.495,300.781 229.326,300.654 228.998 C 300.528 228.669,300.037 228.400,299.564 228.400 C 298.831 228.400,298.779 228.307,299.216 227.781 C 299.626 227.287,299.796 227.267,300.059 227.681 C 300.303 228.067,300.389 228.021,300.394 227.500 C 300.397 227.115,300.591 226.800,300.824 226.800 C 301.057 226.800,301.148 226.639,301.026 226.442 C 300.904 226.245,301.074 225.981,301.402 225.854 C 301.731 225.728,302.000 225.349,302.000 225.013 C 302.000 224.676,302.136 224.400,302.302 224.400 C 302.775 224.400,303.689 222.068,303.400 221.599 C 303.257 221.369,303.379 221.230,303.670 221.290 C 303.970 221.352,304.200 221.053,304.200 220.600 C 304.200 220.160,304.433 219.652,304.718 219.470 C 305.002 219.289,305.132 218.815,305.006 218.418 C 304.861 217.961,305.018 217.602,305.433 217.443 C 305.854 217.281,306.016 216.903,305.883 216.396 C 305.769 215.958,305.850 215.492,306.065 215.360 C 306.279 215.227,306.354 214.858,306.232 214.539 C 306.109 214.220,306.160 214.052,306.344 214.165 C 306.528 214.279,306.695 213.826,306.714 213.158 C 306.733 212.491,306.959 211.691,307.216 211.380 C 307.497 211.042,307.619 209.961,307.521 208.679 C 307.412 207.254,307.531 206.380,307.879 206.055 C 308.503 205.472,308.577 203.600,307.976 203.600 C 307.743 203.600,307.664 203.780,307.800 204.000 C 307.936 204.220,307.857 204.400,307.624 204.400 C 307.140 204.400,307.087 203.960,307.456 202.999 C 307.660 202.468,307.780 202.441,308.050 202.866 C 308.255 203.191,308.390 202.426,308.394 200.916 C 308.398 199.383,308.200 198.245,307.879 197.945 C 307.529 197.618,307.412 196.742,307.524 195.280 C 307.642 193.743,307.533 193.006,307.154 192.771 C 306.824 192.568,306.664 191.891,306.739 191.021 C 306.837 189.884,306.740 189.648,306.250 189.836 C 305.745 190.030,305.681 189.811,305.882 188.573 C 306.021 187.716,305.970 187.171,305.762 187.299 C 305.563 187.422,305.359 186.956,305.308 186.264 C 305.258 185.572,305.033 184.944,304.808 184.869 C 304.584 184.795,304.400 184.420,304.400 184.036 C 304.400 183.653,303.965 182.931,303.433 182.431 C 302.764 181.803,302.512 181.197,302.615 180.462 C 302.696 179.878,302.666 179.625,302.548 179.900 C 302.154 180.817,301.581 180.415,301.836 179.400 C 301.990 178.784,301.917 178.400,301.643 178.400 C 301.400 178.400,301.200 178.149,301.200 177.843 C 301.200 177.536,300.930 177.182,300.600 177.055 C 300.270 176.929,300.000 176.558,300.000 176.231 C 300.000 175.904,299.550 175.186,299.000 174.636 C 298.450 174.086,298.000 173.448,298.000 173.218 C 298.000 172.988,297.640 172.800,297.200 172.800 C 296.430 172.800,296.222 172.410,296.379 171.260 C 296.420 170.963,296.261 170.838,296.027 170.983 C 295.792 171.129,295.600 171.039,295.600 170.784 C 295.600 170.047,291.983 166.831,291.405 167.054 C 291.117 167.164,290.762 167.062,290.617 166.827 C 290.472 166.592,290.557 166.400,290.807 166.400 C 291.057 166.400,290.727 165.950,290.073 165.400 C 289.419 164.850,288.685 164.400,288.442 164.400 C 288.199 164.400,288.000 164.190,288.000 163.933 C 288.000 163.677,287.883 163.584,287.740 163.727 C 287.596 163.870,287.240 163.675,286.947 163.294 C 286.482 162.687,286.365 162.675,286.014 163.200 C 285.689 163.686,285.611 163.619,285.606 162.853 C 285.601 162.123,285.427 161.952,284.844 162.104 C 284.429 162.213,283.844 162.127,283.544 161.913 C 283.128 161.616,283.165 161.578,283.700 161.750 C 284.085 161.874,284.400 161.904,284.400 161.817 C 284.400 161.497,281.879 160.414,280.560 160.166 C 279.812 160.026,279.200 159.790,279.200 159.643 C 279.200 159.495,278.713 159.334,278.118 159.285 C 277.522 159.236,276.856 159.016,276.638 158.798 C 276.419 158.579,275.725 158.400,275.096 158.400 C 274.436 158.400,274.057 158.231,274.200 158.000 C 274.349 157.758,273.804 157.600,272.824 157.600 C 271.931 157.600,271.200 157.437,271.200 157.238 C 271.200 157.038,269.543 156.857,267.518 156.836 C 265.493 156.814,263.657 156.617,263.438 156.398 C 262.930 155.890,261.477 155.883,260.974 156.386 C 260.762 156.598,258.971 156.807,256.994 156.849 C 255.017 156.891,253.281 157.107,253.136 157.329 C 252.990 157.551,252.232 157.708,251.451 157.679 C 250.670 157.650,249.924 157.800,249.792 158.013 C 249.660 158.226,249.023 158.400,248.376 158.400 C 247.729 158.400,247.200 158.580,247.200 158.800 C 247.200 159.020,246.750 159.200,246.200 159.200 C 245.650 159.200,245.200 159.378,245.200 159.595 C 245.200 159.813,244.480 160.106,243.600 160.246 C 242.701 160.390,242.000 160.726,242.000 161.014 C 242.000 161.341,241.689 161.444,241.137 161.300 C 240.546 161.145,240.365 161.220,240.561 161.537 C 240.722 161.798,240.618 162.000,240.324 161.999 C 239.294 161.997,236.392 163.798,236.590 164.316 C 236.698 164.600,236.565 164.797,236.294 164.753 C 235.189 164.576,232.800 166.291,232.800 167.261 C 232.800 167.448,232.545 167.600,232.233 167.600 C 231.922 167.600,231.607 167.742,231.533 167.914 C 231.460 168.087,230.827 168.631,230.127 169.123 C 229.426 169.614,228.792 170.418,228.717 170.908 C 228.642 171.399,228.360 171.755,228.091 171.700 C 227.821 171.645,227.600 171.772,227.600 171.982 C 227.600 172.192,227.150 172.814,226.600 173.364 C 226.050 173.914,225.597 174.687,225.594 175.082 C 225.589 175.692,225.529 175.710,225.200 175.200 C 224.885 174.712,224.811 174.764,224.806 175.477 C 224.803 175.960,224.430 176.614,223.979 176.930 C 223.527 177.246,223.130 177.874,223.096 178.325 C 223.062 178.776,222.891 179.056,222.717 178.949 C 222.543 178.841,222.400 179.033,222.400 179.376 C 222.400 179.719,222.220 180.000,222.000 180.000 C 221.780 180.000,221.600 180.360,221.600 180.800 C 221.600 181.240,221.420 181.600,221.200 181.600 C 220.980 181.600,220.800 181.960,220.800 182.400 C 220.800 182.840,220.620 183.200,220.400 183.200 C 220.180 183.200,220.000 183.830,220.000 184.600 C 220.000 185.370,219.820 186.000,219.600 186.000 C 219.380 186.000,219.200 186.270,219.200 186.600 C 219.200 186.930,219.001 187.200,218.758 187.200 C 218.483 187.200,218.374 187.808,218.469 188.809 C 218.573 189.899,218.476 190.361,218.167 190.243 C 217.865 190.127,217.719 190.695,217.733 191.934 C 217.747 193.132,217.591 193.767,217.296 193.706 C 216.973 193.640,216.862 194.774,216.919 197.569 C 216.964 199.744,216.864 201.440,216.697 201.337 C 216.197 201.027,215.878 202.371,216.324 202.909 C 216.552 203.183,216.782 204.666,216.837 206.204 C 216.907 208.182,217.120 209.148,217.568 209.506 C 218.103 209.934,218.108 209.995,217.600 209.906 C 217.232 209.841,217.066 210.032,217.171 210.400 C 217.265 210.730,217.418 211.765,217.511 212.700 C 217.604 213.635,217.798 214.400,217.943 214.400 C 218.384 214.400,219.251 216.697,219.287 217.964 C 219.305 218.622,219.560 219.253,219.854 219.365 C 220.147 219.478,220.289 219.823,220.170 220.133 C 220.051 220.443,220.231 220.803,220.570 220.933 C 220.925 221.069,221.087 221.430,220.952 221.781 C 220.817 222.133,220.979 222.494,221.333 222.630 C 221.672 222.760,221.852 223.121,221.732 223.433 C 221.612 223.745,221.714 224.000,221.957 224.000 C 222.201 224.000,222.400 224.242,222.400 224.539 C 222.400 224.835,222.805 225.273,223.300 225.512 C 223.795 225.751,223.975 225.958,223.700 225.973 C 223.425 225.988,223.200 226.180,223.200 226.400 C 223.200 226.620,223.362 226.755,223.560 226.700 C 223.758 226.645,223.923 226.760,223.926 226.955 C 223.929 227.151,224.145 227.442,224.406 227.604 C 225.024 227.986,223.700 229.613,222.993 229.342 C 222.724 229.239,222.397 229.431,222.267 229.770 C 222.130 230.126,221.771 230.287,221.415 230.150 C 221.077 230.021,220.800 230.114,220.800 230.357 C 220.800 230.601,220.440 230.800,220.000 230.800 C 219.560 230.800,219.200 230.980,219.200 231.200 C 219.200 231.420,218.975 231.600,218.700 231.600 C 217.955 231.601,215.969 233.430,216.307 233.804 C 216.468 233.982,216.290 234.016,215.912 233.881 C 215.533 233.745,214.961 233.896,214.640 234.217 C 214.319 234.538,213.864 234.800,213.629 234.800 C 213.393 234.800,213.200 235.051,213.200 235.357 C 213.200 235.664,212.885 236.034,212.500 236.181 C 211.939 236.395,211.899 236.348,212.300 235.944 C 212.696 235.545,212.801 220.854,212.806 165.220 C 212.810 126.042,212.966 94.757,213.161 94.450 C 213.352 94.148,214.015 93.900,214.633 93.900 C 215.251 93.900,216.015 93.642,216.330 93.327 C 216.645 93.012,217.144 92.846,217.439 92.960 C 217.733 93.073,218.081 92.993,218.211 92.783 C 218.341 92.572,218.797 92.400,219.224 92.400 C 219.651 92.400,220.000 92.220,220.000 92.000 C 220.000 91.780,220.461 91.600,221.024 91.600 C 221.587 91.600,221.960 91.459,221.853 91.287 C 221.747 91.114,222.141 90.979,222.730 90.987 C 223.360 90.994,223.761 90.800,223.705 90.514 C 223.648 90.225,223.862 90.126,224.234 90.268 C 224.578 90.400,225.405 90.103,226.079 89.605 C 226.751 89.108,227.806 88.676,228.423 88.645 C 229.040 88.614,229.677 88.456,229.839 88.294 C 230.001 88.132,230.463 88.000,230.867 88.000 C 231.270 88.000,231.600 87.820,231.600 87.600 C 231.600 87.380,232.061 87.200,232.624 87.200 C 233.204 87.200,233.540 87.027,233.400 86.800 C 233.256 86.567,233.663 86.400,234.376 86.400 C 235.049 86.400,235.600 86.220,235.600 86.000 C 235.600 85.780,236.039 85.600,236.576 85.600 C 237.113 85.600,237.664 85.420,237.800 85.200 C 237.936 84.980,238.397 84.800,238.824 84.800 C 239.251 84.800,239.600 84.620,239.600 84.400 C 239.600 84.180,240.050 84.000,240.600 84.000 C 241.150 84.000,241.600 83.820,241.600 83.600 C 241.600 83.380,241.960 83.200,242.400 83.200 C 242.840 83.200,243.200 83.020,243.200 82.800 C 243.200 82.580,243.721 82.400,244.357 82.400 C 244.994 82.400,245.613 82.144,245.733 81.831 C 245.861 81.496,246.272 81.346,246.730 81.466 C 247.159 81.578,247.631 81.474,247.778 81.235 C 247.926 80.996,248.407 80.800,248.847 80.800 C 249.287 80.800,249.536 80.620,249.400 80.400 C 249.151 79.997,249.642 79.853,250.865 79.973 C 251.230 80.009,251.646 79.850,251.788 79.619 C 251.931 79.389,252.397 79.200,252.824 79.200 C 253.251 79.200,253.600 79.020,253.600 78.800 C 253.600 78.580,254.039 78.400,254.576 78.400 C 255.113 78.400,255.664 78.220,255.800 78.000 C 255.936 77.780,256.397 77.600,256.824 77.600 C 257.251 77.600,257.600 77.420,257.600 77.200 C 257.600 76.980,258.022 76.800,258.539 76.800 C 259.117 76.800,259.644 76.454,259.912 75.900 C 260.151 75.405,260.358 75.225,260.373 75.500 C 260.388 75.775,260.591 76.000,260.824 76.000 C 261.057 76.000,261.136 75.820,261.000 75.600 C 260.853 75.361,261.337 75.200,262.200 75.200 C 263.052 75.200,263.547 75.037,263.403 74.805 C 263.262 74.577,263.424 74.511,263.784 74.649 C 264.129 74.781,264.633 74.714,264.905 74.500 C 265.177 74.286,265.902 73.990,266.516 73.843 C 267.130 73.697,267.544 73.433,267.436 73.259 C 267.328 73.084,267.636 72.954,268.120 72.970 C 268.604 72.987,268.964 72.802,268.920 72.559 C 268.873 72.305,269.223 72.192,269.749 72.292 C 270.249 72.388,271.325 72.091,272.141 71.633 C 272.957 71.175,273.902 70.800,274.241 70.800 C 274.580 70.800,275.129 70.528,275.461 70.196 C 275.793 69.864,276.230 69.695,276.432 69.820 C 276.635 69.945,276.800 69.857,276.800 69.624 C 276.800 69.391,277.325 69.200,277.967 69.200 C 278.608 69.200,279.197 69.010,279.274 68.778 C 279.351 68.546,279.721 68.311,280.096 68.256 C 280.470 68.201,280.902 68.031,281.055 67.878 C 281.208 67.725,281.753 67.600,282.267 67.600 C 282.780 67.600,283.200 67.368,283.200 67.084 C 283.200 66.784,283.661 66.575,284.300 66.584 C 284.905 66.593,285.364 66.402,285.320 66.159 C 285.272 65.897,285.636 65.794,286.220 65.906 C 286.787 66.014,287.200 65.905,287.200 65.647 C 287.200 65.401,287.650 65.200,288.200 65.200 C 288.750 65.200,289.200 65.020,289.200 64.800 C 289.200 64.580,289.650 64.400,290.200 64.400 C 290.750 64.400,291.200 64.220,291.200 64.000 C 291.200 63.780,291.650 63.600,292.200 63.600 C 292.750 63.600,293.200 63.420,293.200 63.200 C 293.200 62.980,293.560 62.800,294.000 62.800 C 294.440 62.800,294.800 62.620,294.800 62.400 C 294.800 62.180,295.321 62.000,295.957 62.000 C 296.650 62.000,297.213 61.743,297.361 61.358 C 297.501 60.992,297.863 60.815,298.203 60.946 C 298.532 61.072,298.800 61.001,298.800 60.787 C 298.800 60.574,299.340 60.400,300.000 60.400 C 300.660 60.400,301.200 60.220,301.200 60.000 C 301.200 59.780,301.571 59.600,302.024 59.600 C 302.477 59.600,302.736 59.420,302.600 59.200 C 302.387 58.855,303.536 58.592,304.523 58.760 C 304.836 58.814,307.076 57.915,308.495 57.166 C 308.877 56.965,309.462 56.800,309.795 56.800 C 310.128 56.800,310.400 56.620,310.400 56.400 C 310.400 56.180,310.921 56.000,311.557 56.000 C 312.211 56.000,312.813 55.742,312.942 55.407 C 313.067 55.080,313.428 54.913,313.744 55.034 C 314.060 55.155,314.438 55.062,314.583 54.827 C 314.728 54.592,315.267 54.400,315.781 54.400 C 316.294 54.400,316.825 54.111,316.961 53.758 C 317.106 53.381,317.460 53.214,317.824 53.354 C 318.180 53.490,318.337 53.422,318.195 53.193 C 318.060 52.974,318.231 52.686,318.575 52.554 C 319.475 52.209,319.345 51.200,318.400 51.200 C 317.960 51.200,317.600 50.999,317.600 50.753 C 317.600 50.495,317.187 50.386,316.620 50.494 C 316.021 50.609,315.559 50.471,315.433 50.141 C 315.318 49.843,314.859 49.600,314.413 49.600 C 313.966 49.600,313.600 49.420,313.600 49.200 C 313.600 48.980,313.060 48.800,312.400 48.800 C 311.740 48.800,311.200 48.590,311.200 48.333 C 311.200 48.077,311.085 47.982,310.944 48.123 C 310.803 48.264,310.218 48.136,309.644 47.838 C 308.602 47.298,307.002 46.602,305.300 45.946 C 304.805 45.756,303.962 45.396,303.427 45.147 C 302.892 44.898,302.174 44.801,301.832 44.932 C 301.465 45.073,301.249 44.975,301.305 44.693 C 301.361 44.412,300.580 44.059,299.400 43.833 C 298.300 43.622,297.310 43.349,297.200 43.225 C 297.090 43.101,296.730 42.941,296.400 42.870 C 296.070 42.798,295.740 42.573,295.667 42.370 C 295.593 42.166,295.008 42.000,294.367 42.000 C 293.725 42.000,293.200 41.820,293.200 41.600 C 293.200 41.380,292.649 41.200,291.976 41.200 C 291.263 41.200,290.856 41.033,291.000 40.800 C 291.136 40.580,290.877 40.400,290.424 40.400 C 289.971 40.400,289.600 40.258,289.600 40.085 C 289.600 39.912,289.198 39.740,288.706 39.703 C 288.214 39.666,287.749 39.448,287.673 39.218 C 287.596 38.988,287.098 38.800,286.567 38.800 C 286.035 38.800,285.600 38.620,285.600 38.400 C 285.600 38.180,285.298 38.000,284.928 38.000 C 284.020 38.000,281.600 37.105,281.600 36.770 C 281.600 36.621,281.113 36.500,280.517 36.500 C 279.921 36.500,279.366 36.298,279.283 36.050 C 279.201 35.803,278.788 35.600,278.367 35.600 C 277.945 35.600,277.600 35.420,277.600 35.200 C 277.600 34.980,277.060 34.800,276.400 34.800 C 275.740 34.800,275.200 34.601,275.200 34.357 C 275.200 34.114,274.923 34.021,274.585 34.150 C 274.235 34.285,273.872 34.131,273.742 33.793 C 273.617 33.467,273.171 33.200,272.752 33.200 C 272.332 33.200,271.677 33.033,271.295 32.829 C 270.195 32.242,269.038 31.868,268.553 31.942 C 268.308 31.980,267.881 31.738,267.604 31.405 C 267.328 31.072,266.674 30.800,266.151 30.800 C 265.628 30.800,265.200 30.620,265.200 30.400 C 265.200 30.180,264.851 30.000,264.424 30.000 C 263.997 30.000,263.536 29.820,263.400 29.600 C 263.264 29.380,262.713 29.200,262.176 29.200 C 261.639 29.200,261.200 28.998,261.200 28.750 C 261.200 28.458,260.744 28.387,259.900 28.549 C 259.078 28.707,258.803 28.668,259.153 28.443 C 259.855 27.992,258.262 27.391,257.542 27.836 C 257.252 28.015,257.184 27.949,257.362 27.662 C 257.549 27.359,257.295 27.200,256.624 27.200 C 256.061 27.200,255.600 27.020,255.600 26.800 C 255.600 26.580,255.150 26.400,254.600 26.400 C 254.050 26.400,253.600 26.220,253.600 26.000 C 253.600 25.780,253.150 25.600,252.600 25.600 C 252.050 25.600,251.600 25.426,251.600 25.213 C 251.600 24.999,251.353 24.920,251.052 25.036 C 250.750 25.151,250.223 24.966,249.880 24.623 C 249.537 24.280,248.794 24.000,248.229 24.000 C 247.663 24.000,247.200 23.820,247.200 23.600 C 247.200 23.380,246.840 23.200,246.400 23.200 C 245.960 23.200,245.600 23.020,245.600 22.800 C 245.600 22.580,245.060 22.400,244.400 22.400 C 243.740 22.400,243.200 22.198,243.200 21.951 C 243.200 21.652,242.966 21.681,242.500 22.038 C 242.115 22.333,241.926 22.423,242.081 22.239 C 242.489 21.753,241.395 20.800,240.429 20.800 C 239.973 20.800,239.600 20.620,239.600 20.400 C 239.600 20.180,239.409 20.000,239.176 20.000 C 238.943 20.000,238.864 20.180,239.000 20.400 C 239.136 20.620,238.956 20.800,238.600 20.800 C 238.244 20.800,238.064 20.620,238.200 20.400 C 238.336 20.180,238.156 20.000,237.800 20.000 C 237.429 20.000,237.269 19.811,237.426 19.557 C 237.611 19.259,237.422 19.203,236.848 19.385 C 236.261 19.571,235.921 19.460,235.755 19.028 C 235.613 18.658,235.039 18.400,234.357 18.400 C 233.721 18.400,233.200 18.220,233.200 18.000 C 233.200 17.780,232.840 17.600,232.400 17.600 C 231.960 17.600,231.600 17.420,231.600 17.200 C 231.600 16.980,230.959 16.800,230.176 16.800 C 229.191 16.800,228.842 16.656,229.042 16.332 C 229.234 16.022,229.117 15.946,228.695 16.108 C 228.345 16.243,227.830 16.078,227.551 15.742 C 227.219 15.341,226.575 15.185,225.682 15.290 C 224.594 15.417,224.196 15.260,223.707 14.514 C 223.309 13.907,222.850 13.657,222.395 13.802 C 221.964 13.938,221.598 13.772,221.444 13.370 C 221.306 13.011,220.938 12.815,220.626 12.935 C 220.314 13.054,219.843 12.893,219.580 12.576 C 219.317 12.259,218.775 12.000,218.375 12.000 C 217.975 12.000,217.536 11.820,217.400 11.600 C 217.264 11.380,216.613 11.200,215.953 11.200 C 215.293 11.200,214.850 11.042,214.970 10.849 C 215.089 10.655,214.650 10.390,213.994 10.259 L 212.800 10.020 212.800 5.010 L 212.800 0.000 200.400 0.000 L 188.000 0.000 188.000 117.963 M66.800 258.800 C 66.800 259.020,66.001 259.200,65.024 259.200 C 64.047 259.200,63.136 259.380,63.000 259.600 C 62.864 259.820,62.213 260.000,61.553 260.000 C 60.893 260.000,60.448 260.154,60.564 260.342 C 60.681 260.530,60.352 260.603,59.835 260.505 C 59.317 260.406,58.772 260.522,58.623 260.762 C 58.475 261.003,57.958 261.214,57.476 261.232 C 56.994 261.249,56.825 261.354,57.100 261.465 C 58.070 261.856,57.585 262.328,56.404 262.142 C 55.402 261.984,55.250 262.064,55.469 262.636 C 55.692 263.217,55.557 263.279,54.566 263.048 C 53.819 262.873,53.595 262.906,53.943 263.138 C 54.711 263.650,53.828 264.126,52.746 263.783 C 52.177 263.602,51.990 263.659,52.174 263.957 C 52.338 264.223,52.136 264.400,51.670 264.400 C 51.242 264.400,50.601 264.844,50.245 265.387 C 49.889 265.930,49.362 266.284,49.073 266.173 C 48.785 266.062,47.977 266.518,47.278 267.186 C 46.579 267.854,45.932 268.400,45.840 268.400 C 45.425 268.400,42.079 271.946,42.293 272.160 C 42.425 272.292,42.315 272.400,42.048 272.400 C 41.354 272.400,39.600 274.249,39.600 274.982 C 39.600 275.322,39.420 275.600,39.200 275.600 C 38.980 275.600,38.800 275.900,38.800 276.267 C 38.800 276.633,38.689 276.822,38.552 276.686 C 38.094 276.228,36.400 278.664,36.400 279.780 C 36.400 280.106,36.040 280.565,35.600 280.800 C 35.160 281.035,34.800 281.492,34.800 281.814 C 34.800 282.136,34.620 282.400,34.400 282.400 C 34.180 282.400,34.000 282.760,34.000 283.200 C 34.000 283.640,33.820 284.000,33.600 284.000 C 33.380 284.000,33.200 284.349,33.200 284.776 C 33.200 285.203,33.020 285.664,32.800 285.800 C 32.580 285.936,32.400 286.487,32.400 287.024 C 32.400 287.561,32.199 288.000,31.953 288.000 C 31.708 288.000,31.598 288.348,31.709 288.774 C 31.820 289.200,31.654 289.916,31.340 290.365 C 30.973 290.888,30.837 291.760,30.962 292.791 C 31.145 294.312,30.715 294.988,30.256 293.900 C 30.140 293.625,30.093 294.750,30.152 296.400 C 30.210 298.050,30.187 299.083,30.099 298.695 C 30.011 298.307,29.773 298.093,29.570 298.219 C 29.018 298.560,29.123 299.999,29.700 300.006 C 30.052 300.010,30.068 300.099,29.753 300.306 C 29.134 300.714,29.074 308.475,29.687 308.854 C 29.959 309.022,30.107 309.990,30.050 311.231 C 29.995 312.445,30.143 313.441,30.402 313.601 C 30.649 313.754,30.865 314.491,30.883 315.239 C 30.901 315.988,31.093 316.715,31.308 316.855 C 31.524 316.994,31.700 317.590,31.700 318.178 C 31.700 318.874,31.876 319.180,32.205 319.054 C 32.539 318.925,32.642 319.120,32.508 319.628 C 32.261 320.575,33.441 323.164,34.264 323.480 C 34.754 323.668,34.767 323.774,34.334 324.044 C 33.920 324.303,34.002 324.519,34.700 325.011 C 35.215 325.374,35.600 326.064,35.600 326.623 C 35.600 327.203,35.832 327.600,36.171 327.600 C 37.182 327.600,38.093 328.806,37.565 329.442 C 37.228 329.849,37.221 330.143,37.541 330.529 C 37.893 330.953,37.743 331.024,36.790 330.884 C 36.078 330.779,35.600 330.888,35.600 331.155 C 35.600 331.400,35.259 331.600,34.843 331.600 C 34.426 331.600,33.983 331.867,33.858 332.193 C 33.716 332.562,33.372 332.687,32.946 332.524 C 32.437 332.329,32.323 332.421,32.501 332.885 C 32.671 333.329,32.546 333.459,32.068 333.334 C 31.698 333.237,31.037 333.491,30.598 333.899 C 30.159 334.307,29.485 334.761,29.100 334.908 C 28.715 335.055,28.400 335.371,28.400 335.611 C 28.400 335.851,28.220 335.936,28.000 335.800 C 27.780 335.664,27.600 335.743,27.600 335.976 C 27.600 336.209,27.375 336.402,27.100 336.404 C 26.825 336.406,26.175 336.946,25.655 337.604 C 25.135 338.262,24.370 338.800,23.955 338.800 C 23.517 338.800,23.200 339.080,23.200 339.467 C 23.200 339.833,23.095 340.028,22.967 339.900 C 22.762 339.695,21.839 340.517,17.115 345.115 C 16.318 345.891,16.159 346.265,16.515 346.523 C 16.852 346.768,16.804 346.813,16.359 346.673 C 15.804 346.498,14.400 347.609,14.400 348.223 C 14.400 348.340,13.950 348.886,13.400 349.436 C 12.850 349.986,12.400 350.580,12.400 350.756 C 12.400 350.932,11.945 351.599,11.388 352.238 C 10.831 352.877,10.453 353.709,10.547 354.086 C 10.652 354.508,10.425 354.865,9.959 355.013 C 9.436 355.179,9.200 355.627,9.200 356.451 C 9.200 357.146,9.033 357.544,8.800 357.400 C 8.580 357.264,8.400 357.433,8.400 357.776 C 8.400 358.119,8.220 358.400,8.000 358.400 C 7.780 358.400,7.600 358.760,7.600 359.200 C 7.600 359.640,7.420 360.000,7.200 360.000 C 6.980 360.000,6.800 360.270,6.800 360.600 C 6.800 360.930,6.620 361.200,6.400 361.200 C 6.180 361.200,6.000 361.549,6.000 361.976 C 6.000 362.403,5.817 362.866,5.593 363.004 C 5.370 363.142,5.282 363.408,5.397 363.595 C 5.513 363.782,5.316 364.226,4.961 364.582 C 4.605 364.938,4.404 365.571,4.513 365.988 C 4.629 366.432,4.470 366.841,4.130 366.971 C 3.811 367.094,3.666 367.384,3.809 367.615 C 3.952 367.846,3.819 368.432,3.514 368.918 C 3.208 369.403,2.922 370.332,2.877 370.982 C 2.832 371.633,2.616 372.344,2.398 372.562 C 2.179 372.781,2.000 373.835,2.000 374.904 C 2.000 376.097,1.846 376.752,1.600 376.600 C 1.366 376.455,1.200 376.870,1.200 377.600 C 1.200 378.482,1.347 378.764,1.700 378.565 C 2.100 378.339,2.100 378.390,1.700 378.821 C 1.425 379.118,1.200 379.864,1.200 380.480 C 1.200 381.106,0.979 381.603,0.700 381.606 C 0.367 381.610,0.400 381.742,0.800 382.000 C 1.130 382.213,1.197 382.391,0.949 382.394 C 0.630 382.398,0.477 384.981,0.428 391.200 L 0.357 400.000 52.401 400.000 L 104.446 400.000 104.369 392.406 C 104.319 387.415,104.442 384.632,104.727 384.287 C 104.967 383.999,105.158 382.478,105.153 380.907 C 105.148 379.337,105.352 377.663,105.606 377.188 C 105.860 376.714,105.958 375.885,105.823 375.347 C 105.680 374.780,105.853 373.788,106.234 372.985 C 106.595 372.224,106.813 371.070,106.718 370.421 C 106.623 369.773,106.687 369.330,106.861 369.437 C 107.285 369.700,107.748 367.762,107.448 366.980 C 107.317 366.638,107.374 366.460,107.576 366.585 C 107.915 366.795,108.157 366.262,108.658 364.200 C 108.817 363.547,108.775 363.510,108.432 364.000 C 108.087 364.494,108.011 364.436,108.006 363.676 C 108.003 363.161,108.177 362.862,108.400 363.000 C 108.620 363.136,108.800 362.967,108.800 362.624 C 108.800 362.281,108.980 362.000,109.200 362.000 C 109.420 362.000,109.600 361.362,109.600 360.583 C 109.600 359.719,109.912 358.831,110.400 358.308 C 110.840 357.836,111.200 357.123,111.200 356.725 C 111.200 356.326,111.391 356.000,111.624 356.000 C 111.857 356.000,111.945 355.835,111.820 355.632 C 111.695 355.430,111.876 354.981,112.222 354.635 C 112.568 354.289,112.738 353.823,112.600 353.600 C 112.462 353.377,112.631 353.086,112.975 352.954 C 113.319 352.822,113.600 352.543,113.600 352.334 C 113.600 352.124,113.375 352.067,113.100 352.207 C 112.825 352.347,113.005 352.103,113.500 351.666 C 114.451 350.827,114.759 349.737,113.900 350.253 C 113.556 350.460,113.570 350.344,113.945 349.881 C 114.245 349.511,114.678 349.325,114.907 349.466 C 115.138 349.609,115.205 349.532,115.058 349.294 C 114.912 349.058,115.077 348.580,115.425 348.232 C 115.773 347.885,115.932 347.600,115.780 347.600 C 115.627 347.600,115.726 347.330,116.000 347.000 C 116.274 346.670,116.341 346.394,116.149 346.386 C 115.957 346.378,116.250 346.114,116.800 345.800 C 117.350 345.486,117.556 345.222,117.258 345.214 C 116.957 345.206,117.281 344.671,117.988 344.011 C 118.688 343.357,119.159 342.657,119.034 342.455 C 118.909 342.253,119.255 341.794,119.803 341.435 C 120.352 341.075,120.800 340.604,120.800 340.387 C 120.800 340.170,121.340 339.428,122.000 338.737 C 123.627 337.035,123.211 334.800,121.269 334.800 C 121.011 334.800,120.800 334.620,120.800 334.400 C 120.800 334.180,120.564 334.000,120.275 334.000 C 119.987 334.000,119.364 333.640,118.892 333.200 C 118.420 332.760,117.756 332.400,117.417 332.400 C 117.078 332.400,116.800 332.220,116.800 332.000 C 116.800 331.780,116.440 331.600,116.000 331.600 C 115.560 331.600,115.200 331.420,115.200 331.200 C 115.200 330.980,114.917 330.800,114.571 330.800 C 113.224 330.800,112.626 329.645,113.556 328.838 C 114.020 328.435,114.400 327.812,114.400 327.453 C 114.400 327.094,114.580 326.800,114.800 326.800 C 115.020 326.800,115.200 326.440,115.200 326.000 C 115.200 325.560,115.380 325.200,115.600 325.200 C 115.820 325.200,116.000 324.760,116.000 324.223 C 116.000 323.671,116.381 322.978,116.876 322.632 C 117.358 322.294,117.627 321.894,117.475 321.742 C 117.323 321.589,117.490 321.142,117.848 320.747 C 118.205 320.353,118.396 319.766,118.272 319.444 C 118.149 319.122,118.307 318.643,118.624 318.380 C 118.941 318.117,119.200 317.395,119.200 316.775 C 119.200 316.155,119.380 315.536,119.600 315.400 C 119.820 315.264,120.000 314.443,120.000 313.576 C 120.000 312.709,120.169 312.000,120.375 312.000 C 120.581 312.000,120.723 311.640,120.690 311.200 C 120.657 310.760,120.385 310.400,120.086 310.400 C 119.654 310.400,119.666 310.277,120.144 309.799 C 120.857 309.086,121.061 296.597,120.374 295.768 C 120.157 295.507,119.956 294.597,119.928 293.746 C 119.899 292.896,119.742 292.110,119.577 292.000 C 119.413 291.890,119.187 291.218,119.076 290.508 C 118.964 289.797,118.586 288.929,118.236 288.579 C 117.524 287.866,117.389 287.422,118.000 287.800 C 118.220 287.936,118.400 287.872,118.400 287.657 C 118.400 287.442,118.197 287.199,117.950 287.117 C 117.703 287.034,117.500 286.479,117.500 285.883 C 117.500 285.206,117.284 284.800,116.923 284.800 C 116.541 284.800,116.426 284.547,116.584 284.050 C 116.754 283.515,116.589 283.238,116.011 283.087 C 115.565 282.970,115.200 282.667,115.200 282.414 C 115.200 282.160,115.380 282.064,115.600 282.200 C 115.820 282.336,116.000 282.257,116.000 282.024 C 116.000 281.791,115.820 281.600,115.600 281.600 C 115.380 281.600,115.187 281.285,115.172 280.900 C 115.148 280.301,115.094 280.316,114.800 281.000 C 114.512 281.670,114.452 281.589,114.428 280.500 C 114.413 279.785,114.220 279.200,114.000 279.200 C 113.780 279.200,113.600 278.936,113.600 278.614 C 113.600 278.292,113.240 277.835,112.800 277.600 C 112.360 277.365,112.000 276.895,112.000 276.557 C 112.000 276.219,111.730 275.673,111.400 275.343 C 111.070 275.013,110.800 274.838,110.800 274.953 C 110.800 275.069,110.350 274.714,109.800 274.164 C 109.250 273.614,108.800 272.991,108.800 272.779 C 108.800 272.034,103.138 266.800,102.332 266.800 C 101.862 266.800,101.438 266.466,101.316 266.000 C 101.201 265.560,100.850 265.200,100.537 265.200 C 100.223 265.200,99.580 264.840,99.108 264.400 C 98.636 263.960,97.788 263.597,97.225 263.594 C 96.416 263.589,96.327 263.506,96.800 263.200 C 97.315 262.867,97.302 262.811,96.712 262.806 C 96.334 262.803,95.383 262.440,94.600 262.000 C 93.817 261.560,92.836 261.200,92.421 261.200 C 92.006 261.200,91.606 261.019,91.532 260.797 C 91.459 260.576,90.508 260.305,89.421 260.195 C 88.334 260.084,87.320 259.794,87.168 259.548 C 87.013 259.298,86.262 259.175,85.457 259.269 C 84.522 259.378,83.954 259.256,83.824 258.918 C 83.715 258.633,83.429 258.400,83.189 258.400 C 82.946 258.400,82.886 258.622,83.053 258.900 C 83.286 259.287,83.223 259.295,82.777 258.936 C 82.091 258.384,69.011 258.171,69.349 258.717 C 69.468 258.909,69.311 259.067,69.000 259.067 C 68.689 259.067,68.528 258.917,68.641 258.733 C 68.755 258.550,68.387 258.400,67.824 258.400 C 67.261 258.400,66.800 258.580,66.800 258.800 M191.206 258.700 C 191.202 259.016,190.610 259.200,189.600 259.200 C 188.720 259.200,188.000 259.355,188.000 259.544 C 188.000 259.734,187.114 259.994,186.031 260.122 C 184.947 260.250,183.732 260.530,183.331 260.744 C 182.929 260.958,182.017 261.349,181.305 261.613 C 180.593 261.877,180.081 262.207,180.167 262.346 C 180.253 262.486,179.897 262.626,179.376 262.657 C 178.855 262.688,178.159 262.958,177.829 263.257 C 176.455 264.499,176.073 264.740,175.843 264.509 C 175.709 264.376,175.600 264.477,175.600 264.733 C 175.600 264.990,175.240 265.200,174.800 265.200 C 174.342 265.200,174.000 265.467,174.000 265.824 C 174.000 266.167,173.839 266.348,173.642 266.226 C 173.445 266.104,173.181 266.274,173.054 266.602 C 172.928 266.931,172.564 267.200,172.245 267.200 C 171.533 267.200,168.339 270.206,168.685 270.551 C 168.821 270.688,168.633 270.800,168.267 270.800 C 167.900 270.800,167.600 271.100,167.600 271.467 C 167.600 271.833,167.491 272.024,167.357 271.891 C 167.040 271.574,166.029 272.509,166.266 272.900 C 166.365 273.065,166.167 273.200,165.824 273.200 C 165.481 273.200,165.245 273.362,165.300 273.560 C 165.355 273.758,165.259 273.932,165.086 273.946 C 164.412 274.001,163.615 275.173,163.844 275.770 C 164.004 276.188,163.861 276.400,163.419 276.400 C 163.053 276.400,162.864 276.580,163.000 276.800 C 163.136 277.020,162.954 277.200,162.597 277.200 C 162.114 277.200,162.011 277.432,162.199 278.100 C 162.368 278.701,162.331 278.826,162.088 278.476 C 161.617 277.800,160.300 279.673,160.633 280.543 C 160.773 280.906,160.544 281.227,160.029 281.391 C 159.418 281.585,159.200 281.990,159.200 282.931 C 159.200 283.774,158.929 284.377,158.400 284.707 C 157.948 284.990,157.600 285.640,157.600 286.203 C 157.600 286.752,157.420 287.200,157.200 287.200 C 156.980 287.200,156.800 287.740,156.800 288.400 C 156.800 289.060,156.620 289.600,156.400 289.600 C 156.180 289.600,156.000 290.125,156.000 290.767 C 156.000 291.408,155.775 292.025,155.500 292.136 C 155.124 292.289,155.148 292.444,155.600 292.763 C 156.007 293.051,156.039 293.190,155.700 293.194 C 155.396 293.198,155.200 293.750,155.200 294.600 C 155.200 295.370,155.031 296.000,154.824 296.000 C 154.222 296.000,154.277 310.692,154.880 310.893 C 155.197 310.999,155.329 311.718,155.255 312.927 C 155.179 314.156,155.338 314.995,155.719 315.376 C 156.044 315.701,156.216 316.383,156.111 316.931 C 156.009 317.467,156.122 318.028,156.362 318.177 C 156.603 318.325,156.800 318.797,156.800 319.224 C 156.800 319.651,156.980 320.000,157.200 320.000 C 157.420 320.000,157.600 320.540,157.600 321.200 C 157.600 321.860,157.780 322.400,158.000 322.400 C 158.220 322.400,158.400 322.760,158.400 323.200 C 158.400 323.640,158.580 324.000,158.800 324.000 C 159.020 324.000,159.200 324.270,159.200 324.600 C 159.200 324.930,159.380 325.200,159.600 325.200 C 159.820 325.200,160.000 325.547,160.000 325.971 C 160.000 326.396,160.276 327.019,160.614 327.357 C 160.952 327.695,161.222 328.068,161.214 328.186 C 161.159 329.019,161.315 329.213,162.217 329.440 C 163.259 329.701,163.370 330.410,162.419 330.727 C 162.074 330.842,161.988 330.711,162.174 330.352 C 162.331 330.048,162.221 330.086,161.930 330.435 C 161.638 330.784,161.191 331.000,160.937 330.914 C 160.682 330.828,160.356 330.947,160.213 331.179 C 160.070 331.410,159.681 331.600,159.348 331.600 C 158.513 331.600,157.697 332.492,157.920 333.160 C 158.055 333.566,157.828 333.660,157.064 333.514 C 156.492 333.405,156.119 333.470,156.236 333.658 C 156.352 333.846,155.987 334.000,155.424 334.000 C 154.631 334.000,154.399 334.203,154.394 334.900 C 154.389 335.628,154.314 335.685,154.000 335.200 C 153.742 334.800,153.610 334.767,153.606 335.100 C 153.603 335.375,153.328 335.600,152.996 335.600 C 152.664 335.600,151.828 336.140,151.137 336.800 C 150.446 337.460,149.638 338.000,149.341 338.000 C 149.043 338.000,148.800 338.300,148.800 338.667 C 148.800 339.033,148.688 339.221,148.551 339.085 C 148.415 338.948,147.619 339.548,146.783 340.418 C 145.947 341.288,145.111 342.000,144.926 342.000 C 144.548 342.000,143.000 343.949,143.000 344.425 C 143.000 344.595,142.836 344.883,142.636 345.067 C 142.420 345.265,142.405 345.156,142.601 344.800 C 142.782 344.470,141.828 345.345,140.480 346.745 C 139.133 348.145,138.045 349.405,138.062 349.545 C 138.162 350.331,137.950 350.816,137.600 350.600 C 137.378 350.463,137.197 350.764,137.194 351.276 C 137.189 352.019,137.112 352.083,136.800 351.600 C 136.497 351.130,136.411 351.233,136.406 352.073 C 136.402 352.791,136.136 353.230,135.600 353.400 C 135.160 353.540,134.800 354.002,134.800 354.427 C 134.800 354.852,134.601 355.200,134.357 355.200 C 134.114 355.200,134.014 355.461,134.137 355.780 C 134.293 356.186,134.167 356.286,133.715 356.112 C 133.211 355.919,133.121 356.053,133.298 356.733 C 133.452 357.319,133.343 357.600,132.963 357.600 C 132.653 357.600,132.400 357.971,132.400 358.424 C 132.400 358.944,132.570 359.142,132.862 358.962 C 133.141 358.789,133.215 358.852,133.049 359.121 C 132.898 359.365,132.479 359.452,132.118 359.313 C 131.634 359.127,131.525 359.228,131.705 359.697 C 131.851 360.076,131.700 360.429,131.333 360.570 C 130.979 360.706,130.817 361.067,130.952 361.419 C 131.085 361.765,130.929 362.129,130.593 362.258 C 130.267 362.383,130.000 362.816,130.000 363.219 C 130.000 363.623,129.808 364.072,129.573 364.217 C 129.338 364.362,129.247 364.746,129.372 365.070 C 129.496 365.394,129.313 365.944,128.964 366.293 C 128.607 366.650,128.408 367.330,128.508 367.851 C 128.605 368.360,128.543 368.688,128.370 368.581 C 127.887 368.283,127.712 368.796,127.414 371.396 C 127.262 372.714,127.004 373.974,126.840 374.196 C 126.675 374.418,126.493 375.410,126.434 376.400 C 126.375 377.390,126.148 378.417,125.929 378.682 C 125.710 378.948,125.677 379.398,125.854 379.682 C 126.332 380.447,126.377 381.167,125.964 381.422 C 125.762 381.547,125.600 385.736,125.600 390.824 L 125.600 400.000 200.000 400.000 L 274.400 400.000 274.400 395.463 C 274.400 392.968,274.519 388.439,274.665 385.399 C 274.827 382.016,274.786 379.962,274.558 380.103 C 274.347 380.233,274.133 379.259,274.066 377.866 C 274.001 376.510,273.779 375.229,273.574 375.020 C 273.368 374.811,273.200 374.157,273.200 373.566 C 273.200 372.975,272.944 371.998,272.632 371.396 C 272.319 370.793,272.170 370.023,272.300 369.685 C 272.430 369.346,272.370 369.171,272.168 369.295 C 271.966 369.420,271.760 368.968,271.711 368.292 C 271.662 367.615,271.437 366.877,271.211 366.651 C 270.985 366.425,270.800 365.826,270.800 365.320 C 270.800 364.814,270.640 364.400,270.444 364.400 C 270.248 364.400,269.849 363.590,269.557 362.600 C 269.265 361.610,268.885 360.800,268.713 360.800 C 268.541 360.800,268.400 360.440,268.400 360.000 C 268.400 359.560,268.220 359.200,268.000 359.200 C 267.780 359.200,267.600 358.840,267.600 358.400 C 267.600 357.960,267.441 357.600,267.247 357.600 C 267.052 357.600,266.794 357.222,266.674 356.760 C 266.532 356.219,266.278 356.028,265.959 356.225 C 265.614 356.439,265.541 356.330,265.719 355.866 C 265.860 355.500,265.801 355.200,265.587 355.200 C 265.374 355.200,265.200 354.880,265.200 354.488 C 265.200 354.097,264.840 353.517,264.400 353.200 C 263.960 352.883,263.600 352.324,263.600 351.958 C 263.600 351.593,263.240 351.199,262.800 351.084 C 262.321 350.959,262.000 350.538,262.000 350.037 C 262.000 349.577,261.820 349.200,261.600 349.200 C 261.380 349.200,261.200 349.014,261.200 348.787 C 261.200 348.151,258.520 345.617,258.176 345.927 C 258.009 346.077,257.986 346.000,258.126 345.755 C 258.345 345.369,255.966 342.780,255.405 342.795 C 254.546 342.817,254.400 342.729,254.400 342.187 C 254.400 341.467,251.792 338.741,251.440 339.093 C 251.308 339.225,251.200 339.056,251.200 338.717 C 251.200 338.351,250.711 338.002,250.000 337.860 C 249.340 337.728,248.800 337.423,248.800 337.181 C 248.800 336.536,247.752 335.600,247.029 335.600 C 246.683 335.600,246.400 335.409,246.400 335.176 C 246.400 334.943,246.220 334.864,246.000 335.000 C 245.780 335.136,245.600 334.959,245.600 334.606 C 245.600 334.253,245.375 333.994,245.100 334.030 C 244.083 334.162,243.560 333.989,243.800 333.600 C 243.941 333.373,243.600 333.200,243.011 333.200 C 242.435 333.200,241.867 332.919,241.732 332.566 C 241.536 332.056,241.423 332.037,241.150 332.466 C 240.884 332.887,240.811 332.867,240.806 332.368 C 240.799 331.655,239.076 330.582,238.505 330.935 C 238.300 331.061,238.126 330.948,238.117 330.682 C 238.108 330.417,237.962 329.678,237.792 329.040 C 237.570 328.205,237.612 327.960,237.945 328.166 C 238.636 328.593,239.599 327.411,239.606 326.129 C 239.610 325.396,239.726 325.179,239.937 325.511 C 240.381 326.211,241.270 324.248,240.921 323.339 C 240.748 322.887,240.817 322.763,241.132 322.958 C 241.448 323.153,241.600 322.871,241.600 322.086 C 241.600 321.432,241.950 320.607,242.400 320.200 C 242.840 319.802,243.200 319.065,243.200 318.562 C 243.200 318.059,243.380 317.536,243.600 317.400 C 243.820 317.264,244.000 316.533,244.000 315.776 C 244.000 315.019,244.180 314.400,244.400 314.400 C 244.620 314.400,244.800 314.209,244.800 313.976 C 244.800 313.743,244.575 313.688,244.300 313.853 C 243.923 314.080,243.906 314.012,244.232 313.577 C 244.469 313.260,244.702 312.280,244.749 311.400 C 244.796 310.520,245.007 309.740,245.218 309.667 C 245.428 309.593,245.600 309.268,245.600 308.943 C 245.600 308.618,245.432 308.456,245.228 308.583 C 245.023 308.709,244.742 308.630,244.604 308.407 C 244.466 308.183,244.616 308.000,244.938 308.000 C 245.421 308.000,245.528 307.087,245.549 302.800 C 245.564 299.698,245.418 297.600,245.187 297.600 C 244.974 297.600,244.800 296.790,244.800 295.800 C 244.800 294.810,244.620 294.000,244.400 294.000 C 244.180 294.000,244.000 293.190,244.000 292.200 C 244.000 291.210,243.865 290.399,243.700 290.397 C 243.535 290.395,243.192 289.945,242.937 289.396 C 242.683 288.848,242.638 288.500,242.837 288.623 C 243.037 288.746,243.200 288.657,243.200 288.424 C 243.200 288.191,243.020 288.000,242.800 288.000 C 242.580 288.000,242.400 287.475,242.400 286.833 C 242.400 286.192,242.218 285.606,241.996 285.532 C 241.774 285.458,241.507 284.957,241.404 284.418 C 241.067 282.669,239.935 280.708,239.142 280.501 C 238.667 280.376,238.412 280.016,238.483 279.568 C 238.548 279.167,238.240 278.546,237.800 278.189 C 237.360 277.833,237.225 277.655,237.500 277.794 C 238.380 278.240,238.037 277.555,236.800 276.400 C 236.140 275.783,235.600 275.068,235.600 274.811 C 235.600 274.106,234.552 273.201,233.729 273.194 C 233.270 273.190,233.169 273.079,233.456 272.894 C 233.789 272.679,233.770 272.468,233.385 272.112 C 232.971 271.727,232.817 271.727,232.661 272.112 C 232.552 272.380,232.449 272.272,232.432 271.871 C 232.393 270.975,231.342 269.865,230.831 270.181 C 230.624 270.309,230.342 270.230,230.204 270.007 C 230.066 269.783,230.171 269.600,230.439 269.600 C 230.706 269.600,230.401 269.150,229.762 268.600 C 229.123 268.051,228.457 267.601,228.282 267.600 C 228.107 267.600,227.514 267.150,226.964 266.600 C 225.947 265.583,224.918 265.220,225.438 266.062 C 225.615 266.348,225.548 266.415,225.262 266.238 C 225.008 266.081,224.800 265.689,224.800 265.366 C 224.800 264.866,222.754 263.705,222.517 264.072 C 222.472 264.142,222.183 263.856,221.875 263.435 C 221.536 262.971,221.062 262.767,220.671 262.918 C 220.316 263.054,219.902 262.965,219.751 262.721 C 219.573 262.433,219.661 262.390,220.000 262.600 C 220.346 262.814,220.427 262.767,220.238 262.462 C 219.856 261.844,218.802 261.871,218.794 262.500 C 218.790 262.843,218.672 262.818,218.420 262.419 C 218.218 262.100,218.142 261.695,218.250 261.519 C 218.358 261.344,218.087 261.200,217.647 261.200 C 217.207 261.200,216.725 261.003,216.577 260.762 C 216.428 260.522,215.877 260.407,215.353 260.507 C 214.829 260.607,214.400 260.534,214.400 260.345 C 214.400 260.155,213.860 260.000,213.200 260.000 C 212.540 260.000,212.000 259.820,212.000 259.600 C 212.000 259.380,211.201 259.200,210.224 259.200 C 209.247 259.200,208.331 259.011,208.188 258.781 C 208.014 258.499,207.719 258.531,207.288 258.881 C 206.782 259.291,206.711 259.292,206.953 258.889 C 207.199 258.481,205.722 258.386,199.630 258.418 C 194.066 258.447,191.998 258.585,191.994 258.929 C 191.990 259.205,191.827 259.152,191.600 258.800 C 191.342 258.400,191.210 258.367,191.206 258.700 M315.924 258.812 C 315.856 259.006,315.137 259.209,314.326 259.263 C 313.515 259.316,312.941 259.504,313.049 259.680 C 313.158 259.856,312.697 260.022,312.024 260.050 C 311.351 260.078,310.620 260.145,310.400 260.200 C 310.180 260.255,309.653 260.322,309.229 260.350 C 308.804 260.377,308.218 260.639,307.925 260.932 C 307.632 261.225,307.186 261.395,306.933 261.311 C 306.680 261.227,306.356 261.347,306.213 261.579 C 306.070 261.810,305.647 262.000,305.273 262.000 C 304.899 262.000,304.351 262.386,304.056 262.859 C 303.623 263.552,303.452 263.610,303.166 263.159 C 302.913 262.760,302.810 262.743,302.806 263.100 C 302.803 263.375,302.539 263.600,302.220 263.600 C 301.901 263.600,301.463 263.915,301.248 264.300 C 301.033 264.685,300.799 264.943,300.728 264.874 C 300.523 264.672,299.044 265.312,298.519 265.830 C 298.255 266.091,298.165 266.431,298.319 266.586 C 298.474 266.740,298.420 266.830,298.200 266.786 C 297.291 266.603,296.807 266.893,294.839 268.800 C 293.703 269.900,292.631 270.800,292.455 270.800 C 292.279 270.800,291.880 271.295,291.568 271.900 C 291.255 272.505,290.505 273.477,289.900 274.060 C 289.295 274.644,288.800 275.329,288.800 275.584 C 288.800 275.839,288.647 275.953,288.460 275.837 C 288.273 275.722,287.883 276.071,287.593 276.614 C 287.302 277.156,286.905 277.600,286.709 277.600 C 286.513 277.600,286.465 277.781,286.602 278.003 C 286.739 278.224,286.569 278.514,286.225 278.646 C 285.881 278.778,285.600 279.136,285.600 279.443 C 285.600 279.749,285.420 280.000,285.200 280.000 C 284.980 280.000,284.800 280.360,284.800 280.800 C 284.800 281.240,284.620 281.600,284.400 281.600 C 284.180 281.600,284.021 281.735,284.047 281.900 C 284.186 282.776,283.918 283.538,283.200 284.308 C 282.760 284.780,282.400 285.433,282.400 285.760 C 282.400 286.086,282.220 286.464,282.000 286.600 C 281.780 286.736,281.600 287.287,281.600 287.824 C 281.600 288.361,281.399 288.800,281.153 288.800 C 280.907 288.800,280.798 289.151,280.911 289.581 C 281.023 290.011,280.870 290.686,280.570 291.081 C 280.271 291.477,280.020 292.374,280.013 293.076 C 280.006 293.778,279.828 294.459,279.618 294.589 C 279.407 294.719,279.273 296.513,279.320 298.576 C 279.366 300.639,279.274 302.246,279.114 302.147 C 278.563 301.807,278.325 303.961,278.765 305.295 C 279.008 306.031,279.224 307.886,279.245 309.417 C 279.265 310.947,279.462 312.420,279.681 312.689 C 279.900 312.958,280.080 313.807,280.080 314.575 C 280.080 315.588,280.285 316.037,280.829 316.209 C 281.457 316.409,281.501 316.570,281.099 317.213 C 280.726 317.811,280.728 318.088,281.110 318.470 C 281.380 318.740,281.600 319.374,281.600 319.880 C 281.600 320.386,281.737 320.800,281.904 320.800 C 282.071 320.800,282.444 321.179,282.733 321.642 C 283.169 322.339,283.168 322.432,282.730 322.183 C 282.304 321.941,282.298 321.988,282.700 322.421 C 282.975 322.718,283.203 323.329,283.206 323.780 C 283.211 324.456,283.280 324.495,283.600 324.000 C 284.004 323.374,284.067 323.467,284.150 324.815 C 284.178 325.263,284.470 325.800,284.800 326.008 C 285.130 326.217,285.252 326.391,285.071 326.394 C 284.891 326.397,285.027 326.685,285.375 327.032 C 285.723 327.380,285.888 327.858,285.742 328.094 C 285.585 328.349,285.664 328.407,285.938 328.238 C 286.215 328.067,286.400 328.213,286.400 328.600 C 286.400 328.956,286.581 329.135,286.803 328.998 C 287.422 328.615,287.774 329.991,287.194 330.527 C 286.798 330.893,286.746 330.887,286.965 330.500 C 287.120 330.225,287.057 330.000,286.824 330.000 C 286.591 330.000,286.400 330.253,286.400 330.563 C 286.400 330.928,286.120 331.052,285.600 330.916 C 285.153 330.799,284.800 330.904,284.800 331.153 C 284.800 331.399,284.461 331.600,284.047 331.600 C 283.630 331.600,283.200 331.957,283.084 332.400 C 282.968 332.845,282.538 333.200,282.117 333.200 C 281.194 333.200,279.207 334.086,279.203 334.500 C 279.201 334.665,279.007 334.800,278.771 334.800 C 277.083 334.800,276.780 337.277,278.258 339.000 C 278.825 339.660,279.150 339.947,278.982 339.638 C 278.784 339.274,278.833 339.173,279.121 339.351 C 279.365 339.502,279.469 339.876,279.351 340.183 C 279.229 340.501,279.570 341.024,280.144 341.400 C 280.733 341.786,281.061 342.297,280.933 342.630 C 280.798 342.983,280.968 343.200,281.381 343.200 C 281.747 343.200,281.936 343.380,281.800 343.600 C 281.664 343.820,281.743 344.000,281.976 344.000 C 282.209 344.000,282.400 344.360,282.400 344.800 C 282.400 345.240,282.580 345.600,282.800 345.600 C 283.020 345.600,283.200 345.836,283.200 346.125 C 283.200 346.413,283.560 347.036,284.000 347.508 C 284.440 347.980,284.800 348.655,284.800 349.007 C 284.800 349.359,284.980 349.536,285.200 349.400 C 285.430 349.258,285.603 349.630,285.606 350.276 C 285.611 351.149,285.699 351.266,286.000 350.800 C 286.294 350.345,286.389 350.514,286.394 351.500 C 286.397 352.215,286.580 352.800,286.800 352.800 C 287.020 352.800,287.200 353.083,287.200 353.429 C 287.200 353.774,287.472 354.329,287.804 354.661 C 288.136 354.993,288.305 355.430,288.180 355.632 C 288.055 355.835,288.143 356.000,288.376 356.000 C 288.609 356.000,288.800 356.450,288.800 357.000 C 288.800 357.550,288.980 358.000,289.200 358.000 C 289.420 358.000,289.600 358.360,289.600 358.800 C 289.600 359.240,289.780 359.600,290.000 359.600 C 290.220 359.600,290.400 360.140,290.400 360.800 C 290.400 361.460,290.580 362.000,290.800 362.000 C 291.020 362.000,291.200 362.463,291.200 363.029 C 291.200 363.594,291.454 364.311,291.764 364.622 C 292.075 364.932,292.234 365.549,292.118 365.993 C 291.968 366.565,292.102 366.800,292.577 366.800 C 292.946 366.800,293.136 366.980,293.000 367.200 C 292.864 367.420,292.965 367.600,293.225 367.600 C 293.586 367.600,293.587 367.733,293.232 368.161 C 292.875 368.592,292.887 368.771,293.283 368.931 C 293.686 369.093,293.667 369.233,293.200 369.563 C 292.793 369.851,292.761 369.990,293.100 369.994 C 293.416 369.998,293.600 370.590,293.600 371.600 C 293.600 372.480,293.754 373.200,293.941 373.200 C 294.129 373.200,294.196 374.097,294.091 375.193 C 293.949 376.674,294.045 377.242,294.464 377.403 C 294.906 377.573,294.997 378.384,294.884 381.166 C 294.779 383.749,294.883 384.846,295.270 385.207 C 295.682 385.592,295.769 387.288,295.661 392.851 L 295.522 400.000 347.561 400.000 L 399.600 400.000 399.600 391.576 C 399.600 385.676,399.471 383.232,399.170 383.418 C 398.930 383.567,398.964 383.327,399.246 382.874 C 399.655 382.221,399.653 381.946,399.237 381.445 C 398.955 381.104,398.730 379.920,398.739 378.813 C 398.747 377.706,398.584 376.800,398.377 376.800 C 398.170 376.800,398.000 375.810,398.000 374.600 C 398.000 373.390,397.820 372.400,397.600 372.400 C 397.380 372.400,397.200 371.680,397.200 370.800 C 397.200 369.920,397.020 369.200,396.800 369.200 C 396.580 369.200,396.400 368.838,396.400 368.395 C 396.400 367.952,396.220 367.232,396.000 366.795 C 395.780 366.358,395.420 365.642,395.200 365.205 C 394.980 364.768,394.800 364.069,394.800 363.652 C 394.800 363.230,394.445 362.801,394.000 362.684 C 393.540 362.564,393.200 362.138,393.200 361.683 C 393.200 360.806,392.223 358.710,391.944 358.989 C 391.847 359.086,391.738 358.770,391.701 358.287 C 391.615 357.137,390.374 354.400,389.939 354.400 C 389.753 354.400,389.600 354.117,389.600 353.771 C 389.600 353.026,388.603 351.931,388.248 352.286 C 388.111 352.422,387.994 352.188,387.987 351.767 C 387.972 350.829,387.239 349.840,386.300 349.488 C 385.915 349.343,385.600 348.859,385.600 348.413 C 385.600 347.966,385.409 347.600,385.176 347.600 C 384.943 347.600,384.864 347.780,385.000 348.000 C 385.434 348.702,384.875 348.431,383.762 347.400 C 382.605 346.327,382.733 346.122,384.102 346.855 C 384.895 347.279,384.886 347.227,383.976 346.077 C 383.439 345.399,382.764 344.834,382.476 344.822 C 382.188 344.810,382.056 344.633,382.182 344.429 C 382.308 344.225,382.049 343.943,381.606 343.802 C 381.163 343.661,380.800 343.348,380.800 343.106 C 380.800 342.865,380.690 342.777,380.556 342.911 C 380.421 343.046,379.865 342.625,379.319 341.977 C 378.773 341.328,378.136 340.916,377.902 341.061 C 377.668 341.205,377.590 341.139,377.730 340.913 C 378.055 340.387,376.691 338.800,375.914 338.800 C 375.589 338.800,375.127 338.395,374.888 337.900 C 374.649 337.405,374.442 337.225,374.427 337.500 C 374.412 337.775,374.226 338.000,374.013 338.000 C 373.799 338.000,373.728 337.732,373.854 337.403 C 373.992 337.044,373.788 336.697,373.342 336.531 C 372.934 336.380,372.309 335.928,371.953 335.528 C 371.597 335.127,371.012 334.800,370.653 334.800 C 370.294 334.800,370.000 334.609,370.000 334.376 C 370.000 334.143,369.820 334.064,369.600 334.200 C 369.380 334.336,369.200 334.167,369.200 333.824 C 369.200 333.467,368.858 333.200,368.400 333.200 C 367.960 333.200,367.600 333.020,367.600 332.800 C 367.600 332.580,367.240 332.400,366.800 332.400 C 366.360 332.400,366.000 332.220,366.000 332.000 C 366.000 331.780,365.640 331.600,365.200 331.600 C 364.760 331.600,364.400 331.412,364.400 331.182 C 364.400 330.953,364.085 330.818,363.700 330.882 C 362.628 331.063,362.548 329.037,363.584 327.925 C 364.044 327.432,364.331 326.797,364.222 326.514 C 364.113 326.229,364.307 326.000,364.659 326.000 C 365.093 326.000,365.228 325.751,365.088 325.214 C 364.966 324.748,365.069 324.463,365.341 324.514 C 365.593 324.561,365.802 324.277,365.803 323.883 C 365.805 323.489,366.044 323.020,366.334 322.841 C 366.624 322.661,366.826 322.264,366.783 321.957 C 366.635 320.897,366.802 320.354,367.200 320.600 C 367.420 320.736,367.600 320.487,367.600 320.047 C 367.600 319.607,367.792 319.128,368.027 318.983 C 368.262 318.838,368.367 318.490,368.259 318.209 C 368.151 317.929,368.281 317.272,368.547 316.750 C 368.812 316.227,369.074 315.177,369.128 314.416 C 369.181 313.654,369.416 312.914,369.648 312.770 C 369.910 312.608,370.009 311.337,369.908 309.433 C 369.757 306.579,370.098 305.063,370.523 306.695 C 370.624 307.083,370.728 305.771,370.754 303.780 C 370.783 301.514,370.627 299.987,370.338 299.698 C 370.082 299.442,369.889 298.162,369.907 296.841 C 369.927 295.289,369.749 294.289,369.400 294.000 C 369.091 293.744,368.942 293.109,369.050 292.512 C 369.154 291.940,369.069 291.365,368.861 291.236 C 368.653 291.106,368.419 290.550,368.341 290.000 C 368.264 289.450,368.056 288.894,367.880 288.764 C 367.704 288.634,367.530 288.094,367.494 287.564 C 367.458 287.034,367.196 286.360,366.911 286.068 C 366.626 285.775,366.495 285.370,366.620 285.168 C 366.745 284.965,366.657 284.800,366.424 284.800 C 366.191 284.800,365.997 284.395,365.994 283.900 C 365.989 283.172,365.914 283.115,365.600 283.600 C 365.304 284.058,365.211 283.904,365.206 282.949 C 365.203 282.261,364.932 281.476,364.604 281.204 C 364.277 280.932,364.099 280.563,364.210 280.383 C 364.321 280.204,364.025 279.935,363.553 279.785 C 362.962 279.598,362.846 279.419,363.181 279.212 C 363.536 278.992,363.489 278.843,363.008 278.658 C 362.646 278.519,362.461 278.224,362.598 278.003 C 362.735 277.781,362.657 277.600,362.424 277.600 C 362.191 277.600,362.000 277.330,362.000 277.000 C 362.000 276.670,361.700 276.400,361.333 276.400 C 360.967 276.400,360.783 276.283,360.926 276.141 C 361.255 275.812,359.603 274.351,359.190 274.606 C 358.801 274.846,358.324 273.647,358.618 273.170 C 358.834 272.822,356.290 270.000,355.760 270.000 C 355.614 270.000,355.203 269.673,354.847 269.272 C 354.491 268.872,353.885 268.428,353.500 268.285 C 353.115 268.142,352.800 267.761,352.800 267.438 C 352.800 267.116,352.180 266.627,351.421 266.353 C 350.663 266.079,350.124 265.723,350.224 265.562 C 350.323 265.401,349.864 265.030,349.202 264.737 C 348.541 264.444,348.000 264.069,348.000 263.902 C 348.000 263.736,347.539 263.600,346.976 263.600 C 346.396 263.600,346.060 263.427,346.200 263.200 C 346.341 262.972,345.996 262.800,345.400 262.800 C 344.709 262.800,344.450 262.643,344.639 262.337 C 344.835 262.020,344.654 261.945,344.063 262.100 C 343.481 262.252,343.200 262.142,343.200 261.763 C 343.200 261.453,342.876 261.200,342.480 261.200 C 342.084 261.200,341.589 261.043,341.380 260.852 C 341.171 260.660,340.460 260.385,339.800 260.239 C 338.922 260.046,338.761 260.085,339.200 260.382 C 339.715 260.730,339.701 260.789,339.100 260.794 C 338.715 260.797,338.400 260.620,338.400 260.400 C 338.400 260.180,338.040 260.000,337.600 260.000 C 337.160 260.000,336.800 259.820,336.800 259.600 C 336.800 259.380,336.005 259.200,335.033 259.200 C 333.995 259.200,333.183 258.994,333.064 258.700 C 332.911 258.324,332.756 258.348,332.437 258.800 C 332.136 259.225,332.010 259.251,332.006 258.887 C 331.999 258.281,316.135 258.207,315.924 258.812 " stroke="none" fill="#546cfc" fill-rule="evenodd"></path><path id="path1" d="M317.824 53.013 C 317.396 53.336,317.227 53.600,317.447 53.600 C 317.667 53.600,318.196 53.336,318.624 53.013 C 319.051 52.690,319.220 52.425,319.000 52.425 C 318.780 52.425,318.251 52.690,317.824 53.013 M296.243 172.167 C 296.376 172.515,296.661 172.800,296.876 172.800 C 297.402 172.800,297.073 171.891,296.475 171.692 C 296.182 171.594,296.093 171.777,296.243 172.167 M307.456 202.999 C 307.087 203.960,307.140 204.400,307.624 204.400 C 307.857 204.400,307.945 204.235,307.821 204.034 C 307.697 203.833,307.770 203.608,307.985 203.534 C 308.205 203.458,308.231 203.169,308.043 202.866 C 307.779 202.442,307.659 202.469,307.456 202.999 M299.200 227.800 C 298.792 228.291,298.820 228.400,299.351 228.400 C 299.708 228.400,300.000 228.130,300.000 227.800 C 300.000 227.470,299.932 227.200,299.849 227.200 C 299.766 227.200,299.474 227.470,299.200 227.800 M87.596 236.204 C 87.057 236.855,87.480 236.991,88.343 236.444 C 88.672 236.235,88.729 236.004,88.488 235.854 C 88.269 235.719,87.868 235.877,87.596 236.204 M312.970 238.549 C 312.986 239.303,313.135 239.838,313.300 239.737 C 313.694 239.495,313.673 238.335,313.263 237.689 C 313.064 237.374,312.951 237.704,312.970 238.549 M212.399 240.551 C 212.949 240.872,213.474 241.059,213.566 240.967 C 213.814 240.719,213.514 240.530,212.400 240.233 L 211.400 239.967 212.399 240.551 M215.200 240.837 C 215.200 241.037,215.365 241.200,215.567 241.200 C 215.769 241.200,216.249 241.321,216.633 241.468 C 217.072 241.636,217.235 241.580,217.072 241.316 C 216.730 240.763,215.200 240.372,215.200 240.837 M241.600 253.841 C 241.600 253.960,241.870 254.327,242.200 254.657 C 242.720 255.178,242.800 255.179,242.800 254.671 C 242.800 254.349,242.530 253.982,242.200 253.855 C 241.870 253.729,241.600 253.722,241.600 253.841 M120.000 255.667 C 120.000 255.923,120.118 256.015,120.263 255.870 C 120.408 255.725,120.768 255.807,121.063 256.052 C 121.401 256.333,121.600 256.347,121.600 256.092 C 121.600 255.868,121.315 255.576,120.967 255.443 C 120.097 255.109,120.000 255.132,120.000 255.667 M151.029 260.229 C 150.605 260.538,150.336 260.869,150.430 260.963 C 150.524 261.057,150.948 260.881,151.371 260.571 C 151.795 260.262,152.064 259.931,151.970 259.837 C 151.876 259.743,151.452 259.919,151.029 260.229 M53.870 263.079 C 53.248 263.405,52.833 263.766,52.947 263.880 C 53.218 264.152,55.600 263.095,55.600 262.702 C 55.600 262.292,55.204 262.378,53.870 263.079 M255.200 269.200 C 255.200 269.420,255.470 269.600,255.800 269.600 C 256.130 269.600,256.400 269.420,256.400 269.200 C 256.400 268.980,256.130 268.800,255.800 268.800 C 255.470 268.800,255.200 268.980,255.200 269.200 M358.406 273.451 C 358.418 274.139,359.098 274.889,359.346 274.488 C 359.481 274.269,359.323 273.868,358.996 273.596 C 358.668 273.324,358.403 273.259,358.406 273.451 M369.969 306.100 C 369.716 306.928,369.746 307.600,370.035 307.600 C 370.236 307.600,370.400 307.240,370.400 306.800 C 370.400 306.157,370.101 305.671,369.969 306.100 M36.413 327.900 C 36.440 328.535,37.533 329.631,37.765 329.256 C 37.898 329.041,37.723 328.580,37.375 328.232 C 36.682 327.539,36.393 327.439,36.413 327.900 M286.942 329.764 C 286.974 330.292,287.135 330.640,287.300 330.538 C 287.715 330.282,287.677 329.295,287.242 329.026 C 287.046 328.905,286.911 329.237,286.942 329.764 M162.133 330.211 C 162.133 330.903,162.867 330.800,163.108 330.075 C 163.195 329.814,163.012 329.600,162.700 329.600 C 162.388 329.600,162.133 329.875,162.133 330.211 M281.800 332.800 C 281.664 333.020,281.823 333.200,282.153 333.200 C 282.483 333.200,282.864 333.020,283.000 332.800 C 283.136 332.580,282.977 332.400,282.647 332.400 C 282.317 332.400,281.936 332.580,281.800 332.800 M156.584 333.362 C 155.865 333.888,155.886 333.911,156.908 333.716 C 157.508 333.601,158.000 333.348,158.000 333.153 C 158.000 332.640,157.463 332.719,156.584 333.362 M254.400 342.324 C 254.400 342.539,254.685 342.824,255.033 342.957 C 255.423 343.107,255.606 343.018,255.508 342.725 C 255.309 342.127,254.400 341.798,254.400 342.324 M383.762 347.400 C 384.356 347.950,384.916 348.400,385.008 348.400 C 385.434 348.400,384.626 347.135,383.979 346.789 C 382.728 346.119,382.642 346.361,383.762 347.400 M274.563 393.600 C 274.563 397.230,274.623 398.715,274.698 396.900 C 274.772 395.085,274.772 392.115,274.698 390.300 C 274.623 388.485,274.563 389.970,274.563 393.600 " stroke="none" fill="#586cfc" fill-rule="evenodd"></path><path id="path2" d="M317.824 53.013 C 317.396 53.336,317.227 53.600,317.447 53.600 C 317.667 53.600,318.196 53.336,318.624 53.013 C 319.051 52.690,319.220 52.425,319.000 52.425 C 318.780 52.425,318.251 52.690,317.824 53.013 M296.243 172.167 C 296.376 172.515,296.661 172.800,296.876 172.800 C 297.402 172.800,297.073 171.891,296.475 171.692 C 296.182 171.594,296.093 171.777,296.243 172.167 M307.456 202.999 C 307.087 203.960,307.140 204.400,307.624 204.400 C 307.857 204.400,307.945 204.235,307.821 204.034 C 307.697 203.833,307.770 203.608,307.985 203.534 C 308.205 203.458,308.231 203.169,308.043 202.866 C 307.779 202.442,307.659 202.469,307.456 202.999 M299.200 227.800 C 298.792 228.291,298.820 228.400,299.351 228.400 C 299.708 228.400,300.000 228.130,300.000 227.800 C 300.000 227.470,299.932 227.200,299.849 227.200 C 299.766 227.200,299.474 227.470,299.200 227.800 M87.596 236.204 C 87.057 236.855,87.480 236.991,88.343 236.444 C 88.672 236.235,88.729 236.004,88.488 235.854 C 88.269 235.719,87.868 235.877,87.596 236.204 M312.970 238.549 C 312.986 239.303,313.135 239.838,313.300 239.737 C 313.694 239.495,313.673 238.335,313.263 237.689 C 313.064 237.374,312.951 237.704,312.970 238.549 M212.399 240.551 C 212.949 240.872,213.474 241.059,213.566 240.967 C 213.814 240.719,213.514 240.530,212.400 240.233 L 211.400 239.967 212.399 240.551 M215.200 240.837 C 215.200 241.037,215.365 241.200,215.567 241.200 C 215.769 241.200,216.249 241.321,216.633 241.468 C 217.072 241.636,217.235 241.580,217.072 241.316 C 216.730 240.763,215.200 240.372,215.200 240.837 M241.600 253.841 C 241.600 253.960,241.870 254.327,242.200 254.657 C 242.720 255.178,242.800 255.179,242.800 254.671 C 242.800 254.349,242.530 253.982,242.200 253.855 C 241.870 253.729,241.600 253.722,241.600 253.841 M120.000 255.667 C 120.000 255.923,120.118 256.015,120.263 255.870 C 120.408 255.725,120.768 255.807,121.063 256.052 C 121.401 256.333,121.600 256.347,121.600 256.092 C 121.600 255.868,121.315 255.576,120.967 255.443 C 120.097 255.109,120.000 255.132,120.000 255.667 M151.029 260.229 C 150.605 260.538,150.336 260.869,150.430 260.963 C 150.524 261.057,150.948 260.881,151.371 260.571 C 151.795 260.262,152.064 259.931,151.970 259.837 C 151.876 259.743,151.452 259.919,151.029 260.229 M53.870 263.079 C 53.248 263.405,52.833 263.766,52.947 263.880 C 53.218 264.152,55.600 263.095,55.600 262.702 C 55.600 262.292,55.204 262.378,53.870 263.079 M255.200 269.200 C 255.200 269.420,255.470 269.600,255.800 269.600 C 256.130 269.600,256.400 269.420,256.400 269.200 C 256.400 268.980,256.130 268.800,255.800 268.800 C 255.470 268.800,255.200 268.980,255.200 269.200 M358.406 273.451 C 358.418 274.139,359.098 274.889,359.346 274.488 C 359.481 274.269,359.323 273.868,358.996 273.596 C 358.668 273.324,358.403 273.259,358.406 273.451 M369.969 306.100 C 369.716 306.928,369.746 307.600,370.035 307.600 C 370.236 307.600,370.400 307.240,370.400 306.800 C 370.400 306.157,370.101 305.671,369.969 306.100 M36.413 327.900 C 36.440 328.535,37.533 329.631,37.765 329.256 C 37.898 329.041,37.723 328.580,37.375 328.232 C 36.682 327.539,36.393 327.439,36.413 327.900 M286.942 329.764 C 286.974 330.292,287.135 330.640,287.300 330.538 C 287.715 330.282,287.677 329.295,287.242 329.026 C 287.046 328.905,286.911 329.237,286.942 329.764 M162.133 330.211 C 162.133 330.903,162.867 330.800,163.108 330.075 C 163.195 329.814,163.012 329.600,162.700 329.600 C 162.388 329.600,162.133 329.875,162.133 330.211 M281.800 332.800 C 281.664 333.020,281.823 333.200,282.153 333.200 C 282.483 333.200,282.864 333.020,283.000 332.800 C 283.136 332.580,282.977 332.400,282.647 332.400 C 282.317 332.400,281.936 332.580,281.800 332.800 M156.584 333.362 C 155.865 333.888,155.886 333.911,156.908 333.716 C 157.508 333.601,158.000 333.348,158.000 333.153 C 158.000 332.640,157.463 332.719,156.584 333.362 M254.400 342.324 C 254.400 342.539,254.685 342.824,255.033 342.957 C 255.423 343.107,255.606 343.018,255.508 342.725 C 255.309 342.127,254.400 341.798,254.400 342.324 M383.762 347.400 C 384.356 347.950,384.916 348.400,385.008 348.400 C 385.434 348.400,384.626 347.135,383.979 346.789 C 382.728 346.119,382.642 346.361,383.762 347.400 M274.563 393.600 C 274.563 397.230,274.623 398.715,274.698 396.900 C 274.772 395.085,274.772 392.115,274.698 390.300 C 274.623 388.485,274.563 389.970,274.563 393.600 " stroke="none" fill="#586cfc" fill-rule="evenodd"></path><path id="path3" d="M317.824 53.013 C 317.396 53.336,317.227 53.600,317.447 53.600 C 317.667 53.600,318.196 53.336,318.624 53.013 C 319.051 52.690,319.220 52.425,319.000 52.425 C 318.780 52.425,318.251 52.690,317.824 53.013 M296.243 172.167 C 296.376 172.515,296.661 172.800,296.876 172.800 C 297.402 172.800,297.073 171.891,296.475 171.692 C 296.182 171.594,296.093 171.777,296.243 172.167 M307.456 202.999 C 307.087 203.960,307.140 204.400,307.624 204.400 C 307.857 204.400,307.945 204.235,307.821 204.034 C 307.697 203.833,307.770 203.608,307.985 203.534 C 308.205 203.458,308.231 203.169,308.043 202.866 C 307.779 202.442,307.659 202.469,307.456 202.999 M299.200 227.800 C 298.792 228.291,298.820 228.400,299.351 228.400 C 299.708 228.400,300.000 228.130,300.000 227.800 C 300.000 227.470,299.932 227.200,299.849 227.200 C 299.766 227.200,299.474 227.470,299.200 227.800 M87.596 236.204 C 87.057 236.855,87.480 236.991,88.343 236.444 C 88.672 236.235,88.729 236.004,88.488 235.854 C 88.269 235.719,87.868 235.877,87.596 236.204 M312.970 238.549 C 312.986 239.303,313.135 239.838,313.300 239.737 C 313.694 239.495,313.673 238.335,313.263 237.689 C 313.064 237.374,312.951 237.704,312.970 238.549 M212.399 240.551 C 212.949 240.872,213.474 241.059,213.566 240.967 C 213.814 240.719,213.514 240.530,212.400 240.233 L 211.400 239.967 212.399 240.551 M215.200 240.837 C 215.200 241.037,215.365 241.200,215.567 241.200 C 215.769 241.200,216.249 241.321,216.633 241.468 C 217.072 241.636,217.235 241.580,217.072 241.316 C 216.730 240.763,215.200 240.372,215.200 240.837 M241.600 253.841 C 241.600 253.960,241.870 254.327,242.200 254.657 C 242.720 255.178,242.800 255.179,242.800 254.671 C 242.800 254.349,242.530 253.982,242.200 253.855 C 241.870 253.729,241.600 253.722,241.600 253.841 M120.000 255.667 C 120.000 255.923,120.118 256.015,120.263 255.870 C 120.408 255.725,120.768 255.807,121.063 256.052 C 121.401 256.333,121.600 256.347,121.600 256.092 C 121.600 255.868,121.315 255.576,120.967 255.443 C 120.097 255.109,120.000 255.132,120.000 255.667 M151.029 260.229 C 150.605 260.538,150.336 260.869,150.430 260.963 C 150.524 261.057,150.948 260.881,151.371 260.571 C 151.795 260.262,152.064 259.931,151.970 259.837 C 151.876 259.743,151.452 259.919,151.029 260.229 M53.870 263.079 C 53.248 263.405,52.833 263.766,52.947 263.880 C 53.218 264.152,55.600 263.095,55.600 262.702 C 55.600 262.292,55.204 262.378,53.870 263.079 M255.200 269.200 C 255.200 269.420,255.470 269.600,255.800 269.600 C 256.130 269.600,256.400 269.420,256.400 269.200 C 256.400 268.980,256.130 268.800,255.800 268.800 C 255.470 268.800,255.200 268.980,255.200 269.200 M358.406 273.451 C 358.418 274.139,359.098 274.889,359.346 274.488 C 359.481 274.269,359.323 273.868,358.996 273.596 C 358.668 273.324,358.403 273.259,358.406 273.451 M369.969 306.100 C 369.716 306.928,369.746 307.600,370.035 307.600 C 370.236 307.600,370.400 307.240,370.400 306.800 C 370.400 306.157,370.101 305.671,369.969 306.100 M36.413 327.900 C 36.440 328.535,37.533 329.631,37.765 329.256 C 37.898 329.041,37.723 328.580,37.375 328.232 C 36.682 327.539,36.393 327.439,36.413 327.900 M286.942 329.764 C 286.974 330.292,287.135 330.640,287.300 330.538 C 287.715 330.282,287.677 329.295,287.242 329.026 C 287.046 328.905,286.911 329.237,286.942 329.764 M162.133 330.211 C 162.133 330.903,162.867 330.800,163.108 330.075 C 163.195 329.814,163.012 329.600,162.700 329.600 C 162.388 329.600,162.133 329.875,162.133 330.211 M281.800 332.800 C 281.664 333.020,281.823 333.200,282.153 333.200 C 282.483 333.200,282.864 333.020,283.000 332.800 C 283.136 332.580,282.977 332.400,282.647 332.400 C 282.317 332.400,281.936 332.580,281.800 332.800 M156.584 333.362 C 155.865 333.888,155.886 333.911,156.908 333.716 C 157.508 333.601,158.000 333.348,158.000 333.153 C 158.000 332.640,157.463 332.719,156.584 333.362 M254.400 342.324 C 254.400 342.539,254.685 342.824,255.033 342.957 C 255.423 343.107,255.606 343.018,255.508 342.725 C 255.309 342.127,254.400 341.798,254.400 342.324 M383.762 347.400 C 384.356 347.950,384.916 348.400,385.008 348.400 C 385.434 348.400,384.626 347.135,383.979 346.789 C 382.728 346.119,382.642 346.361,383.762 347.400 M274.563 393.600 C 274.563 397.230,274.623 398.715,274.698 396.900 C 274.772 395.085,274.772 392.115,274.698 390.300 C 274.623 388.485,274.563 389.970,274.563 393.600 " stroke="none" fill="#586cfc" fill-rule="evenodd"></path><path id="path4" d="M317.824 53.013 C 317.396 53.336,317.227 53.600,317.447 53.600 C 317.667 53.600,318.196 53.336,318.624 53.013 C 319.051 52.690,319.220 52.425,319.000 52.425 C 318.780 52.425,318.251 52.690,317.824 53.013 M296.243 172.167 C 296.376 172.515,296.661 172.800,296.876 172.800 C 297.402 172.800,297.073 171.891,296.475 171.692 C 296.182 171.594,296.093 171.777,296.243 172.167 M307.456 202.999 C 307.087 203.960,307.140 204.400,307.624 204.400 C 307.857 204.400,307.945 204.235,307.821 204.034 C 307.697 203.833,307.770 203.608,307.985 203.534 C 308.205 203.458,308.231 203.169,308.043 202.866 C 307.779 202.442,307.659 202.469,307.456 202.999 M299.200 227.800 C 298.792 228.291,298.820 228.400,299.351 228.400 C 299.708 228.400,300.000 228.130,300.000 227.800 C 300.000 227.470,299.932 227.200,299.849 227.200 C 299.766 227.200,299.474 227.470,299.200 227.800 M87.596 236.204 C 87.057 236.855,87.480 236.991,88.343 236.444 C 88.672 236.235,88.729 236.004,88.488 235.854 C 88.269 235.719,87.868 235.877,87.596 236.204 M312.970 238.549 C 312.986 239.303,313.135 239.838,313.300 239.737 C 313.694 239.495,313.673 238.335,313.263 237.689 C 313.064 237.374,312.951 237.704,312.970 238.549 M212.399 240.551 C 212.949 240.872,213.474 241.059,213.566 240.967 C 213.814 240.719,213.514 240.530,212.400 240.233 L 211.400 239.967 212.399 240.551 M215.200 240.837 C 215.200 241.037,215.365 241.200,215.567 241.200 C 215.769 241.200,216.249 241.321,216.633 241.468 C 217.072 241.636,217.235 241.580,217.072 241.316 C 216.730 240.763,215.200 240.372,215.200 240.837 M241.600 253.841 C 241.600 253.960,241.870 254.327,242.200 254.657 C 242.720 255.178,242.800 255.179,242.800 254.671 C 242.800 254.349,242.530 253.982,242.200 253.855 C 241.870 253.729,241.600 253.722,241.600 253.841 M120.000 255.667 C 120.000 255.923,120.118 256.015,120.263 255.870 C 120.408 255.725,120.768 255.807,121.063 256.052 C 121.401 256.333,121.600 256.347,121.600 256.092 C 121.600 255.868,121.315 255.576,120.967 255.443 C 120.097 255.109,120.000 255.132,120.000 255.667 M151.029 260.229 C 150.605 260.538,150.336 260.869,150.430 260.963 C 150.524 261.057,150.948 260.881,151.371 260.571 C 151.795 260.262,152.064 259.931,151.970 259.837 C 151.876 259.743,151.452 259.919,151.029 260.229 M53.870 263.079 C 53.248 263.405,52.833 263.766,52.947 263.880 C 53.218 264.152,55.600 263.095,55.600 262.702 C 55.600 262.292,55.204 262.378,53.870 263.079 M255.200 269.200 C 255.200 269.420,255.470 269.600,255.800 269.600 C 256.130 269.600,256.400 269.420,256.400 269.200 C 256.400 268.980,256.130 268.800,255.800 268.800 C 255.470 268.800,255.200 268.980,255.200 269.200 M358.406 273.451 C 358.418 274.139,359.098 274.889,359.346 274.488 C 359.481 274.269,359.323 273.868,358.996 273.596 C 358.668 273.324,358.403 273.259,358.406 273.451 M369.969 306.100 C 369.716 306.928,369.746 307.600,370.035 307.600 C 370.236 307.600,370.400 307.240,370.400 306.800 C 370.400 306.157,370.101 305.671,369.969 306.100 M36.413 327.900 C 36.440 328.535,37.533 329.631,37.765 329.256 C 37.898 329.041,37.723 328.580,37.375 328.232 C 36.682 327.539,36.393 327.439,36.413 327.900 M286.942 329.764 C 286.974 330.292,287.135 330.640,287.300 330.538 C 287.715 330.282,287.677 329.295,287.242 329.026 C 287.046 328.905,286.911 329.237,286.942 329.764 M162.133 330.211 C 162.133 330.903,162.867 330.800,163.108 330.075 C 163.195 329.814,163.012 329.600,162.700 329.600 C 162.388 329.600,162.133 329.875,162.133 330.211 M281.800 332.800 C 281.664 333.020,281.823 333.200,282.153 333.200 C 282.483 333.200,282.864 333.020,283.000 332.800 C 283.136 332.580,282.977 332.400,282.647 332.400 C 282.317 332.400,281.936 332.580,281.800 332.800 M156.584 333.362 C 155.865 333.888,155.886 333.911,156.908 333.716 C 157.508 333.601,158.000 333.348,158.000 333.153 C 158.000 332.640,157.463 332.719,156.584 333.362 M254.400 342.324 C 254.400 342.539,254.685 342.824,255.033 342.957 C 255.423 343.107,255.606 343.018,255.508 342.725 C 255.309 342.127,254.400 341.798,254.400 342.324 M383.762 347.400 C 384.356 347.950,384.916 348.400,385.008 348.400 C 385.434 348.400,384.626 347.135,383.979 346.789 C 382.728 346.119,382.642 346.361,383.762 347.400 M274.563 393.600 C 274.563 397.230,274.623 398.715,274.698 396.900 C 274.772 395.085,274.772 392.115,274.698 390.300 C 274.623 388.485,274.563 389.970,274.563 393.600 " stroke="none" fill="#586cfc" fill-rule="evenodd"></path></g></svg>