<svg xmlns="http://www.w3.org/2000/svg" width="90" height="90" viewBox="0 0 90 90">
  <g id="bar-chart" transform="translate(348.727 73.727)">
    <g id="Grupo_794" data-name="Grupo 794" transform="translate(-348.727 -73.727)">
      <g id="Grupo_793" data-name="Grupo 793">
        <path id="Trazado_3179" data-name="Trazado 3179" d="M192.353,105H181.765a2.647,2.647,0,1,0,0,5.294h4.2l-6.09,6.09a7.849,7.849,0,0,0-3.4-.8,7.95,7.95,0,0,0-7.941,7.941,7.845,7.845,0,0,0,.8,3.4L158.7,137.56A7.805,7.805,0,0,0,149.8,139l-7.835-3.918a7.82,7.82,0,0,0,.1-.962,7.941,7.941,0,0,0-15.882,0,7.845,7.845,0,0,0,.8,3.4l-10.629,10.629a7.85,7.85,0,0,0-3.4-.8,7.941,7.941,0,1,0,7.941,7.941,7.849,7.849,0,0,0-.8-3.4l10.629-10.629a7.8,7.8,0,0,0,8.9-1.437l7.836,3.918a7.819,7.819,0,0,0-.1.962,7.941,7.941,0,1,0,15.882,0,7.849,7.849,0,0,0-.8-3.4l10.629-10.629a7.849,7.849,0,0,0,3.4.8,7.95,7.95,0,0,0,7.941-7.941,7.849,7.849,0,0,0-.8-3.4l6.09-6.09v4.2a2.647,2.647,0,1,0,5.294,0V107.647A2.657,2.657,0,0,0,192.353,105Zm-10.588,37.059H171.176a2.645,2.645,0,0,0-2.647,2.647v47.647A2.645,2.645,0,0,0,171.176,195h10.588a2.646,2.646,0,0,0,2.647-2.647V144.706A2.645,2.645,0,0,0,181.765,142.059Zm-21.177,21.177H150a2.645,2.645,0,0,0-2.647,2.647v26.471A2.645,2.645,0,0,0,150,195h10.588a2.645,2.645,0,0,0,2.647-2.647V165.882A2.645,2.645,0,0,0,160.588,163.235Zm-21.176-10.588H128.823a2.646,2.646,0,0,0-2.647,2.647v37.059A2.645,2.645,0,0,0,128.823,195h10.588a2.646,2.646,0,0,0,2.647-2.647V155.294A2.646,2.646,0,0,0,139.412,152.647Zm-21.177,15.882H107.647A2.645,2.645,0,0,0,105,171.176v21.177A2.645,2.645,0,0,0,107.647,195h10.588a2.646,2.646,0,0,0,2.647-2.647V171.176A2.646,2.646,0,0,0,118.235,168.529Z" transform="translate(-105 -105)" fill="#5669fd"/>
      </g>
    </g>
  </g>
</svg>
