<svg xmlns="http://www.w3.org/2000/svg" width="90" height="84.338" viewBox="0 0 90 84.338">
  <g id="email" transform="translate(0)">
    <g id="Grupo_797" data-name="Grupo 797">
      <g id="Grupo_796" data-name="Grupo 796">
        <path id="Trazado_3180" data-name="Trazado 3180" d="M163.075,114.5H108.8l27.138,21.7Zm-55.263,39.357h56.25a2.81,2.81,0,0,0,2.813-2.811V118.665L137.695,142a2.819,2.819,0,0,1-3.516,0L105,118.664v32.382a2.81,2.81,0,0,0,2.813,2.811Zm67.5-28.112h16.875a2.811,2.811,0,1,0,0-5.623H175.312a2.811,2.811,0,1,0,0,5.623Zm0,11.245h11.25a2.811,2.811,0,1,0,0-5.623h-11.25a2.811,2.811,0,1,0,0,5.623Zm0,11.245h5.625a2.811,2.811,0,1,0,0-5.623h-5.625a2.811,2.811,0,1,0,0,5.623Zm-50.625,28.112h-11.25a2.811,2.811,0,1,0,0,5.623h11.25a2.811,2.811,0,1,0,0-5.623Zm0-11.245H107.813a2.811,2.811,0,1,0,0,5.623h16.875a2.811,2.811,0,1,0,0-5.623Zm0,22.49h-5.625a2.811,2.811,0,1,0,0,5.623h5.625a2.811,2.811,0,1,0,0-5.623Zm39.375-6.411,27.138-21.7H136.925Zm0,6.411a2.823,2.823,0,0,1-1.758-.615l-29.18-23.333v32.382a2.81,2.81,0,0,0,2.813,2.811h56.25A2.81,2.81,0,0,0,195,196.026V163.645l-29.18,23.333a2.82,2.82,0,0,1-1.758.615Z" transform="translate(-105 -114.5)" fill="#5669fd"/>
      </g>
    </g>
  </g>
</svg>
