<svg xmlns="http://www.w3.org/2000/svg" width="201.082" height="165.995" viewBox="0 0 201.082 165.995">
  <g id="Grupo_2428" data-name="Grupo 2428" transform="translate(-6984.247 -7023.006)">
    <g id="Grupo_2362" data-name="Grupo 2362" transform="translate(6984.247 7088.159)">
      <g id="Grupo_2356" data-name="Grupo 2356">
        <g id="Grupo_2354" data-name="Grupo 2354">
          <g id="Grupo_2352" data-name="Grupo 2352">
            <path id="Trazado_7013" data-name="Trazado 7013" d="M7011.245,7207.083h-27l13.4-22.137-13.4-22.137h27Z" transform="translate(-6984.246 -7162.81)" fill="#5669fd"/>
          </g>
          <g id="Grupo_2353" data-name="Grupo 2353" transform="translate(1.528 2.524)">
            <path id="Trazado_7014" data-name="Trazado 7014" d="M6987.527,7207.449H7013V7206.3h-24.777Zm0-39.224.692,1.146H7013v-1.146Z" transform="translate(-6987.527 -7168.226)" fill="#fff"/>
          </g>
        </g>
        <g id="Grupo_2355" data-name="Grupo 2355" transform="translate(14.414 39.981)">
          <path id="Trazado_7015" data-name="Trazado 7015" d="M7015.175,7248.6l12.586,4.292V7248.6Z" transform="translate(-7015.175 -7248.6)" fill="#5a7800"/>
        </g>
      </g>
      <g id="Grupo_2361" data-name="Grupo 2361" transform="translate(174.081)">
        <g id="Grupo_2359" data-name="Grupo 2359">
          <g id="Grupo_2357" data-name="Grupo 2357">
            <path id="Trazado_7016" data-name="Trazado 7016" d="M7357.784,7207.083h27l-13.405-22.137,13.405-22.137h-27Z" transform="translate(-7357.784 -7162.81)" fill="#5669fd"/>
          </g>
          <g id="Grupo_2358" data-name="Grupo 2358" transform="translate(0 2.524)">
            <path id="Trazado_7017" data-name="Trazado 7017" d="M7383.255,7207.449h-25.472V7206.3h24.777Zm0-39.224-.694,1.146h-24.777v-1.146Z" transform="translate(-7357.784 -7168.226)" fill="#fff"/>
          </g>
        </g>
        <g id="Grupo_2360" data-name="Grupo 2360" transform="translate(0 39.981)">
          <path id="Trazado_7018" data-name="Trazado 7018" d="M7370.369,7248.6l-12.585,4.292V7248.6Z" transform="translate(-7357.784 -7248.6)" fill="#5a7800"/>
        </g>
      </g>
    </g>
    <path id="Trazado_7019" data-name="Trazado 7019" d="M7170.482,7076.5a67.246,67.246,0,1,0,19.7,47.549A67.028,67.028,0,0,0,7170.482,7076.5Zm-47.549,92.944a45.395,45.395,0,1,1,45.4-45.395A45.4,45.4,0,0,1,7122.934,7169.446Z" transform="translate(-38.147 -18.047)" fill="#5669fd"/>
    <path id="Trazado_7020" data-name="Trazado 7020" d="M7181.73,7121.293c1.009-5.093,6.152-9.9,6.152-15.29s-5.144-10.2-6.152-15.288c-1.037-5.248,1.854-11.655-.146-16.481-2.037-4.911-8.633-7.389-11.554-11.754-2.946-4.4-2.729-11.436-6.457-15.165s-10.767-3.512-15.165-6.455c-4.364-2.923-6.843-9.52-11.754-11.556-4.826-2-11.234.891-16.48-.147-5.091-1.007-9.9-6.151-15.288-6.151s-10.2,5.145-15.29,6.151c-5.246,1.038-11.653-1.854-16.48.147-4.912,2.036-7.388,8.633-11.753,11.556-4.4,2.943-11.437,2.726-15.165,6.455s-3.512,10.767-6.456,15.165c-2.923,4.364-9.519,6.843-11.556,11.754-2,4.826.891,11.233-.146,16.481-1.008,5.091-6.151,9.9-6.151,15.288s5.144,10.2,6.151,15.29c1.037,5.244-1.854,11.652.146,16.479,2.036,4.911,8.633,7.389,11.556,11.755,2.944,4.4,2.727,11.435,6.456,15.163s10.767,3.512,15.164,6.457c4.366,2.922,6.842,9.518,11.754,11.555,4.827,2,11.234-.89,16.48.146,5.091,1.009,9.9,6.151,15.29,6.151s10.2-5.143,15.288-6.151c5.246-1.036,11.654,1.855,16.479-.146,4.912-2.038,7.391-8.634,11.755-11.556,4.4-2.945,11.436-2.728,15.164-6.457s3.512-10.765,6.456-15.163c2.923-4.364,9.519-6.844,11.556-11.755C7183.585,7132.945,7180.693,7126.537,7181.73,7121.293Zm-76.845,53.354A68.643,68.643,0,1,1,7173.527,7106,68.645,68.645,0,0,1,7104.886,7174.646Z" transform="translate(-20.098 0.001)" fill="#3b3b3b"/>
    <path id="Trazado_7021" data-name="Trazado 7021" d="M7185.629,7100.916c-1.377-2.478-3.027-5.05-3.629-8.017a15.01,15.01,0,0,1-.266-2.933c.016-3.423.825-6.812.811-9.657a9.318,9.318,0,0,0-.6-3.582c-.794-1.96-2.7-3.676-4.945-5.423-2.227-1.762-4.749-3.521-6.459-6.049-1.694-2.559-2.369-5.569-3.148-8.3-.759-2.745-1.614-5.153-3.105-6.618-1.464-1.491-3.872-2.347-6.62-3.105-2.729-.779-5.74-1.455-8.3-3.149-2.527-1.711-4.286-4.231-6.047-6.459-1.748-2.248-3.463-4.151-5.422-4.944a9.3,9.3,0,0,0-3.584-.6c-2.845-.014-6.235.8-9.658.81a15.206,15.206,0,0,1-2.931-.262c-2.967-.6-5.538-2.255-8.017-3.633-2.475-1.4-4.8-2.5-6.956-2.487-2.156-.018-4.481,1.084-6.957,2.487-2.479,1.379-5.049,3.029-8.018,3.633a15.133,15.133,0,0,1-2.932.262c-3.423-.014-6.812-.825-9.656-.811a9.274,9.274,0,0,0-3.583.6c-1.96.793-3.675,2.7-5.423,4.944-1.761,2.228-3.519,4.748-6.048,6.459-2.559,1.694-5.569,2.37-8.3,3.149-2.745.759-5.152,1.614-6.619,3.105-1.49,1.465-2.346,3.873-3.1,6.618-.779,2.73-1.453,5.741-3.149,8.3-1.709,2.527-4.231,4.287-6.458,6.047-2.248,1.749-4.152,3.465-4.945,5.425a9.281,9.281,0,0,0-.6,3.582c-.015,2.845.8,6.234.812,9.657a15.231,15.231,0,0,1-.265,2.933c-.6,2.967-2.253,5.539-3.631,8.017-1.4,2.474-2.5,4.8-2.489,6.957-.016,2.154,1.086,4.481,2.489,6.955,1.378,2.479,3.029,5.049,3.631,8.018a15.061,15.061,0,0,1,.265,2.932c-.016,3.422-.826,6.813-.812,9.656a9.3,9.3,0,0,0,.6,3.584c.793,1.959,2.7,3.675,4.945,5.422,2.227,1.761,4.748,3.52,6.458,6.049,1.7,2.559,2.37,5.567,3.149,8.3.759,2.746,1.614,5.154,3.1,6.618,1.467,1.49,3.873,2.348,6.619,3.106,2.731.78,5.741,1.453,8.3,3.148,2.53,1.711,4.289,4.232,6.05,6.46,1.748,2.248,3.463,4.149,5.422,4.944a9.3,9.3,0,0,0,3.585.6c2.844.016,6.232-.8,9.655-.81a14.826,14.826,0,0,1,2.932.267c2.969.6,5.539,2.253,8.018,3.631,2.476,1.4,4.8,2.5,6.957,2.487,2.156.017,4.481-1.086,6.956-2.487,2.479-1.378,5.05-3.028,8.017-3.631a15.2,15.2,0,0,1,2.932-.267c3.422.015,6.813.825,9.657.81a9.313,9.313,0,0,0,3.583-.6c1.959-.8,3.675-2.7,5.423-4.945,1.761-2.228,3.52-4.749,6.049-6.46,2.558-1.7,5.567-2.368,8.3-3.148,2.748-.759,5.154-1.616,6.62-3.1,1.491-1.466,2.347-3.873,3.105-6.62.779-2.731,1.453-5.74,3.147-8.3,1.711-2.526,4.233-4.286,6.46-6.049,2.247-1.747,4.151-3.463,4.945-5.421a9.34,9.34,0,0,0,.6-3.585c.015-2.844-.8-6.234-.811-9.656a14.857,14.857,0,0,1,.266-2.934h0c.6-2.968,2.252-5.538,3.629-8.016,1.405-2.474,2.506-4.8,2.49-6.955C7188.135,7105.717,7187.034,7103.389,7185.629,7100.916Zm-78.876,77.229v0a70.273,70.273,0,1,1,70.273-70.274A70.275,70.275,0,0,1,7106.752,7178.145Z" transform="translate(-21.966 -1.87)" fill="#545454"/>
    <g id="Grupo_2364" data-name="Grupo 2364" transform="translate(7044.99 7143.991)">
      <g id="Grupo_2363" data-name="Grupo 2363">
        <path id="Trazado_7022" data-name="Trazado 7022" d="M7124.145,7290.733l-2.644-2.064,1.379-1.767a3.908,3.908,0,0,0,.666-1.028.462.462,0,0,0-.224-.481.5.5,0,0,0-.6-.092,4.535,4.535,0,0,0-.873.937l-3.685,4.723a4.142,4.142,0,0,0-.665,1.034.475.475,0,0,0,.219.535.47.47,0,0,0,.563.075,4.8,4.8,0,0,0,.922-.991l1-1.28,2.643,2.063-.308.4a9.914,9.914,0,0,1-1.97,2.063,2.909,2.909,0,0,1-1.89.389,4.3,4.3,0,0,1-2.268-.971,4.934,4.934,0,0,1-1.587-1.914,2.606,2.606,0,0,1-.091-1.945,9.794,9.794,0,0,1,1.5-2.429l2.318-2.971a17.505,17.505,0,0,1,1.36-1.59,2.951,2.951,0,0,1,1.275-.707,3.181,3.181,0,0,1,1.66.009,5.38,5.38,0,0,1,3.326,2.851,2.745,2.745,0,0,1,.12,1.905,8.5,8.5,0,0,1-1.4,2.283Z" transform="translate(-7114.587 -7282.612)" fill="#fff"/>
        <path id="Trazado_7023" data-name="Trazado 7023" d="M7139.687,7292.857l4.951,2.6-1.2,2.285-1.981-1.039-1.136,2.165,1.855.972-1.142,2.172-1.854-.973-1.316,2.511,2.178,1.145-1.2,2.283-5.148-2.7Z" transform="translate(-7124.789 -7288.083)" fill="#fff"/>
        <path id="Trazado_7024" data-name="Trazado 7024" d="M7156.975,7300.386l2.263.72a18.212,18.212,0,0,1,3.008,1.146,2.215,2.215,0,0,1,1.022,1.307,4.237,4.237,0,0,1-.222,2.449,3.747,3.747,0,0,1-.97,1.815,1.967,1.967,0,0,1-1.592.146,2.52,2.52,0,0,1,1.076,1.036,1.993,1.993,0,0,1,.176.853,12.282,12.282,0,0,1-.5,1.844l-1.029,3.241-2.969-.943,1.3-4.082a2.946,2.946,0,0,0,.232-1.272c-.054-.19-.3-.354-.741-.494l-1.76,5.542-3.194-1.016Zm2.53,3.118-.867,2.731a1.453,1.453,0,0,0,.8.093c.175-.053.35-.35.521-.892l.214-.676a1.077,1.077,0,0,0,.035-.834A1.264,1.264,0,0,0,7159.5,7303.5Z" transform="translate(-7135.138 -7292.103)" fill="#fff"/>
        <path id="Trazado_7025" data-name="Trazado 7025" d="M7187.158,7306.921l-.325,2.559-1.974-.249-1.3,10.232-3.328-.422,1.3-10.232-1.967-.251.326-2.56Z" transform="translate(-7149.283 -7295.101)" fill="#fff"/>
        <path id="Trazado_7026" data-name="Trazado 7026" d="M7203.762,7307.733l.3,12.892-3.352.078-.3-12.894Z" transform="translate(-7160.412 -7296.025)" fill="#fff"/>
        <path id="Trazado_7027" data-name="Trazado 7027" d="M7213.582,7306.244l5.6-.931.424,2.544-2.295.383.4,2.413,2.042-.342.4,2.421-2.042.34.889,5.343-3.309.55Z" transform="translate(-7167.447 -7294.733)" fill="#fff"/>
        <path id="Trazado_7028" data-name="Trazado 7028" d="M7233.426,7301.8l3.9,12.29-3.2,1.015-3.9-12.292Z" transform="translate(-7176.336 -7292.859)" fill="#fff"/>
        <path id="Trazado_7029" data-name="Trazado 7029" d="M7242.62,7296.974l5.03-2.44,1.127,2.321-2.013.978,1.066,2.2,1.885-.913,1.069,2.207-1.884.913,1.237,2.553,2.214-1.075,1.126,2.323-5.231,2.534Z" transform="translate(-7182.952 -7288.978)" fill="#fff"/>
        <path id="Trazado_7030" data-name="Trazado 7030" d="M7257.546,7288.316l2.029-1.474a15.55,15.55,0,0,1,2.79-1.749,2.493,2.493,0,0,1,1.484-.172,2.292,2.292,0,0,1,1.118.59,17.054,17.054,0,0,1,1.534,1.923l2.652,3.653a10.439,10.439,0,0,1,1.231,1.974,1.74,1.74,0,0,1,.077,1.077,2.358,2.358,0,0,1-.54.964,9.206,9.206,0,0,1-1.379,1.164l-3.422,2.483Zm4.01-.185,4.982,6.864q.587-.426.55-.76a4.225,4.225,0,0,0-.791-1.378l-2.944-4.054a6.631,6.631,0,0,0-.706-.876.522.522,0,0,0-.418-.144A1.621,1.621,0,0,0,7261.556,7288.131Z" transform="translate(-7190.922 -7283.82)" fill="#fff"/>
      </g>
    </g>
    <g id="Grupo_2371" data-name="Grupo 2371" transform="translate(6998.661 7083.866)">
      <g id="Grupo_2365" data-name="Grupo 2365">
        <rect id="Rectángulo_251" data-name="Rectángulo 251" width="172.251" height="44.273" fill="#5669fd"/>
      </g>
      <g id="Grupo_2370" data-name="Grupo 2370" transform="translate(0 2.525)">
        <g id="Grupo_2367" data-name="Grupo 2367" transform="translate(0 38.078)">
          <g id="Grupo_2366" data-name="Grupo 2366">
            <rect id="Rectángulo_252" data-name="Rectángulo 252" width="172.251" height="1.145" fill="#fff"/>
          </g>
        </g>
        <g id="Grupo_2369" data-name="Grupo 2369">
          <g id="Grupo_2368" data-name="Grupo 2368">
            <rect id="Rectángulo_253" data-name="Rectángulo 253" width="172.251" height="1.145" fill="#fff"/>
          </g>
        </g>
      </g>
    </g>
    <g id="Grupo_2372" data-name="Grupo 2372" transform="translate(7043.441 7042.621)">
      <path id="Trazado_7031" data-name="Trazado 7031" d="M7119.728,7096.951l-2.576,2.149-1.436-1.723a4.062,4.062,0,0,0-.863-.867.462.462,0,0,0-.52.117.5.5,0,0,0-.215.564,4.464,4.464,0,0,0,.73,1.049l3.837,4.6a4.128,4.128,0,0,0,.871.87.474.474,0,0,0,.568-.1.467.467,0,0,0,.192-.532,4.679,4.679,0,0,0-.775-1.111l-1.039-1.245,2.575-2.146.322.385a9.966,9.966,0,0,1,1.6,2.36,2.9,2.9,0,0,1-.021,1.931,4.283,4.283,0,0,1-1.426,2.011,4.938,4.938,0,0,1-2.208,1.146,2.6,2.6,0,0,1-1.919-.322,9.715,9.715,0,0,1-2.058-1.982l-2.413-2.893a16.937,16.937,0,0,1-1.266-1.666,2.941,2.941,0,0,1-.422-1.395,3.159,3.159,0,0,1,.358-1.621,5.386,5.386,0,0,1,3.49-2.649,2.746,2.746,0,0,1,1.886.285,8.6,8.6,0,0,1,1.938,1.85Z" transform="translate(-7111.264 -7080.438)" fill="#fff"/>
      <path id="Trazado_7032" data-name="Trazado 7032" d="M7131.138,7081.986l4.885-2.721,1.256,2.254-1.955,1.09,1.188,2.136,1.832-1.021,1.192,2.144-1.83,1.021,1.38,2.477,2.151-1.2,1.254,2.254-5.079,2.829Z" transform="translate(-7121.876 -7072.662)" fill="#fff"/>
      <path id="Trazado_7033" data-name="Trazado 7033" d="M7151.856,7072.737l2.253-.748a18.216,18.216,0,0,1,3.106-.839,2.211,2.211,0,0,1,1.6.456,4.253,4.253,0,0,1,1.26,2.111,3.747,3.747,0,0,1,.283,2.038,1.961,1.961,0,0,1-1.2,1.055,2.533,2.533,0,0,1,1.478.205,1.988,1.988,0,0,1,.645.588,12.063,12.063,0,0,1,.681,1.784l1.071,3.227-2.955.982-1.35-4.066a2.95,2.95,0,0,0-.561-1.166c-.153-.121-.451-.109-.89.035l1.833,5.519-3.182,1.058Zm3.878,1.037.9,2.72a1.474,1.474,0,0,0,.7-.4c.109-.146.075-.487-.1-1.027l-.225-.674q-.193-.582-.462-.693A1.242,1.242,0,0,0,7155.734,7073.774Z" transform="translate(-7132.938 -7068.322)" fill="#fff"/>
      <path id="Trazado_7034" data-name="Trazado 7034" d="M7184.6,7065.233l.323,2.56-1.975.251,1.294,10.232-3.327.42-1.295-10.231-1.967.249-.324-2.561Z" transform="translate(-7146.542 -7065.17)" fill="#fff"/>
      <path id="Trazado_7035" data-name="Trazado 7035" d="M7205.272,7065.188l-.35,12.889-3.353-.092.352-12.889Z" transform="translate(-7159.484 -7065.096)" fill="#fff"/>
      <path id="Trazado_7036" data-name="Trazado 7036" d="M7217.3,7066.17l5.6.957-.435,2.544-2.293-.393-.411,2.409,2.04.35-.413,2.418-2.04-.349-.914,5.338-3.306-.566Z" transform="translate(-7166.725 -7065.67)" fill="#fff"/>
      <path id="Trazado_7037" data-name="Trazado 7037" d="M7239.36,7071.659l-3.959,12.271-3.19-1.028,3.957-12.272Z" transform="translate(-7175.846 -7068.052)" fill="#fff"/>
      <path id="Trazado_7038" data-name="Trazado 7038" d="M7250.741,7076.6l5.015,2.472-1.141,2.315-2.008-.99-1.08,2.193,1.878.926-1.085,2.2-1.879-.927-1.253,2.543,2.207,1.09-1.141,2.314-5.215-2.571Z" transform="translate(-7182.696 -7071.239)" fill="#fff"/>
      <path id="Trazado_7039" data-name="Trazado 7039" d="M7268.864,7087.689l2,1.515a15.775,15.775,0,0,1,2.485,2.161,2.529,2.529,0,0,1,.595,1.371,2.313,2.313,0,0,1-.241,1.24,16.957,16.957,0,0,1-1.394,2.026l-2.727,3.6a10.375,10.375,0,0,1-1.532,1.753,1.744,1.744,0,0,1-1,.387,2.372,2.372,0,0,1-1.08-.237,9.211,9.211,0,0,1-1.516-.981l-3.37-2.554Zm1.342,3.782-5.121,6.764q.579.438.887.306a4.225,4.225,0,0,0,1.089-1.158l3.023-3.994a6.727,6.727,0,0,0,.634-.93.534.534,0,0,0,.016-.441A1.675,1.675,0,0,0,7270.206,7091.472Z" transform="translate(-7191.262 -7077.159)" fill="#fff"/>
    </g>
    <g id="Grupo_2381" data-name="Grupo 2381" transform="translate(7068.463 7063.446)">
      <g id="Grupo_2376" data-name="Grupo 2376">
        <g id="Grupo_2373" data-name="Grupo 2373" transform="translate(10.336)">
          <path id="Trazado_7040" data-name="Trazado 7040" d="M7189.42,7121.174l3.7-2.451,3.7,2.451-1.183-4.277,3.474-2.763-4.435-.192-1.556-4.161-1.552,4.161-4.436.192,3.474,2.763Z" transform="translate(-7187.132 -7109.78)" fill="#5669fd"/>
        </g>
        <g id="Grupo_2374" data-name="Grupo 2374" transform="translate(0 10.831)">
          <path id="Trazado_7041" data-name="Trazado 7041" d="M7167.317,7137.227l.245,2.462,1.43-2.018,2.421.527-1.479-1.985,1.25-2.137-2.345.793-1.646-1.85.03,2.477-2.268,1Z" transform="translate(-7164.955 -7133.02)" fill="#5669fd"/>
        </g>
        <g id="Grupo_2375" data-name="Grupo 2375" transform="translate(26.191 10.831)">
          <path id="Trazado_7042" data-name="Trazado 7042" d="M7223.572,7137.671l1.43,2.018.248-2.462,2.361-.734-2.266-1,.027-2.477-1.648,1.854-2.341-.8,1.249,2.137-1.479,1.985Z" transform="translate(-7221.153 -7133.02)" fill="#5669fd"/>
        </g>
      </g>
      <g id="Grupo_2380" data-name="Grupo 2380" transform="translate(0 67.616)">
        <g id="Grupo_2377" data-name="Grupo 2377" transform="translate(10.336 6.106)">
          <path id="Trazado_7043" data-name="Trazado 7043" d="M7189.42,7267.97l3.7,2.452,3.7-2.452-1.183,4.277,3.474,2.762-4.435.193-1.556,4.161-1.552-4.161-4.436-.193,3.474-2.762Z" transform="translate(-7187.132 -7267.97)" fill="#5669fd"/>
        </g>
        <g id="Grupo_2378" data-name="Grupo 2378">
          <path id="Trazado_7044" data-name="Trazado 7044" d="M7167.317,7257.331l.245-2.462,1.43,2.019,2.421-.527-1.479,1.984,1.25,2.137-2.345-.793-1.646,1.849.03-2.476-2.268-1Z" transform="translate(-7164.955 -7254.869)" fill="#5669fd"/>
        </g>
        <g id="Grupo_2379" data-name="Grupo 2379" transform="translate(26.191)">
          <path id="Trazado_7045" data-name="Trazado 7045" d="M7223.572,7256.887l1.43-2.019.248,2.462,2.361.733-2.266,1,.027,2.476-1.648-1.852-2.341.8,1.249-2.137-1.479-1.984Z" transform="translate(-7221.153 -7254.869)" fill="#5669fd"/>
        </g>
      </g>
    </g>
    <path id="Trazado_7046" data-name="Trazado 7046" d="M7063.7,7248.6c.462,1.328.963,2.641,1.506,3.928h24.838a45.262,45.262,0,0,1-2.469-3.928Zm103.148,0a45.509,45.509,0,0,1-2.47,3.928h24.837c.542-1.287,1.043-2.6,1.507-3.928Z" transform="translate(-42.426 -120.459)" fill="#5669fd"/>
    <g id="Grupo_2382" data-name="Grupo 2382" transform="translate(7025.523 7093.295)">
      <path id="Trazado_7047" data-name="Trazado 7047" d="M7079.243,7174.943v24.73h-6.43v-24.73Z" transform="translate(-7072.813 -7174.423)" fill="#fff"/>
      <path id="Trazado_7048" data-name="Trazado 7048" d="M7105.164,7181.833h-5.973V7180a3.577,3.577,0,0,0-.229-1.634.838.838,0,0,0-.764-.352.968.968,0,0,0-.877.474,2.741,2.741,0,0,0-.3,1.438,4.07,4.07,0,0,0,.335,1.864,4.844,4.844,0,0,0,1.817,1.512q4.295,2.549,5.409,4.183t1.115,5.271a9.262,9.262,0,0,1-.618,3.894,4.854,4.854,0,0,1-2.392,2.1,9.48,9.48,0,0,1-4.124.847,9.225,9.225,0,0,1-4.407-.978,4.785,4.785,0,0,1-2.39-2.489,12.734,12.734,0,0,1-.566-4.292v-1.619h5.973v3.008a3.952,3.952,0,0,0,.253,1.787.972.972,0,0,0,.893.4,1.05,1.05,0,0,0,.955-.506,2.877,2.877,0,0,0,.313-1.5,4.642,4.642,0,0,0-.6-2.857,19.1,19.1,0,0,0-3.01-2.245,29.456,29.456,0,0,1-3.177-2.307,5.384,5.384,0,0,1-1.291-1.985,8.747,8.747,0,0,1-.512-3.238,8.978,8.978,0,0,1,.727-4.155,4.881,4.881,0,0,1,2.344-2.055,9.369,9.369,0,0,1,3.91-.74,10.214,10.214,0,0,1,4.27.809,4.474,4.474,0,0,1,2.338,2.04,10.819,10.819,0,0,1,.572,4.178Z" transform="translate(-7082.527 -7173.829)" fill="#fff"/>
      <path id="Trazado_7049" data-name="Trazado 7049" d="M7141.348,7188.829q0,3.728-.176,5.277a5.908,5.908,0,0,1-3.6,4.8,9.089,9.089,0,0,1-3.665.688,9.323,9.323,0,0,1-3.567-.648,5.94,5.94,0,0,1-3.687-4.775,52.158,52.158,0,0,1-.184-5.345V7184.6q0-3.725.176-5.278a5.913,5.913,0,0,1,3.6-4.8,9.111,9.111,0,0,1,3.666-.686,9.315,9.315,0,0,1,3.566.648,5.941,5.941,0,0,1,3.689,4.775,52.465,52.465,0,0,1,.184,5.345Zm-6.431-8.127a7.709,7.709,0,0,0-.19-2.206.761.761,0,0,0-.788-.481.879.879,0,0,0-.771.389,5.514,5.514,0,0,0-.268,2.3v11.549a11.348,11.348,0,0,0,.176,2.657.767.767,0,0,0,.816.506.791.791,0,0,0,.841-.583,12.211,12.211,0,0,0,.184-2.764Z" transform="translate(-7101.464 -7173.829)" fill="#fff"/>
      <path id="Trazado_7050" data-name="Trazado 7050" d="M7187.969,7194.916v4.216H7174.39l0-3.528q6.034-9.866,7.172-12.213a9.2,9.2,0,0,0,1.139-3.658,2.657,2.657,0,0,0-.345-1.5,1.187,1.187,0,0,0-1.047-.5,1.152,1.152,0,0,0-1.049.55,4.617,4.617,0,0,0-.345,2.184v2.353h-5.528v-.9a19.606,19.606,0,0,1,.214-3.276,5.748,5.748,0,0,1,1.054-2.359,5.271,5.271,0,0,1,2.185-1.758,7.93,7.93,0,0,1,3.224-.6,7.706,7.706,0,0,1,5.567,1.826,6.161,6.161,0,0,1,1.887,4.62,10.978,10.978,0,0,1-1.063,4.491,92.009,92.009,0,0,1-6.255,10.051Z" transform="translate(-7127.052 -7173.881)" fill="#fff"/>
      <path id="Trazado_7051" data-name="Trazado 7051" d="M7218.5,7174.943v5.389l-3.941,19.342h-6.141l4.392-20.286h-6.1v-4.444Z" transform="translate(-7144.309 -7174.423)" fill="#fff"/>
      <path id="Trazado_7052" data-name="Trazado 7052" d="M7249.518,7182.771v8.249a19.57,19.57,0,0,1-.306,4.095,5.648,5.648,0,0,1-1.269,2.4,5.455,5.455,0,0,1-2.321,1.6,8.923,8.923,0,0,1-3.04.489,11.308,11.308,0,0,1-3.68-.512,5.039,5.039,0,0,1-2.338-1.6,6.868,6.868,0,0,1-1.238-2.284,14.3,14.3,0,0,1-.365-3.811v-8.631a16.562,16.562,0,0,1,.588-5.1,5.034,5.034,0,0,1,2.337-2.719,8.264,8.264,0,0,1,4.238-1.023,8.906,8.906,0,0,1,3.636.71,6.059,6.059,0,0,1,2.4,1.735,5.716,5.716,0,0,1,1.076,2.306A20.967,20.967,0,0,1,7249.518,7182.771Zm-6.17-2.076a9.192,9.192,0,0,0-.192-2.468.844.844,0,0,0-.894-.5.883.883,0,0,0-.908.526,8.028,8.028,0,0,0-.222,2.438v12.066a8.954,8.954,0,0,0,.206,2.6.881.881,0,0,0,.894.443.869.869,0,0,0,.9-.52,7.728,7.728,0,0,0,.215-2.337Z" transform="translate(-7159.396 -7173.881)" fill="#fff"/>
      <path id="Trazado_7053" data-name="Trazado 7053" d="M7285.506,7182.771v8.249a19.585,19.585,0,0,1-.3,4.095,5.668,5.668,0,0,1-1.268,2.4,5.469,5.469,0,0,1-2.322,1.6,8.927,8.927,0,0,1-3.04.489,11.315,11.315,0,0,1-3.681-.512,5.046,5.046,0,0,1-2.337-1.6,6.793,6.793,0,0,1-1.236-2.284,14.112,14.112,0,0,1-.368-3.811v-8.631a16.557,16.557,0,0,1,.589-5.1,5.036,5.036,0,0,1,2.338-2.719,8.255,8.255,0,0,1,4.237-1.023,8.909,8.909,0,0,1,3.636.71,6.081,6.081,0,0,1,2.4,1.735,5.743,5.743,0,0,1,1.077,2.306A21.162,21.162,0,0,1,7285.506,7182.771Zm-6.171-2.076a9.33,9.33,0,0,0-.189-2.468.847.847,0,0,0-.895-.5.884.884,0,0,0-.909.526,8.062,8.062,0,0,0-.222,2.438v12.066a8.976,8.976,0,0,0,.207,2.6.881.881,0,0,0,.894.443.869.869,0,0,0,.9-.52,7.785,7.785,0,0,0,.213-2.337Z" transform="translate(-7178.612 -7173.881)" fill="#fff"/>
      <path id="Trazado_7054" data-name="Trazado 7054" d="M7315.406,7174.943v24.73h-6.173v-13.258a23.112,23.112,0,0,0-.138-3.453,1.287,1.287,0,0,0-.754-.878,7.86,7.86,0,0,0-2.759-.3h-.611V7178.9a11.216,11.216,0,0,0,6.8-3.96Z" transform="translate(-7196.779 -7174.423)" fill="#fff"/>
    </g>
  </g>
</svg>
