<svg xmlns="http://www.w3.org/2000/svg" width="286.818" height="20.121" viewBox="0 0 286.818 20.121">
  <path id="Trazado_768" data-name="Trazado 768" d="M2002.488,1139.526c-1.075.05-2.174.062-3.25.157-5.542.493-11.128.672-16.721.842-2.721.083-5.428.309-8.148.412a72.115,72.115,0,0,1-8.923.177,44.556,44.556,0,0,0-7.713.329c-4.877.465-9.783.505-14.7.575a104.8,104.8,0,0,0-12.589.7,29.827,29.827,0,0,1-4.073.116,73.17,73.17,0,0,0-7.344.279c-2.135.2-4.348.149-6.528.192-2.45.048-4.946-.075-7.342.15-3.8.358-7.654.15-11.421.448-3.667.29-7.326.362-11,.44-.943.02-1.872.2-2.815.276a38.377,38.377,0,0,1-4.049.259c-2.064-.054-4.1.207-6.1.183-4.933-.058-9.728.788-14.658.574a8.939,8.939,0,0,0-2.036.076c-2.783.556-5.663.369-8.514.466-3.535.12-7.063.338-10.581.578-6.763.461-13.484,1.087-20.3,1.344-5.286.2-10.564.542-15.8,1.084-3.211.333-6.5.407-9.75.64s-6.468.539-9.71.774c-1.484.108-3.048-.005-4.472.207a67.061,67.061,0,0,1-9.753.47c-.943,0-1.883.158-2.828.228q-2.216.164-4.438.3c-.54.033-1.112-.025-1.628.049-6.518.938-13.256.983-19.864,1.561-2.952.258-6,.174-9,.236a9.615,9.615,0,0,1-1.223-.053,2.4,2.4,0,0,1-1.977-1.057c-.344-.584-.085-1.121.756-1.451a12.726,12.726,0,0,1,2.9-.8c2.913-.4,5.866-.705,8.807-1.036,6-.676,12.044-1.233,17.969-2.118.783-.117,1.621-.112,2.428-.183q7.055-.617,14.106-1.248c3.751-.342,7.491-.724,11.243-1.062,2.014-.182,4.047-.3,6.066-.464,3.909-.326,7.807-.7,11.722-1,4.045-.311,8.1-.573,12.161-.832a50.571,50.571,0,0,0,6.849-.584,3.993,3.993,0,0,1,1.188-.15c2.933.375,5.64-.371,8.464-.522,2.846-.153,5.675-.409,8.518-.588,3.12-.2,6.25-.344,9.371-.536,2.029-.125,4.058-.262,6.072-.446a37.656,37.656,0,0,1,6.879-.188,29.276,29.276,0,0,0,6.067-.311,130.1,130.1,0,0,1,13.79-.966c2.459-.051,4.908-.152,7.282-.412a89.259,89.259,0,0,1,8.946-.4c2.036-.019,4.064-.253,6.1-.372q7.114-.413,14.231-.8c2.027-.109,4.043-.123,6.1-.077,3.661.082,7.346-.162,11.019-.29,1.764-.061,3.522-.179,5.286-.252,4.353-.181,8.7-.383,13.061-.513,2.723-.082,5.46-.01,8.186-.077,5.318-.13,10.63-.422,15.947-.435,5.742-.014,11.4-.485,17.11-.67,3.128-.1,6.263-.254,9.389-.216a28.224,28.224,0,0,1,5.595.6c3.632.8,3.747,3.021,1.877,4.177A9.085,9.085,0,0,1,2002.488,1139.526Z" transform="translate(-1723.088 -1133.529)" fill="#5669fd"/>
</svg>
