<?xml version="1.0" encoding="UTF-8" standalone="no"?>
<!-- Created with Inkscape (http://www.inkscape.org/) -->

<svg
   xmlns:dc="http://purl.org/dc/elements/1.1/"
   xmlns:cc="http://creativecommons.org/ns#"
   xmlns:rdf="http://www.w3.org/1999/02/22-rdf-syntax-ns#"
   xmlns:svg="http://www.w3.org/2000/svg"
   xmlns="http://www.w3.org/2000/svg"
   xmlns:sodipodi="http://sodipodi.sourceforge.net/DTD/sodipodi-0.dtd"
   xmlns:inkscape="http://www.inkscape.org/namespaces/inkscape"
   version="1.1"
   id="svg2"
   xml:space="preserve"
   width="741.82422"
   height="158.89346"
   viewBox="0 0 741.82422 158.89346"
   sodipodi:docname="Logo.svg"
   inkscape:version="0.92.4 (5da689c313, 2019-01-14)"><metadata
     id="metadata8"><rdf:RDF><cc:Work
         rdf:about=""><dc:format>image/svg+xml</dc:format><dc:type
           rdf:resource="http://purl.org/dc/dcmitype/StillImage" /><dc:title></dc:title></cc:Work></rdf:RDF></metadata><defs
     id="defs6" /><sodipodi:namedview
     pagecolor="#ffffff"
     bordercolor="#666666"
     borderopacity="1"
     objecttolerance="10"
     gridtolerance="10"
     guidetolerance="10"
     inkscape:pageopacity="0"
     inkscape:pageshadow="2"
     inkscape:window-width="1360"
     inkscape:window-height="689"
     id="namedview4"
     showgrid="false"
     inkscape:pagecheckerboard="false"
     inkscape:zoom="0.87797623"
     inkscape:cx="364.5318"
     inkscape:cy="-111.01173"
     inkscape:window-x="0"
     inkscape:window-y="25"
     inkscape:window-maximized="1"
     inkscape:current-layer="g10" /><g
     id="g10"
     inkscape:groupmode="layer"
     inkscape:label="ShuttleCloud-Logo-Vectorial"
     transform="matrix(1.3333333,0,0,-1.3333333,-0.46717332,538.11808)"><g
       id="g12"
       style="display:inline"><g
         id="g1103"
         transform="translate(124.71864,212.2678)"><g
           transform="translate(72.3867,120.0764)"
           id="g20"><path
             inkscape:connector-curvature="0"
             id="path22"
             style="fill:#1a1918;fill-opacity:1;fill-rule:nonzero;stroke:none"
             d="m 0,0 h 4.202 v -6.215 c 2.198,-0.698 6.075,-1.396 8.66,-1.396 7.174,0 11.569,3.491 11.569,9.069 0,9.957 -23.009,6.787 -23.009,20.039 0,7.167 5.753,12.748 16.353,12.748 4.848,0 8.015,-0.951 11.375,-1.904 l -0.388,-9.067 h -4.2 v 5.899 c -1.487,0.506 -4.202,1.076 -6.787,1.076 -6.915,0 -10.794,-2.725 -10.794,-7.99 0,-10.336 23.009,-5.708 23.009,-20.293 0,-8.497 -7.044,-13.888 -17.128,-13.888 -2.974,0 -8.725,0.761 -13.249,2.156 z" /></g><g
           transform="translate(108.3941,157.8097)"
           id="g24"><path
             inkscape:connector-curvature="0"
             id="path26"
             style="fill:#1a1918;fill-opacity:1;fill-rule:nonzero;stroke:none"
             d="M 0,0 H 10.988 C 10.083,-7.294 9.307,-23.656 7.175,-31.962 l 0.129,-0.126 c 2.262,8.496 8.467,16.677 14.866,16.677 4.33,0 6.398,-2.599 6.398,-8.307 0,-5.263 -1.294,-13.698 -2.197,-21.054 h 4.912 l -0.388,-3.995 h -9.953 c 1.292,10.463 2.714,20.039 2.714,24.161 0,3.553 -0.839,4.504 -2.843,4.504 -7.24,0 -12.605,-15.728 -13.38,-20.546 L 6.076,-48.767 H 1.164 c 2.328,16.362 3.748,38.81 4.396,44.771 h -5.947 z" /></g><g
           transform="translate(177.4298,109.0425)"
           id="g28"><path
             inkscape:connector-curvature="0"
             id="path30"
             style="fill:#1a1918;fill-opacity:1;fill-rule:nonzero;stroke:none"
             d="m 0,0 h -10.148 c 0.905,5.137 1.229,9.004 2.457,15.981 l -0.131,0.065 c -2.262,-8.5 -8.466,-16.681 -14.866,-16.681 -4.33,0 -6.398,2.855 -6.398,8.308 0,6.087 1.422,14.205 2.198,21.055 h -4.913 l 0.389,3.994 h 9.954 c -1.293,-10.463 -2.717,-18.898 -2.717,-24.161 0,-3.298 0.841,-4.502 2.846,-4.502 7.238,0 12.603,15.727 13.379,20.545 l 1.357,8.118 h 4.911 C -3.038,22.512 -3.944,12.937 -4.783,3.995 h 5.171 z" /></g><g
           transform="translate(188.2286,137.7703)"
           id="g32"><path
             inkscape:connector-curvature="0"
             id="path34"
             style="fill:#1a1918;fill-opacity:1;fill-rule:nonzero;stroke:none"
             d="m 0,0 h -5.364 l 0.323,3.994 H 0.388 L 1.165,12.175 6.077,12.366 5.3,3.994 h 9.502 L 14.477,0 H 4.912 l -1.81,-19.976 c -0.324,-3.173 0.777,-5.074 3.427,-5.074 2.713,0 4.911,0.887 6.915,1.966 l -0.387,-4.503 c -1.617,-0.827 -4.266,-1.776 -7.498,-1.776 -5.235,0 -8.015,2.665 -7.37,9.956 z" /></g><g
           transform="translate(210.9841,137.7703)"
           id="g36"><path
             inkscape:connector-curvature="0"
             id="path38"
             style="fill:#1a1918;fill-opacity:1;fill-rule:nonzero;stroke:none"
             d="m 0,0 h -5.366 l 0.324,3.994 h 5.428 l 0.777,8.181 4.913,0.191 -0.778,-8.372 h 9.503 L 14.478,0 H 4.909 L 3.103,-19.976 c -0.324,-3.173 0.775,-5.074 3.425,-5.074 2.715,0 4.911,0.887 6.914,1.966 l -0.387,-4.503 c -1.616,-0.827 -4.264,-1.776 -7.497,-1.776 -5.235,0 -8.015,2.665 -7.368,9.956 z" /></g><g
           transform="translate(234.9017,153.8138)"
           id="g40"><path
             inkscape:connector-curvature="0"
             id="path42"
             style="fill:#1a1918;fill-opacity:1;fill-rule:nonzero;stroke:none"
             d="m 0,0 h -5.946 l 0.387,3.996 H 5.43 L 1.421,-40.776 h 4.912 l -0.387,-3.995 h -9.954 z" /></g><g
           transform="translate(261.7287,138.4036)"
           id="g44"><path
             inkscape:connector-curvature="0"
             id="path46"
             style="fill:#1a1918;fill-opacity:1;fill-rule:nonzero;stroke:none"
             d="m 0,0 c -6.14,0 -9.566,-6.023 -10.277,-13.126 9.242,1.14 15.189,3.74 15.189,9.386 C 4.912,-1.967 3.425,0 0,0 m 6.979,-27.584 c -1.614,-0.953 -5.365,-2.412 -10.083,-2.412 -8.207,0 -12.344,4.122 -12.344,14.713 0,5.708 1.811,10.526 4.717,13.952 2.91,3.362 6.4,5.326 11.634,5.326 6.399,0 9.18,-3.678 9.18,-7.419 0,-7.801 -9.115,-11.986 -20.36,-13.255 0,-6.658 3.358,-9.004 8.466,-9.004 2.844,0 6.336,1.014 9.374,2.917 z" /></g><g
           transform="translate(312.3403,144.1108)"
           id="g48"><path
             inkscape:connector-curvature="0"
             id="path50"
             style="fill:#1a1918;fill-opacity:1;fill-rule:nonzero;stroke:none"
             d="m 0,0 h -3.102 l 0.258,6.279 c -1.935,0.572 -4.265,1.14 -7.95,1.14 -15.576,0 -19.972,-12.809 -19.972,-22.89 0,-11.354 6.725,-17.695 17.582,-17.695 2.973,0 6.012,0.572 8.014,1.331 l 0.646,6.025 h 2.845 l -0.646,-8.309 c -3.166,-1.012 -8.725,-1.838 -11.312,-1.838 -15.772,0 -20.748,10.529 -20.748,20.928 0,7.991 3.881,25.24 23.787,25.24 4.201,0 7.754,-0.952 10.859,-1.839 z" /></g><g
           transform="translate(324.8864,155.0183)"
           id="g52"><path
             inkscape:connector-curvature="0"
             id="path54"
             style="fill:#1a1918;fill-opacity:1;fill-rule:nonzero;stroke:none"
             d="m 0,0 h -5.944 l 0.256,2.791 h 9.054 l -4.138,-45.977 h 5.49 l -0.256,-2.79 h -8.599 z" /></g><g
           transform="translate(346.2823,111.1975)"
           id="g56"><path
             inkscape:connector-curvature="0"
             id="path58"
             style="fill:#1a1918;fill-opacity:1;fill-rule:nonzero;stroke:none"
             d="m 0,0 c 8.596,0 11.182,9.449 11.182,16.235 0,8.435 -3.618,12.047 -8.339,12.047 -8.141,0 -11.117,-9.13 -11.117,-16.677 C -8.274,5.58 -6.076,0 0,0 m 3.426,31.075 c 6.334,0 11.116,-4.502 11.116,-14.586 0,-10.78 -5.168,-19.279 -14.672,-19.279 -6.01,0 -11.5,3.742 -11.5,14.586 0,9.257 4.197,19.279 15.056,19.279" /></g><g
           transform="translate(397.739,109.0425)"
           id="g60"><path
             inkscape:connector-curvature="0"
             id="path62"
             style="fill:#1a1918;fill-opacity:1;fill-rule:nonzero;stroke:none"
             d="m 0,0 h -9.05 l 1.294,10.844 c 0.322,2.537 0.837,5.009 1.226,7.546 H -6.659 C -6.851,17.438 -7.307,15.792 -7.756,14.394 -9.05,10.273 -14.22,-0.635 -22.172,-0.635 c -4.651,0 -5.558,3.868 -5.558,7.673 0,4.313 1.616,16.553 2.455,22.768 h -5.364 l 0.259,2.791 h 8.726 c -0.905,-6.024 -2.973,-19.47 -2.973,-25.367 0,-2.346 0.518,-4.82 3.231,-4.82 3.554,0 12.539,5.643 15.705,30.187 h 3.105 C -3.17,28.346 -3.749,23.462 -4.204,18.518 L -5.625,2.789 h 5.882 z" /></g><g
           transform="translate(425.9859,138.4036)"
           id="g64"><path
             inkscape:connector-curvature="0"
             id="path66"
             style="fill:#1a1918;fill-opacity:1;fill-rule:nonzero;stroke:none"
             d="m 0,0 c -1.032,0.508 -2.52,1.076 -5.297,1.076 -10.601,0 -13.12,-11.857 -13.12,-18.515 0,-6.531 1.484,-9.512 4.459,-9.512 7.108,0 12.539,16.36 13.443,22.892 z m -1.228,-16.361 c 0.196,1.777 0.647,3.55 0.969,5.327 h -0.127 c -0.325,-1.205 -0.517,-2.411 -0.905,-3.55 -2.196,-6.154 -5.815,-15.412 -13.315,-15.412 -4.33,0 -7.176,4.505 -7.176,11.479 0,6.278 1.618,12.618 5.237,17.059 3.037,3.677 6.854,5.327 11.893,5.327 1.938,0 3.878,-0.444 4.847,-0.826 L 1.488,16.615 H -4.78 l 0.255,2.791 H 4.848 L 0.713,-26.572 h 5.301 l -0.261,-2.789 h -8.401 z" /></g></g><g
         id="g1077"
         transform="translate(-156.32542,109.34237)"><g
           transform="translate(245.784,290.6023)"
           id="g68"><path
             inkscape:connector-curvature="0"
             id="path70"
             style="fill:#4e83cc;fill-opacity:1;fill-rule:nonzero;stroke:none"
             d="m 0,0 -23.079,-8.698 c 0.005,0.005 0.1,-0.3 0.1,-0.295 v 0.256 c 7.355,4.548 14.369,7.073 22.872,9.479 h 0.006 C -0.068,0.742 -0.034,-0.004 0,0" /></g><g
           transform="translate(262.7943,289.1292)"
           id="g72"><path
             inkscape:connector-curvature="0"
             id="path74"
             style="fill:#4e83cc;fill-opacity:1;fill-rule:nonzero;stroke:none"
             d="m 0,0 -50.397,-18.49 -19.984,-7.185 23.546,12.134 L -9.32,1.53 c 0.046,-0.008 0.085,0.685 0.128,0.685 h 0.015 C -6.028,2.215 -2.957,0.775 0,0" /></g><g
           transform="translate(272.9837,284.4513)"
           id="g76"><path
             inkscape:connector-curvature="0"
             id="path78"
             style="fill:#4e83cc;fill-opacity:1;fill-rule:nonzero;stroke:none"
             d="m 0,0 -17.448,-6.271 c -0.335,0.009 -0.674,0.018 -1.017,0.018 -8.346,0 -15.947,-3.094 -21.679,-8.173 l -24.56,-8.828 -30.426,-10.763 32.122,15.136 56.601,21.678 C -6.402,2.793 -6.39,2.79 -6.383,2.786 -4.176,2.013 -2.045,1.067 0,0" /></g><g
           transform="translate(227.2218,264.5891)"
           id="g80"><path
             inkscape:connector-curvature="0"
             id="path82"
             style="fill:#4e83cc;fill-opacity:1;fill-rule:nonzero;stroke:none"
             d="m 0,0 c -0.007,-0.008 -0.018,-0.019 -0.027,-0.026 -1.734,-1.74 -3.269,-3.694 -4.56,-5.791 -0.015,-0.02 -0.027,-0.045 -0.041,-0.064 l -26.563,-9.5 -21.264,-6.594 26.27,11.644 26.163,10.321 z" /></g><g
           transform="translate(280.5396,279.6238)"
           id="g84"><path
             inkscape:connector-curvature="0"
             id="path86"
             style="fill:#4e83cc;fill-opacity:1;fill-rule:nonzero;stroke:none"
             d="m 0,0 -12.245,-4.419 c -2.259,1.045 -4.662,1.83 -7.173,2.34 L -5.069,3.454 C -5.043,3.438 -5.017,3.438 -4.995,3.438 -3.254,2.515 -1.585,1.246 0,0" /></g><g
           transform="translate(219.8514,254.2852)"
           id="g88"><path
             inkscape:connector-curvature="0"
             id="path90"
             style="fill:#4e83cc;fill-opacity:1;fill-rule:nonzero;stroke:none"
             d="M 0,0 C -0.593,-1.434 -1.949,-2.922 -1.949,-4.452 V -4.46 l -31.703,-11.566 -17.345,-5.418 25.511,11.454 z" /></g><g
           transform="translate(286.4745,274.1245)"
           id="g92"><path
             inkscape:connector-curvature="0"
             id="path94"
             style="fill:#4e83cc;fill-opacity:1;fill-rule:nonzero;stroke:none"
             d="m 0,0 -10.621,-3.816 c -1.476,1.274 -3.073,2.42 -4.772,3.415 L -4.045,3.945 C -2.62,2.707 -1.268,1.392 0,0" /></g><g
           transform="translate(209.5369,242.5227)"
           id="g96"><path
             inkscape:connector-curvature="0"
             id="path98"
             style="fill:#4e83cc;fill-opacity:1;fill-rule:nonzero;stroke:none"
             d="m 0,0 c -2.13,-1.519 -4.041,-3.342 -5.484,-5.509 l -0.291,-0.249 -0.657,-0.186 c 0,-0.002 -0.002,-0.002 -0.002,-0.002 l -18.487,-6.645 -24.531,-8.309 26.822,11.906 z" /></g><g
           transform="translate(291.0926,268.1983)"
           id="g100"><path
             inkscape:connector-curvature="0"
             id="path102"
             style="fill:#4e83cc;fill-opacity:1;fill-rule:nonzero;stroke:none"
             d="m 0,0 -10.042,-3.607 c -1.013,1.435 -2.145,2.78 -3.387,4.026 L -3.221,4.327 C -2.068,2.949 -0.991,1.503 0,0" /></g><g
           transform="translate(198.6796,230.7381)"
           id="g104"><path
             inkscape:connector-curvature="0"
             id="path106"
             style="fill:#4e83cc;fill-opacity:1;fill-rule:nonzero;stroke:none"
             d="m 0,0 c -0.632,-1.233 -1.147,-2.531 -1.525,-3.884 l -12.694,-4.565 -27.626,-9.864 27.741,12.355 z" /></g><g
           transform="translate(294.6033,261.8789)"
           id="g108"><path
             inkscape:connector-curvature="0"
             id="path110"
             style="fill:#4e83cc;fill-opacity:1;fill-rule:nonzero;stroke:none"
             d="m 0,0 -10.073,-3.622 c -0.636,1.563 -1.395,3.068 -2.269,4.496 L -2.464,4.66 C -1.557,3.159 -0.734,1.603 0,0" /></g><g
           transform="translate(196.4948,219.0271)"
           id="g112"><path
             inkscape:connector-curvature="0"
             id="path114"
             style="fill:#4e83cc;fill-opacity:1;fill-rule:nonzero;stroke:none"
             d="M 0,0 -10.713,-3.85 -39.819,-14.189 -10.822,-1.246 -0.09,3.213 C -0.106,2.877 -0.114,2.541 -0.114,2.201 -0.114,1.458 -0.076,0.723 0,0" /></g><g
           transform="translate(297.5656,255.3533)"
           id="g116"><path
             inkscape:connector-curvature="0"
             id="path118"
             style="fill:#4e83cc;fill-opacity:1;fill-rule:nonzero;stroke:none"
             d="m 0,0 -11.122,-3.999 c -0.264,1.689 -0.658,3.332 -1.186,4.92 L -2.206,4.79 C -1.597,3.314 -1.065,1.799 -0.606,0.254 -0.403,0.171 -0.2,0.086 0,0" /></g><g
           transform="translate(198.3612,212.1371)"
           id="g120"><path
             inkscape:connector-curvature="0"
             id="path122"
             style="fill:#4e83cc;fill-opacity:1;fill-rule:nonzero;stroke:none"
             d="m 0,0 -9.951,-3.587 -31.084,-10.889 30.114,13.24 9.811,4.06 C -0.804,1.856 -0.071,0.918 -0.071,0.015 V 0.011 C -0.071,0.009 -0.002,0.005 0,0" /></g><g
           transform="translate(305.6586,250.675)"
           id="g124"><path
             inkscape:connector-curvature="0"
             id="path126"
             style="fill:#4e83cc;fill-opacity:1;fill-rule:nonzero;stroke:none"
             d="m 0,0 -13.367,-4.802 c -1.749,0.448 -3.581,0.69 -5.475,0.69 0,0.886 -0.038,1.765 -0.112,2.636 L -5.739,3.585 C -3.713,2.558 -1.792,1.357 0,0" /></g><g
           transform="translate(202.8357,206.6144)"
           id="g128"><path
             inkscape:connector-curvature="0"
             id="path130"
             style="fill:#4e83cc;fill-opacity:1;fill-rule:nonzero;stroke:none"
             d="m 0,0 -10.377,-3.968 -34.868,-12.652 33.268,15.217 9.778,4.351 h 0.005 C -1.528,0.543 -0.791,0.764 0,0" /></g><g
           transform="translate(311.5118,245.19)"
           id="g132"><path
             inkscape:connector-curvature="0"
             id="path134"
             style="fill:#4e83cc;fill-opacity:1;fill-rule:nonzero;stroke:none"
             d="m 0,0 -10.571,-3.798 c -1.676,1.425 -3.578,2.6 -5.646,3.469 L -4.289,4.237 C -2.745,2.941 -1.311,1.52 0,0" /></g><g
           transform="translate(210.5505,201.3118)"
           id="g136"><path
             inkscape:connector-curvature="0"
             id="path138"
             style="fill:#4e83cc;fill-opacity:1;fill-rule:nonzero;stroke:none"
             d="m 0,0 -12.531,-4.498 -35.025,-12.303 32.718,14.286 10.844,4.45 C -3.989,1.933 -3.985,1.928 -3.98,1.925 -2.734,1.161 -1.401,0.505 0,0" /></g><g
           transform="translate(315.763,239.1353)"
           id="g140"><path
             inkscape:connector-curvature="0"
             id="path142"
             style="fill:#4e83cc;fill-opacity:1;fill-rule:nonzero;stroke:none"
             d="m 0,0 -10,-3.596 c -0.908,1.62 -2.022,3.11 -3.309,4.439 L -3.162,4.732 C -1.991,3.238 -0.931,1.658 0,0" /></g><g
           transform="translate(227.9289,199.9411)"
           id="g144"><path
             inkscape:connector-curvature="0"
             id="path146"
             style="fill:#4e83cc;fill-opacity:1;fill-rule:nonzero;stroke:none"
             d="m 0,0 -22.29,-7.992 -34.376,-11.6 31.057,13.345 L -10.004,0 Z" /></g><g
           transform="translate(318.6493,232.5865)"
           id="g148"><path
             inkscape:connector-curvature="0"
             id="path150"
             style="fill:#4e83cc;fill-opacity:1;fill-rule:nonzero;stroke:none"
             d="m 0,0 -10.521,-3.78 c -0.294,1.797 -0.824,3.514 -1.553,5.127 L -2.14,5.154 C -1.3,3.502 -0.582,1.779 0,0" /></g><g
           transform="translate(249.0395,199.9411)"
           id="g152"><path
             inkscape:connector-curvature="0"
             id="path154"
             style="fill:#4e83cc;fill-opacity:1;fill-rule:nonzero;stroke:none"
             d="M 0,0 -31.822,-11.416 -67.028,-22.938 -37.634,-10.349 -11.208,0 Z" /></g><g
           transform="translate(307.9855,221.1676)"
           id="g156"><path
             inkscape:connector-curvature="0"
             id="path158"
             style="fill:#4e83cc;fill-opacity:1;fill-rule:nonzero;stroke:none"
             d="m 0,0 c 0.28,1.36 0.43,2.766 0.43,4.206 0,0.547 -0.02,1.085 -0.063,1.618 l 10.749,4.117 c 0.505,-1.799 0.875,-3.653 1.104,-5.55 z" /></g><g
           transform="translate(270.1511,199.9411)"
           id="g160"><path
             inkscape:connector-curvature="0"
             id="path162"
             style="fill:#4e83cc;fill-opacity:1;fill-rule:nonzero;stroke:none"
             d="M 0,0 -32.717,-11.737 -72.661,-24.865 -42.796,-11.868 -12.396,0 Z" /></g><g
           transform="translate(320.4594,221.228)"
           id="g164"><path
             inkscape:connector-curvature="0"
             id="path166"
             style="fill:#4e83cc;fill-opacity:1;fill-rule:nonzero;stroke:none"
             d="m 0,0 c 0,-1.085 -0.047,-2.156 -0.141,-3.216 l -16.788,-6.032 c 1.72,2.056 3.052,4.431 3.886,7.022 L -0.105,2.733 C -0.035,1.829 0,0.92 0,0" /></g><g
           transform="translate(289.0723,204.3172)"
           id="g168"><path
             inkscape:connector-curvature="0"
             id="path170"
             style="fill:#4e83cc;fill-opacity:1;fill-rule:nonzero;stroke:none"
             d="m 0,0 c -0.031,-0.003 -0.063,-0.004 -0.096,-0.01 0,0 0.002,0 0.004,0.003 C -0.061,-0.004 -0.03,-0.003 0,0" /></g><g
           transform="translate(320.116,216.2346)"
           id="g172"><path
             inkscape:connector-curvature="0"
             id="path174"
             style="fill:#4e83cc;fill-opacity:1;fill-rule:nonzero;stroke:none"
             d="m 0,0 c -0.3,-2.178 -0.791,-4.498 -1.462,-6.538 l -0.025,-0.216 h -0.002 l -60.076,-21.425 -38.796,-11.158 27.223,11.256 30.746,11.787 h 4.863 c 7.013,0 12.719,2.799 16.668,7.899 -0.384,-0.444 0.539,0.588 0.544,0.6 z" /></g><g
           transform="translate(317.8774,207.753)"
           id="g176"><path
             inkscape:connector-curvature="0"
             id="path178"
             style="fill:#4e83cc;fill-opacity:1;fill-rule:nonzero;stroke:none"
             d="m 0,0 c -1.009,-2.533 -2.294,-4.935 -3.819,-7.167 l -34.404,-12.363 -29.605,-7.111 16.838,7.111 z" /></g><g
           transform="translate(312.1025,198.021)"
           id="g180"><path
             inkscape:connector-curvature="0"
             id="path182"
             style="fill:#4e83cc;fill-opacity:1;fill-rule:nonzero;stroke:none"
             d="M 0,0 C -0.18,-0.217 -0.608,-0.453 -0.791,-0.668 -0.794,-0.669 -1.043,-0.68 -1.043,-0.68 v 0.031 c -7.355,-5.63 -15.684,-9.151 -25.471,-9.354 z" /></g><g
           transform="translate(218.2116,246.2646)"
           id="g184"><path
             inkscape:connector-curvature="0"
             id="path186"
             style="fill:#110f0d;fill-opacity:1;fill-rule:nonzero;stroke:none"
             d="m 0,0 c 1.291,0.232 2.624,0.364 3.987,0.364 0.014,7.678 2.8,14.702 7.426,20.179 C 5.24,15.502 1.011,8.241 0,0" /></g><g
           transform="translate(196.3807,221.296)"
           id="g188"><path
             inkscape:connector-curvature="0"
             id="path190"
             style="fill:#1a1918;fill-opacity:1;fill-rule:nonzero;stroke:none"
             d="m 0,0 c 0,-11.684 9.688,-21.177 21.588,-21.177 h 64.617 c 7.03,0 13.284,3.311 17.231,8.433 -3.623,-2.688 -8.127,-4.282 -13,-4.282 H 25.818 c -11.903,0 -21.591,9.489 -21.591,21.173 0,4.787 1.627,9.208 4.365,12.757 C 3.375,13.034 0,6.897 0,0" /></g><g
           transform="translate(301.1859,259.8252)"
           id="g192"><path
             inkscape:connector-curvature="0"
             id="path194"
             style="fill:#1a1918;fill-opacity:1;fill-rule:nonzero;stroke:none"
             d="m 0,0 c -5.862,19.855 -24.581,34.421 -46.686,34.421 -14.471,0 -27.495,-6.25 -36.407,-16.148 8.583,7.46 19.853,11.996 32.181,11.996 22.105,0 40.823,-14.558 46.685,-34.419 13.778,-5.567 23.5,-18.878 23.5,-34.379 0,-9.186 -3.423,-17.609 -9.077,-24.104 8.138,6.827 13.306,16.957 13.306,28.251 C 23.502,-18.877 13.779,-5.565 0,0" /></g><g
           transform="translate(298.0098,254.9965)"
           id="g196"><path
             inkscape:connector-curvature="0"
             id="path198"
             style="fill:#ffffff;fill-opacity:1;fill-rule:nonzero;stroke:none"
             d="M 0,0 Z" /></g><g
           transform="translate(298.0098,254.9965)"
           id="g200"><path
             inkscape:connector-curvature="0"
             id="path202"
             style="fill:#ffffff;fill-opacity:1;fill-rule:nonzero;stroke:none"
             d="M 0,0 Z" /></g></g></g></g></svg>