<svg xmlns="http://www.w3.org/2000/svg" width="90" height="89.058" viewBox="0 0 90 89.058">
  <g id="mail_1_" data-name="mail(1)" transform="translate(-26.073 -26.073)">
    <g id="Grupo_785" data-name="Grupo 785" transform="translate(26.073 26.073)">
      <g id="Grupo_784" data-name="Grupo 784">
        <path id="Trazado_3176" data-name="Trazado 3176" d="M151.435,130.774,191.567,105H108.432l40.131,25.774A2.717,2.717,0,0,0,151.435,130.774ZM150,141.671a18.456,18.456,0,0,0-18.53,18.335,17.961,17.961,0,0,0,6.165,13.624,18.58,18.58,0,0,0,24.692.033,17.992,17.992,0,0,0,6.2-13.657A18.455,18.455,0,0,0,150,141.671Zm0,26.194a7.858,7.858,0,1,1,7.941-7.858A7.909,7.909,0,0,1,150,167.864Zm0-10.478a2.619,2.619,0,1,0,2.647,2.619A2.635,2.635,0,0,0,150,157.387ZM105,109.04v40.488a7.909,7.909,0,0,0,7.941,7.858h13.5A23.681,23.681,0,0,1,150,136.432a7.976,7.976,0,0,1-4.32-1.264Zm49.317,26.128A7.96,7.96,0,0,1,150,136.432a23.681,23.681,0,0,1,23.556,20.955h13.5A7.909,7.909,0,0,0,195,149.529V109.04Zm-17.552,44.337v11.933a2.614,2.614,0,0,0,1.256,2.228,2.678,2.678,0,0,0,2.574.115l9.4-4.653,9.4,4.653a2.67,2.67,0,0,0,2.575-.115,2.614,2.614,0,0,0,1.256-2.228V179.514a23.552,23.552,0,0,1-26.471-.009Z" transform="translate(-105 -105)" fill="#5669fd"/>
      </g>
    </g>
  </g>
</svg>
